<svg preserveAspectRatio="none" width="100%" height="100%" overflow="visible" style="display: block;" viewBox="0 0 835 464" fill="none" xmlns="http://www.w3.org/2000/svg">
<g id="freepik--background-complete--inject-30">
<path id="Vector" d="M459.177 201.239C459.177 201.239 459.177 200.068 459.177 197.841C459.177 195.613 459.177 192.303 459.177 187.986C459.177 179.364 459.177 166.728 459.089 150.605C459.089 118.397 458.989 72.2945 458.913 16.6766L459.253 17.0164L227.304 17.0794L227.707 16.6766C227.707 83.3073 227.707 146.313 227.707 201.239L227.342 200.887L394.913 201.063L442.375 201.151H454.961H458.196H459.316H458.246H455.037H442.526L395.152 201.239L227.342 201.428H226.989V201.063C226.989 146.099 226.989 83.1311 226.989 16.5004V16.0977H227.405L459.354 16.1732H459.479V16.5004C459.404 72.2064 459.354 118.372 459.303 150.643C459.303 166.728 459.24 179.339 459.228 187.948C459.228 192.227 459.228 195.5 459.228 197.74C459.228 199.98 459.177 201.239 459.177 201.239Z" fill="var(--fill-0, #E0E0E0)"/>
<path id="Vector_2" d="M265.578 50.8856H257.196V144.564H265.578V50.8856Z" fill="var(--fill-0, #E0E0E0)"/>
<path id="Vector_3" d="M281.764 82.7031H273.382V144.564H281.764V82.7031Z" fill="var(--fill-0, #EBEBEB)"/>
<path id="Vector_4" d="M297.963 62.5277H289.581V145.029H297.963V62.5277Z" fill="var(--fill-0, #E0E0E0)"/>
<path id="Vector_5" d="M314.161 54.4978H305.779V144.551H314.161V54.4978Z" fill="var(--fill-0, #EBEBEB)"/>
<path id="Vector_6" d="M330.346 84.6036H321.964V144.564H330.346V84.6036Z" fill="var(--fill-0, #E0E0E0)"/>
<path id="Vector_7" d="M346.544 96.359H338.162V144.551H346.544V96.359Z" fill="var(--fill-0, #EBEBEB)"/>
<path id="Vector_8" d="M362.731 60.5012H354.349V144.564H362.731V60.5012Z" fill="var(--fill-0, #E0E0E0)"/>
<path id="Vector_9" d="M378.929 75.6549H370.547V144.564H378.929V75.6549Z" fill="var(--fill-0, #EBEBEB)"/>
<path id="Vector_10" d="M395.127 63.5471H386.745V144.564H395.127V63.5471Z" fill="var(--fill-0, #E0E0E0)"/>
<path id="Vector_11" d="M411.313 89.3612H402.931V144.551H411.313V89.3612Z" fill="var(--fill-0, #EBEBEB)"/>
<path id="Vector_12" d="M427.511 78.8644H419.129V144.564H427.511V78.8644Z" fill="var(--fill-0, #E0E0E0)"/>
<path id="Vector_13" d="M430.935 151.083C430.935 151.272 391.151 151.423 342.09 151.423C293.03 151.423 253.22 151.272 253.22 151.083C253.22 150.895 293.005 150.744 342.09 150.744C391.176 150.744 430.935 150.895 430.935 151.083Z" fill="var(--fill-0, #E0E0E0)"/>
<path id="Vector_14" d="M269.154 158.459C265.017 158.912 260.843 158.912 256.706 158.459C260.842 157.989 265.018 157.989 269.154 158.459Z" fill="var(--fill-0, #E0E0E0)"/>
<path id="Vector_15" d="M289.807 158.836C287.343 159.176 284.854 159.289 282.369 159.176C279.884 159.29 277.395 159.176 274.931 158.836C277.394 158.488 279.884 158.37 282.369 158.484C284.854 158.371 287.344 158.489 289.807 158.836Z" fill="var(--fill-0, #E0E0E0)"/>
<path id="Vector_16" d="M307.415 158.836C304.951 159.176 302.461 159.29 299.976 159.176C297.492 159.289 295.002 159.175 292.538 158.836C295.001 158.489 297.491 158.371 299.976 158.484C302.461 158.37 304.952 158.488 307.415 158.836Z" fill="var(--fill-0, #E0E0E0)"/>
<path id="Vector_17" d="M325.023 158.836C320.075 159.29 315.095 159.29 310.146 158.836C315.094 158.367 320.075 158.367 325.023 158.836Z" fill="var(--fill-0, #E0E0E0)"/>
<path id="Vector_18" d="M342.643 158.836C337.695 159.29 332.715 159.29 327.767 158.836C332.714 158.367 337.696 158.367 342.643 158.836Z" fill="var(--fill-0, #E0E0E0)"/>
<path id="Vector_19" d="M360.252 158.836C355.303 159.29 350.323 159.29 345.375 158.836C350.323 158.367 355.304 158.367 360.252 158.836Z" fill="var(--fill-0, #E0E0E0)"/>
<path id="Vector_20" d="M377.86 158.836C372.912 159.29 367.932 159.29 362.983 158.836C367.931 158.367 372.912 158.367 377.86 158.836Z" fill="var(--fill-0, #E0E0E0)"/>
<path id="Vector_21" d="M395.467 158.836C390.518 159.29 385.538 159.29 380.59 158.836C385.538 158.367 390.519 158.367 395.467 158.836Z" fill="var(--fill-0, #E0E0E0)"/>
<path id="Vector_22" d="M413.088 158.836C408.135 159.289 403.151 159.289 398.198 158.836C403.15 158.367 408.136 158.367 413.088 158.836Z" fill="var(--fill-0, #E0E0E0)"/>
<path id="Vector_23" d="M430.696 158.836C425.748 159.29 420.768 159.29 415.819 158.836C420.767 158.367 425.748 158.367 430.696 158.836Z" fill="var(--fill-0, #E0E0E0)"/>
<path id="Vector_24" d="M465.748 15.5816H219.778V22.5165H465.748V15.5816Z" fill="var(--fill-0, #EBEBEB)"/>
<path id="Vector_25" d="M683.123 373.618C678.988 371.031 674.317 369.421 669.467 368.911C667.239 368.684 664.797 368.747 663.01 370.106C662.633 370.396 662.255 370.811 662.343 371.277C662.445 371.618 662.669 371.909 662.972 372.095C665.872 374.158 669.28 375.39 672.829 375.659C676.378 375.927 679.933 375.221 683.11 373.618" fill="var(--fill-0, #E0E0E0)"/>
<path id="Vector_26" d="M682.769 373.228C679.613 370.905 676.665 368.311 673.959 365.475C671.246 362.611 669.34 359.081 668.434 355.242C668.254 354.674 668.201 354.073 668.277 353.482C668.353 352.891 668.557 352.323 668.874 351.819C675.897 357.319 681.461 364.405 682.719 373.215" fill="var(--fill-0, #E0E0E0)"/>
<path id="Vector_27" d="M683.046 373.568C682.395 369.73 682.451 365.806 683.21 361.988C683.992 358.139 686.193 354.724 689.377 352.423C690.636 355.267 690.069 358.54 689.213 361.51C687.885 366.105 685.819 370.453 683.096 374.386" fill="var(--fill-0, #E0E0E0)"/>
<path id="Vector_28" d="M689.931 385.94C685.794 386.602 681.967 388.537 678.982 391.478C675.833 394.332 673.636 398.083 672.688 402.226C676.792 401.974 680.24 399.08 682.757 395.832C685.275 392.585 687.037 389.036 689.806 386.003" fill="var(--fill-0, #E0E0E0)"/>
<path id="Vector_29" d="M691.429 387.891C689.787 383.708 689.212 379.181 689.757 374.721C690.302 370.26 691.95 366.005 694.55 362.341C695.798 366.588 696.165 371.044 695.628 375.438C695.091 379.832 693.662 384.069 691.429 387.891Z" fill="var(--fill-0, #E0E0E0)"/>
<path id="Vector_30" d="M700.541 398.727C696.717 398.493 692.909 399.386 689.588 401.297C686.268 403.208 683.582 406.052 681.863 409.476C681.716 409.686 681.626 409.932 681.604 410.189C681.582 410.445 681.628 410.703 681.738 410.936C681.9 411.097 682.101 411.214 682.32 411.278C682.54 411.342 682.773 411.35 682.996 411.301C686.671 411.061 689.931 408.846 692.624 406.329C695.318 403.812 697.659 400.892 700.629 398.715" fill="var(--fill-0, #E0E0E0)"/>
<path id="Vector_31" d="M700.252 398.136C698.287 391.828 698.165 385.09 699.9 378.715C700.592 376.198 701.737 373.58 704.053 372.422C704.145 372.361 704.248 372.32 704.356 372.3C704.464 372.281 704.575 372.284 704.682 372.309C704.872 372.406 705.017 372.573 705.085 372.775C705.859 374.522 706.191 376.432 706.054 378.338C705.923 380.242 705.632 382.133 705.186 383.989C704.456 387.437 704.066 391.138 702.178 394.058C701.716 394.776 701.296 395.519 700.919 396.285C700.554 397.041 700.554 397.305 700.227 397.909" fill="var(--fill-0, #E0E0E0)"/>
<path id="Vector_32" d="M724.354 401.723C723.544 398.178 723.518 394.498 724.277 390.942C725.035 387.386 726.561 384.038 728.747 381.132C728.874 380.904 729.056 380.712 729.275 380.572C729.495 380.431 729.745 380.347 730.005 380.326C730.786 380.402 730.999 381.459 730.962 382.239C730.633 389.224 728.348 395.975 724.367 401.723" fill="var(--fill-0, #E0E0E0)"/>
<path id="Vector_33" d="M726.519 403.208C730.739 404.197 735.122 404.259 739.368 403.39C743.614 402.521 747.621 400.741 751.112 398.173C746.995 396.11 742.291 395.532 737.796 396.537C733.353 397.334 729.338 399.685 726.469 403.17" fill="var(--fill-0, #E0E0E0)"/>
<path id="Vector_34" d="M728.356 398.689C730.795 394.932 734.088 391.804 737.967 389.562C741.845 387.32 746.198 386.027 750.672 385.789C750.063 387.557 749.102 389.183 747.847 390.57C746.593 391.956 745.07 393.074 743.372 393.856C739.962 395.386 736.358 396.441 732.661 396.99C731.239 397.267 729.275 397.569 728.356 398.689Z" fill="var(--fill-0, #E0E0E0)"/>
<path id="Vector_35" d="M724.807 376.739C726.214 372.496 727.171 368.118 727.664 363.675C728.16 359.183 727.245 354.647 725.046 350.699C722.849 354.745 721.666 359.264 721.601 363.867C721.535 368.471 722.588 373.022 724.668 377.129" fill="var(--fill-0, #E0E0E0)"/>
<path id="Vector_36" d="M739.344 369.402C744.378 360.226 754.699 352.889 765.12 351.869C761.093 361.875 750.13 369.616 739.344 369.402Z" fill="var(--fill-0, #E0E0E0)"/>
<path id="Vector_37" d="M736.173 371.201C743.724 372.347 750.118 377.155 757.154 380.012C758.629 380.725 760.264 381.042 761.899 380.93C762.642 380.888 763.356 380.626 763.951 380.179C764.546 379.731 764.995 379.118 765.243 378.416C765.49 377.714 765.525 376.954 765.342 376.233C765.159 375.511 764.767 374.86 764.215 374.36C763.221 373.44 762.053 372.729 760.779 372.271C753.114 369.074 744.895 368.999 736.865 370.937" fill="var(--fill-0, #E0E0E0)"/>
<path id="Vector_38" d="M731.818 376.475C733.517 376.966 734.096 377.847 735.456 378.992C740.056 382.911 745.501 385.712 751.365 387.173C751.969 387.324 752.762 387.387 753.064 386.833C753.366 386.279 753.064 385.776 752.648 385.348C750.096 382.347 746.777 380.093 743.045 378.829C739.37 377.457 736.198 375.808 731.818 376.16" fill="var(--fill-0, #E0E0E0)"/>
<path id="Vector_39" d="M726.896 344.582C729.984 347.428 733.633 349.596 737.608 350.949C741.583 352.301 745.797 352.808 749.979 352.435C750.362 352.44 750.733 352.306 751.024 352.058C751.616 351.429 750.911 350.447 750.231 349.918C743.447 344.632 735.228 342.442 726.896 344.582Z" fill="var(--fill-0, #E0E0E0)"/>
<path id="Vector_40" d="M732.724 342.455C736.811 339.442 741.554 337.44 746.564 336.613C751.574 335.786 756.708 336.157 761.547 337.697C757.776 341.191 752.939 343.314 747.815 343.726C742.746 344.192 737.634 343.766 732.712 342.467" fill="var(--fill-0, #E0E0E0)"/>
<path id="Vector_41" d="M730.408 327.792C729.741 321.021 730.169 315.672 729.703 308.913C729.703 308.372 729.552 307.717 729.036 307.516C728.52 307.314 727.777 308.12 727.513 308.837C726.52 311.995 726.263 315.339 726.763 318.611C727.262 321.884 728.505 324.999 730.395 327.716" fill="var(--fill-0, #E0E0E0)"/>
<path id="Vector_42" d="M729.918 328.547C734.343 325.686 738.159 321.977 741.145 317.635C743.36 314.602 745.223 310.964 744.719 307.251C743.159 307.292 741.627 307.673 740.23 308.366C738.832 309.06 737.602 310.049 736.626 311.266C734.692 313.721 733.286 316.549 732.498 319.573C731.604 322.544 730.975 325.615 729.981 328.547" fill="var(--fill-0, #E0E0E0)"/>
<path id="Vector_43" d="M740.942 325.526C751.052 321.769 760.405 316.227 768.556 309.165C765.258 307.906 761.483 308.636 758.185 309.97C750.697 312.798 744.511 318.281 740.804 325.375" fill="var(--fill-0, #E0E0E0)"/>
<path id="Vector_44" d="M733.026 332.247C738.109 332.971 743.266 332.996 748.356 332.323C753.294 331.296 758.096 329.699 762.666 327.565C763.075 327.45 763.426 327.185 763.648 326.823C763.728 326.603 763.737 326.363 763.674 326.137C763.611 325.911 763.479 325.711 763.295 325.564C762.928 325.276 762.496 325.081 762.037 324.998C756.905 323.752 751.517 324.072 746.569 325.917C741.833 327.531 737.281 329.64 732.988 332.21" fill="var(--fill-0, #E0E0E0)"/>
<path id="Vector_45" d="M703.914 344.808C702.269 341.304 701.396 337.487 701.352 333.615C701.309 329.744 702.097 325.908 703.663 322.367C705.777 325.589 706.041 329.692 705.651 333.531C705.261 337.37 704.09 341.309 704.015 345.161" fill="var(--fill-0, #E0E0E0)"/>
<path id="Vector_46" d="M690.02 337.81C685.665 337.75 681.345 338.6 677.338 340.306C673.331 342.012 669.724 344.535 666.748 347.716C671.136 348.241 675.579 347.415 679.485 345.35C683.368 343.299 687.029 340.852 690.41 338.05" fill="var(--fill-0, #E0E0E0)"/>
<path id="Vector_47" d="M680.68 334.676C676.426 334.337 672.336 333.808 668.258 335.067C666.196 335.643 664.283 336.657 662.649 338.041C661.016 339.425 659.7 341.145 658.793 343.084C662.8 343.411 666.821 342.654 670.435 340.894C674.029 339.131 677.457 337.05 680.68 334.676Z" fill="var(--fill-0, #E0E0E0)"/>
<path id="Vector_48" d="M694.512 334.828C690.736 332.31 686.759 329.793 682.316 328.736C677.874 327.679 672.701 328.459 669.604 331.82C673.204 333.934 677.571 334.186 681.75 334.173C685.929 334.161 691.051 334.173 694.978 335.52" fill="var(--fill-0, #E0E0E0)"/>
<path id="Vector_49" d="M694.525 335.029C687.993 328.61 685.513 317.081 688.144 308.321C693.305 316.214 695.561 325.656 694.525 335.029Z" fill="var(--fill-0, #E0E0E0)"/>
<path id="Vector_50" d="M712.461 316.855C713.719 313.985 714.55 310.977 715.658 308.044C716.669 305.088 718.218 302.345 720.226 299.952C722.27 297.547 725.176 296.042 728.319 295.76C727.314 300.179 725.397 304.34 722.693 307.977C719.988 311.613 716.555 314.645 712.612 316.88" fill="var(--fill-0, #E0E0E0)"/>
<path id="Vector_51" d="M709.238 320.643C707.199 317.836 704.846 314.023 702.089 311.921C700.745 310.821 699.177 310.026 697.495 309.591C695.813 309.157 694.057 309.093 692.348 309.404C694.086 312.478 696.518 315.103 699.45 317.069C702.383 319.036 705.735 320.29 709.238 320.731" fill="var(--fill-0, #E0E0E0)"/>
<path id="Vector_52" d="M709.943 317.081C708.463 313.738 707.365 310.237 706.67 306.647C705.997 303.027 706.574 299.286 708.307 296.037C711.894 302.809 713.051 310.083 710.081 317.157" fill="var(--fill-0, #E0E0E0)"/>
<path id="Vector_53" d="M712.523 296.037C714.562 289.316 720.717 284.357 727.363 282.092C728.182 281.752 729.072 281.618 729.955 281.702C730.397 281.749 730.814 281.926 731.155 282.21C731.495 282.495 731.744 282.874 731.868 283.3C732.12 284.445 731.176 285.465 730.282 286.233C725.085 290.666 719.044 294.001 712.523 296.037Z" fill="var(--fill-0, #E0E0E0)"/>
<path id="Vector_54" d="M712.599 290.537C712.665 286.19 713.317 281.872 714.537 277.699C715.947 273.596 718.665 269.745 722.617 267.945C723.284 272.325 721.359 276.68 719.03 280.443C716.702 284.206 713.895 287.768 712.498 291.959" fill="var(--fill-0, #E0E0E0)"/>
<path id="Vector_55" d="M712.46 293.52C710.774 288.624 710.61 282.394 707.677 278.127C705.626 275.144 702.341 273.093 700.566 269.959C699.506 272.989 699.655 276.312 700.982 279.235C702.318 282.123 704.155 284.752 706.406 287C708.584 289.329 710.434 291.066 712.46 293.52Z" fill="var(--fill-0, #E0E0E0)"/>
<path id="Vector_56" d="M712.523 437.757C712.397 437.757 712.284 405.033 712.271 364.757C712.259 324.482 712.36 291.758 712.498 291.758C712.636 291.758 712.737 324.482 712.75 364.757C712.762 405.033 712.662 437.757 712.523 437.757Z" fill="var(--fill-0, #E0E0E0)"/>
<path id="Vector_57" d="M741.081 339.887C740.675 340.075 740.254 340.226 739.822 340.34L736.449 341.486C733.592 342.455 729.678 343.864 725.424 345.601C721.17 347.338 717.255 348.874 714.99 350.837C714.088 351.585 713.373 352.533 712.901 353.606C712.573 354.374 712.51 354.865 712.473 354.865C712.435 354.865 712.473 354.739 712.473 354.525C712.519 354.198 712.599 353.878 712.712 353.568C713.14 352.428 713.845 351.411 714.763 350.611C716.126 349.459 717.648 348.509 719.282 347.791C721.094 346.948 723.058 346.067 725.235 345.199C729.502 343.449 733.441 342.09 736.323 341.196C737.771 340.743 738.941 340.416 739.759 340.189C740.187 340.037 740.63 339.936 741.081 339.887Z" fill="var(--fill-0, #E0E0E0)"/>
<path id="Vector_58" d="M750.445 316.892C750.338 317.024 750.221 317.146 750.093 317.257L749.048 318.252L745.184 321.751L732.157 333.355C727.123 337.873 722.68 342.165 719.571 345.463C718.036 347.086 716.84 348.433 716.022 349.377L715.078 350.46C714.851 350.699 714.738 350.825 714.726 350.812C714.796 350.66 714.89 350.52 715.003 350.397C715.204 350.132 715.481 349.742 715.883 349.251C716.664 348.282 717.822 346.898 719.32 345.236C723.254 340.941 727.413 336.858 731.78 333.003C736.814 328.484 741.521 324.431 744.894 321.499L748.909 318.063L750.017 317.144C750.148 317.042 750.292 316.957 750.445 316.892Z" fill="var(--fill-0, #E0E0E0)"/>
<path id="Vector_59" d="M726.62 337.999C726.481 337.999 727.538 335.482 728.608 332.386C729.678 329.29 730.169 326.672 730.307 326.697C730.199 328.698 729.775 330.669 729.049 332.537C728.599 333.876 728.07 335.188 727.463 336.464C727.26 337.015 726.976 337.533 726.62 337.999Z" fill="var(--fill-0, #E0E0E0)"/>
<path id="Vector_60" d="M712.56 357.785C712.272 357.5 712.007 357.193 711.767 356.866L709.766 354.349C708.08 352.171 705.751 349.163 703.133 345.866C700.515 342.568 698.099 339.573 696.374 337.483L694.323 334.966C694.054 334.669 693.818 334.344 693.618 333.997C693.925 334.256 694.207 334.542 694.461 334.853C694.99 335.419 695.72 336.25 696.639 337.294C698.439 339.371 700.893 342.329 703.511 345.601C706.129 348.874 708.407 351.894 710.03 354.172C710.848 355.293 711.49 356.199 711.918 356.841C712.166 357.131 712.381 357.447 712.56 357.785Z" fill="var(--fill-0, #E0E0E0)"/>
<path id="Vector_61" d="M706.293 349.742C705.029 348.346 704.13 346.66 703.675 344.834C703.18 343.234 702.98 341.558 703.083 339.887H703.285C703.196 340.265 703.121 340.466 703.083 340.466C703.045 340.466 703.083 340.24 703.083 339.849H703.285C703.389 341.478 703.672 343.09 704.128 344.657C704.719 346.405 705.443 348.105 706.293 349.742Z" fill="var(--fill-0, #E0E0E0)"/>
<path id="Vector_62" d="M698.213 339.573C697.647 339.151 697.035 338.796 696.388 338.515C694.756 338.03 693.041 337.893 691.353 338.113C689.627 338.247 687.913 338.52 686.231 338.931C685.542 339.148 684.84 339.32 684.129 339.447C684.751 339.063 685.431 338.783 686.143 338.616C687.824 338.095 689.56 337.765 691.316 337.634C693.085 337.402 694.885 337.596 696.564 338.201C697.252 338.461 697.832 338.944 698.213 339.573Z" fill="var(--fill-0, #E0E0E0)"/>
<path id="Vector_63" d="M696.3 337.118C696.3 337.181 695.23 336.69 693.493 336.086C691.229 335.322 688.878 334.84 686.496 334.651C684.111 334.474 681.714 334.597 679.359 335.016C677.547 335.344 676.452 335.671 676.427 335.595C676.658 335.456 676.908 335.351 677.169 335.281C677.865 335.039 678.576 334.842 679.296 334.689C681.671 334.169 684.109 334 686.533 334.186C688.958 334.364 691.342 334.903 693.607 335.784C694.292 336.044 694.961 336.346 695.608 336.69C696.099 336.929 696.313 337.08 696.3 337.118Z" fill="var(--fill-0, #E0E0E0)"/>
<path id="Vector_64" d="M712.46 326.697C711.628 324.372 710.943 321.997 710.408 319.586C709.723 317.215 709.193 314.802 708.822 312.361C709.656 314.686 710.341 317.061 710.874 319.473C711.552 321.845 712.081 324.258 712.46 326.697Z" fill="var(--fill-0, #E0E0E0)"/>
<path id="Vector_65" d="M712.624 326.697C711.974 325.225 711.217 323.803 710.359 322.443C709.398 321.156 708.277 319.997 707.023 318.994C707.491 319.111 707.923 319.34 708.282 319.661C709.231 320.358 710.056 321.209 710.724 322.179C711.74 323.493 712.395 325.051 712.624 326.697Z" fill="var(--fill-0, #E0E0E0)"/>
<path id="Vector_66" d="M712.523 420.337C712.523 420.337 712.385 419.557 712.007 418.16C711.467 416.21 710.738 414.317 709.83 412.509C706.686 406.582 702.794 401.083 698.251 396.147C695.658 393.189 693.153 390.408 691.014 387.739C689.11 385.388 687.386 382.897 685.854 380.288C684.824 378.527 683.952 376.678 683.248 374.763C683.009 374.071 682.833 373.505 682.732 373.177C682.671 372.992 682.625 372.803 682.594 372.611C682.594 372.611 682.883 373.354 683.412 374.688C684.189 376.564 685.101 378.381 686.143 380.125C687.702 382.693 689.443 385.145 691.354 387.463C693.493 390.106 696.01 392.875 698.603 395.845C703.18 400.803 707.059 406.363 710.132 412.37C711.026 414.212 711.718 416.145 712.196 418.135C712.32 418.675 712.417 419.221 712.486 419.771C712.522 419.957 712.535 420.148 712.523 420.337Z" fill="var(--fill-0, #E0E0E0)"/>
<path id="Vector_67" d="M738.324 391.201C737.889 391.476 737.439 391.728 736.977 391.956C735.753 392.643 734.58 393.417 733.466 394.272C731.812 395.57 730.26 396.992 728.822 398.526C727.211 400.237 725.537 402.213 723.787 404.341C720.389 408.607 717.217 412.383 715.317 415.391C714.348 416.889 713.643 418.147 713.177 419.028C712.966 419.501 712.718 419.955 712.435 420.388C712.464 420.258 712.506 420.132 712.56 420.01C712.661 419.758 712.8 419.393 713.014 418.94C713.61 417.643 714.283 416.383 715.027 415.165C717.612 411.287 720.415 407.56 723.422 404.001C725.121 401.861 726.808 399.885 728.457 398.173C729.912 396.656 731.49 395.263 733.176 394.007C734.321 393.17 735.534 392.429 736.801 391.792C737.254 391.566 737.619 391.427 737.858 391.326C738.098 391.226 738.324 391.175 738.324 391.201Z" fill="var(--fill-0, #E0E0E0)"/>
<path id="Vector_68" d="M738.892 400.653C737.951 400.859 736.996 400.998 736.035 401.068C733.741 401.301 731.475 401.748 729.264 402.402C727.076 403.113 725.025 404.19 723.197 405.586C721.788 406.669 721.133 407.563 721.07 407.512C721.007 407.462 721.184 407.248 721.486 406.845C721.941 406.296 722.442 405.786 722.983 405.322C724.793 403.817 726.873 402.673 729.113 401.949C731.357 401.272 733.671 400.85 736.01 400.691C736.967 400.588 737.932 400.575 738.892 400.653Z" fill="var(--fill-0, #E0E0E0)"/>
<path id="Vector_69" d="M721.837 406.468C721.686 406.379 722.983 404.416 723.977 401.773C724.971 399.13 725.135 396.739 725.298 396.739C725.391 397.246 725.391 397.766 725.298 398.274C725.167 399.507 724.888 400.72 724.468 401.886C724.042 403.047 723.489 404.157 722.819 405.196C722.568 405.674 722.235 406.104 721.837 406.468Z" fill="var(--fill-0, #E0E0E0)"/>
<path id="Vector_70" d="M746.682 365.802C746.543 365.902 746.39 365.982 746.229 366.041L744.882 366.658C744.291 366.91 743.624 367.224 742.781 367.652C741.937 368.08 741.031 368.495 740.049 369.087L738.489 369.968C737.947 370.283 737.406 370.648 736.84 371.013C735.695 371.705 734.537 372.561 733.316 373.442C730.703 375.42 728.238 377.587 725.94 379.924C723.685 382.284 721.607 384.808 719.723 387.475C718.88 388.734 718.061 389.917 717.407 391.087C717.067 391.666 716.715 392.208 716.425 392.761L715.595 394.347C715.041 395.354 714.638 396.311 714.248 397.129C713.858 397.947 713.556 398.677 713.329 399.268L712.763 400.628C712.712 400.794 712.636 400.951 712.536 401.093C712.567 400.926 712.614 400.762 712.675 400.602C712.8 400.237 712.964 399.772 713.153 399.205C713.342 398.639 713.631 397.859 714.009 397.028C714.386 396.197 714.751 395.216 715.267 394.196C715.532 393.693 715.796 393.151 716.085 392.585C716.375 392.019 716.715 391.478 717.042 390.886C717.696 389.703 718.502 388.495 719.333 387.223C723.062 381.758 727.692 376.966 733.026 373.052C734.285 372.183 735.443 371.327 736.613 370.648C737.18 370.295 737.733 369.93 738.275 369.616L739.861 368.76C740.855 368.181 741.811 367.765 742.642 367.375C743.473 366.985 744.19 366.67 744.782 366.444L746.166 365.915C746.334 365.859 746.507 365.821 746.682 365.802Z" fill="var(--fill-0, #E0E0E0)"/>
<path id="Vector_71" d="M726.306 379.496C726.496 378.835 726.888 378.25 727.426 377.822C728.683 376.733 730.281 376.119 731.944 376.085C733.58 376.078 735.201 376.394 736.714 377.016C737.356 377.215 737.963 377.512 738.514 377.897C737.862 377.76 737.222 377.571 736.601 377.331C735.109 376.825 733.545 376.565 731.969 376.563C730.402 376.592 728.885 377.121 727.64 378.073C727.162 378.516 726.716 378.991 726.306 379.496Z" fill="var(--fill-0, #E0E0E0)"/>
<path id="Vector_72" d="M723.209 382.642C723.815 381.312 724.238 379.907 724.468 378.464C724.563 377.006 724.466 375.541 724.178 374.109C724.178 374.109 724.493 374.524 724.719 375.367C724.988 376.415 725.065 377.502 724.946 378.577C724.817 379.646 724.492 380.683 723.989 381.635C723.612 382.302 723.259 382.68 723.209 382.642Z" fill="var(--fill-0, #E0E0E0)"/>
<path id="Vector_73" d="M689.957 425.019C690.662 437.505 694.425 450.192 700.215 463.042H725.387C730.9 450.33 734.411 437.656 735.028 425.019H689.957Z" fill="var(--fill-0, #E0E0E0)"/>
<path id="Vector_74" d="M730.949 445.22C730.949 445.359 722.668 445.459 712.448 445.459C702.228 445.459 693.934 445.359 693.934 445.22C693.934 445.082 702.215 444.994 712.448 444.994C722.68 444.994 730.949 445.094 730.949 445.22Z" fill="var(--fill-0, #FAFAFA)"/>
<path id="Vector_75" d="M730.383 449.751C730.383 449.877 722.618 449.99 713.04 449.99C703.462 449.99 695.683 449.877 695.683 449.751C695.683 449.625 703.449 449.512 713.04 449.512C722.63 449.512 730.383 449.613 730.383 449.751Z" fill="var(--fill-0, #FAFAFA)"/>
<path id="Vector_76" d="M700.617 433.213C700.936 437.075 700.936 440.956 700.617 444.817C700.315 440.955 700.315 437.075 700.617 433.213Z" fill="var(--fill-0, #FAFAFA)"/>
<path id="Vector_77" d="M714.109 433.213C714.428 437.209 714.428 441.224 714.109 445.22C713.79 441.224 713.79 437.209 714.109 433.213Z" fill="var(--fill-0, #FAFAFA)"/>
<path id="Vector_78" d="M726.77 433.112C727.072 437.189 727.072 441.282 726.77 445.359C726.452 441.283 726.452 437.188 726.77 433.112Z" fill="var(--fill-0, #FAFAFA)"/>
<path id="Vector_79" d="M734.234 433.213C734.234 433.351 724.505 433.452 712.523 433.452C700.542 433.452 690.812 433.351 690.812 433.213C690.812 433.075 700.529 432.986 712.523 432.986C724.518 432.986 734.234 433.087 734.234 433.213Z" fill="var(--fill-0, #FAFAFA)"/>
<path id="Vector_80" d="M207.595 247.216C207.595 247.216 199.729 246.65 200.459 264.283C200.691 273.345 201.532 282.381 202.976 291.33C202.976 291.33 202.737 295.244 199.704 294.477C196.671 293.709 190.982 289.895 188.162 292.74C185.343 295.584 186.363 300.216 190.139 305.552C193.914 310.889 202.07 322.883 202.8 323.966C203.53 325.048 203.794 327.037 201.642 326.848C199.49 326.659 185.003 321.738 183.078 328.761C181.152 335.784 194.405 348.899 195.802 350.309C197.199 351.718 197.3 352.687 196.734 353.568C196.167 354.449 191.435 352.31 187.256 351.114C183.078 349.918 178.018 349.201 177.187 353.342C176.357 357.483 182.222 369.603 204.071 382.29L214.568 387.526L224.499 381.233C244.938 366.368 249.52 353.732 248.349 349.692C247.179 345.652 242.195 346.835 238.167 348.433C234.139 350.032 229.646 352.65 228.979 351.831C228.312 351.013 228.312 350.095 229.571 348.496C230.829 346.898 242.698 332.562 240.08 325.778C237.462 318.994 223.542 325.325 221.415 325.778C219.288 326.231 219.389 324.167 219.98 323.034C220.572 321.902 227.406 309.19 230.729 303.438C234.051 297.686 234.63 293.143 231.433 290.499C228.237 287.856 223.051 292.312 220.106 293.369C217.161 294.426 216.544 290.575 216.544 290.575C217.086 281.527 217.022 272.453 216.355 263.414C215.311 245.794 207.356 247.216 207.356 247.216" fill="var(--fill-0, #EBEBEB)"/>
<path id="Vector_81" d="M208.224 263.011V263.376C208.224 263.641 208.224 264.006 208.312 264.459C208.375 265.44 208.463 266.838 208.589 268.625C208.828 272.25 209.143 277.435 209.495 283.955C210.213 296.906 211.056 314.803 211.924 334.563C212.793 354.323 213.586 372.233 214.228 385.184C214.555 391.654 214.819 396.89 215.008 400.527C215.096 402.327 215.172 403.724 215.222 404.693C215.222 405.159 215.222 405.524 215.222 405.775C215.23 405.901 215.23 406.027 215.222 406.153C215.214 406.031 215.214 405.909 215.222 405.788C215.222 405.524 215.222 405.159 215.134 404.706C215.134 403.724 214.97 402.327 214.857 400.54C214.618 396.915 214.303 391.729 213.951 385.21C213.221 372.259 212.39 354.361 211.522 334.588C210.653 314.816 209.86 296.931 209.218 283.98C208.891 277.511 208.614 272.275 208.438 268.637C208.35 266.838 208.274 265.44 208.224 264.471C208.224 264.006 208.224 263.641 208.224 263.389C208.216 263.263 208.216 263.137 208.224 263.011Z" fill="var(--fill-0, #E0E0E0)"/>
<path id="Vector_82" d="M195.939 298.391C196.178 298.544 196.398 298.726 196.594 298.932C196.997 299.297 197.563 299.851 198.255 300.531C199.64 301.902 201.503 303.853 203.516 306.031L208.651 311.657L210.212 313.343C210.423 313.538 210.608 313.758 210.766 313.998C210.766 313.998 210.514 313.821 210.099 313.456C209.683 313.091 209.13 312.538 208.45 311.845C207.078 310.461 205.241 308.498 203.227 306.308L198.054 300.732L196.43 299.096C196.239 298.881 196.074 298.645 195.939 298.391Z" fill="var(--fill-0, #E0E0E0)"/>
<path id="Vector_83" d="M211.799 313.645C211.723 313.57 215.575 309.555 220.37 304.671C225.165 299.788 229.18 295.861 229.18 295.974C229.18 296.088 225.404 300.077 220.609 304.961C215.814 309.844 211.887 313.733 211.799 313.645Z" fill="var(--fill-0, #E0E0E0)"/>
<path id="Vector_84" d="M211.761 344.066C211.986 343.883 212.23 343.727 212.491 343.6L214.542 342.455C216.279 341.473 218.671 340.126 221.251 338.54C223.831 336.955 226.122 335.444 227.77 334.337L229.734 333.078C229.966 332.903 230.215 332.752 230.476 332.625C230.476 332.625 230.262 332.852 229.822 333.204C229.381 333.556 228.739 334.035 227.934 334.614C226.323 335.784 224.045 337.332 221.452 338.918C218.859 340.504 216.418 341.825 214.681 342.694C213.787 343.147 213.07 343.499 212.566 343.726C212.314 343.875 212.043 343.989 211.761 344.066Z" fill="var(--fill-0, #E0E0E0)"/>
<path id="Vector_85" d="M194.366 333.431C194.626 333.504 194.873 333.619 195.096 333.77C195.549 334.009 196.204 334.375 196.997 334.828C198.595 335.734 200.773 337.005 203.202 338.44C205.631 339.875 207.783 341.196 209.344 342.216C210.124 342.694 210.753 343.097 211.181 343.386C211.415 343.512 211.631 343.669 211.823 343.852C211.567 343.768 211.322 343.654 211.093 343.512C210.64 343.273 209.998 342.908 209.193 342.455C207.594 341.549 205.417 340.277 202.988 338.843C200.559 337.408 198.419 336.086 196.858 335.067C196.078 334.576 195.449 334.186 195.021 333.896C194.785 333.767 194.566 333.611 194.366 333.431Z" fill="var(--fill-0, #E0E0E0)"/>
<path id="Vector_86" d="M190.919 360.277C191.238 360.394 191.546 360.541 191.838 360.717L194.355 362.064C196.406 363.222 199.226 364.833 202.334 366.645C205.443 368.458 208.237 370.106 210.264 371.327L212.642 372.787C212.941 372.953 213.224 373.147 213.486 373.366C213.161 373.246 212.849 373.094 212.554 372.913L210.113 371.566C208.061 370.421 205.242 368.797 202.133 366.998C199.024 365.198 196.23 363.524 194.204 362.316L191.825 360.856C191.504 360.694 191.201 360.5 190.919 360.277Z" fill="var(--fill-0, #E0E0E0)"/>
<path id="Vector_87" d="M212.969 372.901C213.256 372.668 213.563 372.461 213.888 372.284L216.405 370.736C218.557 369.477 221.527 367.602 224.749 365.5C227.971 363.398 230.841 361.435 232.918 359.987L235.435 358.288C235.722 358.062 236.029 357.864 236.354 357.697C236.105 357.967 235.826 358.207 235.523 358.414C234.969 358.842 234.164 359.471 233.144 360.214C231.118 361.724 228.261 363.738 225.039 365.84C221.817 367.942 218.809 369.729 216.619 370.975C215.511 371.604 214.618 372.095 214.001 372.422C213.672 372.613 213.327 372.773 212.969 372.901Z" fill="var(--fill-0, #E0E0E0)"/>
<path id="Vector_88" d="M228.752 391.012H199.703L209.181 462.765H219.262L228.752 391.012Z" fill="var(--fill-0, #E0E0E0)"/>
<path id="Vector_89" d="M201.214 399.784C201.214 399.784 201.214 399.885 201.365 400.036C201.557 400.257 201.799 400.429 202.07 400.54C202.576 400.716 203.117 400.774 203.649 400.709C204.182 400.643 204.692 400.456 205.141 400.162C206.311 399.52 207.331 398.249 208.917 397.645C210.659 397.092 212.535 397.132 214.253 397.758C216.002 398.355 217.671 399.162 219.225 400.162C220.523 400.974 221.873 401.701 223.265 402.339C224.216 402.759 225.219 403.047 226.248 403.195C226.527 403.235 226.809 403.256 227.091 403.258C227.191 403.277 227.293 403.277 227.393 403.258C226.013 403.019 224.671 402.596 223.403 402C222.041 401.335 220.721 400.586 219.451 399.759C217.888 398.708 216.196 397.862 214.417 397.242C212.599 396.581 210.61 396.558 208.778 397.179C208.008 397.477 207.293 397.902 206.664 398.438C206.136 398.891 205.582 399.312 205.002 399.696C204.592 399.975 204.128 400.162 203.639 400.247C203.151 400.332 202.65 400.311 202.17 400.187C201.83 400.111 201.506 399.975 201.214 399.784Z" fill="var(--fill-0, #F5F5F5)"/>
<path id="Vector_90" d="M202.271 413.05C202.271 413.05 202.497 412.761 202.95 412.282C203.608 411.626 204.403 411.123 205.279 410.81C206.572 410.341 207.945 410.136 209.319 410.206C211.009 410.332 212.69 410.559 214.353 410.885C216.057 411.216 217.801 411.288 219.526 411.099C220.936 410.921 222.311 410.53 223.604 409.941C224.472 409.55 225.291 409.06 226.046 408.481C226.337 408.289 226.6 408.056 226.826 407.789C225.749 408.481 224.627 409.1 223.466 409.639C222.189 410.163 220.847 410.51 219.476 410.671C217.794 410.826 216.099 410.741 214.442 410.42C212.755 410.084 211.048 409.865 209.332 409.765C207.903 409.712 206.479 409.961 205.153 410.495C204.255 410.854 203.456 411.424 202.825 412.156C202.654 412.353 202.506 412.569 202.384 412.798C202.296 412.962 202.258 413.038 202.271 413.05Z" fill="var(--fill-0, #F5F5F5)"/>
<path id="Vector_91" d="M225.454 420.123C225.219 419.935 224.95 419.793 224.661 419.708C223.884 419.423 223.07 419.25 222.244 419.192C221.028 419.122 219.807 419.193 218.607 419.406C217.26 419.62 215.8 419.998 214.277 420.312C212.864 420.651 211.414 420.816 209.96 420.803C208.778 420.776 207.612 420.524 206.524 420.061C205.528 419.607 204.64 418.946 203.919 418.122C204.024 418.408 204.191 418.666 204.41 418.877C204.958 419.505 205.631 420.011 206.386 420.363C207.498 420.891 208.705 421.191 209.935 421.244C211.43 421.28 212.923 421.124 214.378 420.778C215.914 420.451 217.361 420.073 218.683 419.834C219.851 419.602 221.041 419.501 222.232 419.532C223.326 419.594 224.409 419.793 225.454 420.123Z" fill="var(--fill-0, #F5F5F5)"/>
<path id="Vector_92" d="M204.839 430.079C205.726 429.69 206.712 429.589 207.659 429.79C208.677 430.046 209.665 430.413 210.604 430.885C211.808 431.469 213.109 431.827 214.443 431.942C216.871 432.159 219.305 431.594 221.39 430.331C222.008 429.974 222.586 429.552 223.114 429.072C223.312 428.89 223.486 428.682 223.63 428.455C222.855 429.047 222.048 429.598 221.214 430.104C219.162 431.241 216.818 431.74 214.48 431.539C211.724 431.375 209.622 429.739 207.709 429.525C206.975 429.396 206.22 429.462 205.519 429.714C205.028 429.84 204.827 430.054 204.839 430.079Z" fill="var(--fill-0, #F5F5F5)"/>
<path id="Vector_93" d="M206.5 443.836C207.335 443.858 208.165 443.695 208.929 443.357C210.389 442.866 212.189 441.746 214.303 440.903C215.284 440.506 216.329 440.288 217.387 440.261C218.259 440.251 219.121 440.445 219.904 440.828C220.607 441.211 221.22 441.738 221.704 442.376C221.704 442.376 221.704 442.124 221.427 441.759C221.078 441.239 220.613 440.808 220.068 440.5C219.261 440.055 218.359 439.809 217.437 439.783C216.32 439.788 215.214 440.006 214.178 440.425C211.988 441.293 210.238 442.451 208.841 443.005C207.444 443.559 206.5 443.836 206.5 443.836Z" fill="var(--fill-0, #F5F5F5)"/>
<path id="Vector_94" d="M207.884 450.255C208.462 450.547 209.082 450.746 209.721 450.846C211.232 451.216 212.767 451.477 214.315 451.626C215.863 451.778 217.418 451.824 218.972 451.765C219.621 451.77 220.268 451.694 220.898 451.538C220.898 451.387 217.953 451.538 214.366 451.148C210.779 450.758 207.909 450.129 207.884 450.255Z" fill="var(--fill-0, #F5F5F5)"/>
<path id="Vector_95" d="M659.637 43.2583H528.439V160.636H659.637V43.2583Z" fill="var(--fill-0, #FAFAFA)"/>
<path id="Vector_96" d="M659.598 160.649C659.598 160.649 659.598 159.894 659.598 158.471C659.598 157.049 659.598 154.922 659.598 152.178C659.598 146.666 659.598 138.61 659.523 128.353C659.523 107.85 659.435 78.5371 659.372 43.2709L659.674 43.5729L528.451 43.5981L528.804 43.2457C528.804 85.9503 528.804 126.138 528.804 160.624L528.502 160.309L623.388 160.472L650.159 160.548H657.245H659.07H657.27H650.247L623.552 160.624L528.464 160.775H528.149V160.649C528.149 126.163 528.149 85.9754 528.149 43.2709V42.9185H528.514H659.699H660.001V43.2205C660.001 78.5622 659.888 107.938 659.85 128.491C659.85 138.724 659.85 146.754 659.775 152.254C659.775 154.972 659.775 157.062 659.775 158.484C659.775 159.906 659.598 160.649 659.598 160.649Z" fill="var(--fill-0, #E0E0E0)"/>
<path id="Vector_97" d="M578.746 64.1135C578.746 64.3023 571.836 64.4659 563.315 64.4659C554.795 64.4659 547.897 64.3023 547.897 64.1135C547.897 63.9247 554.795 63.7611 563.315 63.7611C571.836 63.7611 578.746 63.9247 578.746 64.1135Z" fill="var(--fill-0, #E0E0E0)"/>
<path id="Vector_98" d="M634.339 72.9238C634.339 73.1252 615.359 73.2762 591.961 73.2762C568.564 73.2762 549.597 73.1252 549.597 72.9238C549.597 72.7224 568.564 72.5714 591.961 72.5714C615.359 72.5714 634.339 72.735 634.339 72.9238Z" fill="var(--fill-0, #E0E0E0)"/>
<path id="Vector_99" d="M553.649 87.8509H548.124V93.3762H553.649V87.8509Z" fill="var(--fill-0, #E0E0E0)"/>
<path id="Vector_100" d="M567.254 87.851H561.729V93.3762H567.254V87.851Z" fill="var(--fill-0, #E0E0E0)"/>
<path id="Vector_101" d="M581.112 87.5991H575.587V93.1244H581.112V87.5991Z" fill="var(--fill-0, #E0E0E0)"/>
<path id="Vector_102" d="M594.466 87.851H588.94V93.3762H594.466V87.851Z" fill="var(--fill-0, #E0E0E0)"/>
<path id="Vector_103" d="M608.072 87.851H602.547V93.3762H608.072V87.851Z" fill="var(--fill-0, #E0E0E0)"/>
<path id="Vector_104" d="M621.677 87.8509H616.151V93.3762H621.677V87.8509Z" fill="var(--fill-0, #E0E0E0)"/>
<path id="Vector_105" d="M635.283 87.8509H629.758V93.3762H635.283V87.8509Z" fill="var(--fill-0, #EBEBEB)"/>
<path id="Vector_106" d="M553.649 99.6063H548.124V105.132H553.649V99.6063Z" fill="var(--fill-0, #EBEBEB)"/>
<path id="Vector_107" d="M567.254 99.6063H561.729V105.132H567.254V99.6063Z" fill="var(--fill-0, #E0E0E0)"/>
<path id="Vector_108" d="M580.86 99.6063H575.335V105.132H580.86V99.6063Z" fill="var(--fill-0, #EBEBEB)"/>
<path id="Vector_109" d="M594.466 99.6063H588.94V105.132H594.466V99.6063Z" fill="var(--fill-0, #E0E0E0)"/>
<path id="Vector_110" d="M608.072 99.6063H602.547V105.132H608.072V99.6063Z" fill="var(--fill-0, #E0E0E0)"/>
<path id="Vector_111" d="M621.929 99.3546H616.403V104.88H621.929V99.3546Z" fill="var(--fill-0, #E0E0E0)"/>
<path id="Vector_112" d="M635.283 99.6063H629.758V105.132H635.283V99.6063Z" fill="var(--fill-0, #E0E0E0)"/>
<path id="Vector_113" d="M553.649 111.362H548.124V116.887H553.649V111.362Z" fill="var(--fill-0, #E0E0E0)"/>
<path id="Vector_114" d="M567.506 111.11H561.98V116.635H567.506V111.11Z" fill="var(--fill-0, #E0E0E0)"/>
<path id="Vector_115" d="M580.86 111.362H575.335V116.887H580.86V111.362Z" fill="var(--fill-0, #E0E0E0)"/>
<path id="Vector_116" d="M594.466 111.362H588.94V116.887H594.466V111.362Z" fill="var(--fill-0, #EBEBEB)"/>
<path id="Vector_117" d="M608.072 111.362H602.547V116.887H608.072V111.362Z" fill="var(--fill-0, #E0E0E0)"/>
<path id="Vector_118" d="M621.677 111.362H616.151V116.887H621.677V111.362Z" fill="var(--fill-0, #E0E0E0)"/>
<path id="Vector_119" d="M635.283 111.362H629.758V116.887H635.283V111.362Z" fill="var(--fill-0, #E0E0E0)"/>
<path id="Vector_120" d="M553.649 123.104H548.124V128.63H553.649V123.104Z" fill="var(--fill-0, #E0E0E0)"/>
<path id="Vector_121" d="M567.254 123.104H561.729V128.63H567.254V123.104Z" fill="var(--fill-0, #E0E0E0)"/>
<path id="Vector_122" d="M580.86 123.104H575.335V128.63H580.86V123.104Z" fill="var(--fill-0, #E0E0E0)"/>
<path id="Vector_123" d="M594.718 122.853H589.192V128.378H594.718V122.853Z" fill="var(--fill-0, #E0E0E0)"/>
<path id="Vector_124" d="M608.072 123.104H602.547V128.63H608.072V123.104Z" fill="var(--fill-0, #E0E0E0)"/>
<path id="Vector_125" d="M621.677 123.104H616.151V128.63H621.677V123.104Z" fill="var(--fill-0, #EBEBEB)"/>
<path id="Vector_126" d="M635.283 123.104H629.758V128.63H635.283V123.104Z" fill="var(--fill-0, #E0E0E0)"/>
<path id="Vector_127" d="M553.649 134.86H548.124V140.385H553.649V134.86Z" fill="var(--fill-0, #E0E0E0)"/>
<path id="Vector_128" d="M567.254 134.86H561.729V140.385H567.254V134.86Z" fill="var(--fill-0, #EBEBEB)"/>
<path id="Vector_129" d="M580.86 134.86H575.335V140.385H580.86V134.86Z" fill="var(--fill-0, #E0E0E0)"/>
<path id="Vector_130" d="M594.466 134.86H588.94V140.385H594.466V134.86Z" fill="var(--fill-0, #E0E0E0)"/>
<path id="Vector_131" d="M608.072 134.86H602.547V140.385H608.072V134.86Z" fill="var(--fill-0, #E0E0E0)"/>
<path id="Vector_132" d="M621.929 134.608H616.403V140.133H621.929V134.608Z" fill="var(--fill-0, #E0E0E0)"/>
<path id="Vector_133" d="M635.283 134.86H629.758V140.385H635.283V134.86Z" fill="var(--fill-0, #E0E0E0)"/>
<path id="Vector_134" d="M834.785 0H724.896V181.894H834.785V0Z" fill="var(--fill-0, #E0E0E0)"/>
<path id="Vector_135" d="M831.134 0H721.245V181.894H831.134V0Z" fill="var(--fill-0, #EBEBEB)"/>
<path id="Vector_136" d="M826.452 3.68779H725.927V178.206H826.452V3.68779Z" fill="var(--fill-0, #FAFAFA)"/>
<path id="Vector_137" d="M806.868 26.3678H745.058V155.526H806.868V26.3678Z" fill="var(--fill-0, #EBEBEB)"/>
<path id="Vector_138" d="M745.058 109.826C744.92 97.7561 755.769 85.9126 767.713 84.289C773.415 83.4961 779.468 84.6163 784.792 82.4389C794.295 78.5372 797.316 65.9134 806.881 62.1753L807.309 155.526H745.058V109.826Z" fill="var(--fill-0, #E0E0E0)"/>
<path id="Vector_139" d="M42.8173 363.297V395.014H89.197H140.347V363.297H42.8173Z" fill="var(--fill-0, #F5F5F5)"/>
<path id="Vector_140" d="M38.7268 354.437V363.297H143.745V354.437H89.197H38.7268Z" fill="var(--fill-0, #E0E0E0)"/>
<path id="Vector_141" d="M91.2362 395.014H140.347V363.297H143.745V354.437H89.1973V362.479L91.2362 395.014Z" fill="var(--fill-0, #E0E0E0)"/>
<path id="Vector_142" d="M76.2346 368.407H56.4619V373.177H76.2346V368.407Z" fill="var(--fill-0, #E0E0E0)"/>
<path id="Vector_143" d="M79.3177 379.156H53.9189V389.237H79.3177V379.156Z" fill="var(--fill-0, white)"/>
<path id="Vector_144" d="M154.985 463.181L152.946 28.8726H144.539V114.458H122.815L122.412 28.8726H114.005V114.458H39.2812L38.8784 28.8726H30.4709V114.458H8.81026L8.4075 28.8726H0V463.181H10.459L10.157 404.894H30.4709V463.181H40.9299L40.6531 404.894H114.005V463.181H124.464L124.187 404.894H144.539V463.181H154.985ZM19.7727 347.389L12.2211 315.206H27.6894L19.7727 347.389ZM30.4709 317.182V393.227L21.3712 354.21L30.4709 317.182ZM30.4709 206.651L21.3712 167.634L30.4709 130.593V206.651ZM28.8347 213.636H10.0689L19.6972 174.456L28.8347 213.636ZM19.7727 160.775L11.1639 123.897H28.7844L19.7727 160.775ZM18.0988 167.584L9.28853 203.681L8.89836 128.026L18.0988 167.584ZM9.77939 318.453L18.0988 354.147L10.157 386.72L9.77939 318.453ZM19.6972 360.969L27.7775 395.392H11.2268L19.6972 360.969ZM10.0437 305.666V305.364H9.77939L9.38922 223H30.5338V305.603L10.0437 305.666ZM39.7972 223.063H114.055V305.666H40.1874L39.7972 223.063ZM133.173 174.393L142.311 213.573H123.545L133.173 174.393ZM123.218 201.566L122.891 130.329L131.575 167.571L123.218 201.566ZM144.539 209.118L134.847 167.584L144.539 128.152V209.118ZM144.539 213.447V213.586H143.947L144.539 213.447ZM144.539 319.385V390.798L135.98 354.172L144.539 319.385ZM134.394 347.351L126.843 315.168H142.311L134.394 347.351ZM133.249 160.775L124.69 123.897H142.311L133.249 160.775ZM144.576 223.076V305.678H124.69L124.615 305.376L123.746 305.578L123.356 223.076H144.576ZM132.758 354.16L124.149 389.2L123.797 315.772L132.758 354.16ZM134.344 360.982L142.311 395.392H125.848L134.344 360.982ZM114.005 123.897V213.573H39.7469L39.3189 123.897H114.005ZM41.9494 395.392H40.6027L40.2251 315.156H114.005V395.392H41.9494Z" fill="var(--fill-0, #E0E0E0)"/>
<path id="Vector_145" d="M107.498 149.208H93.6025V213.938H107.498V149.208Z" fill="var(--fill-0, #E0E0E0)"/>
<path id="Vector_146" d="M103.571 198.407C103.571 198.953 103.409 199.486 103.106 199.94C102.802 200.393 102.371 200.746 101.867 200.955C101.362 201.163 100.807 201.217 100.272 201.109C99.7373 201.002 99.2462 200.738 98.8612 200.352C98.4763 199.965 98.2148 199.472 98.1098 198.937C98.0049 198.401 98.0613 197.847 98.2718 197.343C98.4824 196.84 98.8376 196.41 99.2926 196.109C99.7475 195.808 100.282 195.648 100.827 195.651C101.556 195.654 102.254 195.946 102.768 196.462C103.282 196.979 103.571 197.678 103.571 198.407Z" fill="var(--fill-0, #FAFAFA)"/>
<path id="Vector_147" d="M102.828 166.363H98.5742V192.819H102.828V166.363Z" fill="var(--fill-0, #FAFAFA)"/>
<path id="Vector_148" d="M93.3889 149.208H79.4939V213.938H93.3889V149.208Z" fill="var(--fill-0, #EBEBEB)"/>
<path id="Vector_149" d="M89.4502 198.407C89.4502 198.953 89.2882 199.486 88.9848 199.94C88.6814 200.393 88.2501 200.746 87.7457 200.955C87.2413 201.163 86.6865 201.217 86.1515 201.109C85.6164 201.002 85.1253 200.738 84.7404 200.352C84.3554 199.965 84.0939 199.473 83.9889 198.937C83.884 198.401 83.9404 197.847 84.1509 197.343C84.3615 196.84 84.7167 196.41 85.1717 196.109C85.6266 195.808 86.1608 195.648 86.7064 195.651C87.4353 195.654 88.1332 195.946 88.6473 196.462C89.1615 196.979 89.4502 197.678 89.4502 198.407Z" fill="var(--fill-0, #FAFAFA)"/>
<path id="Vector_150" d="M88.7197 166.363H84.4657V192.819H88.7197V166.363Z" fill="var(--fill-0, #FAFAFA)"/>
<path id="Vector_151" d="M79.9478 149.208H66.0527V213.938H79.9478V149.208Z" fill="var(--fill-0, #F5F5F5)"/>
<path id="Vector_152" d="M76.0332 198.407C76.0332 198.952 75.8716 199.485 75.5687 199.938C75.2658 200.392 74.8353 200.745 74.3317 200.954C73.828 201.162 73.2738 201.217 72.7391 201.11C72.2044 201.004 71.7133 200.742 71.3278 200.356C70.9423 199.971 70.6798 199.479 70.5735 198.945C70.4671 198.41 70.5217 197.856 70.7303 197.352C70.9389 196.849 71.2922 196.418 71.7455 196.115C72.1988 195.812 72.7317 195.651 73.2769 195.651C74.0079 195.651 74.709 195.941 75.2259 196.458C75.7428 196.975 76.0332 197.676 76.0332 198.407Z" fill="var(--fill-0, #E0E0E0)"/>
<path id="Vector_153" d="M75.2902 166.363H71.0361V192.819H75.2902V166.363Z" fill="var(--fill-0, #E0E0E0)"/>
<path id="Vector_154" d="M48.8722 212.956L65.5613 156.017L59.8095 153.487L42.6924 210.892L48.8722 212.956Z" fill="var(--fill-0, #F5F5F5)"/>
<path id="Vector_155" d="M24.1532 305.653V295.861H93.3767L93.6032 305.653H24.1532Z" fill="var(--fill-0, #F5F5F5)"/>
<path id="Vector_156" d="M93.4135 297.46C93.4135 297.46 32.006 297.913 28.0414 298.844C27.1855 299.045 26.3171 302.821 28.0414 303.161C29.7657 303.501 93.4135 304.029 93.4135 304.029V297.46Z" fill="var(--fill-0, white)"/>
<path id="Vector_157" d="M32.1953 295.471V285.666H87.0329L87.2091 295.471H32.1953Z" fill="var(--fill-0, #EBEBEB)"/>
<path id="Vector_158" d="M87.0581 287.265C87.0581 287.265 38.4255 287.768 35.3293 288.662C34.6497 288.863 33.9574 292.626 35.3293 292.979C36.7012 293.331 87.1085 293.835 87.1085 293.835L87.0581 287.265Z" fill="var(--fill-0, #FAFAFA)"/>
<path id="Vector_159" d="M31.9433 285.792V275.988H86.7809L86.9571 285.792H31.9433Z" fill="var(--fill-0, #E0E0E0)"/>
<path id="Vector_160" d="M86.8192 277.586C86.8192 277.586 38.1739 278.039 35.0274 278.971C34.3478 279.172 33.6555 282.948 35.0274 283.288C36.3993 283.627 86.8192 284.156 86.8192 284.156V277.586Z" fill="var(--fill-0, #FAFAFA)"/>
<path id="Vector_161" d="M113.728 50.9232H99.8332V115.653H113.728V50.9232Z" fill="var(--fill-0, #F5F5F5)"/>
<path id="Vector_162" d="M109.802 100.122C109.804 100.669 109.644 101.203 109.342 101.658C109.041 102.114 108.61 102.469 108.106 102.679C107.602 102.889 107.047 102.945 106.511 102.839C105.975 102.733 105.483 102.47 105.096 102.084C104.71 101.698 104.447 101.205 104.341 100.67C104.235 100.134 104.291 99.5785 104.501 99.0743C104.711 98.5701 105.067 98.1398 105.522 97.8379C105.977 97.5359 106.512 97.3761 107.058 97.3786C107.418 97.3786 107.775 97.4495 108.108 97.5874C108.441 97.7253 108.743 97.9274 108.998 98.1822C109.253 98.437 109.455 98.7395 109.593 99.0723C109.731 99.4052 109.802 99.762 109.802 100.122Z" fill="var(--fill-0, #E0E0E0)"/>
<path id="Vector_163" d="M109.071 68.0781H104.817V94.534H109.071V68.0781Z" fill="var(--fill-0, #E0E0E0)"/>
<path id="Vector_164" d="M99.6071 50.9232H85.7246V115.653H99.6071V50.9232Z" fill="var(--fill-0, #EBEBEB)"/>
<path id="Vector_165" d="M95.7431 100.122C95.7456 100.669 95.5858 101.203 95.2839 101.658C94.9819 102.114 94.5516 102.469 94.0474 102.679C93.5433 102.889 92.988 102.945 92.4522 102.839C91.9163 102.733 91.424 102.47 91.0378 102.084C90.6515 101.698 90.3888 101.205 90.2828 100.67C90.1769 100.134 90.2325 99.5785 90.4427 99.0743C90.6529 98.5701 91.0081 98.1398 91.4633 97.8379C91.9185 97.5359 92.4532 97.3761 92.9994 97.3786C93.726 97.3819 94.422 97.672 94.9359 98.1859C95.4497 98.6997 95.7398 99.3957 95.7431 100.122Z" fill="var(--fill-0, #FAFAFA)"/>
<path id="Vector_166" d="M94.9495 68.0781H90.708V94.5341H94.9495V68.0781Z" fill="var(--fill-0, #FAFAFA)"/>
<path id="Vector_167" d="M86.1765 50.9232H72.2815V115.653H86.1765V50.9232Z" fill="var(--fill-0, #E0E0E0)"/>
<path id="Vector_168" d="M82.2637 100.122C82.2661 100.668 82.1066 101.202 81.8053 101.657C81.5039 102.112 81.0743 102.467 80.5709 102.678C80.0674 102.888 79.5128 102.945 78.9773 102.84C78.4418 102.735 77.9495 102.473 77.5628 102.088C77.176 101.703 76.9122 101.212 76.8049 100.677C76.6975 100.142 76.7513 99.5874 76.9596 99.083C77.1678 98.5786 77.5211 98.1474 77.9747 97.844C78.4282 97.5405 78.9616 97.3785 79.5073 97.3785C80.2362 97.3785 80.9353 97.6672 81.4519 98.1814C81.9685 98.6956 82.2603 99.3935 82.2637 100.122Z" fill="var(--fill-0, #FAFAFA)"/>
<path id="Vector_169" d="M81.5196 68.0781H77.2655V94.534H81.5196V68.0781Z" fill="var(--fill-0, #FAFAFA)"/>
</g>
</svg>
