<svg preserveAspectRatio="none" width="100%" height="100%" overflow="visible" style="display: block;" viewBox="0 0 182 272" fill="none" xmlns="http://www.w3.org/2000/svg">
<g id="freepik--character-3--inject-30">
<path id="Vector" d="M29.3093 192.855H24.2245V270.825H29.3093V192.855Z" fill="var(--fill-0, #263238)"/>
<path id="Vector_2" d="M93.0202 192.855H87.9354V270.825H93.0202V192.855Z" fill="var(--fill-0, #263238)"/>
<path id="Vector_3" d="M96.4678 184.321H22.0967V194.138H96.4678V184.321Z" fill="var(--fill-0, #455A64)"/>
<path id="Vector_4" d="M10.9388 101.408L0 104.34L23.9767 193.791L34.9156 190.859L10.9388 101.408Z" fill="var(--fill-0, #455A64)"/>
<path id="Vector_5" d="M106.915 222.482L86.4249 245.704L115.121 271.329C117.399 268.434 107.469 249.681 107.469 249.681L121.2 235.37L106.915 222.482Z" fill="var(--fill-0, #FF725E)"/>
<path id="Vector_6" d="M99.7405 240.455C99.3875 240.294 98.9875 240.267 98.6164 240.381C98.2453 240.495 97.9287 240.74 97.7267 241.072C97.5526 241.416 97.517 241.814 97.627 242.184C97.737 242.554 97.9843 242.867 98.3182 243.06C98.6914 243.231 99.1142 243.259 99.5063 243.138C99.8984 243.017 100.233 242.757 100.445 242.406C100.589 242.026 100.582 241.606 100.425 241.231C100.268 240.856 99.9738 240.556 99.602 240.392" fill="var(--fill-0, #263238)"/>
<path id="Vector_7" d="M86.5117 245.553L88.5633 243.199L115.208 268.9C115.208 268.9 115.976 270.611 115.032 271.417L86.5117 245.553Z" fill="var(--fill-0, #263238)"/>
<path id="Vector_8" d="M108.073 249.895C107.935 250.033 107.179 249.467 106.084 249.303C104.989 249.14 104.108 249.404 104.02 249.228C103.932 249.051 104.876 248.435 106.198 248.661C107.519 248.888 108.212 249.794 108.073 249.895Z" fill="var(--fill-0, #263238)"/>
<path id="Vector_9" d="M109.961 253.834C109.873 253.998 109.055 253.683 108.048 253.834C107.041 253.985 106.349 254.501 106.21 254.375C106.072 254.249 106.701 253.368 107.947 253.117C109.193 252.865 110.087 253.696 109.961 253.834Z" fill="var(--fill-0, #263238)"/>
<path id="Vector_10" d="M108.45 258.957C108.299 258.869 108.727 258 109.772 257.56C110.817 257.119 111.748 257.383 111.71 257.56C111.672 257.736 110.892 257.774 110.036 258.151C109.18 258.529 108.614 259.07 108.45 258.957Z" fill="var(--fill-0, #263238)"/>
<path id="Vector_11" d="M110.842 246.283C110.666 246.358 110.188 245.59 109.357 244.948C108.526 244.307 107.67 243.992 107.708 243.803C107.746 243.614 108.778 243.652 109.76 244.432C110.741 245.213 111.069 246.245 110.842 246.283Z" fill="var(--fill-0, #263238)"/>
<path id="Vector_12" d="M113.195 242.268C113.195 242.33 112.515 241.928 111.76 241.009C111.331 240.453 110.968 239.849 110.678 239.209C110.506 238.824 110.359 238.429 110.237 238.026C110.156 237.791 110.114 237.545 110.111 237.296C110.108 237.117 110.164 236.942 110.271 236.798C110.378 236.654 110.53 236.551 110.703 236.503C110.861 236.469 111.025 236.472 111.183 236.511C111.34 236.55 111.486 236.625 111.609 236.73C111.793 236.888 111.95 237.075 112.075 237.283C112.318 237.633 112.528 238.004 112.704 238.391C112.996 239.04 113.179 239.734 113.245 240.443C113.37 241.089 113.304 241.758 113.057 242.368C112.943 242.368 113.057 241.626 112.792 240.505C112.658 239.86 112.442 239.234 112.15 238.643C111.977 238.298 111.779 237.966 111.559 237.648C111.32 237.296 111.068 237.069 110.867 237.132C110.665 237.195 110.779 237.132 110.753 237.321C110.768 237.5 110.802 237.678 110.854 237.85C111.13 238.871 111.554 239.846 112.113 240.745C112.502 241.231 112.864 241.74 113.195 242.268Z" fill="var(--fill-0, #263238)"/>
<path id="Vector_13" d="M112.83 242.318C112.927 241.661 113.231 241.052 113.699 240.581C114.15 240.03 114.69 239.557 115.297 239.184C115.661 238.969 116.045 238.788 116.442 238.643C116.688 238.521 116.961 238.466 117.234 238.481C117.508 238.497 117.773 238.583 118.003 238.731C118.127 238.85 118.216 239.002 118.258 239.169C118.3 239.335 118.295 239.511 118.242 239.675C118.17 239.907 118.064 240.128 117.927 240.329C117.685 240.692 117.393 241.018 117.059 241.298C116.502 241.768 115.835 242.089 115.121 242.23C113.862 242.482 113.157 242.129 113.195 242.066C113.804 242.006 114.409 241.913 115.007 241.789C115.623 241.598 116.189 241.276 116.669 240.845C116.947 240.595 117.188 240.307 117.386 239.989C117.613 239.65 117.714 239.297 117.575 239.222C117.429 239.156 117.27 239.122 117.109 239.122C116.949 239.122 116.79 239.156 116.644 239.222C116.282 239.344 115.932 239.5 115.599 239.687C115.023 240.003 114.497 240.401 114.038 240.871C113.245 241.701 112.931 242.356 112.83 242.318Z" fill="var(--fill-0, #263238)"/>
<path id="Vector_14" d="M142.597 238.605L142.156 270.385L181.689 271.14C181.538 267.364 161.224 259.385 161.224 259.385L162.344 239.033L142.597 238.605Z" fill="var(--fill-0, #FF725E)"/>
<path id="Vector_15" d="M149.027 257.434C148.646 257.545 148.317 257.792 148.104 258.128C147.891 258.464 147.808 258.866 147.869 259.259C147.965 259.645 148.205 259.98 148.54 260.195C148.874 260.41 149.278 260.489 149.669 260.417C150.083 260.309 150.442 260.051 150.675 259.692C150.908 259.333 150.998 258.9 150.928 258.478C150.788 258.086 150.501 257.763 150.128 257.578C149.755 257.393 149.324 257.359 148.927 257.484" fill="var(--fill-0, #263238)"/>
<path id="Vector_16" d="M142.156 270.259V267.05L180.154 269.214C180.154 269.214 181.891 270.033 181.664 271.266L142.156 270.259Z" fill="var(--fill-0, #263238)"/>
<path id="Vector_17" d="M161.866 259.196C161.866 259.385 160.885 259.46 159.928 260.052C158.971 260.643 158.443 261.461 158.267 261.386C158.09 261.31 158.405 260.19 159.525 259.485C160.645 258.781 161.917 259.02 161.866 259.196Z" fill="var(--fill-0, #263238)"/>
<path id="Vector_18" d="M165.982 260.983C165.982 261.172 165.176 261.487 164.509 262.242C163.842 262.997 163.628 263.903 163.439 263.89C163.251 263.878 163.15 262.783 163.993 261.801C164.837 260.819 165.982 260.807 165.982 260.983Z" fill="var(--fill-0, #263238)"/>
<path id="Vector_19" d="M168.247 265.992C168.071 265.992 167.819 265.061 168.335 264.016C168.851 262.972 169.758 262.569 169.833 262.758C169.909 262.946 169.342 263.475 168.94 264.343C168.537 265.212 168.436 265.98 168.247 265.992Z" fill="var(--fill-0, #263238)"/>
<path id="Vector_20" d="M161.6 254.514C161.525 254.69 160.644 254.401 159.549 254.514C158.454 254.627 157.598 254.891 157.497 254.728C157.397 254.564 158.24 253.884 159.524 253.834C160.808 253.784 161.701 254.375 161.6 254.514Z" fill="var(--fill-0, #263238)"/>
<path id="Vector_21" d="M160.759 249.819C160.108 249.997 159.421 249.997 158.77 249.819C158.06 249.681 157.371 249.453 156.718 249.14C156.326 248.963 155.947 248.757 155.586 248.523C155.37 248.388 155.171 248.228 154.994 248.045C154.882 247.896 154.821 247.715 154.821 247.529C154.821 247.342 154.882 247.161 154.994 247.013C155.093 246.879 155.222 246.771 155.371 246.696C155.52 246.622 155.684 246.584 155.85 246.585C156.102 246.589 156.353 246.632 156.593 246.71C157.726 247.002 158.766 247.578 159.613 248.384C160.52 249.253 160.872 249.983 160.746 250.008C160.62 250.033 160.23 249.467 159.311 248.749C158.773 248.334 158.186 247.987 157.562 247.717C157.195 247.562 156.816 247.435 156.429 247.34C156.014 247.226 155.661 247.214 155.548 247.403C155.435 247.592 155.548 247.503 155.548 247.617C155.668 247.759 155.813 247.878 155.976 247.969C156.307 248.195 156.652 248.401 157.008 248.586C157.617 248.899 158.253 249.156 158.908 249.354C159.535 249.468 160.153 249.623 160.759 249.819Z" fill="var(--fill-0, #263238)"/>
<path id="Vector_22" d="M160.494 250.083C160.13 249.515 159.962 248.843 160.016 248.17C159.989 247.437 160.091 246.704 160.318 246.006C160.457 245.592 160.634 245.191 160.846 244.81C160.955 244.554 161.129 244.331 161.349 244.161C161.569 243.991 161.83 243.881 162.105 243.841C162.282 243.845 162.453 243.901 162.599 244.002C162.744 244.102 162.857 244.243 162.923 244.407C163.024 244.639 163.088 244.885 163.112 245.137C163.181 245.579 163.181 246.029 163.112 246.471C162.989 247.209 162.686 247.905 162.231 248.498C161.438 249.505 160.632 249.756 160.607 249.656C160.582 249.555 161.224 249.202 161.866 248.221C162.217 247.659 162.445 247.028 162.533 246.371C162.583 245.99 162.583 245.605 162.533 245.225C162.533 244.81 162.331 244.47 162.168 244.508C162.004 244.546 161.639 244.81 161.463 245.137C161.265 245.479 161.096 245.836 160.96 246.207C160.73 246.839 160.586 247.5 160.532 248.17C160.406 249.341 160.607 250.058 160.494 250.083Z" fill="var(--fill-0, #263238)"/>
<path id="Vector_23" d="M24.9419 50.6193L32.4936 63.6836L42.9903 74.1678L49.1575 65.6974V57.164V50.0151C49.1575 50.0151 58.66 48.7565 58.9369 39.2288C59.0753 34.6601 58.5845 25.2205 58.0433 16.6746C57.7711 12.2431 55.836 8.0778 52.6251 5.01157C49.4142 1.94533 45.1641 0.204233 40.7248 0.136475H39.8061C29.9386 0.539229 23.4441 9.09777 24.1364 18.9401L24.8412 50.6319" fill="var(--fill-0, #FFBE9D)"/>
<path id="Vector_24" d="M55.3497 22.9298C55.3498 23.2815 55.2109 23.6189 54.9634 23.8688C54.7159 24.1186 54.3798 24.2606 54.0282 24.264C53.8536 24.2797 53.6777 24.2589 53.5117 24.2027C53.3457 24.1466 53.1932 24.0564 53.0641 23.9379C52.9349 23.8194 52.8319 23.6753 52.7617 23.5147C52.6915 23.3541 52.6556 23.1806 52.6563 23.0054C52.6562 22.6525 52.7947 22.3137 53.0418 22.0619C53.289 21.81 53.6251 21.6652 53.9779 21.6587C54.1535 21.6428 54.3304 21.664 54.4974 21.7209C54.6643 21.7778 54.8174 21.8691 54.9467 21.9889C55.076 22.1088 55.1788 22.2545 55.2482 22.4166C55.3176 22.5787 55.3522 22.7535 55.3497 22.9298Z" fill="var(--fill-0, #263238)"/>
<path id="Vector_25" d="M56.18 20.7902C56.0038 20.9664 54.9969 20.186 53.5369 20.1735C52.0769 20.1609 51.0197 20.8531 50.8435 20.6769C50.6672 20.5007 50.9441 20.2742 51.4224 19.9469C52.0582 19.5225 52.8106 19.3069 53.5746 19.3302C54.3318 19.339 55.0671 19.5856 55.6765 20.035C56.117 20.4126 56.2555 20.7147 56.18 20.7902Z" fill="var(--fill-0, #263238)"/>
<path id="Vector_26" d="M41.7193 22.9299C41.7198 23.271 41.5897 23.5994 41.3556 23.8476C41.1215 24.0957 40.8012 24.2447 40.4607 24.264C40.2851 24.2817 40.1078 24.2622 39.9403 24.2069C39.7728 24.1516 39.6187 24.0617 39.4882 23.943C39.3576 23.8243 39.2535 23.6795 39.1825 23.518C39.1115 23.3565 39.0753 23.1819 39.0762 23.0054C39.0794 22.6514 39.2206 22.3126 39.4698 22.0611C39.7189 21.8096 40.0563 21.6653 40.4103 21.6587C40.5808 21.6519 40.751 21.6798 40.9104 21.7408C41.0698 21.8017 41.2152 21.8945 41.3376 22.0134C41.46 22.1323 41.557 22.2749 41.6226 22.4325C41.6882 22.59 41.7211 22.7593 41.7193 22.9299Z" fill="var(--fill-0, #263238)"/>
<path id="Vector_27" d="M41.6807 20.1357C41.5297 20.3245 40.4222 19.6574 38.9873 19.7959C37.5525 19.9343 36.5456 20.765 36.3694 20.6014C36.1932 20.4378 36.3694 20.1861 36.8603 19.8085C37.4497 19.3192 38.174 19.0206 38.937 18.9526C39.6883 18.8833 40.4422 19.0553 41.0892 19.4435C41.5675 19.7456 41.7563 20.0476 41.6807 20.1357Z" fill="var(--fill-0, #263238)"/>
<path id="Vector_28" d="M46.8797 32.2059C47.6477 31.9717 48.4434 31.8405 49.2459 31.8157C49.6235 31.8157 49.9759 31.715 50.0389 31.4633C50.0706 31.08 49.992 30.6957 49.8123 30.3557L48.7551 27.5113C47.777 25.0941 46.9942 22.6025 46.4141 20.0603C47.5886 22.388 48.5694 24.8086 49.3466 27.2973C49.699 28.3042 50.0389 29.2481 50.3535 30.1669C50.5798 30.6184 50.6421 31.1345 50.5297 31.6269C50.4722 31.7573 50.3856 31.8727 50.2765 31.9644C50.1674 32.056 50.0387 32.1214 49.9004 32.1555C49.6954 32.2123 49.4838 32.2419 49.2711 32.2436C48.4753 32.3261 47.6725 32.3134 46.8797 32.2059Z" fill="var(--fill-0, #263238)"/>
<path id="Vector_29" d="M42.5121 33.1372C42.7513 33.1372 42.7261 34.7105 44.0602 35.8432C45.3944 36.976 47.0683 36.8501 47.0809 37.1019C47.0935 37.3536 46.7033 37.4039 45.9859 37.4165C45.0627 37.4157 44.1701 37.0854 43.4687 36.4851C43.119 36.2072 42.8277 35.8629 42.6117 35.4719C42.3957 35.0809 42.2592 34.651 42.2101 34.2071C42.2227 33.5148 42.3989 33.1247 42.5121 33.1372Z" fill="var(--fill-0, #263238)"/>
<path id="Vector_30" d="M41.5799 15.3782C41.4666 15.7809 40.0066 15.6928 38.3075 16.0075C36.6084 16.3221 35.2742 16.8885 35.0225 16.5487C34.7708 16.2088 35.1232 15.9949 35.6518 15.5796C36.3644 15.0507 37.1901 14.6948 38.0638 14.5397C38.9375 14.3846 39.8352 14.4347 40.6862 14.6859C41.2904 14.8621 41.6302 15.1516 41.5799 15.3782Z" fill="var(--fill-0, #263238)"/>
<path id="Vector_31" d="M55.5636 17.0647C55.2992 17.3919 54.3049 17.0647 53.0463 16.9892C51.7877 16.9137 50.8186 17.178 50.5921 16.8256C50.4914 16.662 50.655 16.3347 51.1081 16.0201C51.7141 15.6579 52.4136 15.4826 53.1189 15.5161C53.8241 15.5497 54.5038 15.7907 55.0727 16.2089C55.551 16.5613 55.6894 16.9011 55.5636 17.0647Z" fill="var(--fill-0, #263238)"/>
<path id="Vector_32" d="M29.7244 4.28982C29.2713 4.0381 27.333 6.19033 26.9554 6.55532C24.7655 8.6572 23.9599 12.4834 23.7963 15.5166C23.5532 18.4134 23.6971 21.3297 24.2243 24.1884C24.2998 24.566 24.5641 26.1141 24.5641 26.1141C24.9794 26.4539 25.5332 29.8144 26.0744 29.8899C26.8296 29.8899 27.333 24.7296 27.484 24.3269C27.5653 23.1497 27.7336 21.9802 27.9875 20.8279C28.4391 18.9812 28.7297 17.0989 28.8559 15.202C28.8559 12.5589 29.7244 8.61943 29.7496 5.98893C29.737 5.43515 30.1649 4.51637 29.7244 4.28982Z" fill="var(--fill-0, #263238)"/>
<path id="Vector_33" d="M27.7734 8.24194C30.533 4.4023 34.6104 1.7139 39.2267 0.690287C40.2593 0.386625 41.3621 0.421916 42.3732 0.790978C42.9297 1.11112 43.4525 1.48639 43.9339 1.91114C44.4224 2.33042 45.0529 2.54661 45.6959 2.51527C45.853 2.49879 46.0049 2.45004 46.1422 2.37204C46.2795 2.29403 46.3992 2.18848 46.4938 2.06201C46.5883 1.93554 46.6557 1.7909 46.6917 1.63714C46.7277 1.48339 46.7314 1.32386 46.7028 1.16856C43.0288 -0.288013 38.9557 -0.386052 35.2158 0.892092C31.476 2.17024 28.3148 4.7407 26.3008 8.14125" fill="var(--fill-0, #263238)"/>
<path id="Vector_34" d="M29.611 7.82666L24.2871 11.9927C24.0603 13.0127 23.9047 14.0472 23.8214 15.0888L29.1453 11.5647L29.611 7.82666Z" fill="var(--fill-0, #E0E0E0)"/>
<path id="Vector_35" d="M25.9483 25.9254C25.7846 25.8499 19.479 23.8865 19.5671 30.3683C19.6552 36.8501 26.1497 35.4027 26.1622 35.2265C26.1748 35.0503 25.9483 25.9254 25.9483 25.9254Z" fill="var(--fill-0, #FFBE9D)"/>
<path id="Vector_36" d="M24.149 32.7974C24.149 32.7974 24.0358 32.8729 23.847 32.9736C23.5769 33.0848 23.2738 33.0848 23.0037 32.9736C22.576 32.7123 22.2264 32.3407 21.9917 31.8978C21.757 31.4549 21.6457 30.9571 21.6696 30.4564C21.6471 29.9047 21.7459 29.3548 21.959 28.8454C22.0195 28.6421 22.1275 28.4561 22.2741 28.3029C22.4208 28.1497 22.6018 28.0336 22.8023 27.9644C22.9312 27.9249 23.0701 27.9338 23.1929 27.9894C23.3157 28.045 23.414 28.1435 23.4694 28.2664C23.5575 28.4426 23.4694 28.5685 23.5575 28.5811C23.6456 28.5937 23.6959 28.4678 23.633 28.2035C23.5972 28.0446 23.5084 27.9025 23.3812 27.8007C23.2921 27.7341 23.1904 27.6863 23.0822 27.6603C22.974 27.6344 22.8616 27.6308 22.7519 27.6497C22.4853 27.7039 22.2374 27.8264 22.0322 28.005C21.8271 28.1837 21.6717 28.4125 21.5814 28.6692C21.3115 29.2337 21.186 29.8565 21.2164 30.4816C21.1942 31.0578 21.3423 31.6278 21.6423 32.1203C21.9423 32.6128 22.3808 33.0059 22.903 33.2505C23.0779 33.3015 23.2622 33.311 23.4414 33.2782C23.6205 33.2454 23.7896 33.1713 23.935 33.0617C24.1364 32.9988 24.2245 32.81 24.149 32.7974Z" fill="var(--fill-0, #EB996E)"/>
<path id="Vector_37" d="M49.3966 49.8893C44.8752 49.8935 40.4547 48.5529 36.6973 46.038C36.6973 46.038 39.5165 53.2372 49.2834 52.5324L49.3966 49.8893Z" fill="var(--fill-0, #EB996E)"/>
<path id="Vector_38" d="M30.0645 160.823C30.0645 160.823 33.0599 179.702 35.2877 184.107C37.5154 188.512 70.4154 184.611 70.4154 184.611L142.081 186.499L141.275 254.904L167.051 255.584L168.813 173.648C168.813 164.838 165.717 158.62 158.392 156.33C147.002 152.755 131.307 151.295 126.26 150.666C118.582 149.672 89.4833 148.526 89.4833 148.526L87.2556 145.015L30.0645 160.823Z" fill="var(--fill-0, #263238)"/>
<path id="Vector_39" d="M161.764 189.545L119.236 248.46L96.644 230.839L126.523 192.842L60.7988 174.932L63.4293 152.378L82.7112 153.636C82.7112 153.636 144.194 161.314 152.161 163.793C152.702 163.957 153.269 164.158 153.835 164.372C156.201 165.285 158.331 166.718 160.067 168.567C161.802 170.415 163.099 172.631 163.861 175.049C164.623 177.468 164.83 180.027 164.467 182.536C164.104 185.046 163.18 187.441 161.764 189.545Z" fill="var(--fill-0, #263238)"/>
<path id="Vector_40" d="M117.562 150.049C117.562 150.238 109.281 150.049 99.086 149.634C88.8912 149.219 80.6348 148.74 80.6348 148.552C80.6348 148.363 88.9164 148.552 99.1111 148.98C109.306 149.407 117.562 149.848 117.562 150.049Z" fill="var(--fill-0, #455A64)"/>
<path id="Vector_41" d="M141.275 254.904C141.256 254.808 141.256 254.71 141.275 254.614C141.275 254.375 141.275 254.086 141.275 253.733C141.275 252.915 141.275 251.808 141.275 250.398C141.275 247.428 141.275 243.249 141.275 238.102C141.388 227.668 141.539 213.357 141.69 197.549C141.69 193.773 141.791 190.06 141.841 186.486L142.131 186.813C128.991 185.718 117.424 185.215 109.155 184.976L99.4263 184.737L96.821 184.674C96.5176 184.68 96.2143 184.659 95.9148 184.611C96.2165 184.588 96.5193 184.588 96.821 184.611H99.4263C101.717 184.611 105.027 184.611 109.168 184.611C117.437 184.737 129.029 185.152 142.194 186.222H142.483V186.549C142.483 190.111 142.395 193.824 142.345 197.612C142.118 213.42 141.904 227.731 141.741 238.164C141.64 243.3 141.552 247.491 141.489 250.448L141.376 253.796C141.376 254.14 141.376 254.43 141.376 254.665C141.354 254.749 141.32 254.829 141.275 254.904Z" fill="var(--fill-0, #455A64)"/>
<path id="Vector_42" d="M160.519 128.275C161.425 126.954 171.519 73.8909 171.519 73.8909H169.38L158.744 124.714H107.141V128.489L160.519 128.275Z" fill="var(--fill-0, #263238)"/>
<path id="Vector_43" d="M125.68 112.669C126.869 111.164 128.262 109.833 129.821 108.717C130.4 108.528 140.796 104.198 140.985 104.677C141.174 105.155 142.433 107.534 140.306 108.654L138.669 109.207L144.648 109.686C144.648 109.686 151.281 114.594 151.18 115.652C151.079 116.709 150.223 117.376 149.644 116.91C149.065 116.445 151.192 120.283 151.192 120.283C151.192 120.283 151.192 121.919 150.324 121.63C149.482 121.16 148.731 120.542 148.109 119.805C148.109 119.805 149.367 121.819 148.977 122.209C148.587 122.599 146.661 122.687 146.46 122.209C146.259 121.731 145.982 120.862 145.982 120.862L144.824 120.95V122.536L124.774 123.933L125.68 112.669Z" fill="var(--fill-0, #EB996E)"/>
<path id="Vector_44" d="M49.1319 62.5634C49.1319 64.3003 84.7756 109.308 84.7756 109.308C84.7756 109.308 126.171 110.793 126.171 111.536C126.171 112.278 123.453 123.178 123.453 123.178L72.9069 124.059L34.0537 79.819L49.1319 62.5634Z" fill="var(--fill-0, #E0E0E0)"/>
<path id="Vector_45" d="M23.6825 54.8733C23.6825 54.8733 7.59752 66.7672 5.33203 78.9631C3.06653 91.159 24.2237 136.205 24.2237 136.205L27.9996 159.111C28.0479 159.41 28.1616 159.694 28.3325 159.943C28.5035 160.193 28.7275 160.401 28.9885 160.554C29.2495 160.707 29.541 160.8 29.8422 160.827C30.1434 160.854 30.4468 160.814 30.7308 160.71L87.9722 145.015C89.0421 144.625 87.5443 138.936 87.0786 137.904C79.6025 121.227 73.3095 106.715 59.8675 93.4748L49.3581 59.4924L24.186 50.3297L23.6825 54.8733Z" fill="var(--fill-0, #EBEBEB)"/>
<path id="Vector_46" d="M8.29004 83.3431C8.29004 83.3431 13.7398 99.2016 14.7341 101.178C15.5019 102.726 41.6432 125.544 52.9455 135.374C54.5429 136.76 56.4348 137.765 58.478 138.313C60.5211 138.86 62.662 138.935 64.7386 138.533L119.513 127.91L118.62 113.688L67.281 114.506L45.2302 81.7825C45.2302 81.7825 43.0025 72.368 37.0618 68.6551C31.1212 64.9422 16.9996 67.6609 13.7776 72.368C11.5534 75.8152 9.71323 79.4955 8.29004 83.3431Z" fill="var(--fill-0, #EBEBEB)"/>
<path id="Vector_47" d="M67.2438 114.506C66.0957 115.906 65.1742 117.478 64.5126 119.163C64.0127 120.909 63.6591 122.695 63.4554 124.5C63.0086 122.646 63.1583 120.7 63.8833 118.937C64.3238 117.665 65.0174 116.496 65.9223 115.501C66.6271 114.808 67.206 114.443 67.2438 114.506Z" fill="var(--fill-0, #263238)"/>
<path id="Vector_48" d="M34.0545 67.4721C34.5213 67.4859 34.9819 67.5839 35.4138 67.7615C36.67 68.3046 37.7946 69.1116 38.7114 70.1277C41.2286 72.733 43.9598 77.2514 46.5022 83.4312L67.4957 114.393L67.2692 114.267L118.608 113.726H118.922V114.028C119.225 118.446 119.539 123.128 119.854 127.873V128.15L119.59 128.212C117.538 128.716 115.323 129.156 113.095 129.622C95.4746 133.197 78.6596 136.242 63.3927 139.54C61.4064 139.742 59.4076 139.301 57.6912 138.281C56.1014 137.288 54.5907 136.173 53.1728 134.946L44.7653 128.275L29.662 116.293C25.1058 112.593 20.6881 109.497 17.7178 105.797C15.2462 102.616 13.3467 99.0305 12.1044 95.1992C11.022 92.0779 10.3927 89.5984 9.96474 87.9118C9.77595 87.0938 9.61233 86.4518 9.51164 85.9987C9.41095 85.5456 9.37319 85.3443 9.37319 85.3443C9.37319 85.3443 9.44871 85.5583 9.57457 85.9862L10.1032 87.8867C10.5689 89.548 11.2233 92.0275 12.3435 95.1111C13.6227 98.8879 15.5335 102.42 17.9946 105.558C20.9524 109.182 25.3701 112.241 29.9514 115.928L45.0547 127.847L53.4748 134.493C54.8973 135.687 56.4077 136.773 57.9932 137.74C59.5965 138.719 61.4707 139.16 63.3423 138.999C78.4456 135.676 95.3865 132.605 112.982 129.031C115.197 128.565 117.412 128.124 119.451 127.621L119.199 127.961C118.885 123.216 118.57 118.534 118.281 114.116L118.608 114.418L67.2566 114.859H67.1181L67.0301 114.733C58.6603 102.247 51.5366 91.6122 46.2001 83.6703C43.6828 77.5157 41.002 72.9722 38.6484 70.3794C37.7625 69.3603 36.6737 68.5372 35.4516 67.9629C35.0008 67.7595 34.5334 67.5953 34.0545 67.4721Z" fill="var(--fill-0, #263238)"/>
<path id="Vector_49" d="M49.6729 62.5634L49.761 60.8768L52.9075 66.9433V71.5372L49.849 69.0955L49.6729 62.5634Z" fill="var(--fill-0, #FF725E)"/>
<path id="Vector_50" d="M49.6729 59.7693C49.774 60.3974 49.8119 61.0341 49.7862 61.6698C49.7862 62.9284 49.7862 64.615 49.7862 66.7042V67.0818L49.4212 66.9308C46.69 65.798 43.2289 64.3255 39.4782 62.7019C34.9724 60.751 30.9071 58.9261 27.9745 57.6674C26.502 57.0004 25.3189 56.4088 24.5134 56.0564C24.0682 55.881 23.6456 55.6528 23.2548 55.3768C23.714 55.4754 24.1612 55.6231 24.5889 55.8173L28.1256 57.2395C31.1085 58.4981 35.1989 60.1972 39.7173 62.1481C43.4932 63.7717 46.904 65.2946 49.61 66.5155L49.245 66.742C49.3079 64.615 49.3709 62.8655 49.4338 61.7076C49.4369 61.0543 49.5172 60.4037 49.6729 59.7693Z" fill="var(--fill-0, #263238)"/>
<path id="Vector_51" d="M51.2847 70.241C51.1588 71.1346 59.9565 92.7827 59.9565 92.7827C59.9565 92.7827 74.0152 110.554 75.3619 113.915H79.0496L60.46 91.6248L52.9083 70.2284L51.2847 70.241Z" fill="var(--fill-0, #FF725E)"/>
<path id="Vector_52" d="M150.084 120.812L149.87 118.697L141.387 113.16L130.966 111.397L122.949 116.432L119.173 116.13L119.752 126.199H121.01C122.328 126.826 123.748 127.21 125.202 127.331C127.945 127.634 131.696 125.519 131.696 125.519L136.73 122.02L140.506 120.548L143.552 121.932C143.734 122.42 143.881 122.921 143.993 123.43C143.993 123.807 145.125 124.185 145.704 124.135C146.283 124.084 146.334 122.712 146.334 122.712L145.377 119.906L146.837 121.013L150.084 120.812Z" fill="var(--fill-0, #FFBE9D)"/>
</g>
</svg>
