<svg preserveAspectRatio="none" width="100%" height="100%" overflow="visible" style="display: block;" viewBox="0 0 228 260" fill="none" xmlns="http://www.w3.org/2000/svg">
<g id="freepik--character-5--inject-30">
<path id="Vector" d="M196.053 258.784H201.138V180.813H196.053V258.784Z" fill="var(--fill-0, #263238)"/>
<path id="Vector_2" d="M132.343 258.784H137.428V180.813H132.343V258.784Z" fill="var(--fill-0, #263238)"/>
<path id="Vector_3" d="M128.882 182.072H203.253V172.255H128.882V182.072Z" fill="var(--fill-0, #455A64)"/>
<path id="Vector_4" d="M192.365 177.289L203.252 182.085L227.128 91.1249L216.228 88.205L192.365 177.289Z" fill="var(--fill-0, #455A64)"/>
<path id="Vector_5" d="M226.184 18.7926C226.118 18.2504 225.905 17.7367 225.567 17.3075C224.522 15.8391 222.955 14.826 221.187 14.4756C222.689 13.8218 224.048 12.8813 225.189 11.7067C225.754 11.1111 226.157 10.3809 226.36 9.58559C226.562 8.79026 226.558 7.9563 226.347 7.16309C226.014 6.42788 225.529 5.7717 224.924 5.23796C224.319 4.70422 223.607 4.30507 222.836 4.06691C220.76 3.17954 218.446 3.01554 216.266 3.60123C215.185 3.90031 214.193 4.45749 213.375 5.22484C212.558 5.9922 211.938 6.94675 211.571 8.00636L213.648 13.3932C213.914 15.5276 214.754 17.5501 216.077 19.2457C216.322 19.6683 216.678 20.0159 217.106 20.251C217.534 20.4862 218.018 20.5999 218.506 20.5799C218.905 20.4586 219.258 20.217 219.514 19.8881C219.771 19.5592 219.92 19.159 219.941 18.7423C219.959 17.9059 219.805 17.0747 219.488 16.3006C220.553 17.8432 221.985 19.0974 223.654 19.9506C223.923 20.131 224.23 20.2466 224.551 20.2881C224.872 20.3296 225.198 20.2959 225.504 20.1897C225.737 20.0444 225.925 19.8362 226.045 19.5891C226.165 19.3419 226.213 19.0658 226.184 18.7926Z" fill="var(--fill-0, #263238)"/>
<path id="Vector_6" d="M214.819 11.3922C215.663 12.3123 216.644 13.0975 217.726 13.7206C218.904 14.1375 220.14 14.3668 221.389 14.4002C221.389 14.4883 220.999 14.6897 220.269 14.7778C219.301 14.8813 218.324 14.7234 217.438 14.3205C216.553 13.9176 215.792 13.2844 215.234 12.4871C214.857 11.883 214.743 11.4299 214.819 11.3922Z" fill="var(--fill-0, #455A64)"/>
<path id="Vector_7" d="M227.028 7.71697C226.342 7.5663 225.666 7.3772 225.002 7.15058C223.381 6.74227 221.689 6.70802 220.054 7.05037C218.419 7.39272 216.882 8.10272 215.562 9.12661C215.043 9.60237 214.496 10.0478 213.926 10.4607C214.227 9.79474 214.69 9.21486 215.273 8.7742C216.584 7.58641 218.188 6.76917 219.92 6.40641C221.652 6.04366 223.449 6.14847 225.127 6.71008C225.837 6.87739 226.491 7.2241 227.028 7.71697Z" fill="var(--fill-0, #455A64)"/>
<path id="Vector_8" d="M214.227 12.852C214.306 12.4362 214.306 12.0093 214.227 11.5934C214.091 9.84828 213.438 8.18324 212.352 6.8107C212.259 6.68894 212.139 6.59037 212.001 6.52269C211.864 6.455 211.712 6.42004 211.559 6.42054C211.081 6.42054 210.879 7.08759 210.955 7.56586C211.103 8.02669 211.192 8.50467 211.219 8.98809L212.037 12.4618C212.061 12.8438 212.212 13.2069 212.465 13.4939C212.594 13.6376 212.758 13.7446 212.942 13.8043C213.125 13.864 213.321 13.8741 213.51 13.8337C213.703 13.744 213.869 13.6069 213.995 13.4353C214.12 13.2636 214.2 13.0629 214.227 12.852Z" fill="var(--fill-0, #FF725E)"/>
<path id="Vector_9" d="M210.994 37.1181C212.469 33.3695 213.615 29.4993 214.417 25.5515C215.221 21.5805 215.026 17.472 213.851 13.5947C213.662 13.0158 211.975 9.11408 211.333 9.16442C210.691 9.21477 211.9 12.8018 211.673 13.1794C209.567 16.8079 208.615 20.9913 208.942 25.1739C209.175 29.2179 209.854 33.2237 210.968 37.1181" fill="var(--fill-0, #263238)"/>
<path id="Vector_10" d="M199.024 70.4586C202.027 70.4867 204.922 69.3405 207.093 67.2644C209.263 65.1883 210.536 62.3466 210.641 59.3451L211.9 21.7756C212.567 11.7068 207.243 2.8965 197.149 2.51892H196.205C191.673 2.62741 187.346 4.43393 184.083 7.5807C180.82 10.7275 178.857 14.985 178.584 19.5101C178.068 28.2449 177.602 37.9236 177.753 42.6056C178.081 52.2969 187.822 53.5932 187.822 53.5932C187.822 53.5932 187.822 55.8461 187.747 58.6906C187.712 60.2081 187.978 61.7174 188.529 63.1315C189.081 64.5456 189.907 65.8365 190.96 66.9295C192.013 68.0225 193.273 68.896 194.665 69.4995C196.058 70.1031 197.557 70.4248 199.074 70.446L199.024 70.4586Z" fill="var(--fill-0, #B78876)"/>
<path id="Vector_11" d="M187.746 53.6688C192.238 53.5775 196.608 52.1922 200.332 49.679C200.332 49.679 197.4 56.7901 187.746 56.1231V53.6688Z" fill="var(--fill-0, #995037)"/>
<path id="Vector_12" d="M181.341 26.5457C181.347 26.9064 181.494 27.2502 181.751 27.5041C182.007 27.758 182.352 27.9018 182.713 27.905C182.887 27.9152 183.062 27.8906 183.227 27.8327C183.392 27.7748 183.544 27.6847 183.674 27.5676C183.804 27.4505 183.91 27.3088 183.984 27.1507C184.059 26.9926 184.102 26.8212 184.11 26.6464C184.107 26.2858 183.963 25.9406 183.709 25.6844C183.455 25.4281 183.111 25.2811 182.75 25.2746C182.574 25.2644 182.398 25.2893 182.231 25.3478C182.065 25.4064 181.911 25.4974 181.78 25.6157C181.649 25.7339 181.543 25.877 181.467 26.0367C181.392 26.1963 181.349 26.3694 181.341 26.5457Z" fill="var(--fill-0, #263238)"/>
<path id="Vector_13" d="M180.686 23.4621C180.863 23.6383 181.945 22.8454 183.392 22.8077C184.84 22.7699 185.985 23.5125 186.149 23.3237C186.312 23.1349 186.035 22.9209 185.557 22.5811C184.902 22.1458 184.128 21.9258 183.342 21.9518C182.568 21.9645 181.818 22.2247 181.202 22.6944C180.749 23.0846 180.611 23.4621 180.686 23.4621Z" fill="var(--fill-0, #263238)"/>
<path id="Vector_14" d="M195.487 26.357C195.494 26.7188 195.641 27.064 195.896 27.3199C196.152 27.5758 196.498 27.7224 196.859 27.7289C197.211 27.746 197.556 27.6233 197.817 27.3875C198.079 27.1517 198.237 26.822 198.256 26.4702C198.253 26.1096 198.109 25.7644 197.855 25.5082C197.602 25.2519 197.258 25.1049 196.897 25.0984C196.722 25.0882 196.546 25.1126 196.38 25.1704C196.215 25.2282 196.062 25.3181 195.931 25.4351C195.8 25.552 195.693 25.6936 195.617 25.8518C195.541 26.01 195.497 26.1817 195.487 26.357Z" fill="var(--fill-0, #263238)"/>
<path id="Vector_15" d="M195.298 23.8019C195.474 23.9781 196.557 23.1726 197.991 23.1475C199.426 23.1223 200.597 23.8523 200.748 23.6635C200.899 23.4747 200.647 23.2607 200.169 22.9209C199.514 22.4856 198.74 22.2656 197.954 22.2916C197.179 22.3016 196.428 22.5621 195.814 23.0342C195.361 23.3866 195.185 23.7138 195.298 23.8019Z" fill="var(--fill-0, #263238)"/>
<path id="Vector_16" d="M190.151 35.3559C189.361 35.1217 188.545 34.9906 187.722 34.9658C187.344 34.9658 186.979 34.8776 186.916 34.6133C186.871 34.2214 186.951 33.8252 187.143 33.4806L188.212 30.5607C189.2 28.0842 189.991 25.5339 190.579 22.9335C189.391 25.3224 188.394 27.8011 187.596 30.3467C187.243 31.3787 186.903 32.3604 186.576 33.2918C186.353 33.7581 186.296 34.2862 186.413 34.7896C186.473 34.9216 186.562 35.0387 186.673 35.1323C186.784 35.2258 186.914 35.2936 187.054 35.3308C187.265 35.3779 187.48 35.4032 187.696 35.4063C188.513 35.497 189.338 35.4801 190.151 35.3559Z" fill="var(--fill-0, #263238)"/>
<path id="Vector_17" d="M194.593 36.3C194.354 36.3 194.379 37.911 193.02 39.0815C191.661 40.252 189.937 40.1136 189.937 40.3401C189.937 40.5666 190.327 40.6548 191.044 40.6548C191.994 40.6517 192.912 40.3129 193.637 39.6982C194.348 39.1138 194.8 38.2727 194.895 37.3572C194.895 36.6776 194.707 36.2874 194.593 36.3Z" fill="var(--fill-0, #263238)"/>
<path id="Vector_18" d="M195.248 17.7482C195.412 18.1509 196.897 17.9369 198.647 18.1006C200.396 18.2642 201.818 18.7299 202.045 18.3649C202.145 18.1887 201.894 17.8111 201.315 17.4209C200.552 16.9528 199.69 16.6724 198.798 16.6028C197.9 16.5062 196.992 16.6315 196.155 16.9678C195.5 17.2321 195.185 17.5594 195.248 17.7482Z" fill="var(--fill-0, #263238)"/>
<path id="Vector_19" d="M181.201 18.5284C181.478 18.8682 182.46 18.5284 183.718 18.4529C184.977 18.3773 185.996 18.6291 186.235 18.2767C186.475 17.9242 186.16 17.7606 185.694 17.4586C185.08 17.0692 184.356 16.8883 183.63 16.9425C182.908 16.9659 182.212 17.217 181.642 17.6599C181.226 18.0249 181.088 18.4277 181.201 18.5284Z" fill="var(--fill-0, #263238)"/>
<path id="Vector_20" d="M211.244 28.9623C211.408 28.8868 217.864 26.8604 217.802 33.4933C217.739 40.1261 211.081 38.6787 211.068 38.5277C211.055 38.3767 211.244 28.9623 211.244 28.9623Z" fill="var(--fill-0, #B78876)"/>
<path id="Vector_21" d="M213.121 36.0483C213.121 36.0483 213.234 36.1364 213.435 36.2245C213.71 36.3351 214.017 36.3351 214.291 36.2245C214.718 35.9605 215.068 35.5891 215.307 35.1473C215.545 34.7056 215.664 34.2091 215.651 33.7073C215.672 33.1381 215.569 32.5711 215.348 32.0459C215.287 31.8375 215.176 31.6472 215.025 31.4915C214.874 31.3357 214.687 31.2193 214.48 31.1523C214.349 31.1121 214.209 31.1206 214.084 31.1761C213.959 31.2316 213.858 31.3305 213.8 31.4544C213.712 31.6432 213.8 31.769 213.712 31.7816C213.624 31.7942 213.574 31.6683 213.624 31.404C213.667 31.2414 213.759 31.0962 213.888 30.9887C214.075 30.8562 214.303 30.7979 214.53 30.8251C214.815 30.8697 215.082 30.9903 215.303 31.1742C215.525 31.3581 215.693 31.5984 215.789 31.8697C216.071 32.4442 216.205 33.0802 216.179 33.7198C216.205 34.3113 216.055 34.8972 215.748 35.4034C215.441 35.9097 214.991 36.3136 214.455 36.5643C214.276 36.6128 214.088 36.621 213.905 36.5883C213.722 36.5557 213.549 36.483 213.398 36.3755C213.133 36.1616 213.096 36.0483 213.121 36.0483Z" fill="var(--fill-0, #995037)"/>
<path id="Vector_22" d="M183.052 8.62326C181.982 8.00654 185.279 4.59571 187.935 3.45038C191.963 1.72609 198.004 0.731786 201.78 1.83936C206.185 3.18607 209.822 5.46414 211.962 9.52944C214.019 13.6743 214.936 18.2921 214.618 22.9085C214.648 24.3208 214.3 25.7156 213.611 26.9486C212.654 28.396 210.854 29.277 210.892 31.3034C210.909 31.6706 210.853 32.0374 210.728 32.383C210.603 32.7286 210.41 33.046 210.162 33.3171C208.904 34.5757 207.469 33.3171 206.802 32.0585C205.405 29.428 205.304 26.3319 205.228 23.349C205.066 21.2358 205.249 19.1103 205.77 17.0559C206.122 15.9484 206.663 14.9163 206.953 13.7961C207.127 13.2479 207.182 12.6684 207.112 12.0971C207.043 11.5259 206.851 10.9764 206.55 10.486C206.389 10.2837 206.212 10.0943 206.021 9.91962C205.112 9.0962 203.999 8.5294 202.798 8.27728C201.597 8.02516 200.351 8.09679 199.187 8.48481C195.411 9.74342 189.005 11.5684 187.369 10.272C186.194 9.46427 185.204 8.4178 184.461 7.20103L183.052 8.62326Z" fill="var(--fill-0, #263238)"/>
<path id="Vector_23" d="M201.39 0.933089C199.587 0.255986 197.668 -0.0581224 195.744 0.00883652C193.819 0.0757955 191.927 0.522498 190.176 1.32325C189.238 1.73131 188.393 2.32545 187.692 3.06968C186.992 3.81392 186.449 4.69274 186.098 5.65287C185.775 6.62182 185.805 7.67368 186.183 8.62257C186.56 9.57146 187.261 10.3563 188.162 10.8383L188.288 10.9264C191.107 11.9333 192.945 11.5935 195.839 10.6747C198.231 9.90695 200.37 8.47215 202.762 7.71699C205.325 6.8997 208.075 6.87337 210.653 7.64145C208.209 4.62952 205.014 2.31557 201.39 0.933089Z" fill="var(--fill-0, #263238)"/>
<path id="Vector_24" d="M209.873 6.65983C208.853 6.24008 207.766 6.00568 206.663 5.96761C205.475 5.97488 204.299 6.2143 203.202 6.67243C201.841 7.24046 200.527 7.91814 199.275 8.69879C198.002 9.50523 196.668 10.2121 195.286 10.8132C194.127 11.2979 192.89 11.5666 191.636 11.6062C190.472 11.7205 189.307 11.4024 188.363 10.7126C189.419 11.0328 190.52 11.1774 191.623 11.1405C192.807 11.0469 193.965 10.7488 195.046 10.2595C196.39 9.63152 197.693 8.92117 198.948 8.13242C200.227 7.3302 201.58 6.65168 202.988 6.10606C204.164 5.65592 205.418 5.45033 206.676 5.50191C207.85 5.46865 208.993 5.88254 209.873 6.65983Z" fill="var(--fill-0, #455A64)"/>
<path id="Vector_25" d="M207.116 4.43199C206.152 4.14344 205.152 3.99094 204.146 3.97889C203.063 4.03791 201.996 4.27168 200.987 4.67113C199.752 5.18882 198.576 5.83422 197.475 6.5968C196.217 7.38972 195.147 8.20781 194.052 8.8497C193.092 9.45215 192.066 9.94204 190.994 10.3097C190.02 10.7169 188.952 10.8433 187.91 10.6747C188.905 10.4733 189.885 10.2042 190.843 9.86917C193.069 8.83807 195.178 7.57229 197.136 6.09335C198.278 5.30546 199.507 4.65091 200.798 4.1425C201.877 3.74394 203.021 3.54769 204.171 3.56355C205.225 3.49492 206.269 3.8027 207.116 4.43199Z" fill="var(--fill-0, #455A64)"/>
<path id="Vector_26" d="M213.85 13.0156C213.375 15.1976 212.322 17.2115 210.8 18.8459C209.279 20.4803 207.346 21.6749 205.203 22.3042C209.05 20.2715 212.097 16.9982 213.85 13.0156Z" fill="var(--fill-0, #455A64)"/>
<path id="Vector_27" d="M214.592 17.7104C214.683 18.3314 214.564 18.9651 214.252 19.5102C213.611 20.8672 212.57 21.9958 211.27 22.7448C210 23.4811 208.625 24.0161 207.192 24.3307C206.622 24.5309 206.019 24.6165 205.417 24.5824C205.925 24.2638 206.482 24.03 207.066 23.8901C208.407 23.4541 209.702 22.8849 210.93 22.191C212.131 21.4865 213.135 20.4909 213.85 19.2962C214.378 18.4278 214.479 17.6978 214.592 17.7104Z" fill="var(--fill-0, #455A64)"/>
<path id="Vector_28" d="M191.635 2.06581C191.698 2.12874 191.333 2.56925 190.754 3.26148C189.981 4.12647 189.321 5.08657 188.791 6.11853C188.287 7.13752 188.048 8.26763 188.099 9.4035C188.099 10.2719 188.388 10.8005 188.288 10.8509C188.187 10.9012 187.834 10.4104 187.646 9.46643C187.438 8.22594 187.632 6.95155 188.199 5.82906C188.754 4.74021 189.505 3.76309 190.415 2.94683C191.094 2.27977 191.572 1.96512 191.635 2.06581Z" fill="var(--fill-0, #455A64)"/>
<path id="Vector_29" d="M186.966 5.11171C186.882 6.12523 186.882 7.14403 186.966 8.15754C187.268 9.13201 187.651 10.0793 188.112 10.9894C188.024 11.1404 186.702 10.1713 186.325 8.29599C186.164 7.7531 186.138 7.17919 186.25 6.62421C186.362 6.06923 186.608 5.54999 186.966 5.11171Z" fill="var(--fill-0, #455A64)"/>
<path id="Vector_30" d="M54.4101 227.357L40.7919 259.162L1.62402 241.327C3.54969 237.69 27.2367 239.389 27.2367 239.389L35.682 218.874L54.4101 227.357Z" fill="var(--fill-0, #FF725E)"/>
<path id="Vector_31" d="M40.1245 243.19C40.4459 243.478 40.6513 243.873 40.7023 244.302C40.7532 244.731 40.6463 245.163 40.4014 245.518C40.1271 245.855 39.7343 246.074 39.3036 246.13C38.8729 246.187 38.437 246.076 38.0855 245.82C37.7306 245.513 37.5049 245.083 37.4535 244.616C37.4022 244.149 37.529 243.68 37.8086 243.303C38.1347 242.989 38.5701 242.813 39.0232 242.813C39.4763 242.813 39.9117 242.989 40.2378 243.303" fill="var(--fill-0, #E0E0E0)"/>
<path id="Vector_32" d="M40.7915 259.137L42.3396 255.839L4.01493 240.157C4.01493 240.157 1.92567 240.157 1.57326 241.415L40.7915 259.137Z" fill="var(--fill-0, #E0E0E0)"/>
<path id="Vector_33" d="M26.6944 238.898C26.6063 239.087 27.5251 239.616 28.1921 240.66C28.8592 241.705 28.985 242.724 29.199 242.737C29.4129 242.75 29.6269 241.478 28.7962 240.22C27.9655 238.961 26.7321 238.684 26.6944 238.898Z" fill="var(--fill-0, #E0E0E0)"/>
<path id="Vector_34" d="M21.8112 238.684C21.6853 238.86 22.365 239.553 22.6419 240.66C22.9188 241.768 22.7174 242.712 22.9188 242.787C23.1201 242.863 23.7243 241.843 23.3467 240.471C22.9691 239.1 21.8993 238.546 21.8112 238.684Z" fill="var(--fill-0, #E0E0E0)"/>
<path id="Vector_35" d="M17.2434 242.586C17.3945 242.699 18.0993 241.868 18.0867 240.597C18.0741 239.326 17.3567 238.508 17.2057 238.621C17.0546 238.735 17.3567 239.565 17.3441 240.61C17.3316 241.654 17.0546 242.46 17.2434 242.586Z" fill="var(--fill-0, #E0E0E0)"/>
<path id="Vector_36" d="M29.1361 234.43C29.1361 234.644 30.1304 234.783 31.1751 235.349C32.2197 235.915 32.912 236.608 33.0882 236.519C33.2644 236.431 32.7609 235.349 31.5149 234.694C30.2689 234.04 29.111 234.241 29.1361 234.43Z" fill="var(--fill-0, #E0E0E0)"/>
<path id="Vector_37" d="M32.1832 230.214C32.7467 230.678 33.4249 230.983 34.1466 231.095C34.9128 231.285 35.6983 231.386 36.4877 231.397C36.9548 231.398 37.4214 231.368 37.8847 231.309C38.1612 231.287 38.4329 231.223 38.6902 231.12C38.8789 231.043 39.0355 230.903 39.1339 230.724C39.2323 230.546 39.2668 230.339 39.2314 230.138C39.1969 229.962 39.1222 229.797 39.013 229.655C38.9038 229.513 38.7631 229.399 38.6021 229.32C38.3545 229.207 38.0916 229.13 37.8218 229.094C37.3578 229 36.8855 228.954 36.4121 228.955C35.6132 228.951 34.8188 229.075 34.0586 229.32C32.7999 229.748 32.1329 230.327 32.1832 230.39C32.2335 230.453 32.951 230.088 34.197 229.824C34.9158 229.666 35.6514 229.598 36.387 229.622C36.8098 229.648 37.2303 229.702 37.6456 229.786C38.1112 229.874 38.4637 230.025 38.4888 230.264C38.514 230.503 38.4889 230.377 38.3504 230.465C38.159 230.533 37.9606 230.58 37.7589 230.604C36.586 230.772 35.395 230.772 34.2221 230.604C33.5522 230.427 32.871 230.297 32.1832 230.214Z" fill="var(--fill-0, #E0E0E0)"/>
<path id="Vector_38" d="M32.3088 230.604C32.3088 230.604 33.0514 230.151 33.6807 228.943C34.0479 228.23 34.2906 227.459 34.3981 226.664C34.4428 226.196 34.4428 225.724 34.3981 225.255C34.4108 224.947 34.3432 224.641 34.202 224.368C34.0608 224.094 33.8507 223.862 33.5926 223.694C33.4161 223.618 33.2215 223.595 33.032 223.626C32.8424 223.657 32.6658 223.742 32.5228 223.87C32.3184 224.055 32.1405 224.266 31.9942 224.5C31.7341 224.887 31.5346 225.311 31.4026 225.758C31.1695 226.539 31.1392 227.366 31.3145 228.162C31.6166 229.521 32.3089 230.113 32.3592 230.063C32.1406 229.411 31.9599 228.747 31.818 228.074C31.7403 227.357 31.8175 226.632 32.0445 225.947C32.1751 225.549 32.3616 225.172 32.5983 224.827C32.8375 224.449 33.1521 224.185 33.2906 224.298C33.429 224.412 33.6681 224.839 33.6807 225.242C33.717 225.661 33.717 226.082 33.6807 226.501C33.6124 227.234 33.443 227.954 33.1773 228.64C32.7494 229.874 32.2082 230.528 32.3088 230.604Z" fill="var(--fill-0, #E0E0E0)"/>
<path id="Vector_39" d="M25.0468 193.072L52.9627 121.445C57.028 113.163 62.4526 110.004 71.8418 112.484L147.081 129.185L192.857 161.695C192.857 161.695 189.773 174.407 183.518 176.496C181.806 177.063 81.1178 175.666 81.1178 175.666L52.9627 235.601L31.5664 225.154L43.3973 199.667L25.0468 193.072Z" fill="var(--fill-0, #455A64)"/>
<path id="Vector_40" d="M139.014 142.073H138.686L137.705 142.136L133.929 142.313L120.084 142.829L74.4595 144.301L71.8164 144.377L72.1059 144.175L55.895 184.954L50.9487 197.2C50.3697 198.61 49.904 199.718 49.5768 200.511C49.4258 200.863 49.2999 201.14 49.2118 201.366C49.1237 201.593 49.0734 201.656 49.0608 201.643C49.0482 201.631 49.0608 201.543 49.1489 201.341L49.4509 200.46C49.7656 199.655 50.1809 198.535 50.7095 197.112C51.8423 194.155 53.4659 189.963 55.4545 184.791C59.5576 174.344 65.2087 159.958 71.4892 143.936L71.5647 143.735H71.8416L74.4721 143.659L120.109 142.401L133.954 142.086H137.73H138.988L139.014 142.073Z" fill="var(--fill-0, #263238)"/>
<path id="Vector_41" d="M71.8418 163.029C74.8804 166.985 77.5713 171.196 79.8843 175.615C78.2867 173.691 76.859 171.632 75.6176 169.461C74.172 167.432 72.9084 165.28 71.8418 163.029Z" fill="var(--fill-0, #263238)"/>
<path id="Vector_42" d="M81.5709 157C81.8449 157.878 82.0056 158.788 82.0491 159.706C82.2659 161.906 82.3458 164.117 82.2883 166.327C82.2401 168.539 82.051 170.746 81.7219 172.934C81.644 173.851 81.4407 174.754 81.1178 175.615C80.9164 175.615 81.5205 171.449 81.6338 166.314C81.7471 161.179 81.3695 157.013 81.5709 157Z" fill="var(--fill-0, #263238)"/>
<path id="Vector_43" d="M141.908 128.103L161.291 107.172C161.291 107.172 166.099 88.4064 168.452 83.2587C170.806 78.111 187.457 58.8542 187.457 58.8542L210.225 51.3026C210.225 51.3026 224.309 72.2962 222.9 89.3755C221.49 106.455 192.857 161.62 192.857 161.62C190.725 162.444 188.47 162.908 186.186 162.991C182.523 162.991 171.435 157.957 164.022 154.332C159.458 152.118 155.572 148.719 152.77 144.49L141.908 128.103Z" fill="var(--fill-0, #263238)"/>
<path id="Vector_44" d="M186.185 163.168C182.586 163.168 172.114 158.448 163.958 154.496C159.364 152.268 155.452 148.847 152.631 144.591L141.706 128.078L141.794 127.99L161.202 107.097C161.441 106.14 166.085 88.2176 168.363 83.1832C170.641 78.1488 186.714 59.5214 187.394 58.741L210.288 51.1516V51.2523C210.439 51.4662 224.384 72.485 222.987 89.4259C221.59 106.367 193.221 161.167 192.931 161.733C190.779 162.584 188.498 163.069 186.185 163.168ZM142.134 128.116L152.92 144.414C155.709 148.623 159.578 152.005 164.122 154.206C170.767 157.429 182.485 162.853 186.21 162.853C188.456 162.771 190.672 162.316 192.768 161.506C193.787 159.53 221.401 106.002 222.76 89.3755C224.107 73.1395 211.232 53.0899 210.174 51.504L187.519 58.9676C186.739 59.8612 170.818 78.3124 168.552 83.2965C166.287 88.2806 161.454 107.009 161.403 107.21V107.286L142.134 128.116Z" fill="var(--fill-0, #263238)"/>
<path id="Vector_45" d="M153.35 145.396C157.465 148.82 177.502 149.399 187.018 147.498C196.533 145.598 194.418 142.602 196.772 136.309C199.125 130.016 205.255 106.593 205.255 91.5529C205.255 76.5125 193.474 66.7331 191.02 65.3361C188.566 63.939 182.7 69.5272 179.34 74.7756C175.979 80.024 174.306 123.018 174.306 123.018L141.997 129.009L144.514 143.219L153.35 145.396Z" fill="var(--fill-0, #263238)"/>
<path id="Vector_46" d="M173.298 148.706C164.815 148.706 155.967 147.725 153.286 145.535L144.25 143.345V143.244L141.732 128.883H141.883L174.066 122.892C174.192 119.846 175.853 79.8226 179.1 74.6875C182.348 69.5524 188.376 63.6999 190.994 65.1976C193.839 66.8212 205.305 76.6006 205.305 91.5529C205.305 106.279 199.402 129.626 196.884 136.359C196.424 137.643 196.046 138.955 195.752 140.286C194.883 143.961 194.367 146.176 186.942 147.649C182.434 148.405 177.868 148.759 173.298 148.706ZM144.514 143.093L153.45 145.27C157.402 148.555 177.112 149.323 186.979 147.334C194.141 145.9 194.619 143.886 195.487 140.211C195.777 138.864 196.16 137.54 196.633 136.246C199.15 129.538 205.028 106.228 205.028 91.5529C205.028 76.8775 193.7 67.0729 190.881 65.4745C188.615 64.2159 182.864 69.4643 179.402 74.8637C176.105 80.0114 174.368 122.603 174.368 123.031V123.157H174.242L142.097 129.185L144.514 143.093Z" fill="var(--fill-0, #263238)"/>
<path id="Vector_47" d="M177.679 82.1133C177.679 82.1133 177.679 82.365 177.679 82.8559C177.679 83.3468 177.591 84.1145 177.528 85.0081C177.389 86.9338 177.175 89.7027 176.911 93.2268C176.332 100.376 175.514 110.596 174.507 123.043V123.245H174.306L142.01 129.273L142.262 128.908C143.054 133.452 143.885 138.235 144.779 143.131L144.54 142.866C148.945 144.012 153.576 145.22 158.384 146.164C165.092 147.661 171.979 148.195 178.837 147.75C182.08 147.534 185.278 146.869 188.339 145.774C191.265 144.75 193.696 142.66 195.148 139.921C196.35 137.207 197.241 134.365 197.804 131.451C198.484 128.631 199.151 125.888 199.78 123.232C201.039 117.921 202.083 112.949 202.901 108.393C204.266 101.201 205.057 93.9115 205.267 86.594C205.267 84.0012 205.267 81.9875 205.267 80.6282C205.267 79.9737 205.267 79.4577 205.267 79.0801C205.251 78.9001 205.251 78.7189 205.267 78.5389C205.286 78.7146 205.286 78.8918 205.267 79.0675C205.267 79.4451 205.33 79.9611 205.368 80.6156C205.469 81.9875 205.532 84.0012 205.519 86.594C205.409 93.9331 204.684 101.25 203.354 108.469C202.574 113.05 201.529 118.034 200.309 123.358C199.679 126.018 199.033 128.762 198.37 131.589C197.805 134.551 196.906 137.439 195.689 140.198C194.976 141.641 193.979 142.926 192.757 143.974C191.496 144.999 190.082 145.819 188.566 146.403C185.45 147.53 182.192 148.217 178.887 148.442C171.926 148.897 164.936 148.346 158.133 146.806C153.35 145.849 148.706 144.641 144.288 143.496H144.087V143.294C143.243 138.398 142.413 133.616 141.569 129.072V128.77L141.884 128.707L174.205 122.779L173.991 123.005C175.086 110.57 175.98 100.351 176.609 93.2143C176.936 89.6902 177.2 86.9212 177.377 85.0081C177.477 84.0893 177.54 83.3719 177.603 82.8559C177.666 82.3399 177.679 82.1133 177.679 82.1133Z" fill="var(--fill-0, #455A64)"/>
<path id="Vector_48" d="M201.894 72.3716C201.806 72.4597 200.9 71.5032 199.125 70.4208C196.828 68.9942 194.2 68.1874 191.498 68.0794C188.795 67.9713 186.111 68.5655 183.707 69.8041C181.845 70.7354 180.863 71.6164 180.8 71.5158C180.737 71.4151 180.976 71.2389 181.429 70.8487C182.063 70.2947 182.75 69.8056 183.481 69.3887C185.923 67.9917 188.71 67.311 191.521 67.4246C194.333 67.5381 197.055 68.4413 199.377 70.0306C200.075 70.5064 200.724 71.0503 201.315 71.6542C201.731 72.0822 201.919 72.3464 201.894 72.3716Z" fill="var(--fill-0, #455A64)"/>
<path id="Vector_49" d="M52.9619 235.601L53.0752 235.286L53.4528 234.417L54.9757 231.057C56.335 228.099 58.2984 223.845 60.7401 218.471L80.7897 175.427L80.8778 175.25H81.0792L105.849 175.137L170.214 174.999H181.34C182.836 175.079 184.324 174.72 185.619 173.967C186.715 173.338 187.691 172.52 188.501 171.55C189.575 170.173 190.425 168.636 191.019 166.994L191.459 165.735C191.502 165.583 191.561 165.435 191.635 165.295C191.607 165.448 191.57 165.599 191.522 165.748C191.434 166.088 191.308 166.528 191.144 167.082C190.579 168.775 189.728 170.358 188.627 171.764C187.82 172.778 186.829 173.632 185.707 174.281C184.375 175.088 182.833 175.482 181.277 175.414L170.164 175.502L105.798 175.829L81.0289 175.917L81.3184 175.729C73.15 193.034 66.0892 207.999 61.0548 218.685C58.5375 223.971 56.5238 228.2 55.1141 231.133L53.5031 234.455L53.0752 235.299C53.0467 235.402 53.0088 235.504 52.9619 235.601Z" fill="var(--fill-0, #263238)"/>
<path id="Vector_50" d="M118.121 122.729C118.004 122.748 117.885 122.748 117.768 122.729L116.736 122.54L112.784 121.722L98.2724 118.55L76.574 113.818L73.4652 113.138C72.4332 112.874 71.3759 112.635 70.3061 112.458C68.1286 112.064 65.902 112.022 63.711 112.333C61.4553 112.695 59.3455 113.68 57.6193 115.177C55.8682 116.774 54.4336 118.687 53.3904 120.816L52.0059 124.415C44.6179 143.395 37.9473 160.562 33.1268 173.035C30.6977 179.215 28.7091 184.237 27.3246 187.748C26.645 189.448 26.066 190.782 25.7262 191.738C25.5374 192.154 25.399 192.493 25.2857 192.758C25.1724 193.022 25.1221 193.11 25.1221 193.11C25.1401 192.985 25.1739 192.862 25.2227 192.745C25.3234 192.468 25.4367 192.116 25.6003 191.688C25.9528 190.719 26.4562 189.372 27.0855 187.66L32.6989 172.872C37.5068 160.374 44.1145 143.181 51.427 124.189L52.8241 120.589C53.8994 118.385 55.3861 116.407 57.204 114.762C59.022 113.193 61.2398 112.161 63.6103 111.779C65.8733 111.463 68.1726 111.514 70.4194 111.93C71.5144 112.119 72.5716 112.358 73.6162 112.622L76.725 113.327L98.2724 118.11L112.784 121.432L116.711 122.364L117.73 122.615L118.121 122.729Z" fill="var(--fill-0, #263238)"/>
<path id="Vector_51" d="M49.0984 201.694L40.0239 228.678L0.0126953 212.832C1.76216 209.057 25.4995 209.623 25.4995 209.623L30.6598 195.099L49.0984 201.694Z" fill="var(--fill-0, #FF725E)"/>
<path id="Vector_52" d="M38.564 212.795C38.8977 213.068 39.1211 213.454 39.1928 213.879C39.2645 214.305 39.1797 214.742 38.9541 215.11C38.6951 215.456 38.3141 215.69 37.8885 215.765C37.463 215.84 37.0249 215.75 36.6635 215.513C36.3034 215.227 36.0626 214.818 35.9882 214.364C35.9137 213.91 36.0109 213.445 36.2607 213.059C36.5668 212.724 36.99 212.521 37.4425 212.49C37.8949 212.46 38.3417 212.605 38.6898 212.895" fill="var(--fill-0, #E0E0E0)"/>
<path id="Vector_53" d="M40.0237 228.678L41.3956 225.318L2.37875 211.549C2.37875 211.549 0.28948 211.624 0 212.958L40.0237 228.678Z" fill="var(--fill-0, #E0E0E0)"/>
<path id="Vector_54" d="M24.9331 209.17C24.8575 209.359 25.8015 209.837 26.5189 210.844C27.2363 211.851 27.4125 212.883 27.6265 212.87C27.8404 212.858 27.9915 211.612 27.1104 210.416C26.2294 209.22 24.9582 208.968 24.9331 209.17Z" fill="var(--fill-0, #E0E0E0)"/>
<path id="Vector_55" d="M20.0488 209.233C19.923 209.409 20.6404 210.076 20.9802 211.171C21.32 212.266 21.1564 213.21 21.3578 213.273C21.5592 213.336 22.113 212.291 21.6724 210.944C21.2319 209.598 20.1243 209.057 20.0488 209.233Z" fill="var(--fill-0, #E0E0E0)"/>
<path id="Vector_56" d="M15.6692 213.323C15.8329 213.424 16.4999 212.555 16.4118 211.297C16.3237 210.038 15.5937 209.233 15.4427 209.371C15.2917 209.51 15.6441 210.29 15.6818 211.335C15.7196 212.379 15.493 213.223 15.6692 213.323Z" fill="var(--fill-0, #E0E0E0)"/>
<path id="Vector_57" d="M27.1482 204.588C27.1482 204.802 28.1677 204.891 29.2375 205.394C30.3073 205.897 31.0373 206.653 31.201 206.476C31.3646 206.3 30.8234 205.318 29.5522 204.739C28.281 204.161 27.1105 204.4 27.1482 204.588Z" fill="var(--fill-0, #E0E0E0)"/>
<path id="Vector_58" d="M29.9804 200.221C30.5717 200.653 31.2662 200.922 31.9942 201.001C32.7679 201.162 33.5585 201.225 34.3478 201.19C34.812 201.169 35.2744 201.119 35.7323 201.039C36.007 200.999 36.2743 200.919 36.5252 200.8C36.7094 200.716 36.8595 200.572 36.951 200.391C37.0424 200.21 37.0698 200.004 37.0287 199.806C36.9863 199.629 36.9027 199.465 36.7845 199.327C36.6663 199.189 36.517 199.082 36.349 199.013C36.0967 198.907 35.8289 198.844 35.5561 198.824C35.0895 198.756 34.6176 198.731 34.1464 198.749C33.349 198.786 32.5628 198.952 31.818 199.239C30.5594 199.73 29.9427 200.334 29.993 200.397C30.0434 200.46 30.7482 200.058 31.9691 199.73C32.6828 199.535 33.419 199.433 34.159 199.428C34.5806 199.427 35.0016 199.461 35.4176 199.529C35.8833 199.529 36.2483 199.73 36.2735 199.957C36.2987 200.183 36.2735 200.07 36.1477 200.158C35.9649 200.246 35.7696 200.306 35.5687 200.334C35.1526 200.419 34.7325 200.482 34.3101 200.523C33.5689 200.587 32.8235 200.587 32.0823 200.523C31.3907 200.368 30.6879 200.267 29.9804 200.221Z" fill="var(--fill-0, #E0E0E0)"/>
<path id="Vector_59" d="M30.1314 200.599C30.1314 200.662 30.8488 200.108 31.39 198.874C31.7158 198.146 31.9158 197.367 31.9816 196.571C32.0316 196.098 32.0316 195.622 31.9816 195.149C31.9752 194.843 31.891 194.544 31.7368 194.28C31.5827 194.015 31.3637 193.795 31.1006 193.639C30.9215 193.569 30.7259 193.553 30.538 193.593C30.35 193.633 30.1781 193.728 30.0434 193.865C29.8485 194.061 29.6793 194.281 29.5399 194.52C29.3079 194.949 29.1424 195.412 29.049 195.891C28.8508 196.681 28.8508 197.506 29.049 198.295C29.414 199.642 30.144 200.209 30.1818 200.146C29.9322 199.509 29.722 198.857 29.5525 198.195C29.4301 197.482 29.4688 196.751 29.6657 196.055C29.7707 195.651 29.9362 195.265 30.1566 194.91C30.3958 194.507 30.6852 194.23 30.8237 194.343C30.9587 194.459 31.0677 194.601 31.1436 194.762C31.2195 194.922 31.2606 195.097 31.2642 195.275C31.4397 196.431 31.3228 197.612 30.9244 198.711C30.5342 199.881 30.0307 200.523 30.1314 200.599Z" fill="var(--fill-0, #E0E0E0)"/>
<path id="Vector_60" d="M94.345 63.7377C93.98 64.5809 96.4595 119.708 96.4595 119.708L135.476 142.111L138.296 139.342L100.789 117.241L98.0076 63.6244L94.345 63.7377Z" fill="var(--fill-0, #263238)"/>
<path id="Vector_61" d="M141.909 129.009L132.041 121.457L116.334 125.233C116.334 125.233 116.561 126.618 118.587 127.285L122.841 126.618L114.987 131.992C115.187 132.717 115.572 133.378 116.103 133.909C116.635 134.441 117.296 134.826 118.021 135.025C119.594 135.521 120.969 136.504 121.947 137.832L125.988 142.086H136.749L144.061 141.356L141.909 129.022V129.009Z" fill="var(--fill-0, #B78876)"/>
</g>
</svg>
