<svg preserveAspectRatio="none" width="100%" height="100%" overflow="visible" style="display: block;" viewBox="0 0 100 378" fill="none" xmlns="http://www.w3.org/2000/svg">
<g id="freepik--character-2--inject-30">
<path id="Vector" d="M81.8675 37.2106C82.1315 37.1282 82.3696 36.9788 82.5586 36.7768C82.7475 36.5749 82.8808 36.3274 82.9455 36.0586C83.0102 35.7897 83.004 35.5086 82.9276 35.2429C82.8512 34.9771 82.7071 34.7358 82.5094 34.5423C83.3275 34.0892 83.101 32.8054 82.5094 32.1258C81.9179 31.4461 80.9614 31.0308 80.4579 30.2379C80.7178 30.2921 80.9861 30.2917 81.2458 30.2366C81.5054 30.1814 81.7508 30.0729 81.9663 29.9178C82.1817 29.7627 82.3625 29.5645 82.4972 29.3358C82.6319 29.107 82.7175 28.8527 82.7486 28.5891C83.0931 28.6156 83.4367 28.527 83.7255 28.3371C84.0143 28.1473 84.2319 27.867 84.3442 27.5402C84.4565 27.2134 84.4571 26.8585 84.346 26.5313C84.2349 26.2041 84.0184 25.923 83.7303 25.7321C84.6113 25.6566 84.5358 24.2091 83.8058 23.7309C82.9882 23.3928 82.1469 23.1152 81.2886 22.9002C79.8493 21.2779 77.9323 20.1541 75.8136 19.6908L79.3881 17.0225C79.6937 16.8436 79.9425 16.5818 80.1055 16.2673C80.4202 15.5625 79.8664 14.7696 79.2748 14.2662C77.9879 13.207 76.4151 12.5542 74.7564 12.3908C74.2404 12.3908 73.5733 12.3908 73.3971 12.9069C72.2438 12.4805 71.0038 12.3423 69.7849 12.5041C69.0884 12.459 68.3993 12.6693 67.8466 13.0956C68.1646 12.4901 68.5912 11.9483 69.1053 11.4972C69.3618 11.2699 69.5673 10.9909 69.7083 10.6786C69.8493 10.3662 69.9226 10.0275 69.9234 9.68482C69.8604 9.00517 69.0423 8.4262 68.476 8.7912C69.1053 8.50172 69.0172 7.5326 68.476 7.02915C67.8833 6.64386 67.1792 6.46673 66.4748 6.5257C65.9965 6.5257 65.3672 6.60123 65.2162 7.06691C65.1359 6.8071 64.9796 6.57732 64.7674 6.40728C64.5552 6.23725 64.2969 6.13477 64.0258 6.11308C63.7548 6.0914 63.4834 6.15152 63.2469 6.28566C63.0103 6.41979 62.8195 6.62178 62.6989 6.86553C62.5282 6.71345 62.3285 6.5974 62.1118 6.52434C61.8951 6.45127 61.6659 6.42271 61.4379 6.44033C61.2099 6.45796 60.9878 6.52143 60.785 6.62693C60.5821 6.73243 60.4026 6.87779 60.2572 7.05431C59.9836 6.90462 59.681 6.81548 59.3699 6.7929C59.0588 6.77031 58.7465 6.81483 58.4541 6.92343C58.1618 7.03203 57.8961 7.20219 57.6752 7.42237C57.4543 7.64256 57.2832 7.90762 57.1737 8.19965L59.0741 5.01537C59.4391 4.41124 59.4895 3.29108 58.7973 3.3666C59.0378 3.32662 59.2652 3.22948 59.4603 3.08335C59.6555 2.93721 59.8127 2.74634 59.9188 2.52681C60.0248 2.30728 60.0766 2.0655 60.0698 1.82178C60.063 1.57807 59.9978 1.33955 59.8797 1.12628C59.5974 0.712403 59.2007 0.389665 58.738 0.197455C58.2754 0.00524607 57.7668 -0.0481205 57.2743 0.0438743L56.4059 1.30248C56.0684 1.06639 55.6657 0.941646 55.2538 0.945676C54.842 0.949706 54.4417 1.0823 54.1089 1.32495C53.7762 1.5676 53.5275 1.90817 53.3978 2.29904C53.268 2.68991 53.2636 3.11156 53.3853 3.50505C53.2698 3.41563 53.1364 3.35207 52.9942 3.31866C52.8521 3.28526 52.7044 3.2828 52.5612 3.31144C52.4179 3.34009 52.2825 3.39917 52.1642 3.48469C52.0458 3.57021 51.9471 3.68015 51.8749 3.8071C51.613 4.33705 51.5124 4.93221 51.5854 5.51881C51.3319 5.35088 51.0377 5.25462 50.734 5.2402C50.4303 5.22579 50.1283 5.29376 49.86 5.43692C49.5917 5.58008 49.3672 5.79312 49.2101 6.05347C49.053 6.31382 48.9691 6.61179 48.9675 6.91586C48.0833 6.4592 47.0906 6.25455 46.0979 6.32432C46.3165 5.96449 46.4129 5.5436 46.3726 5.1245C46.3322 4.70539 46.1574 4.31058 45.8742 3.99903C45.591 3.68749 45.2146 3.47594 44.8012 3.39598C44.3878 3.31602 43.9597 3.37193 43.5807 3.55538C43.5417 3.27539 43.4415 3.00743 43.2872 2.77052C43.133 2.53361 42.9284 2.33355 42.6882 2.18458C42.4479 2.03561 42.1778 1.94138 41.897 1.90857C41.6162 1.87575 41.3316 1.90517 41.0635 1.99472C40.7488 0.836801 39.2259 -0.0190523 38.3071 0.736113C37.3883 1.49128 37.8666 3.05194 38.4456 4.14693L40.3586 7.70879L34.1411 4.37349C33.9577 4.25451 33.743 4.19315 33.5244 4.19729C33.2223 4.19729 33.0084 4.49934 32.7441 4.63779C32.3324 4.74934 31.9109 4.82098 31.4855 4.85175C30.3905 5.19157 30.4031 6.86553 31.1582 7.73397C32.0341 8.47369 32.9546 9.15881 33.9146 9.78549L31.1456 10.3015C31.0432 9.93051 30.8655 9.58453 30.6237 9.28509C30.3819 8.98565 30.0811 8.73914 29.7399 8.56089C29.3988 8.38265 29.0246 8.27647 28.6407 8.24897C28.2568 8.22147 27.8713 8.27323 27.5083 8.40103C27.1307 7.38156 25.7714 7.24311 24.6764 7.29345C23.6977 7.21448 22.7244 7.50151 21.9452 8.09896C21.5506 8.58214 21.335 9.18682 21.335 9.81067C21.335 10.4345 21.5506 11.0392 21.9452 11.5224C22.764 12.4641 23.7951 13.1975 24.9533 13.662C24.7645 14.4801 23.6947 14.7318 22.864 14.6186C22.0512 14.3577 21.1865 14.3014 20.3468 14.4549C19.2644 14.8703 18.8113 16.2548 17.7289 16.6449C17.3913 16.72 17.0623 16.8296 16.7472 16.9722C16.378 17.2957 16.1406 17.7436 16.0801 18.2308C15.9417 18.8349 15.8158 19.4264 15.6773 20.0306C15.5901 20.3199 15.5643 20.6243 15.6018 20.9242C15.8032 21.9059 17.1625 22.1828 18.119 21.7423C18.9617 21.2137 19.8664 20.791 20.8125 20.4837C19.4542 21.0037 18.2774 21.9092 17.4268 23.089C16.6968 24.3476 16.9989 26.2984 18.3582 26.7893C19.7175 27.2802 21.1019 26.0845 22.134 25.0147C23.1661 23.9448 24.5883 22.8121 25.9098 23.4288" fill="var(--fill-0, #263238)"/>
<path id="Vector_2" d="M79.8661 36.3044C80.1372 36.1434 80.4462 36.0575 80.7615 36.0556C81.0768 36.0536 81.3869 36.1357 81.6599 36.2934C81.9329 36.451 82.159 36.6786 82.3149 36.9526C82.4708 37.2267 82.5509 37.5373 82.5469 37.8525C83.192 38.0377 83.7747 38.3943 84.2332 38.8844C84.6918 39.3744 85.0089 39.9795 85.1509 40.6354C85.293 41.2913 85.2546 41.9734 85.0398 42.6092C84.8251 43.2451 84.442 43.8108 83.9314 44.2463C83.1133 44.9259 81.4897 44.9511 81.3261 43.9064C81.1534 44.3449 80.8763 44.7347 80.5187 45.0418C80.1612 45.3488 79.7341 45.564 79.2746 45.6685C79.478 45.9971 79.6108 46.3644 79.6644 46.7472C79.718 47.1299 79.6913 47.5196 79.5859 47.8915C79.4805 48.2633 79.2988 48.6091 79.0523 48.9068C78.8058 49.2045 78.5 49.4476 78.1544 49.6205C78.5319 49.9326 78.8263 50.3332 79.0115 50.7867C79.1967 51.2401 79.2668 51.7323 79.2158 52.2194C79.1647 52.7066 78.9939 53.1735 78.7187 53.5787C78.4435 53.9838 78.0724 54.3147 77.6384 54.5417C77.7645 54.8138 77.8357 55.1081 77.8479 55.4077C77.86 55.7074 77.8129 56.0065 77.7092 56.2879C77.6054 56.5693 77.4472 56.8275 77.2434 57.0475C77.0397 57.2676 76.7945 57.4453 76.5219 57.5704C76.2494 57.6955 75.9548 57.7656 75.6551 57.7766C75.3553 57.7875 75.0564 57.7392 74.7754 57.6344C74.4944 57.5296 74.2369 57.3703 74.0176 57.1657C73.7983 56.9611 73.6216 56.7152 73.4975 56.4422C73.2223 57.3268 72.6979 58.1133 71.9872 58.7077C71.8054 58.8457 71.5972 58.9452 71.3756 58.9998C71.1539 59.0545 70.9234 59.0632 70.6983 59.0255C70.4731 58.9877 70.258 58.9044 70.0663 58.7805C69.8745 58.6565 69.7102 58.4947 69.5833 58.3049C69.4505 58.7473 69.2215 59.1549 68.9128 59.4985C68.604 59.8421 68.2232 60.1132 67.7974 60.2924C67.3717 60.4716 66.9116 60.5545 66.4501 60.5351C65.9885 60.5157 65.537 60.3945 65.1278 60.1802C65.1977 60.6963 65.0649 61.2193 64.7574 61.6396C64.4499 62.0598 63.9916 62.3446 63.4786 62.4342C62.9656 62.5238 62.4379 62.4111 62.0062 62.1199C61.5745 61.8288 61.2723 61.3817 61.1632 60.8725L55.9525 61.2752C54.8013 61.3821 53.6426 61.3821 52.4914 61.2752C51.0078 61.1375 49.5791 60.6454 48.3254 59.8404C47.9583 59.539 47.5281 59.324 47.0668 59.2111C46.5223 59.2103 45.9861 59.3444 45.5061 59.6013C44.1525 60.1067 42.6919 60.2563 41.264 60.036C39.8361 59.8156 38.4886 59.2326 37.3503 58.3427C37.0133 58.0382 36.6312 57.7877 36.2176 57.6001C35.7132 57.4639 35.186 57.4339 34.6695 57.512C33.4068 57.593 32.139 57.5211 30.8936 57.298C30.3469 57.2482 29.816 57.0875 29.3335 56.8256C28.8509 56.5638 28.4268 56.2063 28.087 55.7751C27.4954 54.8437 27.9611 53.2579 29.0561 53.2579C29.0842 52.9007 29.0309 52.5418 28.9001 52.2082C28.7693 51.8746 28.5644 51.5751 28.3009 51.3322C28.0288 51.0996 27.6783 50.9793 27.3207 50.9957C26.963 51.012 26.625 51.1638 26.3752 51.4203C26.2724 51.5585 26.2059 51.7201 26.1815 51.8906C26.1572 52.0611 26.1759 52.235 26.236 52.3963C26.296 52.5577 26.3955 52.7015 26.5254 52.8146C26.6552 52.9278 26.8113 53.0066 26.9794 53.0439C26.6814 53.2239 26.3435 53.3275 25.9959 53.3455C25.6482 53.3635 25.3014 53.2954 24.9864 53.1473C24.6714 52.9991 24.3978 52.7754 24.19 52.4961C23.9822 52.2168 23.8465 51.8905 23.7951 51.5462C23.7862 50.8271 24.05 50.1314 24.5334 49.5989C25.0168 49.0665 25.6838 48.737 26.4004 48.6766C26.0189 47.6788 25.8976 46.6002 26.048 45.5426C25.703 46.0218 25.1896 46.353 24.6108 46.4697C24.032 46.5864 23.4304 46.48 22.9267 46.1719C22.6843 46.6651 22.3438 47.1036 21.9262 47.4607C21.5085 47.8177 21.0224 48.0859 20.4975 48.2486C19.9634 48.387 19.398 48.3375 18.8961 48.1083C18.3942 47.8791 17.9864 47.4843 17.7412 46.99C17.6422 46.7407 17.6028 46.4717 17.626 46.2044C17.6492 45.9371 17.7345 45.679 17.875 45.4505C18.0155 45.2219 18.2075 45.0294 18.4355 44.888C18.6635 44.7467 18.9214 44.6606 19.1886 44.6364C19.0055 44.338 18.9013 43.9979 18.8859 43.6481C18.8704 43.2983 18.9442 42.9503 19.1003 42.6369C19.2564 42.3235 19.4896 42.0549 19.7781 41.8565C20.0666 41.658 20.4008 41.5362 20.7493 41.5025C20.5967 40.8087 20.6767 40.084 20.9769 39.4403C21.2772 38.7965 21.781 38.2695 22.4106 37.9406C22.206 38.0867 21.971 38.1848 21.7232 38.2277C21.4754 38.2705 21.2211 38.257 20.9793 38.188C20.7374 38.1191 20.5142 37.9966 20.3262 37.8295C20.1383 37.6625 19.9903 37.4553 19.8934 37.2232C19.3145 38.3308 17.6783 38.2175 16.5581 37.6763C16.0684 37.529 15.6434 37.2195 15.3529 36.7986C15.0624 36.3778 14.9237 35.8706 14.9597 35.3605C15.0288 34.7621 15.3101 34.2084 15.7526 33.7998C16.8419 32.9828 18.1668 32.5412 19.5284 32.5412C20.2012 30.8413 20.5923 29.0431 20.6863 27.2173C19.9247 27.3096 19.1551 27.127 18.516 26.7025C17.8769 26.278 17.4102 25.6393 17.2 24.9014L24.7517 20.2194C24.7517 20.2194 42.196 17.526 42.8253 17.526C43.4546 17.526 79.9668 36.3044 79.9668 36.3044C80.2006 36.4945 80.4728 36.6318 80.7647 36.7068C81.0565 36.7818 81.3612 36.7927 81.6577 36.7389C81.9542 36.6851 82.2356 36.5678 82.4825 36.3951C82.7294 36.2223 82.936 35.9982 83.0881 35.7381C83.3552 35.1877 83.4681 34.5752 83.4149 33.9658C83.3617 33.3563 83.1444 32.7727 82.7861 32.2769C82.0583 31.2815 81.1539 30.4283 80.1178 29.7597C81.3009 29.8191 82.4662 29.4529 83.4028 28.7276C83.6792 28.4813 83.8742 28.1568 83.9619 27.7972C84.0495 27.4375 84.0257 27.0597 83.8936 26.7138C83.4783 25.707 82.3204 25.7699 81.5652 25.2035C81.1665 24.8219 80.8421 24.3695 80.6087 23.8694" fill="var(--fill-0, #263238)"/>
<path id="Vector_3" d="M31.1338 32.3901C31.5617 26.16 35.7529 18.5454 41.9578 19.2376L61.3152 24.2721C62.2328 24.3761 63.0772 24.823 63.6793 25.5231C64.2814 26.2233 64.5968 27.1251 64.5624 28.0479L62.5738 69.8714L67.0796 72.1118C67.0796 72.1118 62.2591 74.8178 62.2969 74.8304C62.3347 74.8429 57.8163 88.008 45.0288 83.9175C42.5116 83.0994 41.3411 80.3179 40.8502 77.4608H40.7747C40.7747 77.121 36.5458 73.8864 36.5458 73.5592C36.5458 73.8864 40.7118 71.193 40.7118 71.193V70.0602C40.7118 66.2844 40.7118 64.7363 40.7118 64.7741C40.7118 64.8118 32.7574 63.3896 31.1841 52.9935C30.3283 47.7828 30.7058 39.3124 31.1338 32.3901Z" fill="var(--fill-0, #B78876)"/>
<path id="Vector_4" d="M33.298 39.3502C33.2859 39.5228 33.3095 39.696 33.3673 39.859C33.4251 40.022 33.5159 40.1714 33.634 40.2977C33.7521 40.4241 33.895 40.5248 34.0537 40.5935C34.2125 40.6622 34.3837 40.6974 34.5566 40.697C34.7322 40.7146 34.9095 40.6952 35.077 40.6399C35.2445 40.5846 35.3986 40.4946 35.5291 40.376C35.6597 40.2573 35.7638 40.1125 35.8348 39.951C35.9057 39.7894 35.942 39.6148 35.9411 39.4384C35.9449 39.0951 35.8162 38.7635 35.5818 38.5127C35.3473 38.2619 35.0253 38.111 34.6825 38.0916C34.5069 38.074 34.3296 38.0935 34.1621 38.1488C33.9946 38.2041 33.8405 38.294 33.71 38.4126C33.5794 38.5313 33.4753 38.6761 33.4043 38.8376C33.3333 38.9992 33.2971 39.1738 33.298 39.3502Z" fill="var(--fill-0, #263238)"/>
<path id="Vector_5" d="M32.9457 36.8079C33.1094 36.9841 34.1163 36.2415 35.5511 36.2541C36.9859 36.2667 38.0683 36.9967 38.1941 36.8205C38.32 36.6443 38.0934 36.4303 37.6403 36.0905C37.0253 35.6568 36.2911 35.4238 35.5385 35.4234C34.7911 35.4202 34.0611 35.6489 33.4492 36.0779C33.0087 36.4177 32.8576 36.7324 32.9457 36.8079Z" fill="var(--fill-0, #263238)"/>
<path id="Vector_6" d="M47.0678 39.2999C47.0607 39.6453 47.188 39.98 47.4227 40.2336C47.6575 40.4871 47.9814 40.6397 48.3264 40.6592C48.502 40.6768 48.6793 40.6574 48.8468 40.6021C49.0143 40.5468 49.1684 40.4568 49.2989 40.3382C49.4295 40.2195 49.5336 40.0747 49.6046 39.9132C49.6755 39.7516 49.7118 39.577 49.7109 39.4006C49.7149 39.056 49.5866 38.723 49.3524 38.4701C49.1183 38.2173 48.7962 38.0638 48.4523 38.0413C48.2767 38.0236 48.0994 38.0431 47.9319 38.0984C47.7644 38.1537 47.6103 38.2436 47.4798 38.3623C47.3492 38.4809 47.2451 38.6258 47.1741 38.7873C47.1031 38.9488 47.0669 39.1234 47.0678 39.2999Z" fill="var(--fill-0, #263238)"/>
<path id="Vector_7" d="M47.0674 37.1729C47.231 37.3491 48.2505 36.6065 49.6853 36.6191C51.1201 36.6317 52.2025 37.3616 52.3158 37.1854C52.4291 37.0092 52.2277 36.7953 51.7746 36.4554C51.1564 36.0185 50.4172 35.7853 49.6601 35.7884C48.9166 35.7844 48.1904 36.0133 47.5834 36.4429C47.0674 36.7827 46.9541 37.0973 47.0674 37.1729Z" fill="var(--fill-0, #263238)"/>
<path id="Vector_8" d="M41.756 47.7703C40.9999 47.5323 40.2183 47.3844 39.4276 47.3298C39.0626 47.3298 38.7228 47.2165 38.6598 46.9648C38.6325 46.5868 38.7202 46.2095 38.9116 45.8824C39.264 45.0013 39.629 44.07 40.0065 43.1008C41.0354 40.7458 41.8771 38.3134 42.5238 35.8261C41.312 38.0933 40.285 40.4546 39.4527 42.8869C39.0836 43.8686 38.7311 44.8 38.3955 45.681C38.1658 46.1222 38.0989 46.6302 38.2067 47.1158C38.2546 47.2469 38.3333 47.3646 38.4363 47.4588C38.5393 47.553 38.6634 47.621 38.7983 47.657C38.9989 47.7161 39.206 47.7499 39.415 47.7577C40.1913 47.866 40.9786 47.8702 41.756 47.7703Z" fill="var(--fill-0, #263238)"/>
<path id="Vector_9" d="M40.6475 64.7362C45.55 64.8435 50.3861 63.5887 54.618 61.1115C54.618 61.1115 51.1946 68.2352 40.7733 67.1905L40.6475 64.7362Z" fill="var(--fill-0, #995037)"/>
<path id="Vector_10" d="M41.5922 51.0049C41.9229 50.5208 42.3657 50.1238 42.8828 49.8476C43.4 49.5715 43.9763 49.4245 44.5625 49.4191C44.9645 49.4144 45.3602 49.5199 45.7065 49.7241C46.0528 49.9282 46.3367 50.2233 46.5273 50.5773C46.7179 50.9313 46.808 51.3307 46.7878 51.7322C46.7676 52.1337 46.6379 52.522 46.4127 52.8551C46.1489 53.2216 45.781 53.5003 45.3569 53.6552C44.9327 53.81 44.4718 53.8338 44.0339 53.7235C43.2221 53.4548 42.4878 52.9926 41.8943 52.3768C41.7067 52.2254 41.5525 52.0369 41.4412 51.823C41.3853 51.7047 41.3617 51.5737 41.3728 51.4433C41.3838 51.3129 41.4291 51.1877 41.5041 51.0805" fill="var(--fill-0, #995037)"/>
<path id="Vector_11" d="M45.9722 48.7898C45.7331 48.7898 45.7205 50.3379 44.3864 51.4329C43.0522 52.5279 41.3909 52.3391 41.3783 52.5531C41.3657 52.767 41.7433 52.8677 42.4355 52.8929C43.3488 52.91 44.2392 52.6073 44.9527 52.037C45.6416 51.4881 46.0924 50.6947 46.2114 49.8219C46.2491 49.1674 46.0729 48.7772 45.9722 48.7898Z" fill="var(--fill-0, #263238)"/>
<path id="Vector_12" d="M46.4009 33.8627C46.5393 34.2528 47.9742 34.0766 49.6607 34.2906C51.3472 34.5046 52.6939 34.9702 52.9205 34.6304C53.147 34.2906 52.782 34.0892 52.2408 33.7116C51.5137 33.2385 50.6863 32.9412 49.8243 32.8432C48.9742 32.7372 48.111 32.8365 47.3071 33.1327C46.6526 33.3718 46.3506 33.6739 46.4009 33.8627Z" fill="var(--fill-0, #263238)"/>
<path id="Vector_13" d="M33.4987 32.667C33.7505 32.9942 34.7573 32.667 35.9279 32.667C37.0984 32.667 38.1178 32.8935 38.3444 32.5537C38.5709 32.2139 38.3444 32.0628 37.8535 31.7608C37.2729 31.3756 36.5863 31.182 35.8901 31.207C35.1935 31.2172 34.5169 31.4413 33.9518 31.8489C33.5239 32.1635 33.3855 32.5285 33.4987 32.667Z" fill="var(--fill-0, #263238)"/>
<path id="Vector_14" d="M64.5996 38.658C64.7391 38.9987 64.7667 39.3749 64.6785 39.7323C64.5902 40.0898 64.3907 40.4099 64.1087 40.6466C63.8209 40.8067 63.4818 40.8477 63.1641 40.7606C62.8464 40.6735 62.5756 40.4654 62.4096 40.1809C61.9565 40.785 60.9118 40.1809 61.0503 39.3754C60.4965 39.69 59.7917 38.9349 59.9301 38.23C59.2757 38.4818 58.8981 37.4245 58.5457 36.7197C58.3456 36.3497 58.1228 35.9924 57.8786 35.6499C57.1544 34.4693 56.7792 33.1079 56.7962 31.723C56.0195 30.5895 55.5828 29.2576 55.5376 27.8843L55.2229 25.3041L54.7321 24.7C54.7392 24.9924 54.6543 25.2797 54.4895 25.5213C54.3247 25.7629 54.0881 25.9467 53.8133 26.0467C53.298 26.1851 52.7553 26.1851 52.24 26.0467L50.692 25.7447L49.7354 26.0341C49.9189 26.881 49.8217 27.7646 49.4585 28.5513C49.3296 29.1092 49.0144 29.6064 48.5649 29.961C48.4449 30.0148 48.3126 30.0351 48.1819 30.0199C48.0513 30.0046 47.9272 29.9544 47.8227 29.8745C47.7183 29.7945 47.6374 29.6878 47.5886 29.5657C47.5398 29.4436 47.5249 29.3105 47.5454 29.1806C47.4555 29.2631 47.3483 29.3245 47.2316 29.3601C47.1149 29.3958 46.9917 29.4049 46.871 29.3868C46.7504 29.3687 46.6353 29.3239 46.5342 29.2555C46.4331 29.1872 46.3486 29.0971 46.2868 28.9919C46.0072 28.5082 45.8841 27.9498 45.9344 27.3934C45.9716 26.0381 46.4095 24.7242 47.193 23.6176L44.5248 26.1348C44.3504 26.3298 44.1229 26.4697 43.8703 26.5376C43.8793 26.6408 43.8662 26.7447 43.832 26.8424C43.7978 26.9401 43.7431 27.0295 43.6717 27.1045C43.6003 27.1795 43.5137 27.2384 43.4177 27.2774C43.3218 27.3164 43.2186 27.3345 43.1151 27.3305C42.7134 27.2219 42.3592 26.9828 42.1082 26.6508C41.4538 25.9712 40.7615 24.8007 41.3405 24.0329C41.2626 23.9989 41.193 23.9484 41.1364 23.885C41.0797 23.8216 41.0375 23.7468 41.0124 23.6655C40.9873 23.5843 40.98 23.4986 40.991 23.4144C41.002 23.3301 41.0311 23.2491 41.0762 23.1771L38.0429 25.5055C38.345 25.3293 38.6848 25.8076 38.6093 26.1978C38.5137 26.5649 38.2907 26.8861 37.98 27.1039C38.2538 27.5348 38.3818 28.0422 38.345 28.5513C38.8862 28.0479 39.7169 28.9667 39.5407 29.747C39.4415 30.1012 39.2317 30.4144 38.9418 30.6408C38.652 30.8673 38.2973 30.9951 37.9297 31.0056C37.6356 31.0423 37.3381 30.974 37.0894 30.8128C36.8408 30.6517 36.657 30.408 36.5704 30.1246C35.9033 30.263 35.3118 29.3443 35.488 28.5891C35.0097 28.9163 34.5818 28.0479 34.544 27.3305C34.4904 26.1244 34.6699 24.9193 35.0726 23.7812C35.0726 23.9574 34.8964 24.0959 34.7705 24.0078C34.7414 23.983 34.7179 23.9521 34.7018 23.9173C34.6858 23.8826 34.6774 23.8447 34.6774 23.8064C34.6774 23.7681 34.6858 23.7302 34.7018 23.6955C34.7179 23.6607 34.7414 23.6298 34.7705 23.605L33.0714 27.7962C32.5481 28.8952 32.2323 30.0814 32.1401 31.2951C32.1401 31.786 32.1401 32.4782 31.6618 32.5537C31.5465 32.5562 31.433 32.5256 31.3346 32.4656C30.0726 31.7545 29.0946 30.6298 28.5656 29.2813C28.3475 28.8156 28.2031 28.3188 28.1377 27.8088C28.1955 26.7384 28.3343 25.6739 28.553 24.6245C28.5569 24.1492 28.5863 23.6744 28.6411 23.2023C28.8492 22.5015 29.225 21.8621 29.7361 21.3395C31.3723 19.439 33.1092 17.463 35.2992 16.6827C36.6459 16.217 38.0807 16.2296 39.4274 15.7639C40.2537 15.437 41.0605 15.063 41.8439 14.6437C45.1732 13.2329 48.8144 12.7207 52.4037 13.1586C54.4198 13.2599 56.4017 13.7202 58.2562 14.5179C60.3164 15.5943 62.1768 17.0162 63.7563 18.7216C66.4017 21.216 68.5948 24.15 70.2381 27.3934C71.5812 30.0378 72.1236 33.0165 71.7988 35.9645C71.3709 38.9097 69.5585 41.666 67.0916 42.2576L66.1225 41.15" fill="var(--fill-0, #263238)"/>
<path id="Vector_15" d="M61.7684 40.6466C61.9069 40.6466 67.5455 38.7839 67.4951 44.5861C67.4448 50.3882 61.63 49.1422 61.63 48.9786C61.63 48.815 61.7684 40.6466 61.7684 40.6466Z" fill="var(--fill-0, #B78876)"/>
<path id="Vector_16" d="M63.4297 46.7886C63.4297 46.7886 63.5304 46.8641 63.694 46.9396C63.8133 46.9909 63.9417 47.0173 64.0716 47.0173C64.2014 47.0173 64.3299 46.9909 64.4492 46.9396C64.8249 46.7052 65.1322 46.3758 65.3399 45.9847C65.5476 45.5935 65.6485 45.1545 65.6323 44.7119C65.649 44.2148 65.5544 43.7203 65.3554 43.2645C65.3071 43.0825 65.2138 42.9156 65.084 42.7792C64.9542 42.6428 64.7922 42.5414 64.6128 42.4842C64.4971 42.4508 64.3733 42.459 64.263 42.5072C64.1527 42.5555 64.0627 42.6409 64.0087 42.7485C63.9331 42.9121 64.0086 43.0254 63.9331 43.038C63.8576 43.0506 63.8073 42.9373 63.8576 42.6981C63.895 42.5535 63.9791 42.4252 64.0967 42.3331C64.1754 42.2747 64.2648 42.2323 64.3598 42.2086C64.4549 42.1848 64.5537 42.1801 64.6505 42.1947C64.8874 42.2444 65.1076 42.3537 65.2904 42.5123C65.4732 42.6709 65.6125 42.8734 65.6952 43.1009C65.9398 43.606 66.0566 44.1636 66.035 44.7245C66.063 45.2453 65.9356 45.7627 65.6689 46.2109C65.4022 46.6591 65.0083 47.0179 64.5373 47.2417C64.3816 47.2847 64.2183 47.2923 64.0593 47.264C63.9004 47.2357 63.7497 47.1722 63.6185 47.0781C63.4297 46.9396 63.4297 46.8012 63.4297 46.7886Z" fill="var(--fill-0, #AA6550)"/>
<path id="Vector_17" d="M42.8001 38.8215C42.844 38.2616 42.9324 37.7061 43.0644 37.1602C43.3075 36.2469 43.7384 35.3943 44.3295 34.657C44.9207 33.9196 45.6591 33.3137 46.4977 32.8778C47.3363 32.4419 48.2565 32.1857 49.1997 32.1256C50.1429 32.0654 51.0882 32.2027 51.9753 32.5285C52.5855 32.7514 53.1584 33.0654 53.6745 33.4599C54.2217 33.8546 54.7019 34.3348 55.0967 34.8821C55.9548 36.0353 56.4183 37.4344 56.4183 38.8719C56.4183 40.3093 55.9548 41.7085 55.0967 42.8617C54.7082 43.4178 54.2272 43.9031 53.6745 44.2965C53.161 44.6919 52.5873 45.0021 51.9753 45.2153C50.84 45.6291 49.615 45.7334 48.4261 45.5173C47.3867 45.3325 46.4069 44.9009 45.569 44.2587C44.3325 43.343 43.4447 42.0335 43.0518 40.5458C42.9182 39.996 42.8298 39.4361 42.7875 38.8719C42.7738 39.0184 42.7738 39.1659 42.7875 39.3124C42.7712 39.4882 42.7712 39.6652 42.7875 39.841C42.8101 40.0873 42.8522 40.3314 42.9134 40.571C43.2281 41.8583 43.9051 43.0286 44.8643 43.9431C45.8234 44.8576 47.0245 45.4782 48.3254 45.7313C49.5543 45.965 50.8234 45.865 52.0005 45.4418C52.6388 45.2243 53.238 44.9055 53.7752 44.4978C54.3458 44.0846 54.8471 43.5833 55.2603 43.0127C56.1442 41.8131 56.6206 40.3619 56.6196 38.8719C56.6128 37.3831 56.1372 35.9343 55.2603 34.7311C54.4301 33.6245 53.2983 32.781 52.0005 32.3019C50.9033 31.9041 49.7234 31.7901 48.5703 31.9705C47.4173 32.1509 46.3286 32.62 45.4054 33.334C44.1464 34.2883 43.2569 35.6492 42.8882 37.1853C42.8261 37.4205 42.784 37.6605 42.7623 37.9027C42.7471 38.0786 42.7471 38.2555 42.7623 38.4314C42.7641 38.5622 42.7767 38.6927 42.8001 38.8215Z" fill="var(--fill-0, #455A64)"/>
<path id="Vector_18" d="M26.4379 38.8215C26.4818 38.2616 26.5701 37.706 26.7022 37.1601C26.9453 36.2468 27.3761 35.3943 27.9673 34.6569C28.5585 33.9196 29.2969 33.3136 30.1355 32.8777C30.9741 32.4419 31.8943 32.1857 32.8375 32.1255C33.7806 32.0654 34.726 32.2026 35.6131 32.5284C36.2233 32.7513 36.7962 33.0653 37.3122 33.4598C37.8595 33.8546 38.3397 34.3348 38.7345 34.882C39.5926 36.0352 40.0561 37.4344 40.0561 38.8718C40.0561 40.3093 39.5926 41.7084 38.7345 42.8616C38.346 43.4177 37.8649 43.9031 37.3122 44.2964C36.7988 44.6918 36.2251 45.0021 35.6131 45.2152C34.4778 45.6291 33.2528 45.7333 32.0639 45.5173C31.0245 45.3325 30.0447 44.9008 29.2068 44.2587C27.9703 43.343 27.0824 42.0335 26.6896 40.5458C26.556 39.9959 26.4676 39.4361 26.4253 38.8718C26.4116 39.0183 26.4116 39.1658 26.4253 39.3123C26.409 39.4882 26.409 39.6651 26.4253 39.8409C26.4479 40.0872 26.49 40.3313 26.5511 40.5709C26.8659 41.8583 27.5429 43.0285 28.502 43.943C29.4612 44.8576 30.6623 45.4781 31.9632 45.7312C33.1921 45.965 34.4611 45.865 35.6383 45.4418C36.2766 45.2242 36.8758 44.9055 37.4129 44.4978C37.9836 44.0846 38.4849 43.5833 38.8981 43.0126C39.782 41.8131 40.2584 40.3619 40.2574 38.8718C40.2505 37.383 39.7749 35.9342 38.8981 34.731C38.0679 33.6244 36.936 32.781 35.6383 32.3019C34.5411 31.904 33.3612 31.79 32.2081 31.9704C31.0551 32.1509 29.9663 32.6199 29.0432 33.3339C27.7842 34.2882 26.8947 35.6492 26.526 37.1853C26.4639 37.4204 26.4218 37.6604 26.4001 37.9027C26.3849 38.0786 26.3849 38.2554 26.4001 38.4313C26.4019 38.5622 26.4145 38.6927 26.4379 38.8215Z" fill="var(--fill-0, #455A64)"/>
<path id="Vector_19" d="M39.8809 37.2609C39.8809 37.3364 40.5732 37.0595 41.4416 37.0343C42.31 37.0092 42.9771 37.2231 43.0023 37.1602C42.5399 36.8503 41.9817 36.7164 41.429 36.7826C40.8731 36.757 40.3256 36.9261 39.8809 37.2609Z" fill="var(--fill-0, #455A64)"/>
<path id="Vector_20" d="M56.5956 39.5517C57.522 39.9303 58.496 40.1802 59.4904 40.2942C60.4716 40.4913 61.4739 40.5632 62.4733 40.5082C62.4733 40.4327 61.1517 40.2942 59.5281 40.0299C57.9045 39.7656 56.6208 39.4887 56.5956 39.5517Z" fill="var(--fill-0, #455A64)"/>
<path id="Vector_21" d="M43.518 37.7896C43.4725 38.2104 43.498 38.6358 43.5936 39.0482C43.7761 40.0863 44.161 41.0785 44.7263 41.9681C45.2785 42.8735 46.0269 43.6434 46.9163 44.221C47.0943 44.3541 47.2986 44.4477 47.5157 44.4955C47.7327 44.5432 47.9575 44.5441 48.1749 44.4979C47.7588 44.44 47.3597 44.2942 47.0044 44.07C46.1771 43.4646 45.476 42.7036 44.9403 41.8297C44.3918 40.9623 43.992 40.0094 43.7572 39.0104C43.5935 38.2804 43.5684 37.7896 43.518 37.7896Z" fill="var(--fill-0, white)"/>
<path id="Vector_22" d="M28.5525 42.2073C28.3928 41.8343 28.2078 41.4726 27.9988 41.1249C27.7938 40.7268 27.6415 40.3037 27.5457 39.8663C27.4442 39.351 27.4442 38.8209 27.5457 38.3056C27.651 37.3412 27.9281 36.4034 28.3638 35.5366C28.7162 34.8822 29.0686 34.5675 29.0308 34.5424C28.9931 34.5172 28.9301 34.5423 28.7665 34.7437C28.5471 34.9523 28.3566 35.1893 28.2001 35.4486C27.7071 36.3168 27.3946 37.2758 27.2814 38.2678C27.1731 38.8163 27.1731 39.3807 27.2814 39.9292C27.3981 40.3713 27.576 40.7949 27.81 41.1878C28.0048 41.563 28.2552 41.9067 28.5525 42.2073Z" fill="var(--fill-0, white)"/>
<path id="Vector_23" d="M65.8582 48.7772C65.8582 48.7772 66.0092 48.8527 66.2358 49.0163C66.5508 49.2647 66.7833 49.6025 66.9028 49.9854C66.9905 50.2633 67.0041 50.5593 66.9423 50.844C66.8805 51.1288 66.7454 51.3925 66.5504 51.6091C66.3101 51.868 66.0044 52.0572 65.6655 52.1569C65.3265 52.2566 64.967 52.263 64.6248 52.1754C64.317 52.0729 64.0373 51.9001 63.8079 51.6707C63.5785 51.4413 63.4057 51.1617 63.3031 50.8539C63.2005 50.5462 63.171 50.2188 63.2169 49.8976C63.2628 49.5765 63.3828 49.2704 63.5675 49.0037C63.7966 48.6643 64.1029 48.3839 64.4612 48.1856C64.7129 48.0472 64.8639 48.0094 64.8639 47.9843C64.7061 47.986 64.5509 48.0248 64.4108 48.0975C64.0139 48.2672 63.6703 48.5412 63.4165 48.8905C63.2209 49.1496 63.0837 49.448 63.0142 49.7652C62.9446 50.0824 62.9445 50.4108 63.0137 50.728C63.0981 51.1211 63.2844 51.485 63.5539 51.7832C63.8235 52.0815 64.1667 52.3036 64.5493 52.4271C64.9373 52.5292 65.3459 52.5222 65.7302 52.4067C66.1144 52.2912 66.4592 52.0718 66.7266 51.7727C66.9627 51.5079 67.1159 51.1797 67.1672 50.8287C67.2166 50.464 67.1611 50.0929 67.0073 49.7585C66.8536 49.4242 66.6078 49.1406 66.2987 48.9408C66.1722 48.8423 66.0184 48.7852 65.8582 48.7772Z" fill="var(--fill-0, #455A64)"/>
<path id="Vector_24" d="M41.8067 22.2456C41.604 22.0386 41.4681 21.7756 41.4165 21.4905C41.3869 21.3361 41.3942 21.1769 41.438 21.026C41.4817 20.875 41.5607 20.7366 41.6683 20.622C41.8082 20.4763 41.9857 20.3721 42.1812 20.321C42.3767 20.2699 42.5825 20.2739 42.7758 20.3326L43.0275 20.4207L42.9143 20.1815C42.8315 19.9648 42.8173 19.7278 42.8736 19.5027C42.9299 19.2776 43.0539 19.0752 43.2289 18.9229C43.4292 18.7527 43.6835 18.6592 43.9463 18.6592C44.2092 18.6592 44.4635 18.7527 44.6637 18.9229L44.8525 18.7467C44.82 18.7004 44.7945 18.6495 44.777 18.5957C44.7508 18.5046 44.7451 18.4088 44.7604 18.3152C44.7756 18.2216 44.8114 18.1326 44.8651 18.0545C44.9207 17.9748 44.9917 17.9071 45.0738 17.8552C45.1559 17.8034 45.2476 17.7684 45.3434 17.7524C45.5338 17.7074 45.732 17.7074 45.9223 17.7524C46.1271 17.8493 46.3503 17.9008 46.5768 17.9035C46.8537 17.9035 46.967 17.6391 47.118 17.551C47.2541 17.4427 47.4019 17.3498 47.5585 17.2742C47.8513 17.1406 48.1682 17.0678 48.4899 17.0602C48.9648 17.0387 49.4361 17.1522 49.8492 17.3874C50.1387 17.551 50.2645 17.6895 50.2897 17.6769C50.1907 17.5225 50.0571 17.3932 49.8996 17.2993C49.4829 17.0193 48.992 16.8703 48.4899 16.8714C47.9424 16.865 47.4077 17.0373 46.967 17.3622C46.8034 17.4881 46.6775 17.6517 46.5391 17.6643C46.3483 17.6402 46.1619 17.5893 45.9853 17.5133C45.7581 17.4563 45.5203 17.4563 45.293 17.5133C45.0348 17.5588 44.8045 17.7033 44.6512 17.916C44.5717 18.0277 44.5191 18.1562 44.4973 18.2915C44.4754 18.4268 44.485 18.5654 44.5253 18.6964C44.5517 18.7795 44.5945 18.8566 44.6512 18.9229L44.8399 18.7467C44.6149 18.5406 44.3261 18.4178 44.0215 18.3988C43.7169 18.3799 43.4151 18.4659 43.1663 18.6426C42.9175 18.8192 42.7367 19.0759 42.6542 19.3697C42.5717 19.6635 42.5924 19.9767 42.7129 20.257L42.8513 20.106C42.6271 20.0469 42.391 20.0509 42.1689 20.1175C41.9468 20.1842 41.7474 20.3108 41.5927 20.4836C41.4703 20.62 41.3825 20.7838 41.3365 20.9612C41.2905 21.1385 41.2877 21.3244 41.3284 21.5031C41.374 21.7293 41.4883 21.9358 41.6557 22.0946C41.6929 22.1566 41.7447 22.2085 41.8067 22.2456Z" fill="var(--fill-0, #455A64)"/>
<path id="Vector_25" d="M35.3248 23.9196C35.1012 23.7225 34.9322 23.4711 34.8339 23.1896C34.7682 23.0343 34.7343 22.8674 34.7343 22.6988C34.7343 22.5301 34.7682 22.3632 34.8339 22.2079C34.9353 22.0141 35.0801 21.8462 35.2569 21.7174C35.4337 21.5886 35.6378 21.5024 35.8534 21.4654H36.0422L35.9163 21.3143C35.7341 21.1327 35.5987 20.9095 35.522 20.6639C35.4452 20.4183 35.4294 20.1577 35.4758 19.9047C35.5093 19.7725 35.5735 19.65 35.6632 19.5473C35.7528 19.4445 35.8654 19.3643 35.9919 19.3131C36.1149 19.2498 36.2543 19.2255 36.3915 19.2434C36.5287 19.2614 36.6571 19.3209 36.7596 19.4138L37.5022 20.2067L36.961 19.2628C36.8675 19.0906 36.8123 18.9002 36.7993 18.7047C36.7863 18.5092 36.8157 18.3131 36.8855 18.13C36.9617 17.9374 37.0842 17.7665 37.2423 17.6325C37.4004 17.4986 37.5891 17.4058 37.7917 17.3623C38.083 17.2963 38.388 17.3273 38.6601 17.4504L38.9622 17.6014L38.8363 17.2868C38.8109 17.1713 38.81 17.0518 38.8338 16.9359C38.8575 16.8201 38.9054 16.7106 38.9742 16.6144C39.0431 16.5183 39.1313 16.4377 39.2333 16.3779C39.3354 16.3181 39.4488 16.2804 39.5663 16.2673C40.0489 16.2219 40.5326 16.3417 40.9382 16.6071L41.1899 16.7456L41.1018 16.4687C41.069 16.2995 41.0808 16.1247 41.136 15.9614C41.1911 15.7981 41.2878 15.652 41.4165 15.5373C41.671 15.3246 41.9811 15.1892 42.3101 15.1471C42.859 15.0439 43.4225 15.0439 43.9714 15.1471C44.4537 15.2647 44.922 15.4335 45.3685 15.6506C45.3685 15.6506 45.2678 15.5499 45.0413 15.424C44.7166 15.2415 44.3697 15.1019 44.0092 15.0087C43.4415 14.8665 42.8515 14.8365 42.2723 14.9206C41.9068 14.9652 41.5617 15.1137 41.278 15.3485C41.1137 15.4852 40.9894 15.6639 40.9185 15.8656C40.8476 16.0672 40.8327 16.2843 40.8753 16.4938L41.0515 16.3554C40.5935 16.0679 40.0551 15.9355 39.516 15.9778C39.2179 16.033 38.9497 16.1939 38.7608 16.4309C38.6539 16.5555 38.5824 16.7064 38.5536 16.868C38.5249 17.0296 38.5399 17.1959 38.5972 17.3497L38.7734 17.1861C38.5811 17.0929 38.3718 17.0402 38.1583 17.0312C37.9449 17.0222 37.7319 17.0571 37.5324 17.1338C37.333 17.2105 37.1515 17.3274 36.9991 17.4771C36.8467 17.6268 36.7266 17.8062 36.6463 18.0042C36.5647 18.2226 36.5314 18.4561 36.5488 18.6886C36.5661 18.9211 36.6338 19.1471 36.747 19.3509L36.9484 19.1999C36.8083 19.075 36.6345 18.9941 36.4488 18.9672C36.263 18.9404 36.0735 18.9687 35.9038 19.0488C35.7437 19.1154 35.6012 19.2183 35.4876 19.3494C35.3741 19.4804 35.2925 19.636 35.2493 19.804C35.1983 20.0953 35.2198 20.3946 35.312 20.6756C35.4042 20.9566 35.5642 21.2106 35.7779 21.415V21.2514C35.5329 21.2936 35.3018 21.3947 35.1045 21.546C34.9072 21.6972 34.7496 21.8942 34.6452 22.1198C34.5738 22.2913 34.5371 22.4753 34.5371 22.661C34.5371 22.8468 34.5738 23.0307 34.6452 23.2022C34.727 23.4233 34.866 23.6187 35.0479 23.7686C35.2367 23.8944 35.3248 23.9322 35.3248 23.9196Z" fill="var(--fill-0, #455A64)"/>
<path id="Vector_26" d="M21.3534 25.1279C21.3608 24.9938 21.3947 24.8626 21.453 24.7416C21.5113 24.6206 21.593 24.5124 21.6932 24.4231C21.9324 24.2119 22.2428 24.0995 22.5617 24.1084C22.9945 24.1334 23.42 24.2313 23.8203 24.3979H23.9713V24.2469C23.9729 23.9859 24.0656 23.7337 24.2334 23.5338C24.4011 23.3339 24.6334 23.1988 24.8901 23.1519C25.5189 23.0732 26.1571 23.1781 26.7277 23.454L27.5458 23.756L26.8535 23.24C26.7629 23.1541 26.6907 23.0507 26.6413 22.936C26.592 22.8213 26.5665 22.6978 26.5665 22.5729C26.5665 22.4481 26.592 22.3245 26.6413 22.2098C26.6907 22.0952 26.7629 21.9917 26.8535 21.9059C27.0841 21.7355 27.3471 21.6142 27.6263 21.5493C27.9055 21.4843 28.195 21.4772 28.4771 21.5283H28.5526H29.0687L28.6407 21.2388C28.5269 21.1388 28.4377 21.0137 28.3803 20.8734C28.3229 20.7332 28.2987 20.5815 28.3097 20.4303C28.3206 20.2792 28.3665 20.1326 28.4436 20.0021C28.5207 19.8716 28.6269 19.7607 28.754 19.6781C29.0154 19.5358 29.3136 19.4752 29.6099 19.5044C29.9061 19.5336 30.1868 19.6511 30.4154 19.8418L30.9566 20.2571L30.5916 19.6781C30.3866 19.3336 30.2784 18.94 30.2784 18.5391C30.2784 18.1381 30.3866 17.7446 30.5916 17.4001C30.756 17.1304 30.9798 16.9019 31.2459 16.7318C31.512 16.5616 31.8134 16.4544 32.1271 16.4183C32.5526 16.3558 32.9871 16.4079 33.3857 16.5694C33.6626 16.6827 33.7885 16.7833 33.801 16.7707C33.7759 16.7375 33.7462 16.7078 33.7129 16.6827C33.6248 16.6111 33.5275 16.5519 33.4235 16.5065C33.035 16.3093 32.5986 16.2264 32.1649 16.2673C31.8229 16.2974 31.4923 16.4048 31.1979 16.5814C30.9036 16.758 30.6532 16.9992 30.4657 17.2868C30.2448 17.6694 30.1285 18.1035 30.1285 18.5454C30.1285 18.9873 30.2448 19.4213 30.4657 19.804L30.6419 19.653C30.3744 19.4272 30.0444 19.2882 29.6959 19.2544C29.3475 19.2207 28.997 19.2939 28.6911 19.4642C28.5313 19.5683 28.3973 19.7074 28.2992 19.8709C28.2011 20.0345 28.1414 20.2182 28.1247 20.4081C28.0976 20.6076 28.1241 20.8107 28.2015 20.9965C28.2789 21.1823 28.4045 21.3442 28.5652 21.4654L28.6533 21.2262H28.5778C28.258 21.1717 27.9302 21.1849 27.6158 21.2652C27.3015 21.3454 27.0074 21.4908 26.7528 21.6919C26.5171 21.9161 26.3772 22.2228 26.3627 22.5478C26.3452 22.7067 26.3684 22.8674 26.43 23.0149C26.4916 23.1624 26.5897 23.2918 26.7151 23.391L26.8283 23.1771C26.2061 22.8946 25.5154 22.7984 24.8397 22.9002C24.538 22.9672 24.269 23.1368 24.0784 23.3801C23.8879 23.6234 23.7878 23.9254 23.7951 24.2343L23.921 24.1336C23.5189 23.9765 23.0936 23.8872 22.6624 23.8693C22.3097 23.8755 21.9725 24.0149 21.7184 24.2595C21.5563 24.4054 21.4571 24.6084 21.4415 24.8259C21.3822 24.9153 21.3514 25.0206 21.3534 25.1279Z" fill="var(--fill-0, #455A64)"/>
<path id="Vector_27" d="M28.6788 11.837C28.6788 11.837 28.7795 11.9126 29.0186 11.9629C29.3575 12 29.6993 12 30.0381 11.9629C30.5349 11.916 31.0357 11.9894 31.4981 12.1769C31.6247 12.2394 31.7356 12.3295 31.8227 12.4406C31.9099 12.5517 31.971 12.6809 32.0015 12.8188C32.0481 12.958 32.0474 13.1087 31.9997 13.2475C31.9519 13.3863 31.8596 13.5055 31.7372 13.5865L31.9135 13.7124C31.9135 13.3726 32.3791 13.1586 32.7567 12.932C33.1465 12.695 33.5713 12.5208 34.0153 12.416C34.2263 12.3548 34.448 12.34 34.6653 12.3726C34.8825 12.4052 35.0902 12.4844 35.2739 12.6048C35.4461 12.6959 35.5885 12.8344 35.6845 13.0039C35.7804 13.1734 35.8257 13.3669 35.8151 13.5613V13.8886L36.0543 13.6746C36.5289 13.2612 37.1255 13.0138 37.7534 12.9698C38.2542 12.9275 38.7579 13.0007 39.226 13.1838C39.6327 13.3663 40.0102 13.6081 40.3461 13.9012C40.2852 13.7941 40.2088 13.6966 40.1196 13.6117C39.876 13.3723 39.59 13.1802 39.2763 13.0453C38.7944 12.8301 38.2675 12.7351 37.7408 12.7684C37.0623 12.799 36.4124 13.051 35.8906 13.4858L36.092 13.5991C36.1232 13.3492 36.0788 13.0956 35.9643 12.8712C35.8499 12.6468 35.6708 12.462 35.4501 12.3405C35.2398 12.2051 35.0041 12.114 34.7574 12.0729C34.5107 12.0318 34.2582 12.0415 34.0153 12.1014C33.57 12.2266 33.1458 12.4175 32.7567 12.6677C32.5578 12.7729 32.3683 12.8951 32.1903 13.0327C31.9903 13.1736 31.8509 13.3849 31.8002 13.6243V13.8634L32.0141 13.7501C32.1825 13.6411 32.3105 13.48 32.3787 13.2913C32.4468 13.1027 32.4514 12.897 32.3917 12.7055C32.3498 12.5388 32.2701 12.384 32.1588 12.2531C32.0475 12.1221 31.9076 12.0185 31.7498 11.9503C31.2562 11.7478 30.7169 11.6825 30.1891 11.7615C29.8584 11.7924 29.5256 11.7924 29.1949 11.7615L28.6788 11.837Z" fill="var(--fill-0, #455A64)"/>
<path id="Vector_28" d="M41.6299 6.81517C41.8636 6.82447 42.0956 6.8582 42.3222 6.91585C42.5723 6.99604 42.7976 7.13905 42.9767 7.33119C43.2077 7.56653 43.3538 7.87207 43.392 8.19963V8.35066H43.5179C43.7155 8.31423 43.9196 8.3485 44.0945 8.44745C44.2694 8.5464 44.4039 8.70372 44.4744 8.89187C44.6136 9.36001 44.6136 9.85854 44.4744 10.3267L44.3989 10.8427L44.7136 10.4274V10.3519C44.8266 10.2258 44.9671 10.1273 45.1242 10.064C45.2813 10.0008 45.4509 9.97436 45.6198 9.98685C45.9368 9.9979 46.238 10.1283 46.463 10.3519C46.6572 10.5567 46.805 10.8011 46.8962 11.0682C46.9874 11.3354 47.02 11.6191 46.9916 11.8999C46.9533 12.2901 46.8557 12.672 46.7022 13.0327C46.6321 13.1601 46.5772 13.2953 46.5385 13.4354C46.5385 13.4354 46.6518 13.3222 46.7902 13.0704C46.9966 12.7145 47.1292 12.3207 47.1804 11.9125C47.2223 11.603 47.1956 11.288 47.1021 10.99C47.0085 10.692 46.8505 10.4183 46.6392 10.1882C46.5037 10.0414 46.3392 9.92426 46.1562 9.84412C45.9731 9.76399 45.7755 9.72261 45.5757 9.72261C45.3759 9.72261 45.1782 9.76399 44.9952 9.84412C44.8122 9.92426 44.6477 10.0414 44.5122 10.1882L44.4492 10.2763L44.6884 10.3644C44.8168 9.83877 44.7861 9.28682 44.6003 8.7786C44.5021 8.5386 44.3211 8.34179 44.0901 8.22398C43.8592 8.10618 43.5935 8.0752 43.3417 8.1367L43.4801 8.23739C43.4348 7.85421 43.2513 7.50072 42.9641 7.2431C42.7535 7.04978 42.4984 6.91143 42.2215 6.84033C42.0428 6.80569 41.859 6.80569 41.6803 6.84033C41.6929 6.7774 41.6299 6.80259 41.6299 6.81517Z" fill="var(--fill-0, #455A64)"/>
<path id="Vector_29" d="M53.0586 14.7569C53.1774 14.7562 53.2942 14.7259 53.3984 14.6688C53.7053 14.5542 53.9781 14.3637 54.1914 14.115C54.5156 13.7679 54.7225 13.3276 54.7829 12.8564C54.7627 12.6045 54.8245 12.3529 54.9591 12.139C55.1101 11.9628 55.4248 11.837 55.6262 11.5349C55.7209 11.3973 55.7873 11.2423 55.8215 11.0788C55.8557 10.9153 55.8571 10.7467 55.8254 10.5827C55.7938 10.4187 55.7298 10.2626 55.6373 10.1236C55.5447 9.98452 55.4254 9.8653 55.2863 9.77284V9.87353C55.7694 9.44651 56.152 8.91784 56.4065 8.32545C56.5139 8.10095 56.5738 7.85673 56.5827 7.60803C56.5827 7.60803 56.482 7.85976 56.268 8.26251C55.9862 8.80917 55.6016 9.29634 55.1353 9.69733L55.0094 9.79802L55.1353 9.88611C55.3474 10.0489 55.4908 10.2851 55.5374 10.5483C55.584 10.8116 55.5303 11.0827 55.387 11.3083C55.2612 11.5349 54.9717 11.6356 54.7451 11.8873C54.5849 12.1427 54.51 12.4424 54.5312 12.7432C54.506 13.2043 54.334 13.6453 54.0403 14.0018C53.7583 14.3074 53.4263 14.5628 53.0586 14.7569Z" fill="var(--fill-0, #455A64)"/>
<path id="Vector_30" d="M56.4189 17.0477C56.4189 17.0477 56.4945 17.0477 56.6455 17.0477C57.1222 17.0385 57.5919 16.9309 58.025 16.7316C58.4582 16.5324 58.8455 16.2458 59.1627 15.8898H58.9991C59.3847 16.3502 59.9366 16.6397 60.5346 16.6953C60.8662 16.732 61.2018 16.6932 61.5163 16.582C61.8664 16.4776 62.1635 16.2435 62.347 15.9276C62.3935 15.8055 62.4273 15.679 62.4477 15.55C62.4829 15.4586 62.5389 15.3767 62.6113 15.3108C62.7955 15.1878 63 15.0983 63.2154 15.0465C63.4555 14.9916 63.685 14.8981 63.8951 14.7696C64.0084 14.7058 64.1022 14.6123 64.1665 14.4993C64.2308 14.3862 64.2632 14.2578 64.2601 14.1278L64.0965 14.241C64.6128 14.4286 65.1786 14.4286 65.6949 14.241C66.0902 14.1091 66.4484 13.8847 66.7395 13.5865C66.9251 13.39 67.0704 13.1591 67.1675 12.9069C67.2017 12.8173 67.227 12.7246 67.243 12.63C67.0864 12.9444 66.8826 13.233 66.6389 13.4858C66.3517 13.7501 66.007 13.9441 65.632 14.0522C65.1631 14.2143 64.6534 14.2143 64.1846 14.0522L64.0084 13.9767V14.1655C64.0057 14.2537 63.9799 14.3397 63.9335 14.4148C63.8871 14.49 63.8218 14.5515 63.7441 14.5934C63.5577 14.7042 63.3532 14.7809 63.1399 14.82C62.8865 14.8772 62.6469 14.9841 62.4351 15.1346C62.3223 15.2336 62.2358 15.359 62.1834 15.4996C62.16 15.6185 62.1306 15.7361 62.0953 15.852C61.9357 16.0979 61.6954 16.2805 61.4156 16.3681C61.1361 16.4613 60.8413 16.4998 60.5472 16.4813C60.0119 16.4344 59.5156 16.1817 59.1627 15.7765L59.0746 15.6758L58.9865 15.7765C58.515 16.3188 57.8929 16.7087 57.1993 16.8967C56.7336 17.0351 56.4189 17.0225 56.4189 17.0477Z" fill="var(--fill-0, #455A64)"/>
<path id="Vector_31" d="M77.0851 25.0901C77.0851 25.0901 77.0851 25.0901 77.0851 25.002C77.0851 24.9139 77.0851 24.851 77.0851 24.7377C77.1147 24.3846 77.0718 24.0291 76.9593 23.6931C76.788 23.1742 76.5511 22.6794 76.2545 22.2205C76.0887 21.9256 75.8948 21.6474 75.6755 21.3898C75.5433 21.2499 75.3905 21.1311 75.2224 21.0374C75.1237 20.9845 75.0134 20.9569 74.9015 20.9569C74.7895 20.9569 74.6792 20.9845 74.5805 21.0374L74.7441 21.1381C74.78 20.7939 74.7123 20.4469 74.5496 20.1414C74.387 19.836 74.1368 19.5861 73.8312 19.4238C73.5255 19.2616 73.1784 19.1943 72.8342 19.2306C72.4901 19.2669 72.1647 19.4052 71.8997 19.6278L72.1136 19.7285C72.1172 19.5374 72.0744 19.3482 71.9889 19.1773C71.9034 19.0063 71.7778 18.8586 71.6228 18.7468C71.4658 18.63 71.2813 18.5559 71.0872 18.5316C70.8931 18.5074 70.6961 18.5338 70.5152 18.6083C70.3121 18.6912 70.1342 18.8257 69.9992 18.9985L70.2383 19.0866C70.2423 18.9695 70.2194 18.853 70.1714 18.7461C70.1234 18.6392 70.0516 18.5447 69.9614 18.4699C69.7936 18.3311 69.587 18.2476 69.3699 18.2307C68.979 18.2265 68.5936 18.3218 68.2497 18.5076H68.4007C68.2728 18.3092 68.1069 18.138 67.9125 18.0041C67.718 17.8702 67.499 17.7761 67.268 17.7273C66.8548 17.6244 66.4226 17.6244 66.0094 17.7273C65.303 17.9384 64.6387 18.2706 64.046 18.709L64.1844 18.8223C64.2242 18.7534 64.2451 18.6753 64.2451 18.5957C64.2451 18.5162 64.2242 18.4381 64.1844 18.3692C64.1014 18.2611 63.9934 18.1747 63.8698 18.1175C63.6475 18.0236 63.4046 17.9889 63.1649 18.0168C62.8033 18.0705 62.4514 18.1765 62.1203 18.3314C61.9145 18.4265 61.7203 18.5447 61.5413 18.6838C61.4745 18.7291 61.4114 18.7796 61.3525 18.8349C61.3525 18.8349 61.6294 18.6461 62.1706 18.4321C62.4964 18.2968 62.8396 18.2078 63.1901 18.1678C63.3982 18.1449 63.6085 18.1843 63.7942 18.2811C63.9956 18.3692 64.1592 18.558 64.0711 18.7468L63.9201 19.0362L64.2096 18.86C64.7994 18.4548 65.4492 18.1448 66.1352 17.9413C66.5154 17.8469 66.913 17.8469 67.2932 17.9413C67.6969 18.038 68.0482 18.2857 68.2749 18.6335V18.7216H68.3756C68.6817 18.5567 69.0223 18.4661 69.3699 18.4573C69.6845 18.4573 70.0243 18.7467 69.9992 19.0488V19.5019L70.2761 19.1243C70.3774 18.9941 70.5123 18.894 70.6662 18.8349C70.8067 18.772 70.9615 18.7482 71.1143 18.7659C71.2671 18.7837 71.4123 18.8423 71.5347 18.9355C71.6521 19.0241 71.7482 19.138 71.8157 19.2687C71.8833 19.3994 71.9206 19.5437 71.9248 19.6907V19.9802L72.1388 19.804C72.362 19.5929 72.6448 19.4555 72.9487 19.4105C73.2526 19.3655 73.563 19.4151 73.8378 19.5525C74.1126 19.6899 74.3385 19.9085 74.4849 20.1786C74.6312 20.4487 74.691 20.7574 74.656 21.0626V21.2892L74.7567 21.201C75.0462 21.0374 75.386 21.264 75.6 21.4905C75.8161 21.7371 76.0099 22.0025 76.1789 22.2834C76.4808 22.7206 76.7261 23.1943 76.9089 23.6931C77.0708 24.1399 77.131 24.6171 77.0851 25.0901Z" fill="var(--fill-0, #455A64)"/>
<path id="Vector_32" d="M75.6248 32.7677C75.6248 32.7677 75.6248 32.7677 75.7633 32.5914C75.8774 32.4277 75.9784 32.2551 76.0653 32.0754C76.2204 31.7771 76.2901 31.4417 76.2667 31.1063C76.2503 30.8972 76.1856 30.6947 76.0779 30.5147C75.9475 30.3 75.7407 30.1427 75.499 30.0742V30.2127C75.6094 30.0213 75.6676 29.8043 75.6676 29.5834C75.6676 29.3624 75.6094 29.1454 75.499 28.9541C75.3631 28.729 75.1601 28.5521 74.9186 28.4483C74.677 28.3445 74.4091 28.3189 74.1523 28.3751L74.2655 28.5639C74.3912 28.3947 74.459 28.1894 74.459 27.9786C74.459 27.7678 74.3912 27.5626 74.2655 27.3934C74.1278 27.2309 73.9561 27.1004 73.7626 27.0113C73.5691 26.9221 73.3584 26.8764 73.1454 26.8774C72.9314 26.8774 72.73 26.8774 72.5664 26.8774C72.4841 26.8596 72.4076 26.8215 72.3438 26.7665C72.28 26.7116 72.2311 26.6415 72.2014 26.5627C72.1185 26.3573 72.0038 26.1662 71.8616 25.9963C71.6979 25.8197 71.4816 25.7005 71.2449 25.6565C70.7805 25.6068 70.3122 25.6068 69.8478 25.6565C69.6486 25.6819 69.4464 25.666 69.2536 25.6097C69.0609 25.5534 68.8818 25.4579 68.7277 25.3293C68.5912 25.1727 68.4691 25.0042 68.3626 24.8258C68.2218 24.6507 68.0403 24.5124 67.834 24.4231C67.6337 24.3352 67.4157 24.2951 67.1973 24.3061C66.9789 24.317 66.766 24.3786 66.5754 24.486L66.739 24.6496C66.8575 24.4529 66.9069 24.2224 66.8795 23.9944C66.8522 23.7664 66.7496 23.5541 66.588 23.391C66.3366 23.1084 65.9838 22.9365 65.6063 22.9127C65.0274 22.8765 64.4468 22.9491 63.8946 23.1267C63.5441 23.2323 63.2031 23.367 62.8751 23.5295C62.6486 23.6553 62.5353 23.7308 62.5479 23.7434C62.9983 23.55 63.4607 23.3861 63.9323 23.2526C64.4691 23.1073 65.0269 23.0562 65.5811 23.1015C65.9072 23.1291 66.2096 23.2826 66.4244 23.5295C66.5413 23.654 66.6162 23.812 66.6388 23.9812C66.6614 24.1505 66.6304 24.3226 66.5502 24.4734L66.2608 24.8887L66.7013 24.637C66.8578 24.5594 67.0301 24.519 67.2047 24.519C67.3794 24.519 67.5517 24.5594 67.7082 24.637C67.8728 24.7139 68.0188 24.8256 68.1361 24.9643C68.2511 25.148 68.3772 25.3245 68.5137 25.4929C68.6851 25.662 68.8977 25.7835 69.1304 25.8453C69.3583 25.8906 69.5903 25.9117 69.8226 25.9082C70.2662 25.8638 70.7132 25.8638 71.1568 25.9082C71.3435 25.9442 71.5148 26.0364 71.6476 26.1725C71.7692 26.3314 71.8706 26.5048 71.9497 26.6886C71.9969 26.8007 72.0709 26.8995 72.1653 26.9764C72.2597 27.0532 72.3715 27.1056 72.4909 27.1291C72.7005 27.1417 72.9106 27.1417 73.1202 27.1291C73.2958 27.1295 73.4694 27.1667 73.6298 27.2382C73.7902 27.3097 73.9339 27.414 74.0516 27.5444C74.1392 27.6722 74.1861 27.8236 74.1861 27.9786C74.1861 28.1336 74.1392 28.285 74.0516 28.4129L73.8376 28.6898L74.1648 28.6017C74.3755 28.5518 74.5964 28.5686 74.7971 28.6498C74.9977 28.731 75.1682 28.8725 75.285 29.0548C75.3811 29.2212 75.4317 29.41 75.4317 29.6023C75.4317 29.7945 75.3811 29.9833 75.285 30.1497V30.263H75.4109C75.5967 30.3274 75.7593 30.4455 75.8781 30.6023C75.9968 30.7592 76.0664 30.9477 76.0779 31.144C76.1004 31.4497 76.0485 31.7563 75.9269 32.0377C75.7633 32.5285 75.5996 32.7551 75.6248 32.7677Z" fill="var(--fill-0, #455A64)"/>
<path id="Vector_33" d="M75.1843 48.7017C75.1843 48.7017 75.285 48.7016 75.436 48.6261C75.6719 48.5158 75.8787 48.3521 76.0402 48.1479C76.3044 47.8369 76.4591 47.4478 76.4807 47.0403C76.4933 46.773 76.4519 46.506 76.3589 46.2551C76.2659 46.0042 76.1233 45.7747 75.9395 45.5803V45.7187C76.2497 45.3501 76.481 44.9217 76.6191 44.4601C76.6803 44.1789 76.6584 43.8859 76.5562 43.6169C76.5055 43.4719 76.4242 43.3395 76.3178 43.2287C76.2114 43.118 76.0823 43.0314 75.9395 42.975V43.2015C76.1592 43.0502 76.3353 42.8438 76.4501 42.6031C76.565 42.3623 76.6146 42.0956 76.594 41.8296C76.5848 41.5239 76.4888 41.227 76.3171 40.9738C76.154 40.7306 75.9216 40.542 75.65 40.4326C75.5424 40.4071 75.4466 40.3459 75.378 40.2591C75.3095 40.1723 75.2723 40.0649 75.2724 39.9543C75.2635 39.6895 75.2037 39.4288 75.0962 39.1866C74.8683 38.7568 74.5293 38.396 74.1145 38.1419L73.1328 37.4371C72.656 37.0835 72.1121 36.8308 71.5344 36.6945C71.3755 36.6749 71.2149 36.6749 71.0561 36.6945C70.9428 36.6945 70.8799 36.6945 70.8799 36.6945C71.0915 36.7212 71.3016 36.759 71.5092 36.8078C72.0585 36.9735 72.5711 37.2427 73.0195 37.6007L73.9886 38.3307C74.3655 38.567 74.6703 38.9022 74.8697 39.2999C74.9667 39.5179 75.0181 39.7534 75.0207 39.9921C75.0252 40.147 75.078 40.2966 75.1717 40.42C75.2692 40.5374 75.3947 40.6283 75.5367 40.6843C75.7503 40.7815 75.9352 40.9323 76.0732 41.1221C76.2112 41.3119 76.2977 41.5343 76.3243 41.7674C76.3509 42.0006 76.3167 42.2367 76.225 42.4527C76.1333 42.6687 75.9873 42.8573 75.801 43.0002L75.5745 43.1386L75.8262 43.2267C76.0388 43.3343 76.2076 43.5122 76.304 43.7302C76.4003 43.9481 76.4183 44.1927 76.3548 44.4224C76.2296 44.8767 76.0204 45.3036 75.7381 45.681V45.7565V45.8194C76.0595 46.1609 76.2433 46.6092 76.2541 47.078C76.2418 47.4515 76.1143 47.8119 75.8891 48.1101C75.6925 48.3489 75.4536 48.5495 75.1843 48.7017Z" fill="var(--fill-0, #455A64)"/>
<path id="Vector_34" d="M66.9911 41.8926C67.1126 41.8927 67.2327 41.8669 67.3435 41.817C67.6724 41.7055 67.9823 41.5442 68.2623 41.3388C68.7044 41.007 69.0622 40.5758 69.3069 40.0802C69.4957 39.7807 69.559 39.419 69.4831 39.0733C69.4548 38.9721 69.4038 38.8788 69.334 38.8003C69.2642 38.7218 69.1775 38.6602 69.0804 38.6202C68.9767 38.5717 68.8604 38.5565 68.7477 38.5768C68.635 38.5971 68.5314 38.6518 68.4511 38.7334L68.6399 38.8467C68.8034 38.538 68.8692 38.1868 68.8287 37.8398C68.7807 37.646 68.6701 37.4735 68.514 37.349C68.4264 37.2899 68.3266 37.2514 68.222 37.2361C68.1174 37.2209 68.0107 37.2293 67.9099 37.2609C67.7651 37.3143 67.6106 37.3357 67.4568 37.3238C67.3687 37.3238 67.3435 37.1728 67.3561 36.984C67.3616 36.571 67.2032 36.1728 66.9156 35.8764C66.6973 35.6298 66.4133 35.4503 66.0969 35.359C65.7804 35.2676 65.4445 35.2681 65.1284 35.3604L65.292 35.5114C65.3763 35.2699 65.3964 35.0106 65.35 34.759C65.3037 34.5074 65.1926 34.2722 65.0277 34.0766C64.9313 33.9897 64.8174 33.9244 64.6936 33.8853C64.5698 33.8463 64.4391 33.8342 64.3103 33.85C64.1829 33.8585 64.0607 33.9034 63.9581 33.9792C63.8555 34.0551 63.7768 34.1587 63.7313 34.278H63.9578C63.991 33.6142 63.8338 32.9548 63.5047 32.3775C63.2655 31.9248 62.9305 31.5296 62.523 31.2196C62.265 31.0226 61.9813 30.8617 61.6798 30.7413C61.5752 30.6996 61.4648 30.6742 61.3525 30.6658C61.7427 30.844 62.1102 31.0679 62.4475 31.3328C62.8154 31.6495 63.1188 32.0341 63.3411 32.4656C63.6331 33.0186 63.7681 33.6411 63.7313 34.2654L63.6684 35.2219L63.9453 34.3157C64.046 34.0011 64.5997 33.9507 64.8515 34.215C64.983 34.3813 65.0704 34.578 65.1056 34.787C65.1408 34.9961 65.1227 35.2106 65.0528 35.4107V35.6499L65.2794 35.5618C65.5464 35.4889 65.8285 35.4928 66.0934 35.5729C66.3583 35.653 66.5953 35.8062 66.7771 36.0149C66.8991 36.1344 66.9955 36.2775 67.0604 36.4354C67.1253 36.5934 67.1574 36.7629 67.1547 36.9336C67.1369 37.0378 67.1369 37.1442 67.1547 37.2483C67.1701 37.3118 67.2012 37.3705 67.2452 37.4189C67.2892 37.4673 67.3446 37.5038 67.4064 37.5252C67.5998 37.5801 67.8046 37.5801 67.998 37.5252C68.0611 37.4959 68.1298 37.4807 68.1994 37.4807C68.2689 37.4807 68.3376 37.4959 68.4007 37.5252C68.5151 37.6126 68.5952 37.7373 68.6273 37.8776C68.6583 38.1768 68.6014 38.4786 68.4637 38.746L68.2245 39.3753L68.6651 38.8593C68.8413 38.6579 69.2692 38.8593 69.3195 39.111C69.3762 39.4037 69.3271 39.707 69.1811 39.9669C68.9534 40.4305 68.6269 40.8386 68.2245 41.1626C67.8478 41.4599 67.433 41.7054 66.9911 41.8926Z" fill="var(--fill-0, #455A64)"/>
<path id="Vector_35" d="M53.8638 25.7445C54.1422 25.6923 54.4075 25.5854 54.6442 25.4299C54.9165 25.2764 55.1526 25.066 55.3364 24.8132C55.46 24.6548 55.5477 24.4715 55.5933 24.2759C55.6389 24.0803 55.6415 23.8771 55.6007 23.6804C55.5761 23.5833 55.538 23.4901 55.4874 23.4035V23.5923C55.6522 23.5043 55.7952 23.3806 55.9063 23.2304C56.0173 23.0802 56.0935 22.9072 56.1293 22.7239C56.1784 22.4282 56.1204 22.1247 55.9657 21.868C55.6762 21.4527 55.3364 21.4149 55.3364 21.4401C55.3364 21.4653 55.6007 21.5785 55.8147 21.9687C55.9235 22.1868 55.9545 22.4354 55.9028 22.6735C55.8674 22.8194 55.8007 22.9557 55.7072 23.0731C55.6137 23.1905 55.4958 23.2861 55.3616 23.3532H55.2483V23.479C55.2864 23.5406 55.312 23.609 55.3238 23.6804C55.354 23.8433 55.3518 24.0105 55.3172 24.1725C55.2827 24.3345 55.2165 24.488 55.1224 24.6244C54.9581 24.8519 54.7584 25.0516 54.5309 25.2159C54.1281 25.5558 53.8387 25.7068 53.8638 25.7445Z" fill="var(--fill-0, #455A64)"/>
<path id="Vector_36" d="M47.7716 22.9254C47.6089 22.6346 47.5428 22.2997 47.5828 21.9689C47.6091 21.7903 47.6792 21.621 47.7868 21.4761C47.8944 21.3312 48.0362 21.2151 48.1995 21.1382C48.406 21.0449 48.6353 21.0143 48.859 21.0501C49.0827 21.0859 49.291 21.1865 49.4581 21.3396L49.6343 21.4906V21.264C49.6806 20.9899 49.7834 20.7284 49.9364 20.4963C50.0071 20.3774 50.1018 20.2746 50.2145 20.1944C50.3272 20.1142 50.4554 20.0584 50.5908 20.0306C51.0062 20.0306 51.4719 20.3578 51.3586 20.7102H51.6103C51.6803 20.2146 51.9369 19.7644 52.3277 19.4516C52.6427 19.1878 53.0372 19.0371 53.4479 19.0237C53.8213 19.0204 54.1922 19.0843 54.5429 19.2125C54.5429 19.2125 54.4674 19.137 54.2912 19.0489C54.0273 18.9249 53.7394 18.8604 53.4479 18.8601C52.9944 18.8583 52.5526 19.0041 52.1893 19.2754C51.7343 19.6312 51.4362 20.1505 51.3586 20.7228H51.5977C51.635 20.5862 51.631 20.4415 51.5862 20.3071C51.5414 20.1727 51.4578 20.0546 51.346 19.9677C51.1251 19.7827 50.8402 19.6923 50.5531 19.716C50.3788 19.7495 50.2135 19.8196 50.0682 19.9215C49.9228 20.0235 49.8007 20.155 49.7098 20.3075C49.5483 20.5732 49.4413 20.8684 49.3952 21.1759L49.584 21.2011C49.3795 21.0235 49.1274 20.9097 48.859 20.8739C48.5905 20.8382 48.3175 20.8819 48.0736 20.9997C47.8863 21.0954 47.7259 21.2366 47.6071 21.4103C47.4884 21.584 47.4151 21.7847 47.394 21.994C47.3615 22.2595 47.4144 22.5284 47.545 22.7618C47.6076 22.8323 47.6849 22.8882 47.7716 22.9254Z" fill="var(--fill-0, #455A64)"/>
<path id="Vector_37" d="M38.6348 345.179L39.0628 376.582L0.0458984 377.312C0.196931 373.536 20.2717 365.707 20.2717 365.707L19.1767 345.57L38.6348 345.179Z" fill="var(--fill-0, #FF725E)"/>
<g id="Group" opacity="0.6">
<path id="Vector_38" d="M32.2669 363.782C32.646 363.888 32.9724 364.13 33.1838 364.463C33.3951 364.795 33.4765 365.193 33.4122 365.581C33.3164 365.962 33.08 366.291 32.7506 366.504C32.4212 366.716 32.0235 366.796 31.6376 366.727C31.224 366.627 30.8638 366.374 30.63 366.019C30.3962 365.664 30.3065 365.233 30.379 364.814C30.5138 364.424 30.7964 364.102 31.1661 363.918C31.5357 363.735 31.9627 363.704 32.355 363.832" fill="var(--fill-0, #263238)"/>
</g>
<path id="Vector_39" d="M39.0626 376.456V373.284L1.51826 375.411C1.51826 375.411 -0.206032 376.217 0.0205176 377.438L39.0626 376.456Z" fill="var(--fill-0, #263238)"/>
<path id="Vector_40" d="M19.579 365.519C19.579 365.707 20.5481 365.77 21.5046 366.374C22.4612 366.978 22.9646 367.759 23.1408 367.633C23.317 367.507 23.0024 366.45 21.8822 365.758C20.7621 365.065 19.5412 365.342 19.579 365.519Z" fill="var(--fill-0, #263238)"/>
<path id="Vector_41" d="M15.5138 367.318C15.5138 367.507 16.3068 367.822 16.9738 368.577C17.6409 369.332 17.8422 370.226 18.031 370.213C18.2198 370.201 18.3205 369.118 17.4773 368.136C16.634 367.155 15.5138 367.104 15.5138 367.318Z" fill="var(--fill-0, #263238)"/>
<path id="Vector_42" d="M13.2863 372.239C13.4625 372.239 13.7016 371.308 13.1982 370.276C12.6947 369.244 11.7885 368.841 11.713 369.017C11.6375 369.194 12.1913 369.722 12.594 370.578C12.9968 371.434 13.0849 372.214 13.2863 372.239Z" fill="var(--fill-0, #263238)"/>
<path id="Vector_43" d="M19.8427 360.899C19.9308 361.076 20.7992 360.799 21.8691 360.899C22.9389 361 23.8073 361.277 23.8954 361.113C23.9835 360.95 23.178 360.283 21.9068 360.232C20.6356 360.182 19.742 360.761 19.8427 360.899Z" fill="var(--fill-0, #263238)"/>
<path id="Vector_44" d="M20.6368 356.255C21.2758 356.426 21.9485 356.426 22.5876 356.255C23.2922 356.118 23.977 355.894 24.6265 355.588C25.0087 355.407 25.3787 355.201 25.7341 354.971C25.9554 354.844 26.1551 354.683 26.3257 354.493C26.4472 354.357 26.5194 354.183 26.5308 354.001C26.5422 353.818 26.4922 353.637 26.3886 353.486C26.2931 353.352 26.1664 353.243 26.0196 353.169C25.8727 353.094 25.71 353.056 25.5453 353.058C25.2982 353.066 25.053 353.104 24.8153 353.172C24.3843 353.283 23.9633 353.431 23.5567 353.612C22.9037 353.944 22.3017 354.368 21.7695 354.871C20.8885 355.727 20.5864 356.444 20.6493 356.482C20.7123 356.52 21.1654 355.941 22.0841 355.223C22.6084 354.804 23.1888 354.461 23.8085 354.204C24.1686 354.045 24.5439 353.922 24.9286 353.839C25.3314 353.713 25.6838 353.713 25.7971 353.839C25.9103 353.965 25.7971 353.939 25.7971 354.065C25.6691 354.196 25.5253 354.31 25.3691 354.405C25.0293 354.632 24.6769 354.833 24.3496 355.009C23.7468 355.326 23.1145 355.583 22.4617 355.777C21.8412 355.885 21.2307 356.045 20.6368 356.255Z" fill="var(--fill-0, #455A64)"/>
<path id="Vector_45" d="M20.9391 356.52C21.3053 355.957 21.4736 355.288 21.4173 354.619C21.4426 353.894 21.3403 353.169 21.1153 352.479C20.9805 352.074 20.8077 351.682 20.5992 351.309C20.49 351.053 20.3169 350.83 20.0966 350.66C19.8762 350.49 19.6159 350.38 19.3406 350.34C19.1657 350.345 18.996 350.401 18.8528 350.502C18.7096 350.603 18.5992 350.743 18.5351 350.906C18.4358 351.134 18.3722 351.376 18.3463 351.624C18.2767 352.061 18.2767 352.507 18.3463 352.945C18.4704 353.672 18.7684 354.359 19.2148 354.946C19.9951 355.941 20.8006 356.205 20.8132 356.092C20.8258 355.978 20.2091 355.638 19.5546 354.682C19.2038 354.125 18.9803 353.498 18.9001 352.844C18.8444 352.473 18.8444 352.096 18.9001 351.724C18.9001 351.296 19.1015 350.969 19.2651 351.007C19.4287 351.045 19.7937 351.309 19.9574 351.636C20.1579 351.968 20.3264 352.317 20.4608 352.681C20.6872 353.309 20.827 353.965 20.8761 354.632C21.0272 355.777 20.8384 356.494 20.9391 356.52Z" fill="var(--fill-0, #455A64)"/>
<path id="Vector_46" d="M68.7159 345.645L68.4265 377.11L29.3467 376.947C29.5984 373.171 49.8368 365.808 49.8368 365.808L49.2075 345.67L68.7159 345.645Z" fill="var(--fill-0, #263238)"/>
<g id="Group_2" opacity="0.6">
<path id="Vector_47" d="M61.9307 364.096C62.3064 364.216 62.6253 364.468 62.8271 364.807C63.0289 365.146 63.0996 365.547 63.0256 365.934C62.9218 366.311 62.6777 366.635 62.3431 366.839C62.0086 367.042 61.6089 367.11 61.2258 367.029C60.8297 366.904 60.4938 366.637 60.2824 366.279C60.0711 365.921 59.9992 365.498 60.0805 365.091C60.2253 364.706 60.5135 364.393 60.8844 364.217C61.2552 364.041 61.6799 364.016 62.0691 364.147" fill="var(--fill-0, #455A64)"/>
</g>
<path id="Vector_48" d="M68.464 376.922V373.75L30.882 375.008C30.882 375.008 29.1451 375.776 29.3465 376.997L68.464 376.922Z" fill="var(--fill-0, #455A64)"/>
<path id="Vector_49" d="M49.2071 365.544C49.2071 365.733 50.1637 365.821 51.1076 366.437C52.0516 367.054 52.5424 367.86 52.706 367.784C52.8697 367.709 52.6053 366.614 51.4474 365.884C50.2895 365.154 49.1694 365.368 49.2071 365.544Z" fill="var(--fill-0, #455A64)"/>
<path id="Vector_50" d="M45.1034 367.218C45.1034 367.406 45.8838 367.734 46.5256 368.539C47.1675 369.345 47.3563 370.213 47.5451 370.201C47.7339 370.188 47.8598 369.118 47.0417 368.124C46.2236 367.13 45.1034 367.041 45.1034 367.218Z" fill="var(--fill-0, #455A64)"/>
<path id="Vector_51" d="M42.7506 372.114C42.9268 372.114 43.1911 371.207 42.7506 370.163C42.3101 369.118 41.3787 368.69 41.2906 368.904C41.2025 369.118 41.7563 369.622 42.1464 370.49C42.5366 371.358 42.5618 372.101 42.7506 372.114Z" fill="var(--fill-0, #455A64)"/>
<path id="Vector_52" d="M49.585 360.937C49.6605 361.113 50.5415 360.849 51.6239 360.937C52.7063 361.025 53.537 361.353 53.6377 361.189C53.7384 361.025 52.9329 360.346 51.6617 360.27C50.3905 360.195 49.4843 360.786 49.585 360.937Z" fill="var(--fill-0, #455A64)"/>
<path id="Vector_53" d="M50.5164 356.306C51.1594 356.479 51.8368 356.479 52.4798 356.306C53.1866 356.186 53.8758 355.979 54.5314 355.689C54.916 355.514 55.2901 355.316 55.6515 355.097C55.8748 354.978 56.0751 354.821 56.2431 354.632C56.3704 354.499 56.4495 354.328 56.4678 354.146C56.486 353.963 56.4423 353.779 56.3438 353.625C56.2488 353.489 56.1227 353.378 55.9759 353.301C55.8291 353.225 55.6661 353.185 55.5005 353.184C55.2532 353.176 55.0063 353.21 54.7705 353.285C53.6415 353.538 52.5995 354.085 51.7498 354.871C50.8311 355.701 50.4912 356.419 50.5919 356.457C50.6926 356.494 51.1205 355.915 52.0393 355.198C52.5762 354.794 53.1646 354.464 53.7888 354.216C54.1568 354.073 54.5356 353.96 54.9215 353.876C55.3369 353.763 55.6767 353.763 55.79 353.952C55.9032 354.141 55.79 354.053 55.79 354.166C55.6653 354.3 55.521 354.415 55.362 354.506C55.0249 354.722 54.6761 354.919 54.3174 355.097C53.7083 355.387 53.077 355.626 52.4295 355.815C51.7812 355.934 51.142 356.098 50.5164 356.306Z" fill="var(--fill-0, #455A64)"/>
<path id="Vector_54" d="M50.7673 356.582C51.1393 356.025 51.3244 355.364 51.2959 354.695C51.3355 353.971 51.246 353.247 51.0316 352.555C50.9139 352.139 50.7492 351.738 50.5408 351.359C50.4361 351.098 50.2648 350.869 50.044 350.694C49.8232 350.52 49.5605 350.406 49.2822 350.365C49.1093 350.372 48.9416 350.425 48.7973 350.521C48.653 350.616 48.5378 350.75 48.4641 350.906C48.367 351.136 48.2993 351.377 48.2627 351.624C48.1692 352.208 48.1934 352.805 48.3339 353.38C48.4744 353.955 48.7283 354.496 49.0808 354.971C49.836 355.978 50.6415 356.23 50.6541 356.155C50.6667 356.079 50.0499 355.689 49.471 354.707C49.132 354.149 48.9253 353.52 48.8668 352.87C48.8099 352.494 48.8099 352.112 48.8668 351.737C48.9298 351.321 49.0808 350.982 49.2444 351.032C49.408 351.082 49.7605 351.347 49.9241 351.674C50.1145 352.011 50.2746 352.365 50.4023 352.731C50.644 353.374 50.7924 354.048 50.8428 354.732C50.8428 355.84 50.6666 356.557 50.7673 356.582Z" fill="var(--fill-0, #455A64)"/>
<path id="Vector_55" d="M68.7159 345.645L68.4265 377.11L29.3467 376.947C29.5984 373.171 49.8368 365.808 49.8368 365.808L49.2075 345.67L68.7159 345.645Z" fill="var(--fill-0, #FF725E)"/>
<path id="Vector_56" d="M61.9307 364.096C62.3064 364.216 62.6253 364.468 62.8271 364.807C63.0289 365.146 63.0996 365.547 63.0256 365.934C62.9218 366.311 62.6777 366.635 62.3431 366.839C62.0086 367.042 61.6089 367.11 61.2258 367.029C60.8297 366.904 60.4938 366.637 60.2824 366.279C60.0711 365.921 59.9992 365.498 60.0805 365.091C60.2253 364.706 60.5135 364.393 60.8844 364.217C61.2552 364.041 61.6799 364.016 62.0691 364.147" fill="var(--fill-0, #263238)"/>
<path id="Vector_57" d="M68.464 376.922V373.75L30.882 375.008C30.882 375.008 29.1451 375.776 29.3465 376.997L68.464 376.922Z" fill="var(--fill-0, #263238)"/>
<path id="Vector_58" d="M49.2071 365.544C49.2071 365.733 50.1637 365.821 51.1076 366.437C52.0516 367.054 52.5424 367.86 52.706 367.784C52.8697 367.709 52.6053 366.614 51.4474 365.884C50.2895 365.154 49.1694 365.368 49.2071 365.544Z" fill="var(--fill-0, #263238)"/>
<path id="Vector_59" d="M45.1034 367.218C45.1034 367.406 45.8838 367.734 46.5256 368.539C47.1675 369.345 47.3563 370.213 47.5451 370.201C47.7339 370.188 47.8598 369.118 47.0417 368.124C46.2236 367.13 45.1034 367.041 45.1034 367.218Z" fill="var(--fill-0, #263238)"/>
<path id="Vector_60" d="M42.7506 372.114C42.9268 372.114 43.1911 371.207 42.7506 370.163C42.3101 369.118 41.3787 368.69 41.2906 368.904C41.2025 369.118 41.7563 369.622 42.1464 370.49C42.5366 371.358 42.5618 372.101 42.7506 372.114Z" fill="var(--fill-0, #263238)"/>
<path id="Vector_61" d="M49.585 360.937C49.6605 361.113 50.5415 360.849 51.6239 360.937C52.7063 361.025 53.537 361.353 53.6377 361.189C53.7384 361.025 52.9329 360.346 51.6617 360.27C50.3905 360.195 49.4843 360.786 49.585 360.937Z" fill="var(--fill-0, #263238)"/>
<path id="Vector_62" d="M50.5164 356.306C51.1594 356.479 51.8368 356.479 52.4798 356.306C53.1866 356.186 53.8758 355.979 54.5314 355.689C54.916 355.514 55.2901 355.316 55.6515 355.097C55.8748 354.978 56.0751 354.821 56.2431 354.632C56.3704 354.499 56.4495 354.328 56.4678 354.146C56.486 353.963 56.4423 353.779 56.3438 353.625C56.2488 353.489 56.1227 353.378 55.9759 353.301C55.8291 353.225 55.6661 353.185 55.5005 353.184C55.2532 353.176 55.0063 353.21 54.7705 353.285C53.6415 353.538 52.5995 354.085 51.7498 354.871C50.8311 355.701 50.4912 356.419 50.5919 356.457C50.6926 356.494 51.1205 355.915 52.0393 355.198C52.5762 354.794 53.1646 354.464 53.7888 354.216C54.1568 354.073 54.5356 353.96 54.9215 353.876C55.3369 353.763 55.6767 353.763 55.79 353.952C55.9032 354.141 55.79 354.053 55.79 354.166C55.6653 354.3 55.521 354.415 55.362 354.506C55.0249 354.722 54.6761 354.919 54.3174 355.097C53.7083 355.387 53.077 355.626 52.4295 355.815C51.7812 355.934 51.142 356.098 50.5164 356.306Z" fill="var(--fill-0, #455A64)"/>
<path id="Vector_63" d="M50.7673 356.582C51.1393 356.025 51.3244 355.364 51.2959 354.695C51.3355 353.971 51.246 353.247 51.0316 352.555C50.9139 352.139 50.7492 351.738 50.5408 351.359C50.4361 351.098 50.2648 350.869 50.044 350.694C49.8232 350.52 49.5605 350.406 49.2822 350.365C49.1093 350.372 48.9416 350.425 48.7973 350.521C48.653 350.616 48.5378 350.75 48.4641 350.906C48.367 351.136 48.2993 351.377 48.2627 351.624C48.1692 352.208 48.1934 352.805 48.3339 353.38C48.4744 353.955 48.7283 354.496 49.0808 354.971C49.836 355.978 50.6415 356.23 50.6541 356.155C50.6667 356.079 50.0499 355.689 49.471 354.707C49.132 354.149 48.9253 353.52 48.8668 352.87C48.8099 352.494 48.8099 352.112 48.8668 351.737C48.9298 351.321 49.0808 350.982 49.2444 351.032C49.408 351.082 49.7605 351.347 49.9241 351.674C50.1145 352.011 50.2746 352.365 50.4023 352.731C50.644 353.374 50.7924 354.048 50.8428 354.732C50.8428 355.84 50.6666 356.557 50.7673 356.582Z" fill="var(--fill-0, #455A64)"/>
<path id="Vector_64" d="M84.083 185.311C84.083 185.311 81.9937 174.915 79.3129 169.302C76.6321 163.688 69.156 149.994 69.156 149.994L35.2742 152.096L43.5433 239.255L46.3877 358.005L70.1628 358.823L71.4215 353.298C76.8712 343.09 76.4559 285.798 76.4559 285.798C76.4559 285.798 84.1586 226.858 85.2661 218.249C86.3737 209.64 84.083 185.311 84.083 185.311Z" fill="var(--fill-0, #263238)"/>
<path id="Vector_65" d="M15.3758 177.772C15.3758 177.772 4.5392 251.526 3.38128 264.112C2.22337 276.699 18.7741 359.251 18.7741 359.251L41.2402 358.709L37.7791 266.378L47.6843 211.893L35.2744 152.096L17.9686 151.845L15.3758 177.772Z" fill="var(--fill-0, #263238)"/>
<path id="Vector_66" d="M37.4516 153.947C37.6278 153.947 39.1382 173.744 40.8247 198.187C42.5112 222.629 43.7195 242.464 43.5307 242.477C43.3419 242.49 41.8442 222.679 40.1702 198.237C38.4963 173.795 37.2628 153.959 37.4516 153.947Z" fill="var(--fill-0, #455A64)"/>
<path id="Vector_67" d="M41.6549 155.872C41.3128 156.258 41.0784 156.727 40.9752 157.232C40.9399 157.488 40.9586 157.75 41.0301 157.999C41.1016 158.248 41.2244 158.48 41.3906 158.679C41.6167 158.879 41.8922 159.014 42.1885 159.071C42.4847 159.128 42.7908 159.105 43.0749 159.003C43.359 158.902 43.6107 158.726 43.8037 158.494C43.9966 158.262 44.1239 157.982 44.1721 157.685C44.1761 157.426 44.1267 157.17 44.0271 156.932C43.9275 156.694 43.7798 156.479 43.5931 156.3C42.9009 155.646 42.1961 155.784 42.1961 155.671C42.1961 155.558 42.3471 155.545 42.6492 155.52C43.1054 155.514 43.5498 155.665 43.9078 155.948C44.1815 156.154 44.4044 156.42 44.5593 156.725C44.7142 157.03 44.797 157.367 44.8014 157.71C44.7629 158.137 44.6026 158.544 44.3397 158.883C44.0767 159.221 43.7221 159.477 43.3179 159.62C42.9137 159.764 42.477 159.788 42.0595 159.69C41.642 159.592 41.2613 159.377 40.9626 159.069C40.7504 158.801 40.6026 158.489 40.5305 158.155C40.4585 157.821 40.4643 157.475 40.5473 157.143C40.643 156.705 40.8876 156.314 41.2395 156.036C41.4661 155.872 41.6423 155.872 41.6549 155.872Z" fill="var(--fill-0, #455A64)"/>
<path id="Vector_68" d="M72.5168 74.2136H24.0352V151.857H72.5168V74.2136Z" fill="var(--fill-0, #E0E0E0)"/>
<path id="Vector_69" d="M40.9501 66.3977L36.3436 69.8463C36.3436 69.8463 16.5834 75.3716 14.2928 76.6428C12.0021 77.914 11.1714 81.3122 10.5169 83.8672C9.86246 86.4222 7.39558 127.377 7.39558 127.377C7.39558 127.377 5.3063 129.29 5.52026 130.348C5.63088 132.137 5.63088 133.932 5.52026 135.722L19.881 129.429L20.9256 144.167L11.3602 163.613L14.2676 165.727C14.2676 165.727 10.7309 184.405 11.7504 191.415C12.7698 198.426 14.8717 199.055 14.8717 199.055C14.8717 199.055 20.7872 186.469 22.8765 180.377C24.3616 176.073 29.2828 158.603 31.6867 149.781C32.6416 146.376 33.3151 142.899 33.7005 139.384L39.9935 82.747L40.9501 66.3977Z" fill="var(--fill-0, #FF725E)"/>
<path id="Vector_70" d="M18.7868 122.293C18.6106 122.293 18.0694 115.634 17.5282 107.416C16.987 99.1971 16.7856 92.5013 16.9744 92.5013C17.1632 92.5013 17.6918 99.1467 18.233 107.378C18.7742 115.609 18.963 122.28 18.7868 122.293Z" fill="var(--fill-0, #263238)"/>
<g id="Group_3" opacity="0.3">
<path id="Vector_71" d="M17.251 96.3525C14.7557 104.69 15.2272 113.634 18.5851 121.663C18.5977 113.193 17.9055 104.81 17.251 96.3525Z" fill="var(--fill-0, black)"/>
</g>
<path id="Vector_72" d="M29.284 158.779C29.2247 158.473 29.1952 158.161 29.1959 157.848C29.1959 157.181 29.1204 156.287 29.0575 155.18C28.9694 152.776 28.8435 149.428 28.6924 145.338C28.5414 141.247 28.403 136.213 28.2268 130.738C28.1513 127.981 28.0632 125.099 27.9751 122.116C27.7836 119.017 27.8299 115.907 28.1135 112.815C28.3157 111.216 28.8106 109.667 29.5735 108.246C30.4066 106.995 31.143 105.683 31.7761 104.32C32.0398 103.687 32.1099 102.991 31.9774 102.318C31.7998 101.668 31.4263 101.088 30.9076 100.657C30.3452 100.183 29.8385 99.6469 29.3973 99.0585C29.0014 98.4184 28.7841 97.684 28.768 96.9315C28.8042 95.5574 29.0591 94.1978 29.5231 92.9039C29.8881 91.6453 30.2405 90.3867 30.593 89.2666C31.2726 86.9255 31.9271 84.7481 32.5186 82.747C33.6891 78.8075 34.6583 75.6106 35.3379 73.3074C35.6777 72.2502 35.942 71.4069 36.1434 70.7902C36.2178 70.4888 36.3276 70.1973 36.4707 69.9218C36.4239 70.228 36.3566 70.5307 36.2693 70.8279C36.0931 71.4824 35.8665 72.3509 35.5896 73.4207L32.9591 82.8728C32.3928 84.8866 31.7761 87.0766 31.109 89.4176C30.7818 90.6007 30.4293 91.809 30.0769 93.0676C29.6438 94.3027 29.406 95.5979 29.3721 96.9063C29.3833 97.5486 29.5705 98.1754 29.9133 98.7187C30.3317 99.2683 30.8133 99.7668 31.3481 100.204C31.9533 100.719 32.3914 101.402 32.6067 102.167C32.7651 102.96 32.6908 103.782 32.3928 104.533C31.748 105.932 31.0035 107.282 30.165 108.574C29.4365 109.918 28.9629 111.386 28.768 112.903C28.4961 115.962 28.4498 119.038 28.6295 122.104C28.705 125.087 28.7806 127.969 28.8435 130.725C28.9694 136.2 29.07 141.146 29.1707 145.325C29.2714 149.504 29.284 152.776 29.3218 155.167C29.3218 156.287 29.3218 157.168 29.3218 157.848C29.3423 158.159 29.3297 158.471 29.284 158.779Z" fill="var(--fill-0, #263238)"/>
<path id="Vector_73" d="M62.5351 65.479C62.5351 65.479 62.9252 72.6531 61.717 76.6051C60.5087 80.5571 50.5657 123.148 50.8426 129.756C51.1195 136.364 60.3954 178.955 62.2833 185.877C64.1712 192.8 69.7217 202.441 78.1921 204.417C80.5387 205.005 83.0126 204.814 85.2417 203.875C87.4707 202.935 89.3342 201.296 90.5517 199.206L85.5173 168.572L88.9029 166.847L82.849 156.955L82.1568 148.144L79.6396 116.679L87.8834 77.8385L70.0993 71.0546L62.5351 65.479Z" fill="var(--fill-0, #FF725E)"/>
<path id="Vector_74" d="M57.5887 154.966C57.6022 154.673 57.6444 154.382 57.7146 154.098C57.8279 153.481 57.9915 152.663 58.1803 151.643C58.6334 149.441 59.2501 146.382 60.0178 142.632C61.654 134.967 63.8692 124.508 66.3109 112.954C67.0394 110.199 67.1809 107.321 66.7262 104.508C66.4745 103.25 65.7697 101.865 66.0717 100.355C66.2663 99.6455 66.6859 99.0184 67.2674 98.5677C67.7638 98.193 68.2232 97.7715 68.6393 97.3091C69.3181 96.3183 69.6902 95.1496 69.7091 93.9487C69.7846 92.7656 69.7091 91.5825 69.7091 90.4371C69.6336 88.1716 69.5581 86.0446 69.4826 84.1441C69.3693 80.3683 69.2686 77.1966 69.2057 74.9563V72.439C69.1728 72.1463 69.1728 71.8508 69.2057 71.558C69.2572 71.8451 69.2909 72.1352 69.3063 72.4264C69.3063 73.0683 69.407 73.899 69.47 74.9437C69.5958 77.184 69.7595 80.3053 69.9608 84.1189C70.0615 86.0698 70.1622 88.1968 70.2755 90.4749C70.2755 91.6076 70.4139 92.7907 70.3384 94.0367C70.3325 95.3545 69.9289 96.6398 69.1805 97.7245C68.3372 98.8321 66.9905 99.3858 66.7514 100.582C66.5122 101.777 67.1164 103.099 67.4184 104.458C67.8997 107.357 67.7625 110.325 67.0157 113.168C64.4985 124.709 62.1826 135.168 60.5087 142.82C59.6654 146.596 58.9606 149.592 58.4697 151.782C58.218 152.789 58.0292 153.594 57.8782 154.223C57.811 154.481 57.7139 154.731 57.5887 154.966Z" fill="var(--fill-0, #263238)"/>
<path id="Vector_75" d="M88.7781 166.696C88.1106 167.287 87.3705 167.79 86.5756 168.194C85.1659 169.037 83.1773 170.12 80.9244 171.215C78.6715 172.31 76.5948 173.216 75.0719 173.807C74.2755 174.197 73.4281 174.472 72.5547 174.625C72.5547 174.449 76.1921 172.826 80.6601 170.636C85.1282 168.446 88.6775 166.533 88.7781 166.696Z" fill="var(--fill-0, #263238)"/>
<path id="Vector_76" d="M82.8746 156.917C79.8461 159.129 76.3782 160.665 72.7051 161.423C74.3268 160.534 76.0091 159.76 77.7395 159.107C79.3976 158.257 81.1136 157.525 82.8746 156.917Z" fill="var(--fill-0, #263238)"/>
<g id="Group_4" opacity="0.3">
<path id="Vector_77" d="M67.5583 113.482C69.4542 110.835 70.395 107.622 70.2265 104.37C69.8207 102.01 70.2431 99.5821 71.4222 97.4979C72.3608 94.4946 72.5124 91.3006 71.8627 88.2219C71.3299 85.0814 70.5341 81.9911 69.4839 78.9838C69.4839 78.9838 69.8363 83.8546 70.0503 88.5492C70.2265 92.476 70.4782 96.1764 68.691 97.7244C64.7515 101.098 66.3752 102.532 66.7779 103.627C67.1807 104.722 67.8603 105.566 67.2436 109.354C66.6269 113.142 59.7549 144.973 59.7549 144.973L67.5583 113.482Z" fill="var(--fill-0, black)"/>
</g>
<g id="Group_5" opacity="0.3">
<path id="Vector_78" d="M82.8119 149.277C82.0558 142.374 78.9444 135.942 74.0016 131.065C72.7924 129.744 71.3281 128.683 69.6972 127.944C67.6242 127.284 65.3798 127.424 63.4041 128.334L62.3721 134.199C63.0014 133.519 64.9774 132.739 65.657 133.356C66.2826 134.036 66.7547 134.843 67.0415 135.722C67.3342 136.601 67.9209 137.352 68.7029 137.849C69.8356 138.415 71.2201 137.937 72.4787 138.327C72.9712 138.525 73.4182 138.822 73.7925 139.198C74.1668 139.575 74.4606 140.024 74.6561 140.517C75.0966 141.474 75.3106 142.518 75.663 143.513C76.6792 146.369 78.7447 148.732 81.44 150.12C81.8176 150.309 82.321 150.473 82.6231 150.183C82.7196 150.056 82.7866 149.908 82.8192 149.751C82.8519 149.595 82.8494 149.433 82.8119 149.277Z" fill="var(--fill-0, black)"/>
</g>
<g id="Group_6" opacity="0.3">
<path id="Vector_79" d="M85.3539 168.899C85.8321 170.812 84.8504 172.322 83.4911 173.732C82.0713 175.128 80.1821 175.945 78.1924 176.023C76.2123 176.092 74.2443 175.686 72.4531 174.839L85.3539 168.899Z" fill="var(--fill-0, black)"/>
</g>
<g id="Group_7" opacity="0.3">
<path id="Vector_80" d="M32.3293 102.47C32.216 100.733 30.3281 100.72 29.4723 99.2098C28.2136 97.0324 28.9688 95.2074 29.8372 92.9168C30.7942 90.3277 31.5969 87.6842 32.2412 85.0001C30.9826 87.6054 28.9562 89.7702 27.4459 92.2497C25.9356 94.7292 24.9287 97.7876 25.9104 100.506C26.5179 101.592 26.911 102.784 27.0683 104.018C27.0054 105.49 25.8097 106.623 24.979 107.794C23.5723 109.925 22.8319 112.427 22.852 114.98C22.8738 117.518 23.1479 120.048 23.6701 122.532C25.1301 130.939 27.2319 138.038 28.7045 146.445L28.3269 114.98C28.1232 112.894 28.4658 110.79 29.3212 108.876C30.2903 107.101 32.4551 104.458 32.3293 102.47Z" fill="var(--fill-0, black)"/>
</g>
<path id="Vector_81" d="M90.552 154.475C95.5864 153.154 98.5693 150.951 98.7455 149.214C98.9217 147.477 100.419 141.448 99.8657 139.384C99.3119 137.32 95.2718 108.045 95.2718 108.045C95.2718 108.045 97.4618 103.703 96.7192 100.128C96.7192 100.128 98.7455 98.4293 96.3416 94.4646C94.6569 91.5126 93.2375 88.4168 92.1001 85.2139C92.1001 85.2139 90.187 78.3167 87.8837 77.8258L79.6525 116.641L86.7384 149.202L90.552 154.475Z" fill="var(--fill-0, #FF725E)"/>
<path id="Vector_82" d="M86.0849 79.7642C86.1856 79.7642 85.1913 81.7654 83.9201 85.0629C82.2674 89.3475 81.0694 93.7938 80.3457 98.3286C79.6509 102.871 79.4231 107.472 79.666 112.06C79.8674 115.584 80.2198 117.736 80.1066 117.762C79.94 117.275 79.822 116.773 79.7541 116.264C79.5034 114.881 79.3228 113.486 79.2129 112.085C78.4204 102.806 79.8888 93.4739 83.4922 84.8867C84.025 83.5972 84.6258 82.3368 85.292 81.1109C85.502 80.6321 85.7682 80.1801 86.0849 79.7642Z" fill="var(--fill-0, #263238)"/>
<path id="Vector_83" d="M93.3207 109.304C93.3207 109.492 91.3321 109.769 89.0666 110.738C86.8011 111.708 85.1901 112.903 85.0642 112.752C86.1094 111.615 87.3887 110.717 88.8141 110.122C90.2395 109.527 91.777 109.248 93.3207 109.304Z" fill="var(--fill-0, #263238)"/>
<path id="Vector_84" d="M98.8971 137.471C97.2073 135.796 95.2927 134.364 93.2082 133.217C91.027 132.271 88.7211 131.644 86.3613 131.354C87.0581 131.164 87.7879 131.125 88.501 131.241C90.2517 131.388 91.9593 131.862 93.5354 132.638C95.0924 133.404 96.4925 134.454 97.6636 135.734C98.1922 136.22 98.6125 136.812 98.8971 137.471Z" fill="var(--fill-0, #263238)"/>
<path id="Vector_85" d="M68.3133 113.13H44.5508L48.8804 130.839H64.8899L68.3133 113.13Z" fill="var(--fill-0, #455A64)"/>
<path id="Vector_86" d="M68.0604 113.155C67.0536 113.777 65.9649 114.256 64.8258 114.577C59.3663 116.384 53.4791 116.441 47.9856 114.741C46.8436 114.446 45.75 113.988 44.7384 113.382C44.7384 113.142 49.7728 115.408 56.4182 115.307C63.0637 115.207 67.9974 112.916 68.0604 113.155Z" fill="var(--fill-0, #263238)"/>
<path id="Vector_87" d="M67.4433 114.477C68.0189 114.273 68.6397 114.235 69.2358 114.367C69.8318 114.498 70.3793 114.793 70.8164 115.219C71.6979 116.097 72.2606 117.244 72.4148 118.479C72.5931 119.647 72.5251 120.839 72.2151 121.979C71.9052 123.12 71.3601 124.182 70.615 125.099C69.8679 125.996 68.9353 126.72 67.8816 127.222C66.8278 127.724 65.6778 127.992 64.5107 128.007L65.3792 124.696C66.8092 124.293 68.1101 123.525 69.155 122.469C69.6735 121.926 70.044 121.259 70.2313 120.531C70.4186 119.804 70.4164 119.041 70.2248 118.315C70.0041 117.607 69.513 117.014 68.858 116.665C68.203 116.316 67.4369 116.24 66.7259 116.453L67.028 113.658" fill="var(--fill-0, #455A64)"/>
<path id="Vector_88" d="M68.3124 113.079C68.2353 113.293 68.2043 113.521 68.2214 113.747C68.2384 113.973 68.3031 114.194 68.4113 114.393C68.5194 114.593 68.6685 114.768 68.8489 114.906C69.0292 115.043 69.2367 115.142 69.4577 115.194C70.4189 115.447 71.4291 115.447 72.3902 115.194L73.1957 118.97L77.6009 118.643C76.6195 116.354 75.5015 114.126 74.253 111.972C73.7504 111.619 73.1414 111.45 72.5287 111.494L68.3124 113.079Z" fill="var(--fill-0, #B78876)"/>
<path id="Vector_89" d="M79.6524 121.311C79.4887 121.172 78.4567 118.794 77.6008 118.718C76.745 118.643 69.5332 118.718 69.5332 118.718C69.5332 118.718 67.9096 119.498 67.6956 120.442C67.4816 121.386 67.4816 123.186 68.2368 123.123C68.992 123.06 71.7861 123.123 71.7861 123.123L71.6224 124.269C71.6224 124.269 68.564 124.269 67.9095 124.759C67.2551 125.25 65.707 127.012 66.3489 127.73C67.0743 128.295 67.8978 128.722 68.778 128.988C68.778 128.988 68.2368 128.762 68.2368 129.53C68.2823 130.126 68.4448 130.708 68.7151 131.241C68.7151 131.241 69.3569 133.872 70.6785 133.935C72 133.998 75.0207 135.911 75.0207 135.911C76.0566 137.198 76.9749 138.575 77.7645 140.026C78.3057 141.348 79.3755 149.365 85.3161 152.776L86.8264 153.607C87.7275 154.099 88.7296 154.378 89.7555 154.422C90.7814 154.466 91.8036 154.274 92.7436 153.86C93.6835 153.447 94.5159 152.823 95.1768 152.037C95.8377 151.251 96.3094 150.324 96.5555 149.327V149.252C97.0463 146.949 98.8713 142.959 97.5875 141.071C96.3038 139.183 94.3026 138.101 90.7407 136.792C87.1788 135.483 81.3767 127.616 81.3767 127.616C81.3767 127.616 80.5082 122.079 79.6524 121.311Z" fill="var(--fill-0, #B78876)"/>
<path id="Vector_90" d="M77.2743 123.576C75.733 123.701 74.184 123.701 72.6427 123.576C71.091 123.65 69.5373 123.485 68.0361 123.085C69.5668 122.834 71.1232 122.779 72.6678 122.922C75.248 122.997 77.3373 123.362 77.2743 123.576Z" fill="var(--fill-0, #995037)"/>
<path id="Vector_91" d="M77.035 123.639C75.6079 124.031 74.1445 124.276 72.6676 124.369C71.2086 124.65 69.7187 124.735 68.2373 124.621C69.6297 124.083 71.1008 123.777 72.5921 123.715C75.0212 123.425 77.035 123.425 77.035 123.639Z" fill="var(--fill-0, #995037)"/>
<path id="Vector_92" d="M76.1665 127.944C74.9225 128.535 73.5663 128.852 72.1893 128.875C70.8295 129.108 69.4357 129.053 68.0988 128.711C69.4201 128.405 70.7702 128.24 72.1264 128.22C73.4594 127.985 74.8138 127.892 76.1665 127.944Z" fill="var(--fill-0, #995037)"/>
<path id="Vector_93" d="M76.2422 132.047C73.9136 132.669 71.4563 132.616 69.1562 131.896C70.3312 131.718 71.5241 131.693 72.7055 131.82C73.8892 131.74 75.0783 131.817 76.2422 132.047Z" fill="var(--fill-0, #995037)"/>
<path id="Vector_94" d="M78.1798 133.054C78.3435 132.966 78.7085 133.746 78.1798 134.526C77.9829 134.854 77.6674 135.093 77.2988 135.193C77.0219 135.256 76.8331 135.193 76.8205 135.105C76.808 135.017 77.3114 134.715 77.6386 134.174C77.9659 133.633 78.0036 133.104 78.1798 133.054Z" fill="var(--fill-0, #995037)"/>
<path id="Vector_95" d="M79.4513 128.762C79.5142 128.762 79.7408 128.762 79.9673 129.152C80.2475 129.581 80.3841 130.088 80.3575 130.599C80.344 131.115 80.1678 131.612 79.854 132.022C79.6023 132.324 79.3632 132.424 79.3128 132.361C79.2625 132.298 79.6778 131.556 79.703 130.574C79.7282 129.592 79.3128 128.888 79.4513 128.762Z" fill="var(--fill-0, #995037)"/>
<path id="Vector_96" d="M79.6648 124.281C79.7907 124.155 80.4704 124.885 80.4452 126.031C80.42 127.176 79.7026 127.893 79.5767 127.755C79.4509 127.616 79.7781 126.949 79.7907 126.018C79.8033 125.087 79.5012 124.407 79.6648 124.281Z" fill="var(--fill-0, #995037)"/>
<path id="Vector_97" d="M77.7396 118.794C76.3263 118.995 74.8942 119.029 73.4729 118.894C72.0477 118.991 70.6161 118.923 69.2063 118.693C70.5871 118.274 72.0349 118.12 73.4729 118.24C74.9172 118.158 76.3641 118.345 77.7396 118.794Z" fill="var(--fill-0, #995037)"/>
<path id="Vector_98" d="M5.53309 135.734C5.19112 137.999 5.23367 140.305 5.65896 142.556C6.42671 145.073 9.76201 150.473 12.0401 150.901C12.3616 150.946 12.6877 150.946 13.0092 150.901C14.7942 150.706 16.4537 149.89 17.6965 148.594C18.9393 147.298 19.6861 145.606 19.8057 143.815L20.1078 140.291C20.1078 140.291 23.1788 139.838 23.6193 138.088C23.9027 137.2 23.9027 136.245 23.6193 135.357C23.6193 135.357 25.6457 132.94 25.0289 130.977C25.0289 130.977 28.188 128.372 26.9546 126.949C26.9546 126.949 25.3813 126.408 24.7646 126.949C24.7632 126.727 24.7169 126.508 24.6286 126.304C24.5403 126.101 24.4118 125.917 24.2508 125.764C24.0898 125.611 23.8996 125.493 23.6916 125.415C23.4836 125.338 23.2621 125.303 23.0403 125.313C23.0403 125.313 22.8012 121.336 20.5231 121.663C18.245 121.99 17.88 125.791 17.88 125.791C16.6848 125.822 15.4974 125.995 14.3433 126.307C13.5882 126.685 11.2472 131.782 11.2472 131.782L11.3101 133.154L5.53309 135.734Z" fill="var(--fill-0, #B78876)"/>
<path id="Vector_99" d="M15.4004 131.279C15.4004 131.166 16.5331 131.052 18.3078 130.587C19.3395 130.322 20.3396 129.946 21.2907 129.467C21.8442 129.188 22.3708 128.86 22.8639 128.485C23.3651 128.11 23.792 127.645 24.1226 127.113C24.1956 127.007 24.2431 126.886 24.2614 126.759C24.2797 126.632 24.2683 126.502 24.2281 126.38C24.1878 126.258 24.1198 126.147 24.0295 126.056C23.9391 125.965 23.8288 125.896 23.7072 125.854C23.141 125.699 22.5463 125.677 21.9703 125.791L18.7231 126.056C17.7272 126.203 16.7171 126.228 15.715 126.131C16.6789 125.848 17.6706 125.671 18.6728 125.603L21.9074 125.2C22.5855 125.047 23.2915 125.068 23.9589 125.263C24.1588 125.341 24.3403 125.459 24.492 125.611C24.6437 125.762 24.7621 125.944 24.84 126.144C24.9046 126.352 24.9256 126.571 24.9018 126.788C24.878 127.004 24.8098 127.213 24.7015 127.403C24.311 128.029 23.7919 128.565 23.1786 128.976C22.6518 129.371 22.0868 129.713 21.4921 129.995C20.4913 130.472 19.434 130.818 18.3455 131.027C17.3858 131.281 16.3893 131.367 15.4004 131.279Z" fill="var(--fill-0, #995037)"/>
<path id="Vector_100" d="M15.8921 130.461C15.8921 130.536 15.6153 130.461 15.3509 130.234C15.0075 129.902 14.8009 129.453 14.772 128.976C14.7614 128.521 14.9081 128.076 15.1873 127.717C15.4139 127.44 15.6404 127.365 15.6908 127.428C15.7411 127.491 15.3761 128.17 15.4265 129.001C15.4768 129.832 16.0054 130.322 15.8921 130.461Z" fill="var(--fill-0, #995037)"/>
<path id="Vector_101" d="M25.5574 130.7C25.6958 130.801 24.8022 132.097 23.0402 132.928C22.0582 133.518 20.8894 133.716 19.7678 133.482C19.7678 133.293 21.19 133.104 22.7507 132.336C24.3113 131.568 25.4063 130.511 25.5574 130.7Z" fill="var(--fill-0, #995037)"/>
<path id="Vector_102" d="M23.9716 134.979C24.1352 135.055 23.2793 136.439 21.4543 137.006C20.9408 137.227 20.3819 137.323 19.8238 137.286C19.2657 137.249 18.7245 137.079 18.2449 136.792C19.2563 136.726 20.2617 136.588 21.253 136.376C22.1911 135.976 23.0995 135.509 23.9716 134.979Z" fill="var(--fill-0, #995037)"/>
<path id="Vector_103" d="M15.6024 137.635C15.6024 137.723 15.3255 137.748 14.9227 137.635C14.3436 137.534 13.8279 137.208 13.4879 136.729C13.292 136.477 13.1855 136.167 13.1855 135.848C13.1855 135.529 13.292 135.219 13.4879 134.967C13.8403 134.602 14.1927 134.665 14.1927 134.753C14.1927 134.841 13.9913 134.954 13.8655 135.244C13.7838 135.424 13.7513 135.622 13.7712 135.819C13.7911 136.016 13.8627 136.204 13.9788 136.364C14.5577 137.194 15.6024 137.421 15.6024 137.635Z" fill="var(--fill-0, #995037)"/>
<path id="Vector_104" d="M18.308 140.215C18.308 140.291 18.1821 140.504 17.7794 140.668C17.4991 140.768 17.1976 140.795 16.9043 140.744C16.6109 140.693 16.3357 140.567 16.1054 140.379C15.8646 140.188 15.6908 139.925 15.6094 139.628C15.5279 139.332 15.5429 139.017 15.6523 138.73C15.8537 138.289 16.1558 138.201 16.1935 138.277C16.2313 138.352 16.1306 138.541 16.1054 138.856C16.0837 139.048 16.1116 139.243 16.1865 139.421C16.2615 139.6 16.3809 139.756 16.5333 139.875C17.2759 140.492 18.245 140.039 18.308 140.215Z" fill="var(--fill-0, #995037)"/>
<path id="Vector_105" d="M14.1792 134.01C14.1792 134.086 13.9149 134.262 13.3989 134.211C13.0619 134.172 12.7394 134.053 12.4589 133.862C12.1783 133.671 11.9481 133.415 11.7879 133.116C11.6352 132.814 11.5557 132.48 11.5557 132.141C11.5557 131.802 11.6352 131.468 11.7879 131.166C12.0144 130.7 12.3039 130.549 12.3668 130.612C12.4297 130.675 12.3039 130.914 12.2158 131.317C12.1106 131.819 12.1771 132.342 12.4046 132.802C12.6516 133.249 13.0549 133.59 13.5373 133.758C13.8772 133.897 14.1666 133.909 14.1792 134.01Z" fill="var(--fill-0, #995037)"/>
</g>
</svg>
