<svg preserveAspectRatio="none" width="100%" height="100%" overflow="visible" style="display: block;" viewBox="0 0 253 359" fill="none" xmlns="http://www.w3.org/2000/svg">
<g id="freepik--characters-6--inject-30">
<path id="Vector" d="M182.357 86.8686L177.801 95.4271C177.801 95.4271 175.422 100.185 173.836 102.979C172.9 104.451 172.546 106.219 172.842 107.938L157.185 126.351C157.185 126.351 155.8 128.34 154.416 128.34C153.031 128.34 152.83 130.857 152.83 130.857L130.754 145.041L135.146 156.444C135.146 156.444 135.511 160.22 136.405 160.22C137.299 160.22 164.9 149.912 167.87 148.528C170.841 147.143 182.974 129.296 182.974 129.296L184.635 82.1866C182.143 83.0173 182.357 86.8686 182.357 86.8686Z" fill="var(--fill-0, #FF725E)"/>
<path id="Vector_2" d="M183.918 23.9381C184.09 19.3093 185.999 14.915 189.264 11.6291C192.529 8.34329 196.911 6.40665 201.538 6.20435H202.482C212.79 6.35538 218.429 15.2034 217.988 25.4988L217.913 66.7308C217.913 66.7308 201.802 76.2333 201.198 76.548L194.012 81.7083L194.087 58.5373C194.087 58.5373 184.144 57.4297 183.59 47.5496C183.339 42.7417 183.616 32.8743 183.918 23.9381Z" fill="var(--fill-0, #AA6550)"/>
<path id="Vector_3" d="M194.024 58.487C198.616 58.2875 203.053 56.7762 206.812 54.1322C206.812 54.1322 204.068 61.3818 194.226 60.9161L194.024 58.487Z" fill="var(--fill-0, #723C31)"/>
<path id="Vector_4" d="M186.409 30.9233C186.422 31.2917 186.578 31.6407 186.843 31.8966C187.109 32.1525 187.463 32.2954 187.831 32.2952C188.012 32.3002 188.191 32.2697 188.359 32.2054C188.528 32.141 188.682 32.0441 188.813 31.9202C188.944 31.7963 189.049 31.6479 189.122 31.4833C189.196 31.3187 189.236 31.1413 189.241 30.9611C189.228 30.5927 189.073 30.2437 188.807 29.9878C188.542 29.7319 188.188 29.589 187.819 29.5892C187.639 29.5842 187.459 29.6147 187.291 29.679C187.123 29.7434 186.969 29.8403 186.838 29.9642C186.707 30.0881 186.602 30.2365 186.528 30.4011C186.455 30.5657 186.414 30.7431 186.409 30.9233Z" fill="var(--fill-0, #263238)"/>
<path id="Vector_5" d="M186.258 28.6831C186.434 28.8593 187.517 28.016 188.99 27.9657C190.462 27.9153 191.658 28.6075 191.809 28.4188C191.96 28.23 191.696 28.0034 191.192 27.6762C190.517 27.2487 189.725 27.0419 188.927 27.0846C188.137 27.1117 187.377 27.3944 186.762 27.8901C186.309 28.2677 186.132 28.6076 186.258 28.6831Z" fill="var(--fill-0, #263238)"/>
<path id="Vector_6" d="M201.488 30.9233C201.501 31.2917 201.657 31.6406 201.922 31.8966C202.188 32.1525 202.542 32.2954 202.911 32.2952C203.091 32.3019 203.271 32.2725 203.44 32.2088C203.609 32.1451 203.764 32.0483 203.895 31.924C204.027 31.7998 204.132 31.6507 204.205 31.4853C204.278 31.32 204.317 31.1417 204.32 30.961C204.307 30.5926 204.152 30.2437 203.886 29.9878C203.621 29.7318 203.267 29.5889 202.898 29.5892C202.718 29.5841 202.538 29.6147 202.37 29.679C202.202 29.7433 202.048 29.8402 201.917 29.9641C201.786 30.088 201.681 30.2365 201.607 30.4011C201.534 30.5656 201.493 30.7431 201.488 30.9233Z" fill="var(--fill-0, #263238)"/>
<path id="Vector_7" d="M201.236 28.3182C201.412 28.4944 202.494 27.6637 203.967 27.6008C205.44 27.5378 206.635 28.2426 206.799 28.0539C206.963 27.8651 206.686 27.6385 206.182 27.3113C205.502 26.8843 204.706 26.6777 203.904 26.7197C203.116 26.7555 202.359 27.0372 201.739 27.5252C201.236 27.9028 201.11 28.2426 201.236 28.3182Z" fill="var(--fill-0, #263238)"/>
<path id="Vector_8" d="M196.202 39.8218C195.381 39.6007 194.535 39.4865 193.684 39.482C193.294 39.482 192.929 39.4065 192.854 39.1422C192.798 38.7406 192.868 38.3314 193.055 37.9717C193.382 37.0277 193.722 36.0208 194.075 34.9762C195.033 32.4275 195.782 29.8051 196.315 27.1351C195.167 29.604 194.212 32.1583 193.458 34.7748L192.476 37.7955C192.254 38.2763 192.209 38.8203 192.35 39.331C192.411 39.4637 192.502 39.5805 192.615 39.6722C192.729 39.7639 192.862 39.8281 193.005 39.8596C193.226 39.894 193.451 39.894 193.672 39.8596C194.513 39.9604 195.364 39.9477 196.202 39.8218Z" fill="var(--fill-0, #263238)"/>
<path id="Vector_9" d="M200.682 40.6777C200.443 40.6777 200.506 42.3264 199.147 43.5599C197.787 44.7933 196.025 44.68 196.025 44.9192C196.025 45.1583 196.428 45.2212 197.171 45.2086C198.138 45.1752 199.064 44.8058 199.789 44.164C200.482 43.548 200.907 42.6852 200.972 41.7601C200.997 41.0678 200.796 40.6651 200.682 40.6777Z" fill="var(--fill-0, #263238)"/>
<path id="Vector_10" d="M200.544 22.3901C200.72 22.7929 202.218 22.5286 204.018 22.667C205.817 22.8054 207.265 23.2334 207.491 22.8432C207.592 22.667 207.315 22.2894 206.724 21.9118C205.932 21.4435 205.037 21.1756 204.118 21.1315C203.203 21.0577 202.284 21.2044 201.437 21.5594C200.796 21.8489 200.468 22.1887 200.544 22.3901Z" fill="var(--fill-0, #263238)"/>
<path id="Vector_11" d="M186.623 24.2151C186.9 24.5423 187.882 24.1396 189.14 24.0766C190.399 24.0137 191.481 24.2025 191.658 23.8375C191.834 23.4725 191.57 23.3089 191.091 23.0068C190.453 22.6316 189.714 22.4644 188.977 22.5285C188.237 22.5747 187.53 22.8471 186.95 23.3089C186.623 23.7368 186.497 24.1018 186.623 24.2151Z" fill="var(--fill-0, #263238)"/>
<path id="Vector_12" d="M216.817 32.849C216.981 32.7735 223.526 30.5458 223.601 37.3171C223.677 44.0884 216.868 42.7543 216.855 42.5655C216.843 42.3767 216.817 32.849 216.817 32.849Z" fill="var(--fill-0, #AA6550)"/>
<path id="Vector_13" d="M218.303 39.9979C218.303 39.9979 218.417 40.086 218.618 40.1741C218.902 40.2803 219.215 40.2803 219.499 40.1741C219.919 39.8798 220.256 39.4816 220.476 39.0184C220.697 38.5552 220.794 38.0428 220.758 37.5311C220.77 36.9535 220.649 36.3808 220.405 35.8571C220.34 35.6469 220.224 35.4558 220.068 35.3001C219.913 35.1445 219.722 35.0289 219.512 34.9635C219.376 34.9244 219.231 34.9361 219.104 34.9963C218.976 35.0566 218.875 35.1613 218.819 35.2907C218.731 35.4795 218.819 35.618 218.731 35.6306C218.643 35.6431 218.593 35.5173 218.643 35.2404C218.674 35.0696 218.769 34.9169 218.907 34.8125C218.996 34.7389 219.098 34.6841 219.209 34.6517C219.319 34.6192 219.435 34.6097 219.549 34.6237C219.832 34.6733 220.096 34.7957 220.317 34.9789C220.538 35.1621 220.707 35.3998 220.808 35.6683C221.104 36.2483 221.251 36.8927 221.236 37.5436C221.277 38.1462 221.139 38.7475 220.838 39.2716C220.538 39.7957 220.09 40.2192 219.549 40.4888C219.368 40.5448 219.177 40.5591 218.989 40.5308C218.802 40.5025 218.623 40.4322 218.467 40.3252C218.316 40.1615 218.278 40.0105 218.303 39.9979Z" fill="var(--fill-0, #723C31)"/>
<path id="Vector_14" d="M211.556 12.8875L183.401 14.6747C184.286 12.7223 185.639 11.0188 187.341 9.71582C190.893 6.72672 195.297 4.93418 199.927 4.5933C204.521 4.32899 214.111 9.53962 217.547 12.5729C220.316 14.9894 220.392 17.192 220.392 17.192C220.958 20.8293 219.133 25.0709 218.428 28.6831C218.076 30.5584 217.497 36.2347 217.497 36.2347C215.949 36.2347 215.32 35.0768 215.496 33.5413V27.5C213.888 26.3378 212.703 24.6826 212.122 22.7858C211.54 20.889 211.594 18.8543 212.274 16.9906C212.714 16.4368 213.457 13.8818 211.556 12.8875Z" fill="var(--fill-0, #263238)"/>
<path id="Vector_15" d="M217.762 13.0008C218.031 11.7306 218.001 10.4151 217.674 9.15853C217.347 7.90195 216.731 6.73893 215.876 5.76171C215.021 4.78449 213.95 4.01995 212.748 3.52876C211.546 3.03757 210.246 2.83323 208.951 2.93195C207.661 3.18418 206.352 3.33151 205.037 3.37248C202.583 3.20886 200.619 1.33353 198.329 0.477672C196.505 -0.155983 194.522 -0.159296 192.696 0.468261C190.871 1.09582 189.308 2.31793 188.26 3.93885C187.467 5.19745 187.001 6.85882 185.743 7.71467C184.538 8.26463 183.27 8.66207 181.967 8.89777C180.71 9.39584 179.647 10.2854 178.935 11.4346C178.223 12.5839 177.901 13.9319 178.015 15.2789C178.178 16.6238 178.708 17.8979 179.547 18.9614C180.386 20.0248 181.502 20.8366 182.772 21.3076C184.05 21.7487 185.41 21.8996 186.753 21.7494C188.096 21.5992 189.389 21.1516 190.538 20.4392C192.615 19.1806 194.44 17.0661 196.831 17.041C199.222 17.0158 201.651 19.2939 204.106 18.7023C205.353 18.2441 206.444 17.441 207.252 16.3865C208.074 15.3349 209.235 14.6009 210.537 14.3098C211.859 14.1839 212.614 15.9711 212.199 17.2172L217.711 12.9505" fill="var(--fill-0, #263238)"/>
<path id="Vector_16" d="M183.805 11.1255C183.802 11.159 183.802 11.1927 183.805 11.2262C183.858 11.3182 183.916 11.4065 183.981 11.4905C184.223 11.8196 184.506 12.1158 184.824 12.3716C185.331 12.7816 185.912 13.0893 186.536 13.2778C187.36 13.5038 188.229 13.5038 189.053 13.2778C190.08 13.0224 191.001 12.4499 191.684 11.6416C192.348 10.6566 192.957 9.63552 193.509 8.58315C193.831 8.07683 194.261 7.64725 194.767 7.32454C195.334 7.00983 195.97 6.84114 196.618 6.83368C197.29 6.82198 197.955 6.97311 198.556 7.27418C199.178 7.58335 199.694 8.06939 200.041 8.67124C200.364 9.30701 200.721 9.92465 201.111 10.5214C201.316 10.8275 201.59 11.0806 201.912 11.26C202.233 11.4394 202.593 11.54 202.961 11.5535C203.658 11.5348 204.333 11.3068 204.899 10.899C205.433 10.5427 205.92 10.1197 206.347 9.64037C207.032 8.69821 207.97 7.96946 209.053 7.5385C209.542 7.42082 210.051 7.40821 210.545 7.50149C211.04 7.59478 211.509 7.79184 211.922 8.07969C212.61 8.55609 213.168 9.1963 213.546 9.94245C213.837 10.5101 214.061 11.11 214.213 11.7297C214.31 12.1239 214.385 12.5231 214.439 12.9253L214.515 13.3407C214.515 13.3407 214.515 13.3407 214.515 13.2274C214.515 13.1141 214.515 13.0512 214.515 12.9128C214.515 12.7743 214.439 12.2205 214.326 11.6542C214.192 11.0182 213.981 10.4011 213.697 9.81658C213.321 9.03389 212.748 8.36184 212.036 7.86573C211.603 7.55837 211.11 7.34571 210.59 7.24161C210.069 7.13752 209.532 7.14433 209.015 7.2616C207.887 7.7047 206.903 8.44924 206.17 9.41383C205.767 9.89735 205.296 10.3211 204.773 10.6724C204.245 11.0452 203.62 11.2552 202.974 11.2766C202.647 11.2592 202.329 11.166 202.045 11.0043C201.761 10.8426 201.519 10.617 201.337 10.3452C200.935 9.80399 200.658 9.08659 200.28 8.50763C199.908 7.8679 199.357 7.35145 198.694 7.02247C198.054 6.70232 197.346 6.54251 196.63 6.55679C195.937 6.56335 195.258 6.7452 194.654 7.0854C194.089 7.42858 193.61 7.89816 193.257 8.45728C192.716 9.50365 192.119 10.5204 191.47 11.5031C190.819 12.2893 189.939 12.8526 188.953 13.1141C188.129 13.3446 187.259 13.3446 186.435 13.1141C185.821 12.9432 185.244 12.6571 184.736 12.2709C184.381 11.9277 184.069 11.5432 183.805 11.1255Z" fill="var(--fill-0, #455A64)"/>
<path id="Vector_17" d="M178.694 11.4401C178.637 11.6148 178.607 11.7974 178.606 11.9813C178.582 12.4927 178.651 13.0042 178.808 13.4916C179.047 14.2118 179.438 14.8726 179.953 15.4298C180.59 16.1094 181.373 16.6346 182.243 16.9654C183.829 17.5333 185.54 17.6552 187.19 17.3178C187.683 17.2265 188.17 17.1088 188.65 16.9654C188.828 16.9164 189.001 16.8489 189.166 16.764C189.166 16.764 188.398 16.9402 187.152 17.129C185.54 17.3793 183.891 17.2192 182.357 16.6633C181.524 16.3433 180.769 15.8499 180.142 15.2159C179.647 14.6838 179.262 14.0594 179.009 13.3783C178.803 12.7527 178.697 12.0986 178.694 11.4401Z" fill="var(--fill-0, #455A64)"/>
<path id="Vector_18" d="M206.523 321.121L211.96 340C211.96 340 194.642 351.843 195.309 355.418L232.199 346.192L224.924 316.514L206.523 321.121Z" fill="var(--fill-0, #FF725E)"/>
<path id="Vector_19" d="M222.961 335.494C223.343 335.512 223.705 335.671 223.977 335.941C224.249 336.211 224.412 336.572 224.433 336.954C224.427 337.336 224.275 337.702 224.008 337.975C223.742 338.249 223.38 338.411 222.998 338.427C222.593 338.402 222.212 338.23 221.926 337.942C221.641 337.654 221.471 337.271 221.45 336.866C221.498 336.469 221.697 336.105 222.007 335.852C222.317 335.598 222.713 335.474 223.112 335.507" fill="var(--fill-0, #E0E0E0)"/>
<g id="Group" opacity="0.6">
<path id="Vector_20" d="M232.197 346.142L231.342 343.184L196.302 353.14C196.302 353.14 194.829 354.26 195.308 355.367L232.197 346.142Z" fill="var(--fill-0, white)"/>
</g>
<path id="Vector_21" d="M211.305 339.912C211.305 340.088 212.286 339.912 213.318 340.302C214.35 340.692 215.005 341.296 215.156 341.183C215.307 341.07 214.778 340.1 213.52 339.685C212.261 339.27 211.229 339.748 211.305 339.912Z" fill="var(--fill-0, #263238)"/>
<path id="Vector_22" d="M207.844 342.479C207.844 342.656 208.7 342.769 209.505 343.373C210.311 343.977 210.688 344.745 210.864 344.695C211.041 344.644 210.864 343.6 209.883 342.857C208.901 342.114 207.806 342.303 207.844 342.479Z" fill="var(--fill-0, #263238)"/>
<path id="Vector_23" d="M206.799 347.677C206.975 347.677 207 346.708 206.296 345.84C205.591 344.971 204.647 344.795 204.609 344.959C204.571 345.122 205.213 345.525 205.792 346.217C206.371 346.91 206.623 347.677 206.799 347.677Z" fill="var(--fill-0, #263238)"/>
<path id="Vector_24" d="M210.55 335.481C210.663 335.62 211.431 335.167 212.463 334.978C213.495 334.789 214.376 334.915 214.426 334.739C214.477 334.563 213.558 334.11 212.337 334.349C211.116 334.588 210.424 335.356 210.55 335.481Z" fill="var(--fill-0, #263238)"/>
<path id="Vector_25" d="M219.448 325.551L220.304 345.122C220.304 345.122 200.695 352.573 200.493 356.211L238.516 355.909L238.44 325.35L219.448 325.551Z" fill="var(--fill-0, #FF725E)"/>
<path id="Vector_26" d="M232.047 343.385C232.414 343.494 232.728 343.733 232.93 344.058C233.132 344.383 233.207 344.771 233.142 345.148C233.047 345.52 232.812 345.841 232.486 346.044C232.161 346.248 231.769 346.319 231.393 346.243C231.006 346.125 230.676 345.869 230.466 345.522C230.257 345.176 230.184 344.765 230.26 344.367C230.397 343.992 230.675 343.685 231.034 343.511C231.394 343.337 231.807 343.31 232.186 343.436" fill="var(--fill-0, #E0E0E0)"/>
<g id="Group_2" opacity="0.6">
<path id="Vector_27" d="M238.516 355.909L238.39 352.825L201.991 354.26C201.991 354.26 200.304 355.015 200.493 356.211L238.516 355.909Z" fill="var(--fill-0, white)"/>
</g>
<path id="Vector_28" d="M219.687 344.934C219.687 345.122 220.619 345.198 221.538 345.79C222.456 346.381 222.96 347.161 223.124 347.048C223.287 346.935 223.01 345.903 221.865 345.211C220.72 344.518 219.65 344.77 219.687 344.934Z" fill="var(--fill-0, #263238)"/>
<path id="Vector_29" d="M215.71 346.62C215.71 346.796 216.478 347.111 217.12 347.879C217.762 348.647 217.938 349.49 218.126 349.477C218.315 349.465 218.416 348.42 217.611 347.463C216.805 346.507 215.71 346.419 215.71 346.62Z" fill="var(--fill-0, #263238)"/>
<path id="Vector_30" d="M213.482 351.453C213.659 351.453 213.91 350.56 213.419 349.54C212.929 348.521 212.06 348.13 211.985 348.281C211.909 348.433 212.45 348.986 212.841 349.817C213.231 350.648 213.306 351.453 213.482 351.453Z" fill="var(--fill-0, #263238)"/>
<path id="Vector_31" d="M219.99 340.453C220.065 340.629 220.921 340.365 221.966 340.453C223.01 340.541 223.841 340.843 223.929 340.679C224.017 340.516 223.237 339.861 222.003 339.798C220.77 339.736 219.902 340.314 219.99 340.453Z" fill="var(--fill-0, #263238)"/>
<path id="Vector_32" d="M242.971 182.296V197.765L238.818 258.077C238.818 258.077 241.335 287.34 242.984 303.853C244.368 318.188 242.115 343.172 242.115 343.172H217.912L209.253 259.864L203.879 207.972L194.528 184.323L242.971 182.296Z" fill="var(--fill-0, #263238)"/>
<path id="Vector_33" d="M177.978 185.053L183.88 269.128L208.36 332.121L209.48 335.909L223.942 332.423L213.193 183.353L177.978 185.053Z" fill="var(--fill-0, #263238)"/>
<path id="Vector_34" d="M203.943 208.538C203.934 208.656 203.934 208.773 203.943 208.891C203.943 209.142 203.943 209.482 203.943 209.923C203.943 210.841 204.018 212.163 204.068 213.862C204.169 217.286 204.408 222.244 204.761 228.361C205.491 240.595 206.85 257.473 208.977 276.05C211.104 294.627 213.369 311.404 215.056 323.537C215.912 329.591 216.617 334.487 217.095 337.911C217.347 339.584 217.535 340.893 217.674 341.812C217.674 342.24 217.787 342.58 217.825 342.819C217.843 342.938 217.869 343.056 217.9 343.172C217.914 343.054 217.914 342.936 217.9 342.819L217.787 341.8C217.674 340.881 217.51 339.559 217.296 337.885C216.843 334.462 216.201 329.553 215.396 323.499C213.797 311.354 211.532 294.551 209.443 276C207.353 257.448 205.919 240.557 205.1 228.336C204.71 222.219 204.421 217.273 204.27 213.85C204.182 212.163 204.106 210.841 204.056 209.91L203.993 208.891C203.992 208.771 203.975 208.653 203.943 208.538Z" fill="var(--fill-0, #455A64)"/>
<path id="Vector_35" d="M224.709 183.832C224.695 184.129 224.729 184.426 224.81 184.713C224.965 185.512 225.192 186.296 225.489 187.054C226.474 189.584 228.106 191.811 230.222 193.512C232.338 195.213 234.864 196.328 237.547 196.745C238.351 196.867 239.163 196.922 239.976 196.909C240.277 196.925 240.579 196.891 240.87 196.808C240.87 196.732 239.611 196.808 237.597 196.43C235.004 195.921 232.57 194.799 230.499 193.158C228.442 191.474 226.826 189.314 225.791 186.865C224.986 185.078 224.785 183.807 224.709 183.832Z" fill="var(--fill-0, #455A64)"/>
<path id="Vector_36" d="M202.406 187.494C202.406 187.743 202.48 187.987 202.618 188.194C202.757 188.401 202.953 188.562 203.183 188.657C203.413 188.752 203.666 188.777 203.91 188.729C204.154 188.68 204.379 188.56 204.555 188.384C204.731 188.208 204.851 187.984 204.899 187.74C204.948 187.496 204.923 187.243 204.828 187.013C204.732 186.783 204.571 186.586 204.364 186.448C204.157 186.31 203.914 186.236 203.665 186.236C203.331 186.236 203.011 186.368 202.775 186.604C202.539 186.84 202.406 187.161 202.406 187.494Z" fill="var(--fill-0, #455A64)"/>
<path id="Vector_37" d="M181.099 199.25C181.745 198.805 182.322 198.266 182.81 197.651C184.05 196.216 185.076 194.61 185.856 192.881C186.62 191.15 187.132 189.32 187.379 187.444C187.495 186.668 187.495 185.879 187.379 185.103C187.304 185.103 187.253 185.997 187.014 187.394C186.684 189.222 186.139 191.005 185.39 192.705C184.628 194.395 183.66 195.985 182.508 197.437C182.009 198.018 181.538 198.623 181.099 199.25Z" fill="var(--fill-0, #455A64)"/>
<path id="Vector_38" d="M193.86 70.3556C193.513 71.5058 193.062 72.6221 192.514 73.6909C192.092 74.8427 191.392 75.8719 190.475 76.6864C190.387 76.5983 191.28 75.3019 192.073 73.4895C192.481 72.3483 193.086 71.2875 193.86 70.3556Z" fill="var(--fill-0, #263238)"/>
<path id="Vector_39" d="M197.712 69.1977L217.85 52.2568L222.079 58.7638C222.079 58.7638 239.624 71.6142 242.959 75.2516L238.567 133.638C238.567 133.638 243.261 164.336 243.601 166.752C243.941 169.169 246.622 190.351 246.622 190.351C246.974 194.366 243.677 199.237 242.997 199.237C242.997 199.237 239.599 195.184 235.974 195.461C232.349 195.738 207.693 202.421 207.693 202.421L177.738 195.763L180.923 136.772L180.369 98.6743L184.598 82.1865L190.501 76.2963L194.025 67.0707C194.025 67.0707 195.132 78.8387 195.283 78.3981C195.434 77.9576 197.712 69.1977 197.712 69.1977Z" fill="var(--fill-0, #FF725E)"/>
<path id="Vector_40" d="M221.525 59.7959C221.293 60.1862 221.023 60.5529 220.72 60.8909C220.166 61.5705 219.348 62.5397 218.303 63.6976C216.226 66.0386 213.181 69.097 209.883 72.5078C208.247 74.207 206.724 75.8431 205.402 77.3912L205.239 77.5674L205.075 77.4038C202.847 75.1887 201.299 73.0742 200.041 71.6646L198.593 70.0284C198.404 69.8462 198.235 69.6436 198.09 69.4242C198.315 69.5666 198.522 69.7357 198.707 69.9277C199.072 70.2675 199.6 70.7961 200.242 71.4884C201.501 72.8477 203.2 74.9244 205.415 77.0892H205.012C206.334 75.5159 207.844 73.8545 209.48 72.1554C212.79 68.7194 215.861 65.7113 218.001 63.4459C219.083 62.3131 219.927 61.3817 220.518 60.7399C220.823 60.394 221.16 60.0779 221.525 59.7959Z" fill="var(--fill-0, #263238)"/>
<path id="Vector_41" d="M187.518 165.972V165.746C187.518 165.569 187.518 165.355 187.518 165.078C187.518 164.449 187.593 163.593 187.656 162.561C187.807 160.296 188.021 157.086 188.273 153.134C188.827 145.18 189.632 134.18 190.589 122.047C191.545 109.914 192.514 98.926 193.295 90.9842C193.685 87.007 194.05 83.7975 194.314 81.5824C194.465 80.5126 194.579 79.6567 194.667 79.0652C194.667 78.8008 194.742 78.5743 194.767 78.3981C194.763 78.3268 194.763 78.2554 194.767 78.1841C194.767 78.1841 194.767 78.2596 194.767 78.4107C194.767 78.5617 194.767 78.8008 194.767 79.0777C194.767 79.6945 194.616 80.5503 194.503 81.595C194.302 83.8604 194 87.0573 193.635 90.9968C192.942 98.9512 192.036 109.876 191.117 122.072C190.199 134.268 189.292 145.155 188.6 153.147C188.286 157.099 188.021 160.296 187.832 162.561C187.732 163.644 187.656 164.5 187.593 165.078C187.593 165.343 187.593 165.557 187.53 165.746C187.467 165.934 187.53 165.972 187.518 165.972Z" fill="var(--fill-0, #263238)"/>
<path id="Vector_42" d="M209.215 178.269C209.152 178.394 202.922 175.034 195.308 170.717C187.693 166.4 181.576 162.914 181.639 162.788C181.702 162.662 187.932 166.035 195.547 170.339C203.161 174.644 209.278 178.155 209.215 178.269Z" fill="var(--fill-0, #263238)"/>
<path id="Vector_43" d="M189.493 198.469C189.444 198.051 189.444 197.629 189.493 197.211C189.493 196.33 189.607 195.235 189.669 193.913C189.795 191.119 189.821 187.268 189.77 183.014C189.72 178.76 189.695 174.883 189.77 172.089C189.77 170.83 189.77 169.66 189.77 168.779C189.751 168.357 189.78 167.935 189.858 167.52C189.929 167.936 189.962 168.357 189.959 168.779C189.959 169.66 190.035 170.767 190.085 172.089C190.16 174.883 190.236 178.734 190.274 183.001C190.311 187.268 190.274 191.144 190.047 193.926C189.946 195.323 189.821 196.443 189.707 197.236C189.677 197.653 189.605 198.066 189.493 198.469Z" fill="var(--fill-0, #263238)"/>
<g id="Group_3" opacity="0.3">
<path id="Vector_44" d="M219.486 125.483C220.259 118.281 220.482 111.032 220.153 103.797C222.33 109.649 223.337 119.718 224.596 125.898L222.079 136.999C219.857 133.597 218.937 129.508 219.486 125.483Z" fill="var(--fill-0, black)"/>
</g>
<g id="Group_4" opacity="0.3">
<path id="Vector_45" d="M195.61 78.1087C195.686 77.9451 195.749 77.7814 195.824 77.6052C196.418 76.2424 197.134 74.9365 197.964 73.7036C200.305 75.8583 202.496 78.1712 204.521 80.6259C207.529 77.492 210.537 74.3329 213.256 70.9472C215.435 68.2315 217.416 65.3629 219.184 62.3635L205.226 77.2528L197.674 69.1977L195.61 78.1087Z" fill="var(--fill-0, black)"/>
</g>
<path id="Vector_46" d="M215.295 80.8524C215.41 80.5289 215.571 80.2236 215.773 79.9462C216.282 79.1667 216.859 78.4338 217.497 77.7562C218.447 76.7565 219.455 75.8151 220.518 74.937C221.77 73.7715 223.219 72.8382 224.797 72.1806C226.421 71.6574 228.136 71.4815 229.832 71.6646C231.203 71.7844 232.565 71.9904 233.91 72.2813C235.068 72.4953 235.999 72.684 236.641 72.8225C236.975 72.8772 237.303 72.9615 237.623 73.0742C237.281 73.0995 236.937 73.074 236.603 72.9987C235.949 72.9232 235.005 72.7973 233.859 72.6211C232.714 72.4449 231.342 72.1932 229.794 72.1051C228.151 71.9493 226.494 72.1291 224.923 72.6337C223.402 73.2788 221.999 74.1719 220.77 75.2768C219.574 76.2585 218.53 77.1773 217.712 77.9954C216.1 79.5938 215.358 80.8524 215.295 80.8524Z" fill="var(--fill-0, #263238)"/>
<path id="Vector_47" d="M242.934 75.2516C242.934 75.2516 248.107 83.4955 248.912 87.5104C249.718 91.5254 251.731 133.941 250.926 134.746C250.229 135.395 249.489 135.997 248.711 136.546C248.711 136.546 253.342 137.553 251.933 139.969C251.08 141.431 250.138 142.839 249.114 144.186C249.114 144.186 248.421 152.027 247.565 152.228C246.71 152.429 241.826 155.186 241.826 155.186C241.826 155.186 230.348 152.241 224.697 145.029C222.532 142.26 222.028 136.999 222.028 136.999L223.148 128.68C223.745 124.668 223.673 120.585 222.934 116.597L217.359 91.7394C217.359 91.7394 213.482 80.8021 220.468 76.334C227.453 71.8659 240.253 70.7835 242.934 75.2516Z" fill="var(--fill-0, #FF725E)"/>
<path id="Vector_48" d="M248.938 136.382C248.938 136.382 248.698 136.533 248.233 136.684C247.553 136.897 246.843 137.003 246.131 136.999C245.629 136.975 245.137 136.851 244.683 136.634C244.177 136.388 243.689 136.106 243.223 135.791C242.242 135.136 241.247 134.356 240.152 133.601C237.95 132.078 235.898 130.794 234.413 129.825C233.585 129.355 232.798 128.816 232.06 128.214C232.934 128.559 233.776 128.98 234.577 129.472C236.112 130.353 238.202 131.587 240.417 133.122C241.524 133.89 242.531 134.696 243.463 135.35C244.233 135.993 245.157 136.426 246.143 136.609C246.823 136.633 247.503 136.578 248.17 136.445C248.423 136.396 248.68 136.375 248.938 136.382Z" fill="var(--fill-0, #263238)"/>
<path id="Vector_49" d="M249.063 144.186C248.785 144.322 248.48 144.395 248.17 144.4C247.305 144.477 246.436 144.321 245.653 143.946C243.184 142.725 240.847 141.253 238.68 139.554C236.534 137.852 234.496 136.019 232.576 134.066C231.833 133.324 231.242 132.707 230.839 132.279C230.618 132.068 230.424 131.832 230.26 131.574C231.148 132.264 231.989 133.013 232.777 133.815C234.312 135.237 236.44 137.213 238.944 139.176C241.094 140.841 243.371 142.335 245.753 143.644C246.474 144.015 247.272 144.209 248.082 144.211C248.408 144.176 248.736 144.168 249.063 144.186Z" fill="var(--fill-0, #263238)"/>
<g id="Group_5" opacity="0.3">
<path id="Vector_50" d="M232.261 128.466C233.214 129.831 234.363 131.049 235.672 132.078L241.651 137.301C242.796 138.295 244.168 139.365 245.666 139.151C246.429 138.99 247.144 138.654 247.755 138.169C248.334 137.767 249.014 137.175 248.812 136.483C247.985 136.771 247.105 136.872 246.234 136.778C245.363 136.685 244.525 136.399 243.778 135.942C243.131 135.496 242.52 135 241.953 134.457C239.017 132.106 235.799 130.132 232.375 128.579" fill="var(--fill-0, black)"/>
</g>
<path id="Vector_51" d="M224.697 145.041C224.697 145.041 221.261 197.991 220.921 199.162C220.581 200.332 217.22 203.844 216.453 204.498C215.685 205.153 210.776 220.306 210.776 220.306C210.776 220.306 212.74 222.169 214.162 220.306C214.96 219.386 215.456 218.244 215.584 217.034C215.584 217.034 216.704 222.169 217.447 222.496C218.235 222.67 219.051 222.67 219.838 222.496L220.266 220.86C220.266 220.86 220.707 223 222.016 222.635C223.325 222.27 224.118 220.419 224.118 220.419C224.118 220.419 224.243 222.685 225.729 222.169C227.214 221.653 227.604 219.501 227.604 219.501C227.604 219.501 231.216 220.092 231.468 218.997C231.72 217.902 233.356 214.089 233.356 214.089V200.03L240.907 154.846C240.907 154.846 229.177 147.559 224.697 145.041Z" fill="var(--fill-0, #AA6550)"/>
<path id="Vector_52" d="M249.063 144.186C249.099 144.529 249.099 144.875 249.063 145.218L248.761 148.15C248.685 148.792 248.61 149.484 248.534 150.252C248.517 150.683 248.427 151.109 248.27 151.511C248.072 151.946 247.742 152.307 247.326 152.543L241.939 155.438H241.838H241.738C238.895 154.216 236.155 152.768 233.544 151.108C230.675 149.371 227.641 147.433 224.507 145.306C223.378 144.33 222.614 142.998 222.343 141.53C221.977 140.105 221.849 138.629 221.965 137.163C222.091 135.684 222.297 134.214 222.582 132.757C222.859 131.335 223.022 129.938 223.173 128.541C223.406 125.87 223.406 123.183 223.173 120.511C222.77 115.969 221.97 111.472 220.782 107.069C219.8 103.293 218.869 100.285 218.265 98.1961L217.56 95.7795C217.455 95.5036 217.384 95.2163 217.346 94.9237C217.486 95.1845 217.6 95.4586 217.686 95.7418C217.9 96.3459 218.164 97.1388 218.516 98.1206C219.209 100.185 220.216 103.155 221.248 106.931C222.501 111.345 223.344 115.866 223.765 120.436C223.998 123.145 223.998 125.87 223.765 128.579C223.551 131.411 222.796 134.268 222.506 137.175C222.401 138.578 222.52 139.989 222.859 141.354C223.102 142.646 223.75 143.827 224.709 144.727C227.818 146.854 230.851 148.805 233.695 150.554C236.257 152.219 238.946 153.68 241.738 154.922H241.549L246.961 152.115C247.316 151.933 247.602 151.641 247.779 151.284C247.922 150.926 248.007 150.548 248.031 150.164C248.144 149.396 248.232 148.704 248.32 148.062C248.496 146.804 248.648 145.885 248.748 145.155C248.827 144.824 248.933 144.5 249.063 144.186Z" fill="var(--fill-0, #263238)"/>
<path id="Vector_53" d="M180.368 92.7337C180.544 92.7337 180.72 105.118 180.758 120.423C180.796 135.728 180.67 148.112 180.494 148.112C180.318 148.112 180.142 135.74 180.104 120.423C180.066 105.106 180.179 92.7337 180.368 92.7337Z" fill="var(--fill-0, #263238)"/>
<path id="Vector_54" d="M193.886 78.1842C193.153 76.6314 192.725 74.9521 192.627 73.2379L192.539 72.5582L193.143 72.6841C192.504 74.0174 191.686 75.258 190.714 76.3718C191.153 74.9565 191.78 73.6062 192.577 72.3568L193.055 71.4884L193.193 72.4827L193.269 73.1498C193.585 74.8125 193.791 76.4943 193.886 78.1842Z" fill="var(--fill-0, #263238)"/>
<path id="Vector_55" d="M45.5466 26.4931C47.7617 26.3295 49.3224 28.6705 49.8762 30.8227C50.43 32.975 50.6188 35.3915 52.1543 36.9773C53.6898 38.5632 56.6349 38.903 58.4473 40.5644C59.018 41.1529 59.463 41.8514 59.7551 42.6174C60.0472 43.3833 60.1804 44.2008 60.1465 45.0198C60.0629 46.66 59.634 48.264 58.8879 49.727C58.2199 50.8718 57.7557 52.1238 57.516 53.4274C57.5404 54.7997 57.7478 56.1626 58.1327 57.4801C58.4717 59.7466 58.0723 62.0621 56.9934 64.0839C55.9144 66.1058 54.2133 67.7267 52.1417 68.7069C52.9817 69.5633 54.0321 70.1839 55.1876 70.5067C53.8157 72.3316 51.0719 72.1806 48.8945 71.7653C42.3891 70.386 36.1829 67.8541 30.5692 64.2891" fill="var(--fill-0, #263238)"/>
<path id="Vector_56" d="M47.497 43.3332C47.2076 36.8514 40.3482 30.2563 33.879 30.8226L12.8853 34.4348V37.9212L12.7217 82.8913L37.1513 93.5517L36.7737 76.6737C36.7737 76.6737 45.068 75.4151 46.981 64.6918C47.9376 59.3301 47.8243 50.5324 47.497 43.3332Z" fill="var(--fill-0, #FFBE9D)"/>
<path id="Vector_57" d="M44.98 50.4067C44.9767 50.7673 44.8329 51.1125 44.579 51.3688C44.3252 51.625 43.9814 51.772 43.6207 51.7785C43.4461 51.7887 43.2712 51.7641 43.1061 51.7062C42.9411 51.6483 42.7892 51.5582 42.6592 51.4411C42.5293 51.324 42.4238 51.1823 42.3491 51.0242C42.2743 50.8661 42.2316 50.6947 42.2236 50.5199C42.2268 50.1593 42.3707 49.8141 42.6246 49.5579C42.8785 49.3016 43.2223 49.1546 43.5829 49.1481C43.7595 49.1285 43.9382 49.1466 44.1072 49.201C44.2763 49.2554 44.4319 49.3451 44.5638 49.4639C44.6958 49.5828 44.8011 49.7283 44.8728 49.8908C44.9445 50.0533 44.981 50.2291 44.98 50.4067Z" fill="var(--fill-0, #263238)"/>
<path id="Vector_58" d="M45.5082 47.8769C45.332 48.0531 44.2495 47.2602 42.8021 47.235C41.3547 47.2098 40.2094 47.9398 40.0584 47.751C39.9073 47.5622 40.1591 47.3483 40.6374 47.0085C41.2932 46.574 42.0659 46.3501 42.8524 46.3666C43.6267 46.3792 44.3765 46.6394 44.9921 47.1091C45.4452 47.4616 45.5963 47.7888 45.5082 47.8769Z" fill="var(--fill-0, #263238)"/>
<path id="Vector_59" d="M31.0471 50.3437C31.044 50.7056 30.9005 51.0522 30.6469 51.3104C30.3934 51.5687 30.0495 51.7184 29.6878 51.7282C29.5121 51.7401 29.3359 51.7168 29.1694 51.6597C29.0029 51.6025 28.8495 51.5127 28.7181 51.3955C28.5868 51.2782 28.4802 51.1359 28.4046 50.9769C28.3291 50.8179 28.2861 50.6454 28.2781 50.4696C28.2813 50.1089 28.4252 49.7637 28.679 49.5075C28.9329 49.2513 29.2767 49.1043 29.6374 49.0977C29.812 49.0858 29.9873 49.1086 30.153 49.165C30.3187 49.2214 30.4716 49.3101 30.6028 49.426C30.7339 49.5419 30.8407 49.6827 30.9169 49.8403C30.9932 49.9978 31.0375 50.1689 31.0471 50.3437Z" fill="var(--fill-0, #263238)"/>
<path id="Vector_60" d="M30.8584 47.8894C30.6822 48.0656 29.5998 47.2727 28.165 47.2475C26.7302 47.2224 25.5723 47.9524 25.4086 47.7636C25.245 47.5748 25.5094 47.3608 26.0002 47.021C26.6515 46.5882 27.4212 46.3683 28.2028 46.3917C28.9761 46.398 29.7265 46.6541 30.3424 47.1217C30.7955 47.4867 30.9465 47.8139 30.8584 47.8894Z" fill="var(--fill-0, #263238)"/>
<path id="Vector_61" d="M36.0694 59.0282C36.8613 58.8049 37.6764 58.674 38.4985 58.638C38.8761 58.638 39.2411 58.5373 39.304 58.273C39.3486 57.8851 39.2692 57.493 39.0774 57.1529C38.7376 56.2215 38.3726 55.2524 38.0076 54.2329C36.9971 51.7624 36.1971 49.2109 35.6162 46.6057C36.8083 48.9941 37.8099 51.4728 38.6117 54.0189L39.6312 56.9515C39.8633 57.4147 39.9256 57.9447 39.8074 58.4492C39.7471 58.5813 39.6582 58.6983 39.5472 58.7919C39.4362 58.8855 39.3058 58.9533 39.1655 58.9904C38.957 59.05 38.7402 59.0755 38.5236 59.0659C37.7075 59.164 36.882 59.1513 36.0694 59.0282Z" fill="var(--fill-0, #263238)"/>
<path id="Vector_62" d="M36.7865 76.6738C31.7026 76.6606 26.7222 75.2358 22.4005 72.5582C22.4005 72.5582 26.1009 80.1728 36.9249 79.3547L36.7865 76.6738Z" fill="var(--fill-0, #EB996E)"/>
<path id="Vector_63" d="M35.3771 62.6152C35.0997 62.2527 34.7347 61.9667 34.3164 61.784C33.8981 61.6012 33.4402 61.5278 32.9858 61.5706C32.6576 61.5947 32.3379 61.6852 32.0458 61.8367C31.7537 61.9881 31.4954 62.1973 31.2866 62.4516C31.0818 62.6959 30.9574 62.9974 30.9304 63.315C30.9034 63.6326 30.975 63.9509 31.1356 64.2262C31.3695 64.4971 31.6789 64.692 32.0241 64.7862C32.3694 64.8803 32.7349 64.8694 33.0739 64.7549C33.7823 64.5158 34.4366 64.1394 34.9995 63.6473C35.1691 63.5344 35.3146 63.389 35.4275 63.2194C35.4849 63.1385 35.5157 63.0417 35.5157 62.9425C35.5157 62.8432 35.4849 62.7465 35.4275 62.6656" fill="var(--fill-0, #FF725E)"/>
<path id="Vector_64" d="M31.664 59.9847C31.9158 59.9847 31.8906 61.5957 33.2499 62.7662C34.6092 63.9367 36.3334 63.7857 36.346 64.0248C36.3586 64.264 35.9558 64.3395 35.2258 64.3395C34.2798 64.3356 33.3657 63.9967 32.6457 63.3829C31.9353 62.8033 31.4829 61.9663 31.3871 61.0545C31.3242 60.3749 31.5634 59.9721 31.664 59.9847Z" fill="var(--fill-0, #263238)"/>
<path id="Vector_65" d="M31.3234 42.0621C31.1723 42.4648 29.6872 42.2509 27.9377 42.4271C26.1883 42.6033 24.766 43.0564 24.5395 42.6914C24.3129 42.3264 24.6905 42.1376 25.2695 41.76C26.0278 41.279 26.8917 40.9896 27.7867 40.9168C28.6842 40.8281 29.5899 40.9532 30.4297 41.2817C31.0968 41.546 31.4115 41.8355 31.3234 42.0621Z" fill="var(--fill-0, #263238)"/>
<path id="Vector_66" d="M45.0296 43.5472C44.7652 43.887 43.7709 43.5472 42.5123 43.4842C41.2537 43.4213 40.2343 43.6605 39.9951 43.308C39.756 42.9556 40.0706 42.792 40.5237 42.49C41.1391 42.1023 41.8624 41.9214 42.5879 41.9739C43.3118 41.9961 44.011 42.2423 44.589 42.6787C45.0169 43.0941 45.168 43.3961 45.0296 43.5472Z" fill="var(--fill-0, #263238)"/>
<path id="Vector_67" d="M51.4617 39.5827C50.6086 38.2334 50.2197 36.6423 50.3541 35.0517C50.4882 33.4738 50.5344 31.8897 50.4925 30.3067C50.2371 28.0979 49.2578 26.0357 47.7073 24.4419C46.1568 22.8482 44.1223 21.8125 41.9214 21.4964C36.3709 21.0056 31.8525 25.6499 31.8525 25.6499C31.719 25.421 31.563 25.2059 31.3868 25.008C30.4349 24.0071 29.2164 23.2996 27.8753 22.969C26.0506 22.3524 24.0665 22.4014 22.2745 23.1075C20.8271 23.7619 19.7573 25.0205 18.1966 25.6247C16.636 26.2288 14.6222 25.8764 12.835 26.0904C8.94586 26.5435 5.8371 29.8662 4.41487 33.4658C3.05392 37.6304 2.36564 41.9853 2.37593 46.3666C1.4375 47.4384 0.69994 48.6705 0.198561 50.0039C-0.506259 52.5211 0.80266 55.0384 1.97317 57.3416C2.47219 58.2395 2.89327 59.1785 3.23177 60.1483C3.29465 60.7045 3.29465 61.2661 3.23177 61.8223C3.21533 62.5852 2.94543 63.3209 2.46458 63.9134C1.98373 64.5059 1.31931 64.9215 0.576129 65.0946C3.01239 67.3428 6.1525 68.6771 9.4619 68.8705C9.16142 70.4744 8.29493 71.917 7.0202 72.9358C8.58629 73.4774 10.2619 73.6242 11.8983 73.363C13.5347 73.1019 15.0814 72.4409 16.4011 71.4386C17.7208 70.4364 18.7727 69.124 19.4635 67.6177C20.1544 66.1115 20.4628 64.458 20.3614 62.804C20.1978 60.2868 19.1029 57.9206 19.4805 55.4789C19.858 53.0372 21.3683 51.187 22.2493 48.9844C22.7347 47.748 22.9988 46.4359 23.0297 45.1079C23.5716 44.2861 23.936 43.3601 24.0995 42.3893C24.5274 39.7589 23.2185 37.0906 23.3695 34.4601C23.4891 34.2013 23.6368 33.9565 23.8101 33.7301C24.2626 33.2781 24.8006 32.9207 25.3926 32.6787C25.9847 32.4367 26.619 32.3149 27.2586 32.3205C28.4889 32.3151 29.7157 32.1887 30.9212 31.9429C31.3682 32.4812 31.9226 32.9204 32.5489 33.2324C33.1752 33.5445 33.8596 33.7226 34.5586 33.7553C37.0758 33.7553 41.6949 33.34 42.5759 35.983C43.1641 38.1991 44.3177 40.2244 45.9237 41.8607C47.5977 43.3585 48.8941 44.2898 51.147 44.1891C53.3999 44.0885 55.7913 43.1319 55.6654 40.879C54.9234 41.1862 54.0974 41.2248 53.33 40.9881C52.5625 40.7515 51.9018 40.2544 51.4617 39.5827Z" fill="var(--fill-0, #263238)"/>
<path id="Vector_68" d="M56.9612 39.7967C56.9612 39.7967 56.9613 39.9225 56.7599 40.1239C56.5348 40.4192 56.2575 40.6709 55.9418 40.8665C55.3615 41.2443 54.7017 41.483 54.014 41.5637C53.3263 41.6445 52.6292 41.5653 51.9771 41.3322C51.0536 41.0032 50.2773 40.3562 49.7872 39.5072C49.2453 38.5585 48.9027 37.5092 48.7803 36.4236C48.6167 35.3034 48.6167 34.1329 48.4782 32.9498C48.4085 31.7556 48.0453 30.5971 47.421 29.5767C46.7154 28.6653 45.7931 27.9449 44.7379 27.4811C43.6827 27.0173 42.5282 26.8247 41.3797 26.9211C39.4573 27.0684 37.5997 27.6818 35.9677 28.7083C34.8411 29.386 33.7528 30.1255 32.7078 30.9235C32.3236 31.2469 31.9008 31.5217 31.4492 31.7415C31.7606 31.3616 32.1155 31.0195 32.5065 30.7221C33.5076 29.8401 34.5719 29.0324 35.6907 28.3056C37.3691 27.1803 39.3041 26.4964 41.3168 26.3169C42.5191 26.2548 43.7218 26.4345 44.8534 26.8456C46.1006 27.2915 47.1753 28.1195 47.9244 29.2118C48.6145 30.3194 49.0129 31.5837 49.0823 32.8869C49.2082 34.1455 49.2082 35.2657 49.3467 36.3481C49.4398 37.3573 49.7352 38.3375 50.2151 39.2303C50.6339 39.9882 51.3004 40.5792 52.103 40.9042C52.6977 41.1292 53.3338 41.2231 53.9681 41.1797C54.6023 41.1363 55.2198 40.9564 55.7782 40.6525C56.195 40.3996 56.5906 40.1134 56.9612 39.7967Z" fill="var(--fill-0, #E0E0E0)"/>
<path id="Vector_69" d="M1.52041 66.1142C2.30985 66.0667 3.0675 65.7864 3.69778 65.3086C4.05666 65.031 4.35392 64.6817 4.5706 64.283C4.78727 63.8844 4.91862 63.445 4.95638 62.9928C5.01133 62.4406 4.91567 61.8839 4.67953 61.3818C4.38636 60.8059 4.04088 60.2582 3.64746 59.7456C3.16278 59.1488 2.83794 58.4385 2.7035 57.6815C2.67414 56.8392 2.88355 56.0058 3.30761 55.2775C3.7169 54.5713 4.0301 53.8137 4.23897 53.0246C4.36981 52.1886 4.34851 51.3358 4.17605 50.5074C4.03761 49.6138 3.81109 48.695 3.73557 47.7007C3.657 46.693 3.72909 45.6791 3.94951 44.6927C4.39617 42.6031 5.44653 40.6906 6.9702 39.1925C8.54898 37.7993 10.3946 36.7416 12.3948 36.0838C14.1844 35.4994 15.8552 34.6 17.3285 33.4281C18.6878 32.2702 19.1283 30.5333 20.1226 29.1488C20.5905 28.5083 21.1828 27.9686 21.864 27.562C22.5452 27.1555 23.3013 26.8904 24.0872 26.7826C25.3942 26.5709 26.7337 26.8343 27.8631 27.5252C28.6885 28.0343 29.3759 28.7389 29.8643 29.5768C30.1745 30.102 30.3915 30.6768 30.5061 31.2759C30.5423 31.4841 30.5423 31.697 30.5061 31.9052C30.316 31.1337 30.0105 30.3954 29.6 29.7152C29.0991 28.9424 28.4218 28.2997 27.6239 27.8399C26.5707 27.243 25.3431 27.0295 24.1502 27.2357C23.435 27.3525 22.7499 27.6094 22.1343 27.9917C21.5188 28.374 20.9848 28.8742 20.5632 29.4635C19.6695 30.7221 19.2165 32.5597 17.7439 33.8686C14.8994 36.5369 10.3936 36.7508 7.42328 39.6708C5.98727 41.073 4.99767 42.8683 4.57882 44.8311C4.36502 45.7546 4.2929 46.7052 4.36488 47.6504C4.45306 48.576 4.59166 49.4962 4.78016 50.4067C4.94362 51.3225 4.94362 52.2599 4.78016 53.1757C4.55167 54.0138 4.21311 54.8179 3.77329 55.567C3.37747 56.1959 3.17206 56.9259 3.18178 57.6689C3.29527 58.3444 3.57653 58.9806 3.99983 59.5191C4.3972 60.0626 4.74674 60.6395 5.0445 61.2433C5.2778 61.8216 5.36429 62.4485 5.29623 63.0683C5.20819 63.8701 4.84773 64.6175 4.27507 65.1856C3.70241 65.7536 2.95221 66.1081 2.14971 66.1897C1.73437 66.1897 1.52041 66.1393 1.52041 66.1142Z" fill="var(--fill-0, #455A64)"/>
<path id="Vector_70" d="M47.4471 24.8695C47.4471 24.9702 46.5157 24.3409 44.9299 23.8375C42.8513 23.143 40.6069 23.1206 38.5149 23.7735C36.423 24.4264 34.5897 25.7214 33.2751 27.4748C32.2431 28.809 31.8907 29.8284 31.7774 29.7907C31.9294 28.8506 32.3146 27.9636 32.8976 27.2106C34.1899 25.2823 36.1043 23.8555 38.3216 23.1683C40.5388 22.4812 42.9246 22.5752 45.0809 23.4347C45.9757 23.711 46.7885 24.2038 47.4471 24.8695Z" fill="var(--fill-0, #E0E0E0)"/>
<path id="Vector_71" d="M27.3339 338.754L26.692 339.522C26.692 339.522 35.4141 355.758 33.4759 358.401L7.52338 336.476L15.1631 328.131C16.3098 330.672 17.9905 332.936 20.0907 334.769C22.1909 336.602 24.6613 337.961 27.3339 338.754Z" fill="var(--fill-0, #455A64)"/>
<g id="Group_6" opacity="0.6">
<path id="Vector_72" d="M15.4642 333.115C15.1513 332.978 14.7985 332.963 14.475 333.073C14.1515 333.182 13.8804 333.408 13.7147 333.707C13.6332 333.857 13.5832 334.022 13.5677 334.193C13.5522 334.363 13.5715 334.534 13.6245 334.697C13.6775 334.859 13.7631 335.01 13.876 335.138C13.9888 335.266 14.1267 335.37 14.2811 335.444C14.6127 335.586 14.9853 335.6 15.327 335.484C15.6687 335.368 15.9551 335.129 16.1312 334.814C16.251 334.477 16.2354 334.106 16.0875 333.78C15.9397 333.454 15.6711 333.197 15.3383 333.065" fill="var(--fill-0, white)"/>
</g>
<g id="Group_7" opacity="0.6">
<path id="Vector_73" d="M7.52338 336.476L9.3609 334.475L33.564 356.186C33.564 356.186 34.294 357.658 33.4759 358.363L7.52338 336.476Z" fill="var(--fill-0, white)"/>
</g>
<path id="Vector_74" d="M26.7171 339.673C26.6164 339.798 25.9241 339.32 24.9676 339.207C24.011 339.094 23.2181 339.333 23.1426 339.207C23.0671 339.081 23.8726 338.477 25.0431 338.641C26.2136 338.804 26.8429 339.585 26.7171 339.673Z" fill="var(--fill-0, #263238)"/>
<path id="Vector_75" d="M28.4917 343.096C28.4162 343.247 27.6861 342.995 26.8051 343.172C25.9241 343.348 25.32 343.801 25.2067 343.688C25.0935 343.574 25.6095 342.794 26.7045 342.605C27.7995 342.416 28.5924 342.97 28.4917 343.096Z" fill="var(--fill-0, #263238)"/>
<path id="Vector_76" d="M27.2969 347.677C27.1584 347.602 27.5109 346.821 28.4297 346.419C29.3484 346.016 30.1665 346.217 30.1287 346.419C30.091 346.62 29.4114 346.633 28.6688 346.985C27.9262 347.338 27.4353 347.753 27.2969 347.677Z" fill="var(--fill-0, #263238)"/>
<path id="Vector_77" d="M62.0722 189.936C62.0722 189.936 72.9592 271.167 72.9592 277.132C72.9592 283.098 63.7965 354.474 63.7965 354.474L48.2527 347.677L51.3614 278.731L39.4298 196.456L62.0722 189.936Z" fill="var(--fill-0, #FFBE9D)"/>
<path id="Vector_78" d="M64.413 347.124V348.13C64.413 348.13 81.6181 354.612 81.8698 357.847L47.9881 358.401L48.2651 347.073C50.7946 348.243 53.5467 348.853 56.3335 348.861C59.1203 348.87 61.8762 348.277 64.413 347.124Z" fill="var(--fill-0, #455A64)"/>
<g id="Group_8" opacity="0.6">
<path id="Vector_79" d="M51.7891 350.673C51.464 350.777 51.1891 350.999 51.0172 351.294C50.8453 351.589 50.7885 351.937 50.8577 352.271C50.952 352.598 51.1673 352.876 51.4597 353.049C51.752 353.222 52.0994 353.277 52.431 353.203C52.7731 353.092 53.0619 352.858 53.241 352.546C53.4202 352.235 53.4768 351.867 53.4 351.516C53.2729 351.182 53.0194 350.912 52.6943 350.763C52.3692 350.615 51.9988 350.6 51.6631 350.723" fill="var(--fill-0, white)"/>
</g>
<g id="Group_9" opacity="0.6">
<path id="Vector_80" d="M48.0127 358.401L48.0882 355.695L80.5351 356.148C80.5351 356.148 82.058 356.79 81.8944 357.847L48.0127 358.401Z" fill="var(--fill-0, white)"/>
</g>
<path id="Vector_81" d="M64.5637 348.231C64.5637 348.395 63.733 348.483 62.9275 349.024C62.122 349.565 61.669 350.283 61.5431 350.207C61.4172 350.132 61.6186 349.188 62.6129 348.546C63.6072 347.904 64.5889 348.067 64.5637 348.231Z" fill="var(--fill-0, #263238)"/>
<path id="Vector_82" d="M68.1386 349.641C68.1386 349.792 67.4715 350.094 66.88 350.799C66.2884 351.504 66.1751 352.246 66.0115 352.246C65.8479 352.246 65.7221 351.302 66.4269 350.434C67.1317 349.565 68.126 349.477 68.1386 349.641Z" fill="var(--fill-0, #263238)"/>
<path id="Vector_83" d="M70.2267 353.857C70.0757 353.857 69.8365 353.077 70.2267 352.158C70.6169 351.239 71.4098 350.899 71.4853 351.013C71.5608 351.126 71.0826 351.642 70.7554 352.397C70.4281 353.152 70.34 353.832 70.2267 353.857Z" fill="var(--fill-0, #263238)"/>
<path id="Vector_84" d="M33.878 265.1L35.5268 273.86L29.8505 282.469L14.1934 330.812L26.6913 339.522L62.2722 276.214L33.878 265.1Z" fill="var(--fill-0, #FFBE9D)"/>
<path id="Vector_85" d="M16.2208 167.696V170.339C16.2208 170.339 10.3557 188.803 10.62 200.672C10.8843 212.541 26.2645 236.064 26.2645 236.064L30.8332 279.222L74.9601 279.499L62.0467 186.878L59.9953 164.424L16.2208 167.696Z" fill="var(--fill-0, #FF725E)"/>
<path id="Vector_86" d="M11.9287 81.0412L12.0419 83.9109C12.0419 83.9109 6.34042 89.6124 4.49027 95.5656C2.64011 101.519 3.79808 148.201 3.11843 153.688C2.43878 159.176 8.3794 167.193 15.9311 167.885L64.9035 164.223C66.3091 163.581 67.5289 162.593 68.449 161.352C69.3691 160.11 69.9593 158.656 70.1644 157.124C71.0832 151.637 38.6993 88.0894 39.6936 90.3423L36.6981 83.206C36.6981 83.206 21.255 77.5926 11.9287 81.0412Z" fill="var(--fill-0, #EBEBEB)"/>
<path id="Vector_87" d="M59.8565 166.853C60.0081 167.134 60.1022 167.442 60.1335 167.759C60.2895 168.614 60.3611 169.483 60.3474 170.352C60.3237 171.638 60.0986 172.912 59.6804 174.128C59.1603 175.653 58.2994 177.039 57.1632 178.181C56.0281 179.337 54.6087 180.175 53.0475 180.61C51.7709 180.944 50.4325 180.965 49.1458 180.673C48.2833 180.487 47.4662 180.132 46.7419 179.628C46.2258 179.276 46.0119 179.011 46.0371 178.986C47.0325 179.566 48.1105 179.99 49.2339 180.245C50.4502 180.454 51.698 180.385 52.8839 180.043C54.3156 179.604 55.614 178.812 56.6597 177.74C58.5747 175.726 59.7006 173.09 59.8314 170.314C60.0202 168.2 59.7433 166.866 59.8565 166.853Z" fill="var(--fill-0, #263238)"/>
<path id="Vector_88" d="M55.6405 278.454C55.6031 278.366 55.5818 278.272 55.5776 278.177C55.5776 277.938 55.5021 277.674 55.4517 277.334L55.0364 274.112C54.6966 271.242 54.2183 267.202 53.6393 262.23C52.494 252.162 51.0088 238.317 49.4859 222.987C47.963 207.657 46.717 193.762 45.8863 183.693C45.4962 178.659 45.1815 174.644 44.955 171.762C44.8669 170.402 44.7913 169.32 44.7409 168.527C44.7409 168.187 44.7409 167.91 44.7409 167.671C44.7283 167.575 44.7283 167.478 44.7409 167.382C44.7717 167.476 44.7928 167.573 44.8039 167.671L44.9046 168.514C44.9801 169.307 45.0934 170.39 45.2318 171.749C45.5087 174.619 45.8989 178.671 46.3646 183.656C47.3463 193.724 48.6804 207.569 50.1404 222.924C51.6004 238.279 53.073 252.086 54.0925 262.18C54.5959 267.215 54.9986 271.204 55.2881 274.087C55.4139 275.446 55.5147 276.528 55.5776 277.321L55.6405 278.164C55.657 278.26 55.657 278.358 55.6405 278.454Z" fill="var(--fill-0, #263238)"/>
<path id="Vector_89" d="M16.4473 215.586C16.4473 215.523 17.278 215.523 18.7505 215.36C19.619 215.261 20.4677 215.032 21.2678 214.68L24.5401 213.208C27.3495 211.921 29.6768 209.775 31.1856 207.078C31.9876 205.466 32.4176 203.694 32.4442 201.893C32.4766 199.926 32.3925 197.959 32.1925 196.002C32.0289 193.976 31.8778 192 31.7268 190.087C31.7268 189.13 31.5883 188.199 31.5254 187.268C31.5202 186.422 31.2711 185.596 30.808 184.889C30.5574 184.61 30.2476 184.391 29.9013 184.247C29.5551 184.104 29.1812 184.039 28.8068 184.058H26.3777H22.0229L15.7299 183.945L14.0182 183.882C13.8141 183.888 13.6104 183.863 13.4141 183.807C13.615 183.789 13.8172 183.789 14.0182 183.807L15.7299 183.744L22.0229 183.655H26.3777H28.8068C29.2739 183.624 29.7419 183.697 30.1773 183.869C30.6126 184.041 31.0043 184.308 31.324 184.65C31.8675 185.449 32.1651 186.39 32.1799 187.356C32.2554 188.275 32.3309 189.219 32.4064 190.175C32.5575 192.088 32.7211 194.064 32.8847 196.091C33.0885 198.076 33.1684 200.073 33.1238 202.069C33.0774 203.964 32.5996 205.823 31.7268 207.506C30.1474 210.305 27.7 212.514 24.7541 213.799C23.4955 214.328 22.4131 214.806 21.4188 215.196C20.5628 215.538 19.6579 215.742 18.738 215.8C17.9828 215.8 17.4038 215.8 17.0137 215.8C16.8152 215.758 16.6243 215.686 16.4473 215.586Z" fill="var(--fill-0, #263238)"/>
<path id="Vector_90" d="M29.9023 90.0151C29.9023 90.0151 22.1493 93.1868 20.3872 101.343C18.6251 109.498 20.79 119.341 23.9365 125.344C27.083 131.348 45.1692 151.423 45.1692 151.423C45.1692 151.423 64.4763 164.701 67.2956 164.009C70.1148 163.316 100.12 161.252 100.12 161.252V144.714L67.2956 140.838C67.2956 140.838 43.2687 98.473 39.2411 94.609C36.6335 92.2133 33.3916 90.6186 29.9023 90.0151Z" fill="var(--fill-0, #EBEBEB)"/>
<path id="Vector_91" d="M99.5908 147.445L110.377 148.49L119.087 149.912L126.865 158.861C126.865 158.861 128.614 162.637 127.331 163.379C126.777 163.669 125.027 163.065 125.027 163.065C125.027 163.065 124.901 165.192 123.97 165.809C123.039 166.425 121.604 165.355 121.604 165.355C121.604 165.355 122.158 166.878 121.214 167.571C120.27 168.263 118.105 167.004 118.105 167.004C118.105 167.004 117.841 168.615 117.325 168.414C116.809 168.212 107.155 158.861 107.155 158.861L101.34 158.093L99.5908 158.66V147.445Z" fill="var(--fill-0, #FFBE9D)"/>
<path id="Vector_92" d="M117.035 167.105C116.328 166.879 115.583 166.802 114.845 166.878C115.236 166.733 115.556 166.443 115.739 166.068C115.922 165.693 115.953 165.262 115.827 164.865C115.683 164.473 115.445 164.123 115.133 163.846C114.821 163.569 114.445 163.374 114.039 163.279C113.213 163.088 112.357 163.067 111.522 163.216C111.773 162.983 111.925 162.663 111.948 162.322C111.972 161.981 111.864 161.643 111.648 161.378C111.195 160.856 110.607 160.469 109.949 160.258L108.376 160.082L107.432 159.176C106.714 160.006 105.733 161.894 106.349 162.813C106.666 163.265 107.118 163.606 107.641 163.784C108.163 163.963 108.729 163.971 109.257 163.807C109.145 164.342 109.162 164.895 109.306 165.421C109.451 165.948 109.719 166.432 110.088 166.835C110.457 167.237 110.917 167.546 111.429 167.735C111.941 167.924 112.491 167.989 113.033 167.923C112.98 168.198 113 168.482 113.09 168.747C113.181 169.011 113.339 169.248 113.549 169.433C113.971 169.805 114.483 170.061 115.034 170.176C115.682 170.371 116.374 170.371 117.022 170.176C117.354 170.089 117.651 169.905 117.875 169.647C118.1 169.388 118.241 169.068 118.281 168.728C118.261 168.364 118.131 168.014 117.909 167.724C117.687 167.434 117.382 167.218 117.035 167.105Z" fill="var(--fill-0, #AA6550)"/>
<path id="Vector_93" d="M119.981 156.671C121.306 157.359 122.457 158.341 123.343 159.544C124.229 160.746 124.827 162.136 125.091 163.606C124.914 163.669 124.235 161.831 122.812 159.931C121.39 158.03 119.867 156.835 119.981 156.671Z" fill="var(--fill-0, #EB996E)"/>
<path id="Vector_94" d="M114.833 161.718C114.833 161.655 115.211 161.844 115.689 162.209C116.314 162.699 116.858 163.286 117.3 163.946C117.711 164.627 118.009 165.371 118.181 166.148C118.307 166.727 118.332 167.105 118.181 167.13C118.03 167.155 117.539 165.758 116.683 164.298C115.827 162.838 114.669 161.869 114.833 161.718Z" fill="var(--fill-0, #EB996E)"/>
<path id="Vector_95" d="M116.292 149.459C114.506 148.404 112.82 147.187 111.258 145.822C110.591 144.928 110.188 143.405 111.258 142.562L118.809 145.469L124.549 149.245L132.654 145.86C132.654 145.86 136.795 151.976 136.795 153.965C136.795 155.954 137.474 157.741 136.87 158.886L127.821 160.787L119.111 149.95L116.292 149.459Z" fill="var(--fill-0, #AA6550)"/>
<path id="Vector_96" d="M22.2366 124.753C21.9889 124.291 21.7865 123.806 21.6324 123.305C21.28 122.374 20.764 121.015 20.1851 119.316C19.4712 117.328 18.8827 115.298 18.423 113.236C17.8292 110.693 17.6549 108.07 17.907 105.471C18.2475 102.864 19.1353 100.36 20.5122 98.1206C21.6034 96.2937 22.9753 94.65 24.5776 93.2498C25.644 92.2931 26.8282 91.4768 28.1017 90.8206C28.5546 90.5547 29.0415 90.3514 29.5491 90.2165C27.8917 91.1881 26.3321 92.3177 24.8923 93.5896C23.3759 95.0087 22.0743 96.641 21.0283 98.4352C19.713 100.609 18.8564 103.029 18.5111 105.546C18.2683 108.072 18.4211 110.62 18.9642 113.098C19.3959 115.143 19.9337 117.163 20.5752 119.152C21.0661 120.775 21.4814 122.135 21.8338 123.217C22.0217 123.713 22.1567 124.228 22.2366 124.753Z" fill="var(--fill-0, #455A64)"/>
<path id="Vector_97" d="M41.846 99.0392C41.8966 99.0943 41.9429 99.1532 41.9845 99.2154L42.3495 99.7818C42.6893 100.323 43.1676 101.04 43.7591 102.022C45.0178 104.011 46.7798 106.88 49.0327 110.505L67.572 140.712L67.3581 140.573L100.183 144.425H100.472V161.63H100.145L58.938 161.026H58.875L49.511 158.647C48.7378 158.472 48.0065 158.147 47.3587 157.69C46.7633 157.222 46.2377 156.671 45.7981 156.054C44.8667 154.934 44.0109 153.801 43.2054 152.694C39.9707 148.263 37.4661 144.211 35.3643 140.901C33.2624 137.59 31.5884 134.985 30.4556 133.236L29.1215 131.197C28.8195 130.744 28.6936 130.504 28.6936 130.504C28.6936 130.504 28.8698 130.706 29.197 131.146C29.5243 131.587 30.0025 132.229 30.5941 133.085C31.8527 134.809 33.5015 137.376 35.6285 140.636C37.7556 143.896 40.3105 147.949 43.5577 152.329C44.3758 153.424 45.2317 154.544 46.1505 155.651C46.5764 156.23 47.0756 156.75 47.6357 157.2C48.2348 157.617 48.9106 157.912 49.6242 158.068L59.0009 160.384L100.195 160.887L99.8679 161.214V144.714L100.157 145.041L67.3329 141.127H67.1944L67.1315 141.014L48.7433 110.681L43.6081 102.11L42.274 99.8321L41.9467 99.2406C41.8712 99.1147 41.8335 99.0392 41.846 99.0392Z" fill="var(--fill-0, #455A64)"/>
<path id="Vector_98" d="M39.0388 88.8698C39.0388 88.9705 37.6418 88.0517 35.263 86.9441C29.1454 84.0244 22.2863 83.0282 15.5909 84.0871C13.0737 84.4898 11.5004 84.9807 11.4627 84.8674C11.7953 84.6771 12.1505 84.5291 12.5199 84.4269C13.4986 84.0927 14.4996 83.8277 15.5154 83.634C22.305 82.3048 29.3447 83.3257 35.4769 86.5288C36.3941 87.0041 37.2773 87.5424 38.1201 88.1398C38.7494 88.5803 39.064 88.832 39.0388 88.8698Z" fill="var(--fill-0, #455A64)"/>
<path id="Vector_99" d="M121.945 165.796C121.225 164.857 120.573 163.869 119.994 162.838C119.238 161.928 118.548 160.965 117.93 159.956C118.043 159.818 119.39 160.787 120.535 162.473C121.311 163.424 121.8 164.577 121.945 165.796Z" fill="var(--fill-0, #EB996E)"/>
</g>
</svg>
