<svg preserveAspectRatio="none" width="100%" height="100%" overflow="visible" style="display: block;" viewBox="0 0 112 369" fill="none" xmlns="http://www.w3.org/2000/svg">
<g id="freepik--character-4--inject-30">
<path id="Vector" d="M39.1002 335.978L39.5407 367.758L0.0078125 368.513C0.158845 364.738 20.4728 356.758 20.4728 356.758L19.3904 336.406L39.1002 335.978Z" fill="var(--fill-0, #455A64)"/>
<path id="Vector_2" d="M32.6697 354.807C33.0522 354.916 33.3809 355.163 33.5924 355.5C33.8038 355.837 33.8831 356.24 33.815 356.632C33.7218 357.017 33.4846 357.352 33.1521 357.567C32.8197 357.783 32.4173 357.862 32.0278 357.79C31.6122 357.685 31.2516 357.427 31.0182 357.068C30.7848 356.708 30.6959 356.274 30.7692 355.852C30.9068 355.458 31.1932 355.133 31.5672 354.947C31.9412 354.761 32.373 354.729 32.7704 354.857" fill="var(--fill-0, #263238)"/>
<path id="Vector_3" d="M39.5281 367.632V364.423L1.53073 366.588C1.53073 366.588 -0.206169 367.406 0.0203808 368.639L39.5281 367.632Z" fill="var(--fill-0, #263238)"/>
<path id="Vector_4" d="M19.8307 356.569C19.8307 356.758 20.7998 356.833 21.7689 357.425C22.7381 358.017 23.2541 358.835 23.4303 358.759C23.6065 358.684 23.2918 357.563 22.1717 356.859C21.0515 356.154 19.7803 356.393 19.8307 356.569Z" fill="var(--fill-0, #263238)"/>
<path id="Vector_5" d="M15.7158 358.356C15.7158 358.545 16.5213 358.86 17.1884 359.615C17.8555 360.37 18.0694 361.276 18.2582 361.264C18.447 361.251 18.5477 360.156 17.6918 359.175C16.836 358.193 15.7158 358.18 15.7158 358.356Z" fill="var(--fill-0, #263238)"/>
<path id="Vector_6" d="M13.4499 363.366C13.6261 363.366 13.8778 362.434 13.3618 361.39C12.8458 360.345 11.9396 359.942 11.8641 360.131C11.7885 360.32 12.3549 360.848 12.7577 361.717C13.1605 362.585 13.2611 363.353 13.4499 363.366Z" fill="var(--fill-0, #263238)"/>
<path id="Vector_7" d="M20.0823 351.887C20.1704 352.063 21.0514 351.774 22.1464 351.887C23.2414 352 24.0972 352.265 24.1979 352.101C24.2986 351.937 23.4553 351.258 22.1716 351.207C20.8878 351.157 19.9942 351.749 20.0823 351.887Z" fill="var(--fill-0, #263238)"/>
<path id="Vector_8" d="M20.9395 347.192C21.5859 347.372 22.2689 347.372 22.9154 347.192C23.6296 347.055 24.3232 346.826 24.9796 346.513C25.3725 346.337 25.7512 346.131 26.1123 345.896C26.3267 345.765 26.5216 345.604 26.6913 345.418C26.8167 345.279 26.8923 345.102 26.906 344.915C26.9196 344.728 26.8707 344.542 26.7668 344.386C26.6678 344.252 26.5388 344.144 26.3901 344.069C26.2413 343.995 26.0772 343.957 25.9109 343.958C25.6585 343.962 25.4082 344.005 25.1684 344.084C24.7357 344.19 24.3143 344.338 23.9098 344.524C23.2439 344.841 22.6356 345.266 22.1099 345.783C21.2038 346.651 20.8513 347.381 20.9772 347.406C21.1031 347.432 21.4932 346.865 22.412 346.148C22.9479 345.729 23.536 345.382 24.1615 345.116C24.5284 344.96 24.9072 344.834 25.2942 344.738C25.7096 344.625 26.062 344.612 26.1753 344.801C26.2885 344.99 26.1753 344.902 26.1753 345.015C26.0548 345.157 25.9098 345.277 25.7473 345.368C25.4115 345.594 25.0627 345.799 24.7027 345.984C24.0956 346.301 23.4591 346.558 22.8022 346.752C22.1723 346.858 21.5501 347.005 20.9395 347.192Z" fill="var(--fill-0, #263238)"/>
<path id="Vector_9" d="M21.2032 347.457C21.5594 346.885 21.7267 346.216 21.6814 345.544C21.708 344.809 21.6014 344.076 21.3668 343.379C21.2332 342.963 21.056 342.562 20.8381 342.183C20.731 341.926 20.5585 341.701 20.3377 341.531C20.117 341.361 19.8556 341.252 19.5795 341.214C19.4028 341.218 19.2312 341.274 19.0858 341.375C18.9405 341.476 18.8277 341.617 18.7614 341.781C18.6605 342.012 18.5968 342.259 18.5727 342.51C18.5031 342.952 18.5031 343.403 18.5727 343.845C18.6956 344.582 18.9982 345.278 19.4537 345.871C20.2466 346.878 21.0521 347.13 21.0647 347.029C21.0773 346.928 20.448 346.576 19.8061 345.594C19.4491 345.035 19.2212 344.403 19.139 343.744C19.0954 343.363 19.0954 342.979 19.139 342.599C19.139 342.183 19.353 341.843 19.504 341.881C19.6551 341.919 20.0452 342.183 20.2088 342.51C20.7597 343.432 21.0793 344.472 21.1402 345.544C21.2787 346.714 21.0899 347.432 21.2032 347.457Z" fill="var(--fill-0, #263238)"/>
<path id="Vector_10" d="M55.2481 335.978L54.8076 367.758L94.3531 368.513C94.1895 364.738 73.8755 356.758 73.8755 356.758L74.9957 336.406L55.2481 335.978Z" fill="var(--fill-0, #455A64)"/>
<path id="Vector_11" d="M61.6799 354.807C61.2973 354.916 60.9687 355.163 60.7572 355.5C60.5458 355.837 60.4664 356.24 60.5345 356.632C60.6305 357.018 60.8702 357.353 61.2047 357.568C61.5392 357.783 61.9433 357.863 62.3343 357.79C62.7468 357.68 63.1039 357.421 63.3364 357.063C63.5689 356.705 63.6603 356.273 63.5929 355.852C63.4527 355.459 63.1659 355.137 62.7927 354.951C62.4196 354.766 61.9891 354.732 61.5917 354.857" fill="var(--fill-0, #263238)"/>
<path id="Vector_12" d="M54.8076 367.632V364.423L92.805 366.588C92.805 366.588 94.5419 367.406 94.3153 368.639L54.8076 367.632Z" fill="var(--fill-0, #263238)"/>
<path id="Vector_13" d="M74.5177 356.569C74.5177 356.758 73.5486 356.833 72.5794 357.425C71.6103 358.017 71.1069 358.835 70.9307 358.759C70.7545 358.684 71.0565 357.563 72.1893 356.859C73.322 356.154 74.568 356.393 74.5177 356.569Z" fill="var(--fill-0, #263238)"/>
<path id="Vector_14" d="M78.6327 358.356C78.6327 358.545 77.8397 358.86 77.1601 359.615C76.4804 360.37 76.2916 361.276 76.0903 361.264C75.8889 361.251 75.8008 360.156 76.6566 359.175C77.5125 358.193 78.6327 358.18 78.6327 358.356Z" fill="var(--fill-0, #263238)"/>
<path id="Vector_15" d="M80.8987 363.366C80.7225 363.366 80.4708 362.434 80.9868 361.39C81.5028 360.345 82.409 359.942 82.4971 360.131C82.5852 360.32 82.0063 360.848 81.5909 361.717C81.1756 362.585 81.0623 363.353 80.8987 363.366Z" fill="var(--fill-0, #263238)"/>
<path id="Vector_16" d="M74.2659 351.887C74.1778 352.063 73.2968 351.774 72.2018 351.887C71.1068 352 70.2509 352.265 70.1628 352.101C70.0747 351.937 70.8928 351.258 72.1766 351.207C73.4604 351.157 74.3666 351.749 74.2659 351.887Z" fill="var(--fill-0, #263238)"/>
<path id="Vector_17" d="M73.41 347.192C72.7635 347.372 72.0805 347.372 71.434 347.192C70.7199 347.055 70.0262 346.826 69.3699 346.513C68.9824 346.334 68.6081 346.128 68.2497 345.896C68.0295 345.768 67.83 345.606 67.6582 345.418C67.5327 345.279 67.4572 345.102 67.4435 344.915C67.4298 344.728 67.4788 344.542 67.5827 344.386C67.6823 344.253 67.8115 344.145 67.9601 344.071C68.1086 343.997 68.2724 343.958 68.4385 343.958C68.6909 343.962 68.9413 344.005 69.1811 344.084C69.6143 344.188 70.036 344.335 70.4397 344.524C71.1074 344.844 71.7194 345.269 72.2521 345.783C73.1457 346.651 73.4478 347.381 73.3848 347.406C73.3219 347.432 72.8562 346.865 71.9374 346.148C71.4034 345.727 70.8149 345.379 70.188 345.116C69.821 344.96 69.4423 344.834 69.0552 344.738C68.6399 344.625 68.2875 344.612 68.1742 344.801C68.0609 344.99 68.1742 344.902 68.1742 345.015C68.2995 345.157 68.4486 345.276 68.6147 345.368C68.9445 345.596 69.2893 345.802 69.6468 345.984C70.2538 346.301 70.8903 346.558 71.5473 346.752C72.1776 346.856 72.8 347.003 73.41 347.192Z" fill="var(--fill-0, #263238)"/>
<path id="Vector_18" d="M73.1583 347.457C73.0828 347.457 72.7178 346.79 72.6675 345.544C72.6469 344.809 72.7534 344.077 72.9821 343.379C73.1157 342.963 73.2929 342.562 73.5107 342.183C73.6179 341.926 73.7904 341.701 74.0111 341.531C74.2319 341.361 74.4933 341.252 74.7694 341.214C74.9443 341.219 75.114 341.276 75.2572 341.376C75.4004 341.477 75.5108 341.618 75.5749 341.781C75.6737 342.014 75.7413 342.259 75.7762 342.511C75.8538 343.104 75.8125 343.706 75.6548 344.283C75.497 344.86 75.226 345.4 74.8575 345.871C74.0645 346.878 73.259 347.13 73.2464 347.029C73.2339 346.928 73.8632 346.576 74.5051 345.594C74.8621 345.035 75.0899 344.403 75.1721 343.744C75.2286 343.364 75.2286 342.978 75.1721 342.599C75.1721 342.183 74.9581 341.843 74.8071 341.881C74.6561 341.919 74.2659 342.183 74.1023 342.511C73.8999 342.852 73.7273 343.21 73.5863 343.58C73.3596 344.213 73.2199 344.874 73.1709 345.544C73.0702 346.714 73.259 347.432 73.1583 347.457Z" fill="var(--fill-0, #263238)"/>
<path id="Vector_19" d="M88.7392 152.033L27.8729 158.175V162.781L22.5238 172.007C22.5238 172.007 16.9985 177.545 20.9506 187.828V194.423C20.9506 194.423 20.4723 198.375 19.5283 202.327C18.5844 206.279 18.5215 353.914 18.5215 353.914L41.554 355.575L57.5635 206.543L54.8072 356.544L78.7207 355.285L97.9145 178.64L88.7392 152.033Z" fill="var(--fill-0, #263238)"/>
<path id="Vector_20" d="M57.7271 210.143C57.6155 209.664 57.5648 209.174 57.576 208.683C57.576 207.6 57.4376 206.266 57.3495 204.706C57.1104 201.194 56.7957 196.625 56.4433 191.578C56.0909 186.531 55.8014 181.799 55.7259 178.438C55.7259 176.752 55.7259 175.38 55.7259 174.436C55.7091 173.947 55.7428 173.458 55.8266 172.976C55.9394 173.454 55.9901 173.945 55.9776 174.436C56.0406 175.518 56.1161 176.84 56.2042 178.413C56.4433 181.925 56.758 186.481 57.1104 191.54C57.4628 196.6 57.7523 201.307 57.8278 204.68C57.8278 206.367 57.8278 207.739 57.8278 208.67C57.841 209.163 57.8073 209.656 57.7271 210.143Z" fill="var(--fill-0, #455A64)"/>
<path id="Vector_21" d="M71.2462 161.837C71.0574 161.837 71.1832 160.063 70.8686 157.948C70.5539 155.834 69.9624 154.172 70.1386 154.172C70.9589 155.269 71.4402 156.581 71.5231 157.948C71.8111 159.244 71.7149 160.595 71.2462 161.837Z" fill="var(--fill-0, #455A64)"/>
<path id="Vector_22" d="M76.4055 160.113C75.779 158.078 75.5818 155.935 75.8265 153.82C76.2514 154.805 76.4617 155.869 76.4432 156.941C76.6447 157.99 76.6319 159.069 76.4055 160.113Z" fill="var(--fill-0, #455A64)"/>
<path id="Vector_23" d="M36.3571 164.971C35.8033 163.844 35.6183 162.572 35.8285 161.334C35.8315 160.074 36.2274 158.846 36.9612 157.822C37.1374 157.898 36.634 159.433 36.4829 161.384C36.3319 163.335 36.5459 164.933 36.3571 164.971Z" fill="var(--fill-0, #455A64)"/>
<path id="Vector_24" d="M41.4792 164.115C41.2031 163.035 41.1348 161.911 41.2778 160.805C41.2218 159.695 41.3799 158.584 41.7435 157.533C42.0179 158.609 42.0863 159.728 41.9449 160.83C42.0016 161.945 41.8434 163.06 41.4792 164.115Z" fill="var(--fill-0, #455A64)"/>
<path id="Vector_25" d="M29.2322 165.538C27.3272 169.026 24.5743 171.978 21.2275 174.121C21.1016 173.97 23.0902 172.246 25.2928 169.892C27.4954 167.539 29.0686 165.437 29.2322 165.538Z" fill="var(--fill-0, #455A64)"/>
<path id="Vector_26" d="M98.0658 177.066C97.1534 176.649 96.3056 176.102 95.5486 175.443C91.6816 172.442 88.5912 168.558 86.537 164.115C86.0618 163.223 85.7224 162.264 85.5301 161.271C87.0707 164.296 88.8598 167.188 90.8791 169.918C93.0761 172.492 95.4797 174.883 98.0658 177.066Z" fill="var(--fill-0, #455A64)"/>
<path id="Vector_27" d="M60.2206 159.622C60.2206 159.622 60.359 159.471 60.6863 159.433C61.1615 159.398 61.6339 159.532 62.0204 159.811C62.3241 160.015 62.5757 160.288 62.7549 160.607C62.9341 160.926 63.0361 161.283 63.0525 161.648C63.0197 162.104 62.8546 162.539 62.5774 162.902C62.3003 163.264 61.9233 163.538 61.4927 163.689C61.0621 163.84 60.5967 163.862 60.1538 163.752C59.7109 163.642 59.3098 163.406 58.9997 163.071C58.7851 162.777 58.6425 162.438 58.5835 162.079C58.5245 161.721 58.5506 161.353 58.6599 161.007C58.7854 160.545 59.0653 160.141 59.4528 159.861C59.7423 159.685 59.9311 159.685 59.9437 159.71C59.9563 159.735 59.3018 160.1 59.1004 161.107C59.0476 161.382 59.0528 161.666 59.1156 161.939C59.1785 162.212 59.2976 162.469 59.4654 162.693C59.696 162.929 59.9914 163.091 60.3142 163.158C60.6369 163.225 60.9723 163.195 61.2778 163.071C61.5959 162.979 61.8785 162.793 62.0877 162.537C62.2969 162.28 62.4227 161.966 62.4483 161.636C62.4439 161.358 62.3785 161.084 62.2567 160.834C62.1349 160.584 61.9597 160.363 61.7435 160.188C61.3055 159.849 60.7741 159.651 60.2206 159.622Z" fill="var(--fill-0, #455A64)"/>
<path id="Vector_28" d="M42.8382 111.657L29.5221 115.533L30.7178 102.683L31.5107 66.1831C31.5107 66.1831 27.5839 67.769 23.8836 69.4303C22.0016 70.2687 20.3471 71.5444 19.0577 73.1513C17.7683 74.7581 16.8812 76.6497 16.4703 78.6685C13.7517 91.9468 7.49646 122.657 6.99302 126.093C6.27561 130.976 8.85576 140.038 15.4509 141.284C20.4098 142.216 45.2925 123.79 45.2925 123.79L42.8382 111.657Z" fill="var(--fill-0, #FF725E)"/>
<path id="Vector_29" d="M46.3499 56.1142L42.5741 61.2367L31.4983 66.1831L29.9125 111.405L25.5199 138.893C25.5199 138.893 23.6446 153.606 25.0165 155.758C25.6918 156.813 26.595 157.703 27.6596 158.364L88.5259 152.222L89.4573 151.655C90.9026 150.79 92.0728 149.532 92.8325 148.028C93.5921 146.525 93.9099 144.837 93.7491 143.16L89.6209 100.228L95.5992 84.5588L98.1794 71.809L76.8963 62.6967L72.8814 60.9472L69.1685 54.6542L46.3499 56.1142Z" fill="var(--fill-0, #FF725E)"/>
<path id="Vector_30" d="M98.179 71.8217C100.367 74.8033 101.981 78.1667 102.937 81.7395C104.56 87.7305 104.774 100.556 104.774 100.556C104.774 100.556 112.326 122.732 111.722 124.998L111.08 127.263C111.08 127.263 111.885 135.52 107.681 138.264C103.478 141.007 104.887 142.291 99.5886 142.48C94.2899 142.669 85.832 136.325 85.832 136.325L89.0792 122.82L89.6204 100.166L98.179 71.8217Z" fill="var(--fill-0, #FF725E)"/>
<path id="Vector_31" d="M26.8671 136.288C27.3191 135.982 27.7996 135.721 28.3019 135.507L32.3295 133.556C35.7655 131.908 40.5859 129.655 46.0986 127.112L45.9224 127.477C45.5448 125.892 45.1673 124.268 44.7645 122.594C43.7325 118.151 42.7759 113.972 41.9327 110.36L42.3228 110.562L32.9965 114.111L30.3534 115.055C30.0457 115.185 29.7251 115.282 29.3969 115.344C29.6725 115.153 29.9732 115 30.2905 114.891L32.8077 113.796L42.0459 110.02C42.1161 109.991 42.195 109.99 42.2657 110.018C42.3364 110.047 42.393 110.102 42.4235 110.171L45.3309 122.38C45.721 124.054 46.0986 125.69 46.4762 127.263C46.4912 127.337 46.4806 127.413 46.4463 127.479C46.4119 127.546 46.3559 127.598 46.2874 127.628C40.7747 130.146 35.9165 132.336 32.4427 133.921L28.3271 135.696C27.8587 135.936 27.3702 136.134 26.8671 136.288Z" fill="var(--fill-0, #263238)"/>
<path id="Vector_32" d="M32.5937 89.3918C32.77 89.3918 32.4175 95.1562 31.8134 102.255C31.562 106.544 31.0831 110.817 30.3786 115.055C30.2024 115.055 30.5548 109.278 31.159 102.192C31.4093 97.9027 31.8882 93.6299 32.5937 89.3918Z" fill="var(--fill-0, #263238)"/>
<path id="Vector_33" d="M56.5441 65.2266C56.6826 65.3273 55.0464 67.4795 53.4857 70.9281L53.3095 71.2931L53.0074 71.0288L50.2007 68.5871C48.0737 66.7243 46.1732 65.0126 44.8265 63.754C44.056 63.1129 43.3519 62.3961 42.7246 61.6144C43.5942 62.1123 44.4012 62.7123 45.1286 63.4016C46.5634 64.5847 48.5016 66.2335 50.6287 68.0962L53.4102 70.6134L52.9319 70.7141C53.6089 69.2932 54.4135 67.9367 55.3359 66.6614C55.6574 66.1202 56.0656 65.6355 56.5441 65.2266Z" fill="var(--fill-0, #263238)"/>
<path id="Vector_34" d="M61.8316 71.0286C60.7488 70.4216 59.8323 69.557 59.1633 68.5114C58.3248 67.6126 57.716 66.5245 57.3887 65.3397C58.9584 67.1476 60.441 69.0292 61.8316 70.9783V71.0286Z" fill="var(--fill-0, #263238)"/>
<path id="Vector_35" d="M72.5284 60.8969C70.9452 62.8085 69.1928 64.5735 67.2925 66.1704C65.5422 67.9257 63.643 69.5259 61.6162 70.9531C63.1994 69.0414 64.9518 67.2764 66.852 65.6796C68.6023 63.9243 70.5016 62.324 72.5284 60.8969Z" fill="var(--fill-0, #263238)"/>
<path id="Vector_36" d="M90.0231 87.7179C90.1324 91.4547 90.0274 95.1947 89.7084 98.9195C89.6096 102.657 89.286 106.385 88.7393 110.083C88.63 106.347 88.735 102.607 89.054 98.8817C89.1528 95.1444 89.4765 91.4164 90.0231 87.7179Z" fill="var(--fill-0, #263238)"/>
<path id="Vector_37" d="M29.5221 115.269C28.599 115.66 27.6308 115.935 26.6399 116.087C24.8401 116.515 22.3229 116.943 19.6421 117.736C17.3608 118.397 15.1955 119.408 13.2231 120.731C12.451 121.357 11.6397 121.933 10.794 122.455C11.3995 121.648 12.1303 120.943 12.9588 120.366C14.9001 118.882 17.1032 117.776 19.4532 117.106C21.7855 116.464 24.1566 115.973 26.5518 115.634C27.5276 115.415 28.5225 115.293 29.5221 115.269Z" fill="var(--fill-0, #263238)"/>
<path id="Vector_38" d="M105.277 132.499C105.177 132.499 104.988 131.832 104.421 130.863C103.705 129.603 102.65 128.569 101.375 127.879C100.099 127.189 98.6564 126.871 97.2095 126.961C96.1019 126.961 95.4097 127.226 95.3846 127.125C95.3594 127.024 95.9887 126.672 97.1718 126.496C98.7267 126.272 100.312 126.559 101.69 127.314C103.063 128.064 104.161 129.232 104.824 130.649C105.16 131.205 105.318 131.851 105.277 132.499Z" fill="var(--fill-0, #263238)"/>
<path id="Vector_39" d="M105.945 139.56C105.34 140.545 104.423 141.298 103.339 141.7C100.787 142.845 97.8968 142.984 95.2464 142.09C92.6774 141.145 90.2988 139.746 88.2234 137.962C87.3129 137.296 86.5069 136.499 85.832 135.595C85.832 135.52 86.8515 136.376 88.5129 137.597C90.6191 139.223 92.9566 140.525 95.4478 141.46C97.9585 142.3 100.684 142.233 103.15 141.272C104.156 140.833 105.097 140.257 105.945 139.56Z" fill="var(--fill-0, #263238)"/>
<path id="Vector_40" d="M32.1023 86.2326C32.0016 86.2326 31.9009 85.3013 31.473 83.8665C30.3417 80.1019 27.87 76.8825 24.5255 74.8171C23.7895 74.4449 23.0789 74.0244 22.3984 73.5585C23.2319 73.67 24.0332 73.9528 24.752 74.3892C26.55 75.3329 28.1184 76.6607 29.3459 78.2783C30.5686 79.8918 31.4274 81.751 31.8632 83.728C32.1276 84.5349 32.2092 85.3904 32.1023 86.2326Z" fill="var(--fill-0, #263238)"/>
<path id="Vector_41" d="M95.9139 72.7782C96.0776 72.9041 94.4414 75.2325 92.7926 78.3286C91.1438 81.4248 90.1118 84.0805 89.9355 84.0176C90.3399 81.8991 91.1108 79.8674 92.2136 78.014C93.1376 76.0694 94.3893 74.2983 95.9139 72.7782Z" fill="var(--fill-0, #263238)"/>
<path id="Vector_42" d="M59.6655 154.386C59.6254 154.09 59.6044 153.792 59.6026 153.493C59.6026 152.851 59.6026 152.008 59.5271 150.976C59.5271 148.685 59.4138 145.513 59.3508 141.611C59.1998 133.707 58.9858 122.732 58.6586 110.725C58.3314 98.7181 57.9286 87.743 57.6391 79.839C57.5007 75.9373 57.3874 72.7656 57.2993 70.4749C57.2993 69.4177 57.2993 68.5744 57.2364 67.9577C57.2142 67.6603 57.2142 67.3615 57.2364 67.0641C57.3058 67.3528 57.3438 67.6482 57.3496 67.9451C57.3496 68.587 57.4629 69.4429 57.5384 70.4623C57.6769 72.7404 57.8657 75.9247 58.0922 79.8138C58.5076 87.7179 58.9607 98.63 59.3508 110.7C59.741 122.77 59.8291 133.695 59.8417 141.611C59.8417 145.501 59.8417 148.685 59.8417 150.976C59.8417 152.033 59.8417 152.876 59.8417 153.493C59.8192 153.797 59.7601 154.097 59.6655 154.386Z" fill="var(--fill-0, #263238)"/>
<g id="Group" opacity="0.3">
<path id="Vector_43" d="M56.1293 66.095C55.0198 67.7343 54.0595 69.4698 53.2596 71.2804C49.811 68.6122 46.5512 65.2014 43.3418 62.2562C45.9996 67.4737 49.4468 72.2497 53.5617 76.4156C54.9347 73.1251 55.8004 69.6452 56.1293 66.095Z" fill="var(--fill-0, black)"/>
</g>
<g id="Group_2" opacity="0.3">
<path id="Vector_44" d="M57.7157 65.9314C57.7157 65.9314 60.8244 73.4831 61.6173 74.2256C62.4102 74.9682 71.9505 61.6396 71.9505 61.6396L61.3404 70.5757L57.7157 65.9314Z" fill="var(--fill-0, black)"/>
</g>
<g id="Group_3" opacity="0.3">
<path id="Vector_45" d="M18.7488 115.546C17.0736 115.662 15.4348 116.089 13.9157 116.804C13.1606 117.175 12.503 117.718 11.9958 118.389C11.4886 119.06 11.1461 119.841 10.9957 120.668C10.9559 120.818 10.9559 120.976 10.9956 121.126C11.0353 121.276 11.1135 121.413 11.2223 121.524C11.5495 121.763 12.0026 121.524 12.3425 121.323C17.2762 118.151 23.5315 115.533 29.3966 115.332L30.5168 114.904C26.5826 114.747 22.6425 114.962 18.7488 115.546Z" fill="var(--fill-0, black)"/>
</g>
<path id="Vector_46" d="M32.8321 71.4063C32.6559 71.4063 32.442 71.0035 32.3791 70.4497C32.3161 69.8959 32.3791 69.4429 32.5679 69.4177C32.7566 69.3925 32.958 69.8204 33.0209 70.3616C33.0839 70.9028 33.0084 71.3811 32.8321 71.4063Z" fill="var(--fill-0, white)"/>
<path id="Vector_47" d="M40.3716 79.7383C40.1954 79.7383 39.994 79.1719 39.9185 78.4797C39.8429 77.7875 39.9185 77.1456 40.1072 77.133C40.296 77.1204 40.4974 77.6868 40.5729 78.3916C40.6484 79.0964 40.5478 79.7131 40.3716 79.7383Z" fill="var(--fill-0, white)"/>
<path id="Vector_48" d="M49.5212 87.6675C49.345 87.6675 49.1058 87.2521 49.0051 86.6732C48.9044 86.0942 49.0051 85.5908 49.131 85.553C49.2569 85.5152 49.5338 85.9683 49.647 86.5473C49.7603 87.1263 49.6974 87.6423 49.5212 87.6675Z" fill="var(--fill-0, white)"/>
<path id="Vector_49" d="M37.8538 94.1619C37.6776 94.1619 37.5894 93.5074 37.6649 92.7397C37.7405 91.9719 37.9419 91.3678 38.1181 91.3804C38.2943 91.3929 38.395 92.0348 38.3194 92.8026C38.2439 93.5703 38.0426 94.1745 37.8538 94.1619Z" fill="var(--fill-0, white)"/>
<path id="Vector_50" d="M44.7394 100.165C44.5632 100.165 44.3492 99.6998 44.2863 99.0705C44.2234 98.4412 44.2863 97.9378 44.4751 97.9126C44.6639 97.8874 44.8653 98.3783 44.9282 98.995C44.9911 99.6117 44.9156 100.09 44.7394 100.165Z" fill="var(--fill-0, white)"/>
<path id="Vector_51" d="M53.0712 109.366C52.895 109.366 52.7188 108.674 52.6811 107.793C52.6433 106.912 52.7566 106.207 52.9454 106.194C53.1342 106.182 53.2978 106.886 53.3355 107.767C53.3733 108.648 53.26 109.366 53.0712 109.366Z" fill="var(--fill-0, white)"/>
<path id="Vector_52" d="M37.3253 109.769C37.1491 109.769 37.0358 109.328 37.0735 108.812C37.1113 108.296 37.2875 107.906 37.4637 107.919C37.6399 107.931 37.7658 108.359 37.728 108.863C37.6903 109.366 37.5141 109.781 37.3253 109.769Z" fill="var(--fill-0, white)"/>
<path id="Vector_53" d="M48.3126 117.836C48.4933 117.836 48.6398 117.335 48.6398 116.716C48.6398 116.098 48.4933 115.596 48.3126 115.596C48.1319 115.596 47.9854 116.098 47.9854 116.716C47.9854 117.335 48.1319 117.836 48.3126 117.836Z" fill="var(--fill-0, white)"/>
<path id="Vector_54" d="M49.7608 137.282C49.5846 137.282 49.4336 136.992 49.4336 136.627C49.4336 136.262 49.5846 135.96 49.7608 135.96C49.937 135.96 50.0881 136.262 50.0881 136.627C50.0881 136.992 49.9496 137.282 49.7608 137.282Z" fill="var(--fill-0, white)"/>
<path id="Vector_55" d="M30.5802 145.752C30.404 145.752 30.3159 145.073 30.3914 144.267C30.4669 143.462 30.6683 142.82 30.8445 142.845C31.0207 142.87 31.1214 143.525 31.0459 144.33C30.9704 145.136 30.7187 145.765 30.5802 145.752Z" fill="var(--fill-0, white)"/>
<path id="Vector_56" d="M39.3146 151.831C39.1384 151.831 38.9874 151.366 38.9874 150.774C38.9874 150.183 39.1384 149.717 39.3146 149.717C39.4908 149.717 39.6418 150.195 39.6418 150.774C39.6418 151.353 39.5285 151.831 39.3146 151.831Z" fill="var(--fill-0, white)"/>
<path id="Vector_57" d="M53.4733 150.384C53.2971 150.384 53.0453 150.132 52.8943 149.692C52.7433 149.251 52.7684 148.848 52.8943 148.798C53.0202 148.748 53.3223 149.05 53.4607 149.478C53.5991 149.906 53.6369 150.321 53.4733 150.384Z" fill="var(--fill-0, white)"/>
<path id="Vector_58" d="M40.5098 139.799C40.321 139.799 40.2078 139.182 40.2455 138.452C40.2833 137.722 40.4595 137.194 40.6357 137.194C40.8119 137.194 40.9377 137.798 40.9 138.528C40.8622 139.258 40.686 139.812 40.5098 139.799Z" fill="var(--fill-0, white)"/>
<path id="Vector_59" d="M52.9454 123.123C52.7566 123.123 52.6182 122.808 52.6182 122.405C52.6182 122.002 52.7566 121.675 52.9454 121.675C53.1342 121.675 53.2727 122.002 53.2727 122.405C53.2727 122.808 53.1216 123.123 52.9454 123.123Z" fill="var(--fill-0, white)"/>
<path id="Vector_60" d="M36.4319 123.248C36.2557 123.248 35.9662 122.77 35.7774 122.078C35.5886 121.386 35.6012 120.819 35.7774 120.744C35.9536 120.668 36.2305 121.222 36.4193 121.914C36.6081 122.606 36.6081 123.211 36.4319 123.248Z" fill="var(--fill-0, white)"/>
<path id="Vector_61" d="M15.904 136.099C15.7404 136.174 15.3754 135.809 15.0859 135.256C14.7964 134.702 14.6832 134.198 14.8468 134.11C15.0104 134.022 15.3628 134.4 15.6649 134.941C15.9669 135.482 16.0551 136.011 15.904 136.099Z" fill="var(--fill-0, white)"/>
<path id="Vector_62" d="M23.0399 124.192C22.8637 124.192 22.6623 123.752 22.5868 123.173C22.5113 122.594 22.5868 122.09 22.7756 122.065C22.9644 122.04 23.1657 122.506 23.2413 123.085C23.3168 123.664 23.1657 124.167 23.0399 124.192Z" fill="var(--fill-0, white)"/>
<path id="Vector_63" d="M16.0302 128.95C15.9043 129.076 15.4009 128.761 14.9352 128.245C14.4695 127.729 14.18 127.226 14.3059 127.1C14.4317 126.974 14.9352 127.289 15.4134 127.805C15.8917 128.321 16.1686 128.824 16.0302 128.95Z" fill="var(--fill-0, white)"/>
<path id="Vector_64" d="M28.868 129.478C28.6792 129.478 28.5659 129.038 28.6037 128.534C28.6415 128.031 28.8177 127.616 28.9939 127.628C29.1701 127.641 29.2959 128.069 29.2582 128.572C29.2204 129.076 29.0442 129.491 28.868 129.478Z" fill="var(--fill-0, white)"/>
<path id="Vector_65" d="M27.6729 108.309C27.8536 108.309 28.0002 108.044 28.0002 107.717C28.0002 107.39 27.8536 107.126 27.6729 107.126C27.4922 107.126 27.3457 107.39 27.3457 107.717C27.3457 108.044 27.4922 108.309 27.6729 108.309Z" fill="var(--fill-0, white)"/>
<path id="Vector_66" d="M14.4437 109.895C14.2675 109.895 14.2423 109.29 14.4437 108.636C14.645 107.981 14.8464 107.478 15.0226 107.516C15.1988 107.554 15.224 108.12 15.0226 108.774C14.8212 109.429 14.6199 109.945 14.4437 109.895Z" fill="var(--fill-0, white)"/>
<path id="Vector_67" d="M20.6495 106.987C20.8257 106.987 21.0019 107.415 21.0396 107.956C21.0774 108.497 20.9641 108.963 20.7879 108.976C20.6117 108.988 20.4229 108.548 20.3852 108.007C20.3474 107.465 20.4859 107 20.6495 106.987Z" fill="var(--fill-0, white)"/>
<path id="Vector_68" d="M17.351 97.7238C17.5272 97.7238 17.7663 98.1391 17.8796 98.7306C17.9928 99.3222 17.8796 99.813 17.7537 99.8508C17.6279 99.8886 17.3384 99.4355 17.2251 98.8439C17.1118 98.2524 17.1748 97.7615 17.351 97.7238Z" fill="var(--fill-0, white)"/>
<path id="Vector_69" d="M26.942 95.8737C27.1056 95.9492 26.8287 97.0064 26.3252 98.2525C25.8218 99.4985 25.2554 100.442 25.0666 100.38C24.8778 100.317 25.1799 99.2468 25.6833 98.0007C26.1868 96.7547 26.7154 95.8108 26.942 95.8737Z" fill="var(--fill-0, white)"/>
<path id="Vector_70" d="M21.706 89.9204C21.8822 89.9204 22.0081 90.361 21.9703 90.877C21.9326 91.393 21.7438 91.7832 21.5676 91.7706C21.3914 91.758 21.2781 91.3301 21.3159 90.8266C21.3536 90.3232 21.5298 89.9079 21.706 89.9204Z" fill="var(--fill-0, white)"/>
<path id="Vector_71" d="M21.4546 78.6811C21.6182 78.6182 21.9077 78.9454 22.0965 79.4237C22.2852 79.9019 22.2852 80.3299 22.0965 80.3928C21.9077 80.4557 21.6434 80.1285 21.4546 79.6502C21.2658 79.1719 21.291 78.7692 21.4546 78.6811Z" fill="var(--fill-0, white)"/>
<path id="Vector_72" d="M27.8107 86.4844C27.6345 86.4844 27.345 86.0691 27.1562 85.4524C26.9674 84.8357 26.9674 84.2819 27.1562 84.1938C27.345 84.1057 27.6219 84.6091 27.7981 85.2258C27.9743 85.8426 27.9743 86.4341 27.8107 86.4844Z" fill="var(--fill-0, white)"/>
<path id="Vector_73" d="M44.5629 85.6915C44.7517 85.6915 44.865 86.2075 44.8272 86.8369C44.7894 87.4662 44.6132 87.9444 44.437 87.9444C44.2608 87.9444 44.135 87.4158 44.1727 86.7991C44.2105 86.1824 44.4245 85.6789 44.5629 85.6915Z" fill="var(--fill-0, white)"/>
<path id="Vector_74" d="M33.6247 76.9567C33.7883 76.8812 34.1281 77.284 34.2036 77.8881C34.2791 78.4922 34.0652 78.9705 33.889 78.9453C33.7128 78.9202 33.6247 78.4796 33.5618 77.9762C33.4988 77.4728 33.461 77.0322 33.6247 76.9567Z" fill="var(--fill-0, white)"/>
<path id="Vector_75" d="M55.0593 93.6334C55.2355 93.6334 55.3236 94.0865 55.2481 94.6025C55.1726 95.1186 54.9712 95.5087 54.795 95.4835C54.6188 95.4584 54.5307 95.0179 54.6063 94.5018C54.6818 93.9858 54.8831 93.6082 55.0593 93.6334Z" fill="var(--fill-0, white)"/>
<path id="Vector_76" d="M37.0103 102.23C36.8467 102.293 36.5824 102.016 36.4439 101.613C36.3055 101.21 36.3181 100.833 36.4439 100.77C36.5698 100.707 36.8719 100.984 37.0229 101.386C37.174 101.789 37.2369 102.167 37.0103 102.23Z" fill="var(--fill-0, white)"/>
<path id="Vector_77" d="M46.6262 108.183C46.8024 108.183 46.9786 108.661 47.0163 109.29C47.0541 109.92 46.9156 110.423 46.7394 110.423C46.5632 110.423 46.387 109.945 46.3618 109.316C46.3366 108.686 46.45 108.183 46.6262 108.183Z" fill="var(--fill-0, white)"/>
<path id="Vector_78" d="M50.2885 98.3908C50.4773 98.3908 50.5906 98.718 50.5528 99.083C50.5151 99.448 50.3389 99.7249 50.1627 99.7123C49.9865 99.6997 49.8606 99.3851 49.8983 99.0201C49.9361 98.6551 50.1123 98.3782 50.2885 98.3908Z" fill="var(--fill-0, white)"/>
<path id="Vector_79" d="M52.2782 76.5667C52.4544 76.5667 52.4795 77.0701 52.2782 77.5735C52.0768 78.077 51.8754 78.4672 51.6992 78.4168C51.523 78.3665 51.4978 77.9134 51.6992 77.3973C51.9006 76.8813 52.1145 76.5163 52.2782 76.5667Z" fill="var(--fill-0, white)"/>
<path id="Vector_80" d="M44.3367 71.6707C44.5129 71.6707 44.7521 71.9475 44.8527 72.3755C44.9534 72.8034 44.8527 73.2061 44.7395 73.2565C44.6262 73.3068 44.3367 72.9796 44.2234 72.5391C44.1102 72.0986 44.1731 71.7084 44.3367 71.6707Z" fill="var(--fill-0, white)"/>
<path id="Vector_81" d="M40.1074 66.5103C40.2584 66.4096 40.5605 66.5984 40.7744 66.9256C40.9884 67.2529 41.0513 67.5927 40.9003 67.6934C40.7493 67.7941 40.4472 67.6179 40.2332 67.2906C40.0193 66.9634 39.9563 66.611 40.1074 66.5103Z" fill="var(--fill-0, white)"/>
<path id="Vector_82" d="M46.0607 59.7641C46.2369 59.7641 46.4634 60.041 46.5767 60.4815C46.69 60.922 46.5767 61.2996 46.4635 61.3499C46.3502 61.4003 46.0481 61.073 45.9474 60.6325C45.8467 60.192 45.8845 59.8018 46.0607 59.7641Z" fill="var(--fill-0, white)"/>
<path id="Vector_83" d="M50.4273 60.9473C50.6035 60.9473 50.7797 61.2493 50.8175 61.6521C50.8552 62.0548 50.742 62.3947 50.5532 62.4072C50.3644 62.4198 50.2008 62.1052 50.163 61.715C50.1252 61.3248 50.2511 60.9724 50.4273 60.9473Z" fill="var(--fill-0, white)"/>
<path id="Vector_84" d="M52.2781 67.0389C52.4417 67.1144 52.4543 67.4165 52.2781 67.7186C52.1019 68.0206 51.8879 68.1717 51.7243 68.0962C51.5607 68.0206 51.5481 67.706 51.7243 67.4165C51.9005 67.127 52.1144 66.9508 52.2781 67.0389Z" fill="var(--fill-0, white)"/>
<path id="Vector_85" d="M61.4282 65.302C61.2646 65.3901 60.9122 65.0125 60.4968 64.572C60.0815 64.1315 59.7291 63.7665 59.8172 63.6029C59.9053 63.4393 60.4843 63.6029 60.9751 64.1189C61.466 64.6349 61.5918 65.2391 61.4282 65.302Z" fill="var(--fill-0, white)"/>
<path id="Vector_86" d="M65.116 63.4645C64.9398 63.4645 64.7384 63.3512 64.6629 63.0869C64.5874 62.8226 64.6629 62.5835 64.8517 62.5331C65.0405 62.4828 65.2167 62.659 65.2922 62.9107C65.3677 63.1624 65.2796 63.4141 65.116 63.4645Z" fill="var(--fill-0, white)"/>
<path id="Vector_87" d="M69.3443 60.1544C69.1681 60.1544 69.0422 59.8271 69.08 59.4621C69.1177 59.0971 69.2939 58.8202 69.4827 58.8328C69.6715 58.8454 69.7722 59.1601 69.7344 59.525C69.6967 59.89 69.5205 60.1795 69.3443 60.1544Z" fill="var(--fill-0, white)"/>
<path id="Vector_88" d="M63.1268 77.2212C62.9506 77.2212 62.7114 76.7806 62.6107 76.1513C62.51 75.522 62.6107 75.006 62.724 74.9808C62.8373 74.9557 63.1394 75.4213 63.2526 76.0381C63.3659 76.6548 63.303 77.196 63.1268 77.2212Z" fill="var(--fill-0, white)"/>
<path id="Vector_89" d="M70.5402 71.9349C70.364 71.9349 70.0745 71.5195 69.8857 70.9028C69.6969 70.2861 69.6969 69.7323 69.8857 69.6442C70.0745 69.5561 70.3514 70.0596 70.5276 70.6763C70.7038 71.293 70.7039 71.8845 70.5402 71.9349Z" fill="var(--fill-0, white)"/>
<path id="Vector_90" d="M76.4926 70.8777C76.3164 70.8777 76.2912 70.2736 76.4297 69.6191C76.5681 68.9646 76.845 68.4612 77.0212 68.4989C77.1974 68.5367 77.2226 69.1031 77.0212 69.7575C76.8198 70.412 76.6688 70.9155 76.4926 70.8777Z" fill="var(--fill-0, white)"/>
<path id="Vector_91" d="M66.7011 76.1638C66.5249 76.1638 66.311 75.824 66.248 75.3583C66.1851 74.8926 66.248 74.4772 66.4368 74.4395C66.6256 74.4017 66.8144 74.7793 66.8899 75.2576C66.9654 75.7359 66.8773 76.1386 66.7011 76.1638Z" fill="var(--fill-0, white)"/>
<path id="Vector_92" d="M74.5176 80.5313C74.3414 80.5313 74.1652 80.1034 74.1275 79.5622C74.0897 79.021 74.203 78.5553 74.3918 78.5427C74.5806 78.5301 74.7442 78.9706 74.782 79.5118C74.8197 80.053 74.6938 80.5187 74.5176 80.5313Z" fill="var(--fill-0, white)"/>
<path id="Vector_93" d="M64.449 87.013C64.2728 87.013 64.1469 86.4089 64.1847 85.6789C64.2225 84.9489 64.3987 84.3574 64.5749 84.4203C64.7511 84.4832 64.8769 85.0244 64.8392 85.7544C64.8014 86.4844 64.6252 87.0256 64.449 87.013Z" fill="var(--fill-0, white)"/>
<path id="Vector_94" d="M70.804 87.9444C70.6152 87.9444 70.439 87.6801 70.4013 87.3151C70.3635 86.9501 70.4893 86.6355 70.6655 86.6103C70.8418 86.5851 71.018 86.8746 71.0557 87.2396C71.0935 87.6046 70.9928 87.9192 70.804 87.9444Z" fill="var(--fill-0, white)"/>
<path id="Vector_95" d="M65.116 95.4835C64.9273 95.4835 64.7888 94.9172 64.7888 94.2249C64.7888 93.5327 64.9273 92.9663 65.116 92.9663C65.3048 92.9663 65.4433 93.5327 65.4433 94.2249C65.4433 94.9172 65.2923 95.4835 65.116 95.4835Z" fill="var(--fill-0, white)"/>
<path id="Vector_96" d="M69.7346 99.448C69.5458 99.448 69.3445 99.0453 69.269 98.5041C69.1934 97.9629 69.269 97.4846 69.4703 97.4594C69.6717 97.4343 69.8479 97.8622 69.9234 98.416C69.9989 98.9698 69.9234 99.4228 69.7346 99.448Z" fill="var(--fill-0, white)"/>
<path id="Vector_97" d="M64.8136 104.734C64.6248 104.734 64.5493 104.243 64.6248 103.702C64.7003 103.161 64.9017 102.733 65.0905 102.758C65.2793 102.783 65.3422 103.236 65.2667 103.79C65.1912 104.344 64.9898 104.759 64.8136 104.734Z" fill="var(--fill-0, white)"/>
<path id="Vector_98" d="M70.402 109.366C70.2132 109.366 70.0874 108.9 69.9489 108.359C69.8105 107.818 69.7098 107.352 69.8734 107.252C70.037 107.151 70.4272 107.554 70.5908 108.195C70.7544 108.837 70.5782 109.379 70.402 109.366Z" fill="var(--fill-0, white)"/>
<path id="Vector_99" d="M64.3235 116.112C64.1348 116.112 63.9585 115.596 63.9208 114.942C63.883 114.287 64.0089 113.683 64.1851 113.683C64.3613 113.683 64.5375 114.199 64.5752 114.853C64.613 115.508 64.4998 116.112 64.3235 116.112Z" fill="var(--fill-0, white)"/>
<path id="Vector_100" d="M70.8052 119.296C70.6415 119.372 70.2136 118.881 69.8486 118.189C69.4836 117.497 69.32 116.93 69.4836 116.779C69.6472 116.628 70.0626 117.194 70.4276 117.887C70.7926 118.579 70.994 119.208 70.8052 119.296Z" fill="var(--fill-0, white)"/>
<path id="Vector_101" d="M66.299 123.928C66.1228 123.928 66.0347 123.487 66.1102 123.009C66.1858 122.531 66.3872 122.178 66.5634 122.204C66.7396 122.229 66.8277 122.632 66.7647 123.11C66.7018 123.588 66.4752 123.953 66.299 123.928Z" fill="var(--fill-0, white)"/>
<path id="Vector_102" d="M78.1797 126.596C78.0035 126.596 77.7644 125.954 77.6511 125.124C77.5378 124.293 77.6511 123.576 77.777 123.55C77.9028 123.525 78.1923 124.192 78.3056 125.036C78.4188 125.879 78.3559 126.596 78.1797 126.596Z" fill="var(--fill-0, white)"/>
<path id="Vector_103" d="M86.6752 124.985C86.499 124.985 86.2095 124.406 86.0207 123.601C85.8319 122.795 85.8319 122.116 86.0207 122.065C86.2095 122.015 86.499 122.644 86.6752 123.45C86.8514 124.255 86.8514 124.935 86.6752 124.985Z" fill="var(--fill-0, white)"/>
<path id="Vector_104" d="M80.7227 116.779C80.5465 116.779 80.4583 116.188 80.5338 115.52C80.6094 114.853 80.8108 114.262 80.987 114.262C81.1632 114.262 81.2513 114.866 81.1757 115.52C81.1002 116.175 80.8989 116.792 80.7227 116.779Z" fill="var(--fill-0, white)"/>
<path id="Vector_105" d="M77.2866 106.597C77.1103 106.597 76.846 105.968 76.695 105.124C76.544 104.281 76.5691 103.576 76.7579 103.551C76.9467 103.526 77.1985 104.181 77.3369 105.011C77.4754 105.842 77.4628 106.559 77.2866 106.597Z" fill="var(--fill-0, white)"/>
<path id="Vector_106" d="M84.2969 103.023C84.1207 103.023 83.8816 102.507 83.7683 101.764C83.655 101.021 83.7683 100.505 83.8942 100.505C84.02 100.505 84.3095 101.021 84.4228 101.764C84.5361 102.507 84.4731 102.997 84.2969 103.023Z" fill="var(--fill-0, white)"/>
<path id="Vector_107" d="M79.2506 95.3449C79.087 95.3449 79.087 94.7031 79.2506 93.9982C79.4143 93.2934 79.7163 92.7396 79.8925 92.8277C80.0688 92.9158 80.0562 93.4822 79.8925 94.1744C79.7289 94.8667 79.4268 95.3953 79.2506 95.3449Z" fill="var(--fill-0, white)"/>
<path id="Vector_108" d="M74.2408 92.9663C74.0772 92.8907 74.1779 92.274 74.3163 91.544C74.4548 90.814 74.5806 90.1973 74.7694 90.1847C74.9582 90.1722 75.1218 90.8518 74.9582 91.6699C74.7946 92.488 74.4044 93.0418 74.2408 92.9663Z" fill="var(--fill-0, white)"/>
<path id="Vector_109" d="M85.4801 86.2201C85.3039 86.2201 85.0396 85.5656 84.8885 84.6846C84.7375 83.8036 84.7753 83.0736 84.8885 83.0484C85.0018 83.0232 85.329 83.7029 85.4801 84.5839C85.6311 85.4649 85.6563 86.1949 85.4801 86.2201Z" fill="var(--fill-0, white)"/>
<path id="Vector_110" d="M79.9417 81.7269C79.7655 81.7269 79.7403 81.1227 79.9417 80.4683C80.1431 79.8138 80.3445 79.3103 80.5207 79.3481C80.6969 79.3859 80.722 79.9522 80.5836 80.6067C80.4452 81.2612 80.1179 81.7646 79.9417 81.7269Z" fill="var(--fill-0, white)"/>
<path id="Vector_111" d="M82.4591 73.0173C82.3458 72.8663 82.7108 72.4258 83.2646 72.023C83.8184 71.6203 84.3345 71.4189 84.4477 71.5573C84.561 71.6958 84.196 72.1489 83.6422 72.5516C83.0884 72.9544 82.5598 73.1558 82.4591 73.0173Z" fill="var(--fill-0, white)"/>
<path id="Vector_112" d="M87.3556 77.3595C87.1794 77.3595 87.0283 76.5288 87.0283 75.5093C87.0283 74.4898 87.1794 73.6466 87.3556 73.6466C87.5318 73.6466 87.6954 74.4773 87.6954 75.5093C87.6954 76.5414 87.5192 77.3595 87.3556 77.3595Z" fill="var(--fill-0, white)"/>
<path id="Vector_113" d="M96.1646 88.5989C96.001 88.687 95.4975 88.0325 95.2332 87.076C94.9689 86.1194 95.057 85.3013 95.2332 85.2887C95.4094 85.2761 95.6108 86.0187 95.8625 86.8998C96.1142 87.7808 96.366 88.5108 96.1646 88.5989Z" fill="var(--fill-0, white)"/>
<path id="Vector_114" d="M100.697 83.3127C100.52 83.3127 100.395 82.6959 100.432 81.966C100.47 81.236 100.646 80.7073 100.835 80.7073C101.024 80.7073 101.125 81.3241 101.087 82.0541C101.049 82.7841 100.873 83.3127 100.697 83.3127Z" fill="var(--fill-0, white)"/>
<path id="Vector_115" d="M99.3506 99.1838C99.1744 99.1838 98.9353 98.3657 98.8346 97.2959C98.7339 96.2261 98.7717 95.3702 98.9605 95.345C99.1493 95.3199 99.3758 96.1757 99.4765 97.2329C99.5772 98.2902 99.5394 99.1712 99.3506 99.1838Z" fill="var(--fill-0, white)"/>
<path id="Vector_116" d="M94.6179 101.827C94.4291 101.827 94.1648 101.172 94.0264 100.291C93.8879 99.4103 93.9005 98.6803 94.0893 98.6552C94.2781 98.63 94.5298 99.3097 94.6683 100.191C94.8067 101.072 94.7941 101.802 94.6179 101.827Z" fill="var(--fill-0, white)"/>
<path id="Vector_117" d="M99.5008 108.976C99.3875 109.114 98.947 108.976 98.5065 108.56C98.066 108.145 97.8017 107.793 97.915 107.654C98.0283 107.516 98.4813 107.654 98.9218 108.057C99.3624 108.46 99.6267 108.837 99.5008 108.976Z" fill="var(--fill-0, white)"/>
<path id="Vector_118" d="M104.535 108.309C104.358 108.309 104.006 107.692 103.754 106.811C103.502 105.93 103.44 105.187 103.603 105.137C103.767 105.087 104.132 105.754 104.384 106.635C104.635 107.516 104.711 108.258 104.535 108.309Z" fill="var(--fill-0, white)"/>
<path id="Vector_119" d="M93.1573 110.562C92.9811 110.562 92.8301 109.97 92.8301 109.303C92.8301 108.636 92.9811 107.981 93.1573 107.981C93.3335 107.981 93.4845 108.573 93.4845 109.303C93.4845 110.033 93.3335 110.562 93.1573 110.562Z" fill="var(--fill-0, white)"/>
<path id="Vector_120" d="M96.0649 118.629C95.9139 118.73 95.4482 118.315 95.0077 117.698C94.5671 117.081 94.328 116.439 94.4791 116.376C94.6301 116.313 95.1084 116.691 95.5363 117.32C95.9642 117.95 96.1656 118.529 96.0649 118.629Z" fill="var(--fill-0, white)"/>
<path id="Vector_121" d="M100.961 117.308C100.797 117.408 100.256 116.804 99.7024 115.961C99.1486 115.118 98.8969 114.363 99.048 114.275C99.199 114.186 99.7402 114.778 100.307 115.621C100.873 116.465 101.112 117.22 100.961 117.308Z" fill="var(--fill-0, white)"/>
<path id="Vector_122" d="M105.982 117.308C105.806 117.308 105.794 116.679 105.718 116.049C105.643 115.42 105.567 114.791 105.718 114.715C105.869 114.64 106.285 115.181 106.36 115.974C106.436 116.767 106.159 117.358 105.982 117.308Z" fill="var(--fill-0, white)"/>
<path id="Vector_123" d="M107.719 127.641C107.568 127.528 107.82 126.949 108.097 126.244C108.374 125.539 108.575 124.985 108.764 124.985C108.953 124.985 109.015 125.703 108.701 126.483C108.386 127.263 107.858 127.742 107.719 127.641Z" fill="var(--fill-0, white)"/>
<path id="Vector_124" d="M103.076 125.111C102.975 124.973 103.264 124.557 103.743 124.192C104.221 123.827 104.687 123.651 104.8 123.79C104.913 123.928 104.611 124.343 104.133 124.708C103.655 125.073 103.189 125.262 103.076 125.111Z" fill="var(--fill-0, white)"/>
<path id="Vector_125" d="M100.961 135.834C100.835 135.948 100.369 135.671 99.9288 135.193C99.4882 134.714 99.2365 134.236 99.375 134.11C99.5134 133.984 99.9665 134.274 100.407 134.752C100.848 135.23 101.099 135.709 100.961 135.834Z" fill="var(--fill-0, white)"/>
<path id="Vector_126" d="M92.3137 134.651C92.1375 134.651 92.1249 133.959 92.3137 133.191C92.5025 132.424 92.7668 131.832 92.943 131.87C93.1192 131.908 93.1192 132.562 92.943 133.33C92.7668 134.098 92.4899 134.689 92.3137 134.651Z" fill="var(--fill-0, white)"/>
<path id="Vector_127" d="M88.2618 132.122C88.1737 132.285 87.5318 132.122 86.8396 131.681C86.1474 131.241 85.6565 130.825 85.7446 130.674C85.8327 130.523 86.4746 130.674 87.1668 131.115C87.8591 131.555 88.3499 131.971 88.2618 132.122Z" fill="var(--fill-0, white)"/>
<path id="Vector_128" d="M93.3083 124.859C93.1321 124.859 93.0818 124.369 93.195 123.853C93.3083 123.337 93.5348 122.959 93.711 122.997C93.8872 123.034 93.9502 123.488 93.8369 124.004C93.7236 124.52 93.4845 124.897 93.3083 124.859Z" fill="var(--fill-0, white)"/>
<path id="Vector_129" d="M96.3287 78.014C96.4797 78.1147 96.2658 78.7063 95.712 79.2097C95.1582 79.7132 94.5667 79.8894 94.4534 79.7383C94.3401 79.5873 94.7554 79.1845 95.2463 78.7314C95.7371 78.2783 96.1651 77.9133 96.3287 78.014Z" fill="var(--fill-0, white)"/>
<path id="Vector_130" d="M93.1573 92.9663C92.9811 92.9663 92.8301 92.3999 92.8301 91.7077C92.8301 91.0155 92.9811 90.4491 93.1573 90.4491C93.3335 90.4491 93.4845 91.0155 93.4845 91.7077C93.4845 92.3999 93.3335 92.9663 93.1573 92.9663Z" fill="var(--fill-0, white)"/>
<path id="Vector_131" d="M29.8992 119.586C29.7104 119.586 29.5972 119.057 29.6349 118.415C29.6727 117.773 29.8614 117.283 30.0376 117.295C30.2139 117.308 30.3397 117.824 30.2894 118.466C30.239 119.107 30.0754 119.598 29.8992 119.586Z" fill="var(--fill-0, white)"/>
<path id="Vector_132" d="M23.4055 135.595C23.2293 135.595 23.1412 135.079 23.2168 134.488C23.2923 133.896 23.4936 133.431 23.6698 133.443C23.846 133.456 23.9341 133.972 23.8586 134.563C23.7831 135.155 23.5818 135.621 23.4055 135.595Z" fill="var(--fill-0, white)"/>
<path id="Vector_133" d="M8.46601 126.986C8.2898 126.923 8.46601 126.131 8.46601 125.161C8.46601 124.192 8.40307 123.412 8.57928 123.349C8.75548 123.286 9.15823 124.104 9.12047 125.187C9.08271 126.269 8.61704 127.062 8.46601 126.986Z" fill="var(--fill-0, white)"/>
<path id="Vector_134" d="M14.7842 115.005C14.6206 115.08 14.2556 114.551 14.1423 113.746C14.029 112.94 14.2052 112.387 14.3814 112.399C14.5576 112.412 14.6835 112.978 14.7842 113.658C14.8849 114.337 14.9604 114.942 14.7842 115.005Z" fill="var(--fill-0, white)"/>
<path id="Vector_135" d="M23.1662 114.602C22.99 114.602 22.8767 114.275 22.9145 113.897C22.9522 113.519 23.1284 113.242 23.3047 113.255C23.4809 113.268 23.6067 113.595 23.569 113.96C23.5312 114.325 23.3173 114.627 23.1662 114.602Z" fill="var(--fill-0, white)"/>
<path id="Vector_136" d="M34.9847 128.195C34.8085 128.195 34.5694 127.918 34.4561 127.465C34.3428 127.012 34.4561 126.622 34.5694 126.584C34.6826 126.546 34.9847 126.861 35.098 127.314C35.2113 127.767 35.1609 128.157 34.9847 128.195Z" fill="var(--fill-0, white)"/>
<path id="Vector_137" d="M39.427 117.157C39.2508 117.157 38.9865 116.754 38.8355 116.162C38.6845 115.571 38.7096 115.055 38.8355 115.004C38.9614 114.954 39.276 115.407 39.4144 115.999C39.5529 116.59 39.5907 117.119 39.427 117.157Z" fill="var(--fill-0, white)"/>
<path id="Vector_138" d="M30.718 91.7202C30.5418 91.7202 30.4285 91.0657 30.4662 90.2854C30.504 89.505 30.6802 88.8883 30.8564 88.8883C31.0326 88.8883 31.1585 89.5428 31.1207 90.3231C31.083 91.1035 30.8564 91.7328 30.718 91.7202Z" fill="var(--fill-0, white)"/>
<path id="Vector_139" d="M16.5331 86.8746C16.3694 86.8117 16.4701 86.0943 16.5331 85.2384C16.596 84.3826 16.7092 83.6652 16.898 83.64C17.0868 83.6148 17.3008 84.3826 17.1749 85.3139C17.0491 86.2453 16.6967 86.9375 16.5331 86.8746Z" fill="var(--fill-0, white)"/>
<path id="Vector_140" d="M26.7653 70.1854C26.866 70.3365 26.4003 70.7896 25.7332 71.2049C25.0662 71.6203 24.4746 71.8216 24.3488 71.658C24.2229 71.4944 24.7138 71.0539 25.3808 70.6385C26.0479 70.2232 26.6772 70.0344 26.7653 70.1854Z" fill="var(--fill-0, white)"/>
<path id="Vector_141" d="M36.86 86.8747C36.6838 86.8747 36.4824 86.4341 36.4069 85.8426C36.3314 85.251 36.4069 84.7476 36.5957 84.7224C36.7845 84.6973 36.9859 85.163 37.0488 85.7545C37.1117 86.346 37.011 86.8495 36.86 86.8747Z" fill="var(--fill-0, white)"/>
<path id="Vector_142" d="M55.8897 85.7922C55.7135 85.7922 55.6002 85.0874 55.638 84.2315C55.6758 83.3757 55.852 82.696 56.0282 82.696C56.2044 82.696 56.3303 83.4135 56.2925 84.2693C56.2547 85.1252 56.0282 85.8048 55.8897 85.7922Z" fill="var(--fill-0, white)"/>
<path id="Vector_143" d="M54.9083 143.273C54.7321 143.273 54.5182 142.606 54.4426 141.75C54.3671 140.894 54.4426 140.189 54.644 140.177C54.8454 140.164 55.0216 140.844 55.0971 141.7C55.1726 142.555 55.0845 143.26 54.9083 143.273Z" fill="var(--fill-0, white)"/>
<path id="Vector_144" d="M46.8284 146.734C46.6396 146.734 46.4634 146.306 46.4257 145.752C46.3879 145.199 46.5138 144.733 46.69 144.72C46.8662 144.708 47.0424 145.148 47.0801 145.702C47.1179 146.256 47.0046 146.734 46.8284 146.734Z" fill="var(--fill-0, white)"/>
<path id="Vector_145" d="M31.9762 155.922C31.8 155.922 31.5357 155.519 31.3972 154.928C31.2588 154.336 31.2714 153.82 31.3972 153.77C31.5231 153.719 31.8251 154.172 31.9762 154.764C32.1272 155.355 32.1901 155.884 31.9762 155.922Z" fill="var(--fill-0, white)"/>
<path id="Vector_146" d="M33.4999 137.483C33.3237 137.42 33.3237 136.98 33.2482 136.489C33.1727 135.998 33.072 135.57 33.2482 135.47C33.4244 135.369 33.8397 135.734 33.9279 136.401C34.016 137.068 33.6635 137.559 33.4999 137.483Z" fill="var(--fill-0, white)"/>
<path id="Vector_147" d="M49.5225 154.286C49.3463 154.286 49.1071 153.933 48.9939 153.417C48.8806 152.901 48.9939 152.435 49.1197 152.398C49.2456 152.36 49.5225 152.75 49.6358 153.279C49.7491 153.807 49.6987 154.286 49.5225 154.286Z" fill="var(--fill-0, white)"/>
<path id="Vector_148" d="M48.8419 130.221C48.6657 130.221 48.5146 129.277 48.5146 128.132C48.5146 126.986 48.6657 126.042 48.8419 126.042C49.0181 126.042 49.1691 126.974 49.1691 128.132C49.1691 129.29 49.0307 130.221 48.8419 130.221Z" fill="var(--fill-0, white)"/>
<path id="Vector_149" d="M55.0334 134.148C54.8571 134.148 54.832 133.506 55.0334 132.801C55.2347 132.096 55.4487 131.543 55.6249 131.543C55.8011 131.543 55.8263 132.172 55.6249 132.889C55.4235 133.607 55.2096 134.148 55.0334 134.148Z" fill="var(--fill-0, white)"/>
<path id="Vector_150" d="M63.2404 140.038C63.0642 140.038 62.7495 139.371 62.523 138.44C62.2964 137.508 62.2587 136.715 62.4349 136.678C62.6111 136.64 62.9383 137.357 63.1649 138.289C63.3914 139.22 63.4418 140 63.2404 140.038Z" fill="var(--fill-0, white)"/>
<path id="Vector_151" d="M72.252 135.872C72.0758 135.872 71.8366 135.381 71.7234 134.702C71.6101 134.022 71.7234 133.443 71.8492 133.443C71.9751 133.443 72.2646 133.934 72.3779 134.601C72.4911 135.268 72.466 135.834 72.252 135.872Z" fill="var(--fill-0, white)"/>
<path id="Vector_152" d="M71.7356 144.758C71.5594 144.758 71.3455 144.154 71.2699 143.373C71.1944 142.593 71.2699 141.939 71.4713 141.926C71.6727 141.914 71.8489 142.53 71.9244 143.311C71.9999 144.091 71.9118 144.733 71.7356 144.758Z" fill="var(--fill-0, white)"/>
<path id="Vector_153" d="M66.6133 147.716C66.4371 147.716 66.198 147.263 66.0847 146.633C65.9714 146.004 66.0847 145.463 66.2106 145.375C66.3364 145.287 66.6259 145.828 66.7266 146.47C66.8272 147.112 66.7895 147.678 66.6133 147.716Z" fill="var(--fill-0, white)"/>
<path id="Vector_154" d="M62.8372 152.159C62.6862 152.234 62.3086 151.768 62.2331 151.064C62.1576 150.359 62.3967 149.805 62.5729 149.868C62.7491 149.931 62.7994 150.409 62.875 150.988C62.9505 151.567 63.0134 152.083 62.8372 152.159Z" fill="var(--fill-0, white)"/>
<path id="Vector_155" d="M77.5129 150.132C77.3366 150.132 77.1856 149.44 77.1856 148.584C77.1856 147.728 77.3366 147.036 77.5129 147.036C77.6891 147.036 77.8401 147.741 77.8401 148.584C77.8401 149.427 77.6891 150.132 77.5129 150.132Z" fill="var(--fill-0, white)"/>
<path id="Vector_156" d="M87.3558 149.062C87.167 149.062 86.9656 148.496 86.8901 147.804C86.8146 147.112 86.8901 146.432 87.0789 146.419C87.2677 146.407 87.4691 146.986 87.5446 147.678C87.6201 148.37 87.5194 149.037 87.3558 149.062Z" fill="var(--fill-0, white)"/>
<path id="Vector_157" d="M84.121 142.467C83.9448 142.467 83.7686 141.813 83.7309 140.995C83.6931 140.177 83.8064 139.51 83.9952 139.51C84.184 139.51 84.3476 140.152 84.3854 140.97C84.4231 141.788 84.3098 142.455 84.121 142.467Z" fill="var(--fill-0, white)"/>
<path id="Vector_158" d="M77.6517 141.385C77.4629 141.385 77.2867 140.806 77.2489 140.063C77.2111 139.321 77.337 138.704 77.5132 138.691C77.6894 138.679 77.8656 139.283 77.9034 140.026C77.9411 140.768 77.8279 141.385 77.6517 141.385Z" fill="var(--fill-0, white)"/>
<path id="Vector_159" d="M79.9416 134.249C79.7528 134.249 79.6144 133.959 79.6144 133.582C79.6144 133.204 79.7528 132.915 79.9416 132.915C80.1304 132.915 80.2688 133.204 80.2688 133.582C80.2688 133.959 80.1178 134.249 79.9416 134.249Z" fill="var(--fill-0, white)"/>
<g id="Group_4" opacity="0.3">
<path id="Vector_160" d="M93.0059 140.68C92.7656 140.05 92.2925 139.536 91.6844 139.245L82.1567 133.116C79.35 131.303 76.4175 129.453 73.1073 128.975C69.5832 128.472 66.0717 129.567 62.5728 130.234C62.1252 130.378 61.6502 130.417 61.1851 130.347C60.72 130.277 60.2773 130.1 59.8919 129.831C58.9102 128.887 59.527 127.314 59.6402 125.929C59.9297 122.707 56.7454 119.989 53.5108 119.636C50.2761 119.284 45.2795 122.481 45.2795 122.481C45.6067 122.569 46.6514 127.049 46.6514 127.049L25.834 136.892C30.2002 136.212 34.5085 135.202 38.7221 133.871C42.6893 132.859 46.3435 130.878 49.3574 128.107C50.2762 127.226 51.4467 126.156 52.6298 126.621C53.0756 126.88 53.4249 127.276 53.6248 127.751C53.8247 128.226 53.8642 128.753 53.7374 129.252C53.5863 130.271 53.0829 131.215 52.9318 132.235C52.8624 132.857 52.919 133.487 53.0981 134.088C53.2772 134.688 53.5753 135.246 53.9746 135.729C54.3739 136.211 54.8662 136.609 55.4222 136.897C55.9782 137.186 56.5866 137.359 57.2111 137.408C59.9171 137.521 62.3462 135.218 65.0271 135.57C67.3177 135.885 68.8658 137.974 70.8418 139.157C75.7504 142.09 82.4084 139.082 87.6191 141.435C88.6028 142.039 89.6848 142.465 90.8159 142.694C91.9613 142.757 93.2828 141.8 93.0059 140.68Z" fill="var(--fill-0, black)"/>
</g>
<g id="Vector_161">
</g>
<path id="Vector_162" d="M68.5386 102.683L57.6013 103.941L43.6182 113.847L45.8459 124.381C48.4207 123.414 50.9416 122.309 53.3975 121.071C54.6561 120.278 54.4422 117.862 54.4422 117.862L56.2924 118.743C56.2924 118.743 57.4125 121.159 58.3061 123.248C59.1998 125.338 61.3646 123.89 61.3646 123.89L61.5156 121.637C62.7742 122.77 64.423 121.637 64.423 121.637L64.7376 113.356L61.4401 109.58L65.0649 109.744C66.6617 110.626 68.1452 111.699 69.4826 112.94C71.7355 115.03 74.7184 112.475 74.7184 112.475L68.1233 105.716L69.1679 106.119C69.1679 106.119 73.3465 108.699 75.0456 108.699C76.7447 108.699 76.9713 106.61 76.9713 106.61L68.5386 102.683Z" fill="var(--fill-0, #FFBE9D)"/>
<path id="Vector_163" d="M53.5625 112.752C53.5625 112.676 54.3554 112.336 55.6644 112.601C56.4045 112.768 57.132 112.987 57.8418 113.255C58.775 113.533 59.6176 114.055 60.2835 114.765C60.8761 115.55 61.2261 116.49 61.2904 117.471C61.3785 118.34 61.2903 119.095 61.3784 119.724C61.3784 120.983 61.5924 121.738 61.5043 121.776C61.4162 121.814 61.0386 121.058 60.9128 119.762C60.8373 119.12 60.8121 118.352 60.6862 117.547C60.5982 116.692 60.2855 115.876 59.78 115.181C59.1844 114.559 58.4455 114.092 57.6278 113.821C56.8475 113.507 56.1552 113.23 55.5637 113.054C54.9043 112.907 54.2357 112.807 53.5625 112.752Z" fill="var(--fill-0, #EB996E)"/>
<path id="Vector_164" d="M73.5977 111.342C71.5028 109.664 69.5457 107.82 67.7452 105.829L67.934 105.93H67.6571C64.9132 105.757 62.1597 105.816 59.4258 106.106C60.1655 105.737 60.9683 105.511 61.792 105.439C63.7565 105.125 65.7537 105.07 67.7326 105.275H68.0095H68.1228L68.2109 105.351C70.1642 107.2 71.9656 109.204 73.5977 111.342Z" fill="var(--fill-0, #EB996E)"/>
<path id="Vector_165" d="M71.22 112.009L57.1865 132.348L86.8771 127.666L102.257 105.993L71.22 112.009Z" fill="var(--fill-0, #263238)"/>
<path id="Vector_166" d="M56.8467 132.562L71.1319 111.871H71.1948L102.66 105.779L86.9652 127.855H86.9023L56.8467 132.562ZM71.3207 112.16L57.476 132.134L86.7512 127.515L101.854 106.232L71.3207 112.16Z" fill="var(--fill-0, #263238)"/>
<path id="Vector_167" d="M97.2357 115.269C97.3238 115.432 97.6132 115.697 97.2357 116.93C97.0711 117.551 96.8256 118.148 96.5056 118.705V124.28L95.247 127.54H96.3295C96.7233 128.057 96.9814 128.664 97.0803 129.306C97.1793 129.948 97.1158 130.604 96.8958 131.215C96.5323 132.068 96.0038 132.841 95.3407 133.489C94.6776 134.137 93.893 134.647 93.0319 134.991C91.4626 135.638 89.8103 136.062 88.1233 136.25L74.7695 132.952L64.4741 129.403C64.3185 129.348 64.1827 129.248 64.0841 129.116C63.9854 128.984 63.9284 128.825 63.9203 128.66L62.1834 127.251C62.1834 127.251 62.0702 126.206 63.656 125.69C65.2418 125.174 69.7351 126.697 69.949 126.823C70.163 126.949 73.7249 127.44 73.7249 127.44C71.3987 126.425 69.0008 125.584 66.5508 124.922C66.5508 124.922 65.3929 121.146 69.3071 121.801C72.1852 122.397 74.9851 123.322 77.6517 124.557L80.471 125.753L81.7296 125.174L80.8108 123.639C80.8108 123.639 76.519 119.435 76.456 119.233C76.3931 119.032 75.2981 117.748 76.2798 117.081C77.0603 116.726 77.9267 116.604 78.7751 116.729C79.6234 116.854 80.4177 117.221 81.0625 117.786C82.3211 119.045 86.6382 123.185 86.6382 123.185C87.2188 123.021 87.8233 122.957 88.4254 122.997C89.0867 122.892 89.7194 122.652 90.2845 122.293C90.8495 121.933 91.3348 121.462 91.7104 120.907C91.8488 120.429 91.8614 117.975 93.1452 116.502C94.429 115.03 96.6819 114.249 97.2357 115.269Z" fill="var(--fill-0, #FFBE9D)"/>
<path id="Vector_168" d="M37.1371 22.8241C36.4694 22.623 35.861 22.2618 35.3648 21.772C34.8686 21.2821 34.4996 20.6784 34.2899 20.0134C34.0802 19.3484 34.0362 18.6422 34.1617 17.9563C34.2872 17.2704 34.5784 16.6256 35.01 16.0779C35.5607 15.5442 36.0427 14.9438 36.4448 14.2907C37.0993 12.7678 35.9162 11.0309 36.2057 9.40732C36.4333 8.67472 36.8421 8.01146 37.3944 7.47901C37.9466 6.94657 38.6244 6.56217 39.3648 6.36149C40.8459 5.97451 42.2682 5.39032 43.5937 4.6246C44.7265 3.79392 45.4691 2.52272 46.5389 1.61653C47.2971 0.985429 48.1967 0.547086 49.161 0.338886C50.1253 0.130687 51.1257 0.158811 52.0768 0.420853C54.0276 0.97464 55.6512 2.48498 57.665 2.71153C59.1321 2.68232 60.5937 2.52225 62.0323 2.23325C63.6987 2.17677 65.3346 2.68947 66.6706 3.68692C68.0067 4.68438 68.9632 6.1071 69.3826 7.72078C69.5999 9.08644 70.1391 10.3807 70.9559 11.4966C72.1516 12.9818 74.2283 13.4726 75.1596 15.134C75.3808 15.6577 75.4948 16.2205 75.4948 16.7891C75.4948 17.3576 75.3808 17.9204 75.1596 18.4441C74.7286 19.4957 74.4653 20.6084 74.3793 21.7417C74.4128 22.6284 74.7381 23.4792 75.3048 24.162C75.8716 24.8447 76.6479 25.3213 77.5132 25.5175C77.359 26.0592 77.0936 26.5629 76.7338 26.9963C76.3741 27.4297 75.928 27.7834 75.4239 28.0347C76.1919 28.4606 77.0643 28.6612 77.9411 28.6137C77.5689 29.6553 76.9918 30.6119 76.2439 31.4268C75.4959 32.2418 74.5923 32.8986 73.5864 33.3586C72.5742 33.8089 71.4811 34.0488 70.3734 34.064C69.2656 34.0791 68.1664 33.8691 67.1423 33.4467" fill="var(--fill-0, #E0E0E0)"/>
<path id="Vector_169" d="M69.345 30.0233C69.5086 29.9478 75.8268 27.9843 75.7387 34.4662C75.6506 40.948 69.1436 39.5006 69.1436 39.337C69.1436 39.1734 69.345 30.0233 69.345 30.0233Z" fill="var(--fill-0, #FFBE9D)"/>
<path id="Vector_170" d="M71.1564 36.9079C71.1564 36.9079 71.2697 36.9834 71.4585 37.0841C71.7286 37.1953 72.0317 37.1953 72.3018 37.0841C72.7295 36.8227 73.079 36.4511 73.3138 36.0082C73.5485 35.5654 73.6597 35.0675 73.6359 34.5668C73.6562 34.01 73.5531 33.4555 73.3338 32.9432C73.2756 32.7408 73.1698 32.5552 73.0253 32.402C72.8808 32.2487 72.7018 32.1322 72.5032 32.0622C72.3742 32.028 72.2373 32.0394 72.1158 32.0944C71.9942 32.1494 71.8954 32.2448 71.8361 32.3643C71.7354 32.5531 71.8361 32.6789 71.748 32.6915C71.6599 32.7041 71.6095 32.5782 71.6599 32.3139C71.7033 32.1552 71.7958 32.0142 71.9242 31.9112C72.1054 31.7784 72.3305 31.7199 72.5535 31.7476C72.8196 31.8074 73.0663 31.9334 73.2709 32.1137C73.4754 32.2941 73.6313 32.5231 73.724 32.7796C73.9859 33.3468 74.1109 33.9676 74.089 34.592C74.1102 35.1696 73.9602 35.7406 73.6579 36.2333C73.3556 36.7259 72.9144 37.1182 72.3898 37.361C72.2144 37.4056 72.0313 37.4118 71.8532 37.3792C71.6751 37.3466 71.5061 37.276 71.3578 37.1722C71.169 37.0715 71.1313 36.9204 71.1564 36.9079Z" fill="var(--fill-0, #EB996E)"/>
<path id="Vector_171" d="M36.4954 43.2638C36.3569 38.6825 36.8478 29.2303 37.389 20.6844C37.6581 16.2507 39.5918 12.0822 42.8031 9.01337C46.0143 5.9445 50.2661 4.20165 54.7074 4.13367H55.6262C65.5063 4.53642 70.7295 13.1579 69.9995 23.0128L69.1437 55.573L57.0233 65.151L46.3628 56.6302L46.2873 54.113C46.2873 54.113 36.7723 52.7411 36.4954 43.2638Z" fill="var(--fill-0, #FFBE9D)"/>
<path id="Vector_172" d="M46.2744 54.0501C50.6574 54.0416 54.9385 52.727 58.571 50.2743C58.571 50.2743 55.8398 57.2596 46.3625 56.5673L46.2744 54.0501Z" fill="var(--fill-0, #EB996E)"/>
<path id="Vector_173" d="M39.6797 28.4247C39.6829 28.7787 39.8241 29.1175 40.0733 29.369C40.3224 29.6205 40.6599 29.7649 41.0138 29.7714C41.1884 29.7872 41.3643 29.7664 41.5303 29.7102C41.6963 29.6541 41.8488 29.5639 41.978 29.4454C42.1071 29.3269 42.2101 29.1827 42.2803 29.0222C42.3505 28.8616 42.3864 28.6881 42.3857 28.5128C42.3825 28.1588 42.2413 27.82 41.9922 27.5685C41.743 27.317 41.4055 27.1727 41.0516 27.1661C40.877 27.1503 40.7011 27.1712 40.5351 27.2273C40.3691 27.2835 40.2166 27.3737 40.0875 27.4922C39.9583 27.6107 39.8553 27.7548 39.7851 27.9154C39.7149 28.076 39.679 28.2495 39.6797 28.4247Z" fill="var(--fill-0, #263238)"/>
<path id="Vector_174" d="M54.3799 28.0724C54.3862 28.4254 54.5285 28.7624 54.777 29.0133C55.0255 29.2641 55.3611 29.4095 55.714 29.4191C55.8886 29.4349 56.0645 29.414 56.2306 29.3579C56.3966 29.3017 56.549 29.2115 56.6782 29.0931C56.8073 28.9746 56.9103 28.8304 56.9805 28.6698C57.0507 28.5093 57.0866 28.3358 57.0859 28.1605C57.086 27.8077 56.9476 27.4689 56.7004 27.217C56.4533 26.9652 56.1172 26.8204 55.7644 26.8138C55.5888 26.7962 55.4115 26.8156 55.244 26.8709C55.0765 26.9262 54.9224 27.0161 54.7919 27.1348C54.6613 27.2535 54.5572 27.3983 54.4862 27.5598C54.4152 27.7213 54.379 27.896 54.3799 28.0724Z" fill="var(--fill-0, #263238)"/>
<path id="Vector_175" d="M39.4157 25.7061C39.592 25.8698 40.5988 25.102 42.0588 25.0768C43.5188 25.0517 44.576 25.7691 44.7522 25.5803C44.9284 25.3915 44.6516 25.1901 44.1859 24.8629C43.5495 24.4283 42.7912 24.2079 42.0211 24.2336C41.2659 24.2435 40.5337 24.4949 39.9318 24.951C39.529 25.3034 39.3402 25.618 39.4157 25.7061Z" fill="var(--fill-0, #263238)"/>
<path id="Vector_176" d="M54.0656 25.1146C54.2544 25.2783 55.211 24.435 56.6709 24.3217C58.1309 24.2085 59.1882 24.8503 59.3895 24.6615C59.5909 24.4727 59.2637 24.2714 58.7728 23.9693C58.1059 23.585 57.3373 23.4137 56.5703 23.4785C55.8126 23.5376 55.0938 23.8375 54.5187 24.3343C54.1034 24.7119 53.9775 25.0391 54.0656 25.1146Z" fill="var(--fill-0, #263238)"/>
<path id="Vector_177" d="M48.7288 36.2031C47.9571 35.9869 47.1632 35.8602 46.3626 35.8255C45.985 35.8255 45.6326 35.7248 45.5697 35.4731C45.5243 35.0891 45.6037 34.7008 45.7962 34.3655L46.8409 31.5085C47.8189 29.0913 48.6018 26.5997 49.1819 24.0575C48.0124 26.3918 47.0317 28.8161 46.2493 31.3071C45.8969 32.3014 45.5697 33.2579 45.2425 34.1767C45.0194 34.6294 44.9615 35.1458 45.0788 35.6367C45.1317 35.7678 45.2153 35.8843 45.3226 35.9763C45.43 36.0683 45.5579 36.1331 45.6955 36.1653C45.904 36.2249 46.1208 36.2504 46.3374 36.2408C47.1325 36.3388 47.9372 36.326 48.7288 36.2031Z" fill="var(--fill-0, #263238)"/>
<path id="Vector_178" d="M53.0325 37.1469C52.7934 37.1469 52.8186 38.7076 51.4844 39.8529C50.1503 40.9983 48.4638 40.8598 48.4638 41.1115C48.4638 41.3633 48.8414 41.4136 49.5588 41.4136C50.4812 41.4084 51.3724 41.0787 52.076 40.4822C52.7494 39.9023 53.1769 39.0878 53.2717 38.2042C53.3724 37.5245 53.1458 37.1343 53.0325 37.1469Z" fill="var(--fill-0, #263238)"/>
<path id="Vector_179" d="M53.3729 18.9349C53.5491 19.3125 54.9839 18.9349 56.7082 19.0104C58.4325 19.086 59.8421 19.3754 60.0435 19.0104C60.119 18.8342 59.8421 18.4818 59.2506 18.1546C58.465 17.7773 57.6048 17.5815 56.7334 17.5815C55.8619 17.5815 55.0017 17.7773 54.2161 18.1546C53.6246 18.4189 53.3729 18.7587 53.3729 18.9349Z" fill="var(--fill-0, #E0E0E0)"/>
<path id="Vector_180" d="M39.6283 21.7919C39.8926 22.1191 40.8869 21.7919 42.1455 21.7164C43.4041 21.6409 44.3733 21.9052 44.5998 21.5528C44.8264 21.2003 44.5369 21.0493 44.0838 20.7472C43.4832 20.3695 42.7777 20.1932 42.07 20.2438C41.3637 20.2669 40.6821 20.5088 40.1192 20.936C39.6409 21.2885 39.5276 21.6283 39.6283 21.7919Z" fill="var(--fill-0, #E0E0E0)"/>
<path id="Vector_181" d="M47.7469 3.36592C51.0444 1.93111 54.4678 2.49749 58.0423 2.90024C60.7963 3.15027 63.4421 4.09424 65.7324 5.644C67.5075 6.93334 68.9682 8.60709 70.0056 10.5402C71.043 12.4734 71.6302 14.6159 71.7234 16.8079C72.071 21.106 71.7526 25.4321 70.7794 29.6331L70.427 29.5576C70.774 30.6226 70.8305 31.761 70.5906 32.8551C70.4481 33.3844 70.1068 33.8382 69.6378 34.122C69.1688 34.4057 68.6084 34.4974 68.0734 34.378C66.8148 33.8998 66.8148 32.251 66.8148 30.9546C66.9909 26.5662 66.8521 22.1708 66.3995 17.8022C66.0974 14.5298 64.0836 10.5903 61.4783 9.13035C55.6132 5.88314 51.2836 9.13036 49.3075 9.92328C46.0603 7.34313 42.5992 9.0045 40.749 11.421C41.2902 7.87175 44.4367 4.81332 47.7469 3.36592Z" fill="var(--fill-0, #E0E0E0)"/>
<path id="Vector_182" d="M73.7371 13.7998C73.7371 14.0011 73.3596 14.2529 72.5793 14.3661C71.4832 14.4829 70.3748 14.3583 69.332 14.0011C67.8376 13.5008 66.419 12.7978 65.1157 11.9118C63.6809 10.9679 62.2335 9.88548 60.7105 9.01704C59.3805 8.20006 57.8745 7.71246 56.318 7.59481C55.0282 7.54039 53.7415 7.75915 52.5422 8.23671C50.4403 9.0548 49.3579 10.2127 48.9803 9.93582C48.8922 9.93582 48.8671 9.74704 48.9048 9.53307C48.9658 9.23562 49.0764 8.95055 49.232 8.68981C49.7933 7.7243 50.5791 6.90831 51.5227 6.31102C52.9372 5.36803 54.582 4.82847 56.2803 4.75036C57.2994 4.70771 58.3189 4.82665 59.3009 5.10277C60.3122 5.40649 61.2839 5.82897 62.1957 6.36138C63.7906 7.33141 65.3095 8.42114 66.7393 9.62117C67.8194 10.506 68.9637 11.3096 70.1627 12.0251C70.9686 12.4866 71.8104 12.8823 72.6799 13.2082C73.3218 13.4096 73.7246 13.5732 73.7371 13.7998Z" fill="var(--fill-0, white)"/>
<path id="Vector_183" d="M73.9636 19.0859C73.5635 19.2494 73.137 19.3389 72.705 19.3502C71.684 19.4206 70.6591 19.2968 69.6843 18.9852C68.7073 18.6672 67.8012 18.1628 67.0161 17.5001C66.6807 17.2435 66.395 16.9278 66.1728 16.5687C66.5181 16.8006 66.8462 17.0572 67.1545 17.3365C67.951 17.9232 68.8343 18.3819 69.7724 18.6958C70.7155 18.9986 71.7021 19.1432 72.6924 19.1237C73.5105 19.1237 73.951 19.0356 73.9636 19.0859Z" fill="var(--fill-0, white)"/>
<path id="Vector_184" d="M76.8207 25.5803C76.649 25.5624 76.4801 25.5244 76.3173 25.467C76.0152 25.3663 75.5621 25.2153 75.0587 24.9888C72.2377 23.8263 69.7162 22.0406 67.6832 19.7655C67.3759 19.4237 67.0861 19.0667 66.8148 18.6957C66.6996 18.5692 66.6061 18.4246 66.5379 18.2678C66.5379 18.2678 67.0287 18.7838 67.7965 19.6145C68.8403 20.6954 69.9821 21.6772 71.2073 22.5471C72.4379 23.4063 73.7389 24.16 75.0964 24.8C76.1536 25.2782 76.8333 25.53 76.8207 25.5803Z" fill="var(--fill-0, white)"/>
<path id="Vector_185" d="M54.2158 2.05692C54.2158 2.05692 53.662 2.29604 52.8061 2.6988C51.6816 3.19769 50.6741 3.92654 49.8484 4.83843C49.0498 5.77261 48.6044 6.95742 48.5898 8.18633C48.6163 8.69264 48.6964 9.1947 48.8289 9.68408C48.8289 9.68408 48.7282 9.57081 48.615 9.31909C48.4751 8.95617 48.3902 8.57435 48.3632 8.18633C48.3214 6.89084 48.771 5.62745 49.6218 4.64965C50.4655 3.69334 51.5277 2.95498 52.718 2.49742C53.1953 2.28407 53.699 2.13591 54.2158 2.05692Z" fill="var(--fill-0, white)"/>
<path id="Vector_186" d="M50.704 0.00543135C50.704 0.00543135 50.2131 0.357844 49.5461 1.05008C48.684 1.95231 48.0798 3.06938 47.7966 4.28471C47.5341 5.50234 47.608 6.76847 48.0106 7.94725C48.3126 8.86603 48.6651 9.3569 48.6147 9.39466C48.5016 9.30005 48.4077 9.1847 48.3378 9.05483C48.1227 8.73015 47.9414 8.38432 47.7966 8.02276C47.3156 6.8103 47.2108 5.4811 47.4959 4.20824C47.781 2.93538 48.4428 1.77787 49.3951 0.886453C49.6779 0.622457 49.9856 0.386422 50.3139 0.181636C50.553 0.0431888 50.6914 -0.0197408 50.704 0.00543135Z" fill="var(--fill-0, white)"/>
<path id="Vector_187" d="M70.4401 30.942C69.6691 30.9466 68.9178 30.6991 68.3004 30.2372C67.6246 29.8535 67.0905 29.2621 66.7775 28.5507C67.3125 29.0561 67.8756 29.5309 68.4641 29.9729C69.1019 30.3368 69.7619 30.6605 70.4401 30.942Z" fill="var(--fill-0, white)"/>
<path id="Vector_188" d="M70.8298 32.2007C69.995 32.253 69.1619 32.0739 68.4224 31.683C67.6829 31.2922 67.0657 30.7048 66.6386 29.9855C67.2332 30.5205 67.8781 30.9968 68.5643 31.4077C69.2969 31.7325 70.0545 31.9977 70.8298 32.2007Z" fill="var(--fill-0, white)"/>
<path id="Vector_189" d="M39.9681 12.8559C39.6622 12.8372 39.3668 12.7372 39.1123 12.5664C38.4709 12.1876 37.9378 11.6501 37.5642 11.0057C37.1919 10.3627 36.9925 9.63424 36.9852 8.89126C36.9657 8.58449 37.0219 8.27762 37.1488 7.99766C37.1676 8.29104 37.1676 8.58531 37.1488 8.87869C37.2224 9.57323 37.4365 10.2455 37.7781 10.8547C38.1309 11.4594 38.6121 11.9793 39.1878 12.3776C39.6787 12.6797 39.9933 12.8055 39.9681 12.8559Z" fill="var(--fill-0, white)"/>
<path id="Vector_190" d="M40.9385 10.9805C40.3159 10.4548 39.8064 9.80825 39.4407 9.08004C38.9957 8.40326 38.6997 7.63961 38.5723 6.83972C38.6604 6.83972 39.0631 7.79625 39.7176 8.929C40.3721 10.0617 41.014 10.9176 40.9385 10.9805Z" fill="var(--fill-0, white)"/>
<path id="Vector_191" d="M62.8247 25.4042C62.5548 25.713 62.2004 25.9361 61.8052 26.046C61.4408 26.2332 61.029 26.3077 60.6222 26.26C60.6222 26.1845 61.113 26.0335 61.7045 25.8069C62.0575 25.6214 62.4345 25.4859 62.8247 25.4042Z" fill="var(--fill-0, #EB996E)"/>
<path id="Vector_192" d="M63.8438 26.8263C63.3785 26.9186 62.8995 26.9186 62.4342 26.8263C61.9582 26.8417 61.4838 26.7648 61.0371 26.5998C61.5035 26.519 61.9803 26.519 62.4467 26.5998C62.9219 26.5956 63.3943 26.6722 63.8438 26.8263Z" fill="var(--fill-0, #EB996E)"/>
<path id="Vector_193" d="M39.1761 27.8206C39.1761 27.8962 38.8362 27.9591 38.3957 27.9591C37.9552 27.9591 37.628 27.9591 37.628 27.8458C37.628 27.7325 37.9678 27.7074 38.3957 27.7074C38.8237 27.7074 39.1761 27.7577 39.1761 27.8206Z" fill="var(--fill-0, #EB996E)"/>
<path id="Vector_194" d="M38.8098 27.0907C38.8098 27.1536 38.4825 27.0907 38.1553 26.839C37.8281 26.5873 37.5763 26.4362 37.6141 26.3733C37.6519 26.3104 37.9539 26.3733 38.2812 26.625C38.6084 26.8767 38.8475 27.0278 38.8098 27.0907Z" fill="var(--fill-0, #EB996E)"/>
<path id="Vector_195" d="M53.7884 14.1773C53.7884 14.1773 53.3353 14.3158 52.6179 14.6053C51.9005 14.8947 50.9691 15.3604 49.8867 15.8639C48.9629 16.2943 47.9604 16.5299 46.9416 16.5561C46.6356 16.5621 46.3304 16.5239 46.0354 16.4428C45.9201 16.4261 45.809 16.3877 45.7081 16.3295C45.7081 16.3295 46.1864 16.4177 46.9667 16.3295C47.9521 16.2483 48.9153 15.9926 49.8112 15.5744C50.881 15.1213 51.8501 14.643 52.5927 14.4165C52.9752 14.271 53.3793 14.1901 53.7884 14.1773Z" fill="var(--fill-0, #EB996E)"/>
<path id="Vector_196" d="M51.8617 13.9634C50.9842 14.495 50 14.8259 48.9795 14.9326C47.9729 15.1165 46.9385 15.0821 45.9463 14.8319C45.9463 14.7438 47.3056 14.92 48.9418 14.6809C50.578 14.4417 51.8366 13.8879 51.8617 13.9634Z" fill="var(--fill-0, #EB996E)"/>
<path id="Vector_197" d="M54.8573 37.4994C54.7944 37.4994 54.5678 36.9834 53.9637 36.7317C53.5485 36.6465 53.1203 36.6465 52.7051 36.7317C52.7051 36.7317 52.8058 36.5932 53.0449 36.5177C53.3563 36.4217 53.6913 36.4356 53.9937 36.557C54.2961 36.6784 54.5477 36.9001 54.7063 37.1848C54.8825 37.3358 54.895 37.4994 54.8573 37.4994Z" fill="var(--fill-0, #EB996E)"/>
<path id="Vector_198" d="M56.0915 37.2351C56.0285 37.2351 55.8775 36.631 55.2608 36.2534C54.8732 36.0407 54.4434 35.9161 54.0022 35.8884C54.0022 35.8884 54.128 35.7751 54.3923 35.7625C54.7411 35.7442 55.0862 35.8415 55.374 36.0394C55.6702 36.2226 55.8997 36.4962 56.0285 36.8197C56.1418 37.0463 56.1292 37.2351 56.0915 37.2351Z" fill="var(--fill-0, #EB996E)"/>
<path id="Vector_199" d="M41.2775 31.7223C41.4938 31.6802 41.7123 31.6508 41.932 31.6342C42.5493 31.5426 43.1432 31.3332 43.6815 31.0175C44.0577 30.7931 44.4045 30.5225 44.7135 30.212C45.0743 29.8409 45.3757 29.4163 45.6071 28.9534C45.8717 28.439 46.0382 27.8799 46.098 27.3046C46.098 26.7005 46.098 26.046 46.098 25.3789L46.2113 25.4922H35.06L35.1858 25.3789C35.1489 26.0969 35.1699 26.8166 35.2488 27.5311C35.3487 28.1716 35.5801 28.7844 35.9285 29.331C36.51 30.2446 37.3707 30.9464 38.3827 31.3321C39.0527 31.5703 39.7613 31.6813 40.472 31.6594C39.7482 31.7192 39.0198 31.6292 38.3324 31.3951C37.2702 31.0267 36.3619 30.3133 35.7522 29.3687C35.3833 28.8001 35.1349 28.1618 35.0223 27.4934C34.9356 26.7668 34.9062 26.0346 34.9341 25.3034V25.1775H46.3371V25.3034C46.3371 25.9705 46.3371 26.562 46.3371 27.2543C46.2607 27.8526 46.0774 28.4324 45.7959 28.9659C45.5466 29.4307 45.2284 29.8551 44.852 30.2246C44.5258 30.5367 44.1622 30.8072 43.7696 31.0301C43.2105 31.3407 42.5936 31.5334 41.9572 31.5965C41.7898 31.6133 41.6211 31.6133 41.4537 31.5965L41.2775 31.7223Z" fill="var(--fill-0, #455A64)"/>
<path id="Vector_200" d="M56.9848 31.7223C57.2054 31.681 57.4281 31.6516 57.6518 31.6342C58.2691 31.5426 58.863 31.3332 59.4013 31.0175C59.7776 30.7931 60.1243 30.5225 60.4333 30.212C60.7894 29.8369 61.0903 29.4132 61.327 28.9534C61.5916 28.439 61.758 27.8799 61.8178 27.3046C61.8807 26.7004 61.8178 26.046 61.8178 25.3789L61.9437 25.4922H50.8553L50.9686 25.3789C50.9442 26.0969 50.9653 26.8158 51.0316 27.5311C51.1885 28.3755 51.5588 29.1658 52.1073 29.8267C52.6559 30.4876 53.3644 30.9972 54.1655 31.3069C54.8359 31.5434 55.5442 31.6543 56.2548 31.6342C55.531 31.694 54.8026 31.604 54.1151 31.3699C53.0762 30.9894 52.1915 30.2772 51.5979 29.3435C51.2236 28.7776 50.9748 28.1382 50.8679 27.4682C50.7813 26.7416 50.7519 26.0094 50.7798 25.2782V25.1523H62.1702V25.2782C62.1702 25.9453 62.1702 26.5368 62.1702 27.2291C62.0994 27.827 61.9203 28.407 61.6416 28.9408C61.185 29.8214 60.4747 30.5447 59.6027 31.0175C59.0473 31.3261 58.4349 31.5188 57.8028 31.5838C57.6355 31.6007 57.4668 31.6007 57.2994 31.5838L56.9848 31.7223Z" fill="var(--fill-0, #455A64)"/>
<path id="Vector_201" d="M50.7292 26.8893C50.7292 26.8893 50.5278 26.6628 50.1754 26.3733C49.7085 26.0109 49.142 25.8001 48.5518 25.7692C47.9538 25.7637 47.3704 25.9537 46.8904 26.3104C46.5254 26.5747 46.3492 26.8138 46.3115 26.7886C46.2737 26.7634 46.4122 26.4866 46.7772 26.1593C47.2702 25.7353 47.9016 25.5069 48.5518 25.5174C49.2001 25.531 49.8198 25.7869 50.2887 26.2348C50.6411 26.5872 50.7543 26.8767 50.7292 26.8893Z" fill="var(--fill-0, #455A64)"/>
<path id="Vector_202" d="M71.5595 29.2806C71.0847 29.2151 70.614 29.1227 70.1498 29.0037C69.2688 28.8024 68.0731 28.5506 66.739 28.2989C65.4048 28.0472 64.2218 27.8584 63.303 27.72C62.8222 27.6796 62.3462 27.5953 61.8808 27.4682C62.3645 27.443 62.8496 27.4683 63.3281 27.5438C64.2092 27.6319 65.4426 27.7955 66.7767 28.0472C67.9266 28.2472 69.0651 28.5077 70.1875 28.8275C70.6597 28.9292 71.1196 29.0811 71.5595 29.2806Z" fill="var(--fill-0, #455A64)"/>
<path id="Vector_203" d="M40.8873 31.1183C40.4653 31.1704 40.037 31.1362 39.6287 31.0176C38.6555 30.8065 37.7535 30.3468 37.0108 29.6835C36.2803 29.0117 35.7711 28.1339 35.5508 27.1662C35.4442 26.7535 35.4442 26.3204 35.5508 25.9076C35.5508 25.9076 35.5508 26.3733 35.7774 27.0907C36.0339 28.011 36.539 28.8428 37.2373 29.4947C37.9562 30.1445 38.8188 30.6147 39.7546 30.8666C40.4216 31.0428 40.8873 31.0679 40.8873 31.1183Z" fill="var(--fill-0, white)"/>
<path id="Vector_204" d="M56.8217 30.8161C56.4273 30.8371 56.0321 30.7946 55.6512 30.6903C54.7034 30.527 53.8045 30.1527 53.0207 29.5953C52.2257 29.0157 51.6883 28.1486 51.523 27.1787C51.4755 26.887 51.4755 26.5895 51.523 26.2977C51.5393 26.1902 51.5779 26.0874 51.6363 25.9957C51.6 26.3766 51.6 26.7601 51.6363 27.141C51.8391 28.0419 52.3568 28.8408 53.0963 29.3939C53.8577 29.9218 54.7116 30.3018 55.6135 30.5141C56.0233 30.584 56.4272 30.6849 56.8217 30.8161Z" fill="var(--fill-0, white)"/>
<path id="Vector_205" d="M58.2191 61.2493C58.2191 61.2493 58.1058 61.2493 57.9422 61.1486C57.7251 60.9818 57.563 60.7539 57.4765 60.4941C57.3612 60.1213 57.2853 59.7375 57.2499 59.3488C57.2342 59.1331 57.1734 58.9231 57.0715 58.7324C56.9696 58.5416 56.8289 58.3743 56.6584 58.2412C56.2287 58.0712 55.8085 57.8779 55.3998 57.6623C55.0753 57.4096 54.8377 57.0621 54.7202 56.668C54.6471 56.4991 54.6093 56.3171 54.6093 56.1331C54.6093 55.9491 54.6471 55.767 54.7202 55.5982C54.6985 55.9429 54.7411 56.2886 54.846 56.6176C54.963 56.9608 55.1882 57.2568 55.4879 57.4609C55.8025 57.7126 56.2934 57.7378 56.7465 58.0273C56.9745 58.1697 57.151 58.3814 57.2499 58.6314C57.3423 58.8523 57.4017 59.0855 57.4262 59.3237C57.4565 59.6968 57.5153 60.0671 57.6023 60.4312C57.7002 60.7705 57.9198 61.0618 58.2191 61.2493Z" fill="var(--fill-0, #EB996E)"/>
<path id="Vector_206" d="M60.4083 60.5446C60.0365 60.4589 59.7068 60.245 59.4769 59.9404C59.2033 59.6294 59.0166 59.2517 58.9357 58.8455C58.8974 58.6036 58.8974 58.3573 58.9357 58.1155C58.9357 57.8637 59.0238 57.612 59.0238 57.3729C59.0217 57.148 58.9644 56.9271 58.8569 56.7295C58.7493 56.532 58.5949 56.3639 58.4071 56.2401C58.2428 56.0988 58.0872 55.9475 57.9414 55.787C57.8134 55.6367 57.719 55.4608 57.6645 55.271C57.6172 55.1346 57.6006 54.9894 57.6158 54.8458C57.6311 54.7023 57.6778 54.5638 57.7526 54.4403C57.9037 54.2767 58.017 54.2767 58.0295 54.2893C57.9554 54.3499 57.8916 54.4222 57.8407 54.5033C57.7899 54.6138 57.7636 54.734 57.7636 54.8557C57.7636 54.9773 57.7899 55.0975 57.8407 55.2081C57.8976 55.3715 57.9876 55.5215 58.1051 55.6486C58.2521 55.7959 58.4076 55.9346 58.5707 56.0639C58.7571 56.2215 58.9259 56.3987 59.0742 56.5926C59.2279 56.8274 59.3028 57.1051 59.2881 57.3855C59.2881 57.6624 59.2126 57.9015 59.1874 58.1406C59.1556 58.3576 59.1556 58.5781 59.1874 58.7951C59.2569 59.1718 59.4167 59.5259 59.6531 59.8272C59.8736 60.0971 60.1274 60.3382 60.4083 60.5446Z" fill="var(--fill-0, #EB996E)"/>
</g>
</svg>
