<svg preserveAspectRatio="none" width="100%" height="100%" overflow="visible" style="display: block;" viewBox="0 0 98 351" fill="none" xmlns="http://www.w3.org/2000/svg">
<g id="freepik--character-1--inject-30">
<path id="Vector" d="M27.1154 61.5174L31.961 60.8755L60.8838 61.0139L66.7364 94.3545L56.2648 100.157L31.961 82.4606L27.1154 61.5174Z" fill="var(--fill-0, #FFBE9D)"/>
<path id="Vector_2" d="M27.1155 61.5174C27.1155 61.5174 14.5294 64.6513 12.0122 67.4329C9.495 70.2144 -1.97092 115.801 0.294576 120.584C2.56007 125.367 16.6565 123.617 16.6565 123.617L24.2081 130.678L73.1806 126.386L77.4599 113.007L90.5871 106.45C90.5871 106.45 84.8227 73.6252 77.5102 66.5518C75.2928 64.4753 72.6511 62.9047 69.7675 61.9486C66.884 60.9925 63.8273 60.6736 60.8085 61.014L58.0144 89.0306L27.1155 61.5174Z" fill="var(--fill-0, #263238)"/>
<path id="Vector_3" d="M81.3613 114.366C81.2354 114.366 81.8521 112.378 82.1794 109.131C82.3708 107.236 82.4003 105.329 82.2675 103.429C81.946 98.7525 80.6604 94.1931 78.4917 90.0374C77.6213 88.345 76.6109 86.7284 75.471 85.2044C73.5076 82.5991 71.9721 81.2524 72.0602 81.1517C72.4686 81.4023 72.8412 81.7071 73.1677 82.0579C73.6162 82.4203 74.0369 82.8158 74.4263 83.241C74.9495 83.7697 75.4412 84.3286 75.8989 84.9149C77.106 86.4322 78.1758 88.0538 79.0958 89.7605C81.3372 93.9729 82.6262 98.626 82.8716 103.391C82.9776 105.328 82.9017 107.271 82.6451 109.193C82.5548 109.93 82.4246 110.661 82.2549 111.383C82.1587 111.939 82.0198 112.486 81.8395 113.02C81.7404 113.488 81.5795 113.941 81.3613 114.366Z" fill="var(--fill-0, #455A64)"/>
<path id="Vector_4" d="M90.6618 106.45C90.6618 106.45 95.4445 121.729 93.7706 128.161C92.0966 134.592 87.6537 139.614 83.1605 136.266C80.0266 133.95 72.1729 124.712 72.1729 124.712L77.5345 113.007L89.9948 106.79" fill="var(--fill-0, #FFBE9D)"/>
<path id="Vector_5" d="M37.8894 299.948L12.3145 318.261L34.9694 350.129C37.8768 347.775 32.2886 326.958 32.2886 326.958L49.1413 315.92L37.8894 299.948Z" fill="var(--fill-0, #263238)"/>
<g id="Group" opacity="0.6">
<path id="Vector_6" d="M26.7001 316.121C26.3881 315.883 25.9997 315.767 25.608 315.795C25.2163 315.822 24.8483 315.992 24.5731 316.272C24.3201 316.575 24.1933 316.964 24.2191 317.357C24.2449 317.751 24.4212 318.12 24.7115 318.387C25.0403 318.641 25.4516 318.763 25.8656 318.731C26.2797 318.698 26.6668 318.513 26.9518 318.211C27.1845 317.87 27.2752 317.452 27.2047 317.045C27.1342 316.639 26.9081 316.276 26.5743 316.033" fill="var(--fill-0, #455A64)"/>
</g>
<path id="Vector_7" d="M12.4656 318.185L14.9828 316.323L35.5611 347.788C35.5611 347.788 35.9387 349.651 34.8185 350.192L12.4656 318.185Z" fill="var(--fill-0, #455A64)"/>
<path id="Vector_8" d="M32.8296 327.361C32.6786 327.461 32.0493 326.731 31.0046 326.329C29.96 325.926 29.0286 325.964 28.9783 325.787C28.9279 325.611 30.0103 325.183 31.2563 325.712C32.5024 326.241 33.0058 327.247 32.8296 327.361Z" fill="var(--fill-0, #455A64)"/>
<path id="Vector_9" d="M33.824 331.678C33.6981 331.816 32.9555 331.338 31.9235 331.275C30.8914 331.212 30.0859 331.552 29.9852 331.401C29.8845 331.25 30.69 330.507 31.9738 330.608C33.2576 330.709 33.975 331.577 33.824 331.678Z" fill="var(--fill-0, #455A64)"/>
<path id="Vector_10" d="M31.1937 336.423C31.0679 336.297 31.6846 335.529 32.8173 335.328C33.9501 335.126 34.8185 335.605 34.7304 335.768C34.6423 335.932 33.8746 335.768 32.9432 335.982C32.0118 336.196 31.2944 336.561 31.1937 336.423Z" fill="var(--fill-0, #455A64)"/>
<path id="Vector_11" d="M36.3924 324.416C36.2036 324.416 35.9141 323.585 35.2345 322.742C34.5548 321.898 33.7871 321.42 33.8626 321.244C33.9381 321.068 34.9576 321.332 35.7505 322.326C36.5434 323.321 36.5686 324.403 36.3924 324.416Z" fill="var(--fill-0, #455A64)"/>
<path id="Vector_12" d="M39.6387 320.954C39.6387 320.954 39.0346 320.451 38.5059 319.356C38.2032 318.705 37.9792 318.021 37.8389 317.317C37.7564 316.902 37.7018 316.481 37.6753 316.058C37.633 315.813 37.633 315.561 37.6753 315.316C37.7112 315.135 37.8061 314.972 37.9451 314.851C38.0841 314.73 38.2592 314.659 38.443 314.649C38.6075 314.648 38.7698 314.686 38.9165 314.76C39.0632 314.835 39.19 314.943 39.2863 315.077C39.4339 315.28 39.5485 315.505 39.6261 315.744C39.7878 316.151 39.91 316.572 39.9911 317.002C40.1264 317.712 40.1518 318.438 40.0666 319.155C40.0577 319.826 39.8376 320.478 39.4373 321.017C39.3366 321.017 39.5758 320.275 39.6009 319.117C39.6437 318.05 39.4458 316.988 39.022 316.008C38.8709 315.605 38.6696 315.316 38.4682 315.341C38.2668 315.366 38.3549 315.341 38.3046 315.505C38.2786 315.684 38.2786 315.866 38.3046 316.046C38.3127 316.467 38.3505 316.888 38.4178 317.304C38.521 317.974 38.6896 318.631 38.9213 319.268C39.1915 319.816 39.431 320.379 39.6387 320.954Z" fill="var(--fill-0, #455A64)"/>
<path id="Vector_13" d="M39.2617 320.954C39.2617 320.954 39.5386 320.212 40.5203 319.431C41.4379 318.73 42.5308 318.294 43.6794 318.173C43.9516 318.108 44.2361 318.114 44.5051 318.191C44.7741 318.268 45.0187 318.414 45.2149 318.613C45.3078 318.76 45.357 318.93 45.357 319.104C45.357 319.278 45.3078 319.448 45.2149 319.595C45.0892 319.81 44.9323 320.005 44.7492 320.174C44.4295 320.483 44.0645 320.742 43.6668 320.942C43.0081 321.275 42.2781 321.444 41.5398 321.433C41.2026 321.463 40.8628 321.425 40.5406 321.322C40.2183 321.218 39.9204 321.05 39.6645 320.828C39.6645 320.715 40.3945 321.042 41.5272 320.954C42.1768 320.906 42.8082 320.717 43.3774 320.401C43.7111 320.22 44.0164 319.991 44.2836 319.721C44.5856 319.431 44.7744 319.104 44.6486 319.003C44.5186 318.907 44.3689 318.84 44.2101 318.807C44.0514 318.774 43.8874 318.777 43.7298 318.815C43.3423 318.851 42.9589 318.922 42.5844 319.029C41.9435 319.217 41.333 319.497 40.772 319.859C39.8155 320.413 39.3498 320.954 39.2617 320.954Z" fill="var(--fill-0, #455A64)"/>
<path id="Vector_14" d="M26.2218 318.513L26.5113 349.902L65.5911 349.739C65.352 345.963 45.101 338.6 45.101 338.6L45.7428 318.462L26.2218 318.513Z" fill="var(--fill-0, #263238)"/>
<g id="Group_2" opacity="0.6">
<path id="Vector_15" d="M33.006 336.964C32.6313 337.081 32.3125 337.331 32.1106 337.668C31.9087 338.004 31.8376 338.403 31.911 338.789C32.0122 339.169 32.2552 339.495 32.5901 339.701C32.9249 339.908 33.326 339.977 33.7108 339.896C34.1109 339.776 34.4515 339.51 34.6657 339.152C34.88 338.793 34.9524 338.367 34.8687 337.958C34.7213 337.573 34.4308 337.26 34.0579 337.084C33.6849 336.908 33.2585 336.883 32.8675 337.014" fill="var(--fill-0, #455A64)"/>
</g>
<path id="Vector_16" d="M26.5119 349.789V346.617L64.0814 347.876C64.0814 347.876 65.8308 348.644 65.6294 349.865L26.5119 349.789Z" fill="var(--fill-0, #455A64)"/>
<path id="Vector_17" d="M45.7302 338.411C45.7302 338.6 44.7736 338.688 43.8423 339.305C42.9109 339.922 42.4074 340.727 42.2312 340.652C42.055 340.576 42.3319 339.481 43.4898 338.751C44.6478 338.021 45.7679 338.235 45.7302 338.411Z" fill="var(--fill-0, #455A64)"/>
<path id="Vector_18" d="M49.8336 340.085C49.8336 340.274 49.0532 340.601 48.4113 341.407C47.7694 342.212 47.5807 343.068 47.3919 343.068C47.2031 343.068 47.0772 341.973 47.8953 340.991C48.7134 340.01 49.8336 339.909 49.8336 340.085Z" fill="var(--fill-0, #455A64)"/>
<path id="Vector_19" d="M52.1874 344.981C52.0112 344.981 51.7468 344.075 52.1874 343.018C52.6279 341.961 53.5718 341.558 53.6473 341.759C53.7229 341.961 53.1817 342.477 52.7915 343.332C52.4013 344.188 52.3762 344.956 52.1874 344.981Z" fill="var(--fill-0, #455A64)"/>
<path id="Vector_20" d="M45.3659 333.805C45.2904 333.981 44.4093 333.717 43.3395 333.805C42.2697 333.893 41.4138 334.233 41.3132 334.069C41.2125 333.905 42.018 333.226 43.2892 333.15C44.5604 333.075 45.4666 333.654 45.3659 333.805Z" fill="var(--fill-0, #455A64)"/>
<path id="Vector_21" d="M44.4213 329.173C43.7782 329.346 43.1009 329.346 42.4578 329.173C41.7528 329.046 41.0646 328.839 40.4063 328.556C40.0216 328.381 39.6476 328.184 39.2861 327.965C39.07 327.835 38.8712 327.679 38.6946 327.499C38.5672 327.367 38.489 327.194 38.473 327.011C38.4569 326.828 38.5041 326.645 38.6065 326.492C38.6979 326.356 38.8215 326.244 38.9665 326.168C39.1114 326.091 39.2731 326.051 39.4372 326.052C39.6835 326.045 39.9295 326.075 40.1672 326.14C40.5973 326.244 41.0182 326.383 41.4258 326.555C42.0871 326.854 42.6984 327.253 43.2382 327.738C44.1444 328.569 44.4968 329.286 44.3961 329.324C44.2954 329.362 43.8675 328.783 42.9361 328.065C42.4006 327.66 41.812 327.329 41.1866 327.084C40.8224 326.942 40.4479 326.829 40.0665 326.744C39.6511 326.631 39.2987 326.631 39.1855 326.819C39.0722 327.008 39.1855 326.92 39.1855 327.033C39.3123 327.17 39.4612 327.285 39.626 327.373C39.9561 327.59 40.301 327.783 40.658 327.952C41.2623 328.253 41.8946 328.493 42.5459 328.67C43.1815 328.796 43.808 328.964 44.4213 329.173Z" fill="var(--fill-0, #455A64)"/>
<path id="Vector_22" d="M44.1691 329.45C43.8055 328.889 43.6252 328.23 43.6531 327.562C43.6156 326.836 43.7007 326.108 43.9048 325.41C44.0249 324.999 44.1895 324.602 44.3956 324.227C44.5003 323.966 44.6716 323.736 44.8924 323.562C45.1132 323.387 45.3759 323.274 45.6542 323.232C45.8274 323.238 45.9958 323.291 46.1403 323.387C46.2848 323.482 46.3998 323.616 46.4723 323.774C46.5809 323.999 46.6491 324.242 46.6737 324.491C46.7428 324.929 46.7428 325.375 46.6737 325.813C46.5672 326.546 46.2819 327.242 45.843 327.839C45.0879 328.846 44.2949 329.098 44.2698 329.022C44.2446 328.947 44.8739 328.544 45.4529 327.575C45.7886 327.014 45.999 326.387 46.0696 325.737C46.1265 325.362 46.1265 324.98 46.0696 324.604C46.0696 324.189 45.8556 323.849 45.7046 323.9C45.5536 323.95 45.176 324.202 45.0124 324.541C44.827 324.882 44.6672 325.235 44.5341 325.599C44.3216 326.233 44.1988 326.894 44.1691 327.562C44.0684 328.707 44.2698 329.412 44.1691 329.45Z" fill="var(--fill-0, #455A64)"/>
<path id="Vector_23" d="M26.2218 318.513L26.5113 349.902L65.5911 349.739C65.352 345.963 45.101 338.6 45.101 338.6L45.7428 318.462L26.2218 318.513Z" fill="var(--fill-0, #263238)"/>
<g id="Group_3" opacity="0.6">
<path id="Vector_24" d="M33.006 336.964C32.6313 337.081 32.3125 337.331 32.1106 337.668C31.9087 338.004 31.8376 338.403 31.911 338.789C32.0122 339.169 32.2552 339.495 32.5901 339.701C32.9249 339.908 33.326 339.977 33.7108 339.896C34.1109 339.776 34.4515 339.51 34.6657 339.152C34.88 338.793 34.9524 338.367 34.8687 337.958C34.7213 337.573 34.4308 337.26 34.0579 337.084C33.6849 336.908 33.2585 336.883 32.8675 337.014" fill="var(--fill-0, #455A64)"/>
</g>
<path id="Vector_25" d="M26.5119 349.789V346.617L64.0814 347.876C64.0814 347.876 65.8308 348.644 65.6294 349.865L26.5119 349.789Z" fill="var(--fill-0, #455A64)"/>
<path id="Vector_26" d="M45.7302 338.411C45.7302 338.6 44.7736 338.688 43.8423 339.305C42.9109 339.922 42.4074 340.727 42.2312 340.652C42.055 340.576 42.3319 339.481 43.4898 338.751C44.6478 338.021 45.7679 338.235 45.7302 338.411Z" fill="var(--fill-0, #455A64)"/>
<path id="Vector_27" d="M49.8336 340.085C49.8336 340.274 49.0532 340.601 48.4113 341.407C47.7694 342.212 47.5807 343.068 47.3919 343.068C47.2031 343.068 47.0772 341.973 47.8953 340.991C48.7134 340.01 49.8336 339.909 49.8336 340.085Z" fill="var(--fill-0, #455A64)"/>
<path id="Vector_28" d="M52.1874 344.981C52.0112 344.981 51.7468 344.075 52.1874 343.018C52.6279 341.961 53.5718 341.558 53.6473 341.759C53.7229 341.961 53.1817 342.477 52.7915 343.332C52.4013 344.188 52.3762 344.956 52.1874 344.981Z" fill="var(--fill-0, #455A64)"/>
<path id="Vector_29" d="M45.3659 333.805C45.2904 333.981 44.4093 333.717 43.3395 333.805C42.2697 333.893 41.4138 334.233 41.3132 334.069C41.2125 333.905 42.018 333.226 43.2892 333.15C44.5604 333.075 45.4666 333.654 45.3659 333.805Z" fill="var(--fill-0, #455A64)"/>
<path id="Vector_30" d="M44.4213 329.173C43.7782 329.346 43.1009 329.346 42.4578 329.173C41.7528 329.046 41.0646 328.839 40.4063 328.556C40.0216 328.381 39.6476 328.184 39.2861 327.965C39.07 327.835 38.8712 327.679 38.6946 327.499C38.5672 327.367 38.489 327.194 38.473 327.011C38.4569 326.828 38.5041 326.645 38.6065 326.492C38.6979 326.356 38.8215 326.244 38.9665 326.168C39.1114 326.091 39.2731 326.051 39.4372 326.052C39.6835 326.045 39.9295 326.075 40.1672 326.14C40.5973 326.244 41.0182 326.383 41.4258 326.555C42.0871 326.854 42.6984 327.253 43.2382 327.738C44.1444 328.569 44.4968 329.286 44.3961 329.324C44.2954 329.362 43.8675 328.783 42.9361 328.065C42.4006 327.66 41.812 327.329 41.1866 327.084C40.8224 326.942 40.4479 326.829 40.0665 326.744C39.6511 326.631 39.2987 326.631 39.1855 326.819C39.0722 327.008 39.1855 326.92 39.1855 327.033C39.3123 327.17 39.4612 327.285 39.626 327.373C39.9561 327.59 40.301 327.783 40.658 327.952C41.2623 328.253 41.8946 328.493 42.5459 328.67C43.1815 328.796 43.808 328.964 44.4213 329.173Z" fill="var(--fill-0, #455A64)"/>
<path id="Vector_31" d="M44.1691 329.45C43.8055 328.889 43.6252 328.23 43.6531 327.562C43.6156 326.836 43.7007 326.108 43.9048 325.41C44.0249 324.999 44.1895 324.602 44.3956 324.227C44.5003 323.966 44.6716 323.736 44.8924 323.562C45.1132 323.387 45.3759 323.274 45.6542 323.232C45.8274 323.238 45.9958 323.291 46.1403 323.387C46.2848 323.482 46.3998 323.616 46.4723 323.774C46.5809 323.999 46.6491 324.242 46.6737 324.491C46.7428 324.929 46.7428 325.375 46.6737 325.813C46.5672 326.546 46.2819 327.242 45.843 327.839C45.0879 328.846 44.2949 329.098 44.2698 329.022C44.2446 328.947 44.8739 328.544 45.4529 327.575C45.7886 327.014 45.999 326.387 46.0696 325.737C46.1265 325.362 46.1265 324.98 46.0696 324.604C46.0696 324.189 45.8556 323.849 45.7046 323.9C45.5536 323.95 45.176 324.202 45.0124 324.541C44.827 324.882 44.6672 325.235 44.5341 325.599C44.3216 326.233 44.1988 326.894 44.1691 327.562C44.0684 328.707 44.2698 329.412 44.1691 329.45Z" fill="var(--fill-0, #455A64)"/>
<path id="Vector_32" d="M28.6755 135.171C25.4803 138.638 22.7358 142.495 20.5071 146.65C17.7633 152.301 16.0894 165.68 16.0894 165.68C16.0894 165.68 8.53773 182.52 9.67047 191.141C10.8032 199.763 18.4807 258.691 18.4807 258.691C18.4807 258.691 18.1031 315.983 23.5152 326.19L24.7738 331.703L46.7994 327.801L48.058 324.768L51.4059 212.148L65.1751 135.675L28.6755 135.171Z" fill="var(--fill-0, #455A64)"/>
<path id="Vector_33" d="M38.5319 158.179C38.4361 157.89 38.3852 157.589 38.3808 157.285C38.3808 156.706 38.2802 155.863 38.2676 154.768C38.28 152.059 38.4439 149.353 38.7584 146.662C39.1108 143.591 39.4381 140.822 39.6898 138.607C39.7683 137.492 39.9112 136.383 40.1177 135.284C40.2341 136.402 40.2341 137.528 40.1177 138.645C39.9793 140.722 39.6772 143.579 39.3374 146.713C38.9976 149.847 38.7584 152.704 38.6955 154.78C38.6326 156.857 38.62 158.179 38.5319 158.179Z" fill="var(--fill-0, #455A64)"/>
<path id="Vector_34" d="M42.6085 144.623C42.0087 143.171 41.6393 141.634 41.5135 140.067C41.2181 138.524 41.1756 136.942 41.3877 135.385C41.7065 136.909 41.9251 138.452 42.0422 140.004C42.3314 141.53 42.5206 143.073 42.6085 144.623Z" fill="var(--fill-0, #455A64)"/>
<path id="Vector_35" d="M56.7552 140.092C56.6671 140.092 56.7552 139.375 55.912 138.834C55.692 138.686 55.4391 138.595 55.1757 138.569C54.9123 138.543 54.6464 138.582 54.4016 138.683C54.105 138.795 53.8496 138.994 53.6693 139.255C53.489 139.516 53.3924 139.826 53.3924 140.143C53.3924 140.46 53.489 140.769 53.6693 141.03C53.8496 141.291 54.105 141.491 54.4016 141.603C54.6497 141.692 54.916 141.72 55.1772 141.682C55.4383 141.645 55.6863 141.544 55.8994 141.389C56.2891 141.06 56.57 140.621 56.7049 140.13C56.7049 140.13 56.793 140.294 56.7049 140.596C56.6486 141.037 56.4285 141.442 56.0882 141.728C55.8299 141.948 55.5196 142.098 55.187 142.164C54.8544 142.23 54.5103 142.21 54.1877 142.106C53.7876 141.971 53.4387 141.717 53.1887 141.377C52.9387 141.037 52.7997 140.628 52.7906 140.206C52.7828 139.782 52.9071 139.367 53.1462 139.017C53.3853 138.667 53.7273 138.401 54.1247 138.255C54.4419 138.139 54.7833 138.108 55.1162 138.163C55.4491 138.218 55.7622 138.358 56.0252 138.569C56.3763 138.838 56.6142 139.229 56.6923 139.664C56.8307 139.929 56.793 140.105 56.7552 140.092Z" fill="var(--fill-0, #455A64)"/>
<path id="Vector_36" d="M49.8457 264.317C49.8617 264.522 49.8617 264.728 49.8457 264.934V266.696C49.8457 268.231 49.8457 270.472 49.745 273.178C49.6191 278.64 49.317 286.192 48.952 294.574C48.587 302.956 48.3479 310.458 48.2346 315.97C48.2346 318.651 48.134 320.841 48.1088 322.44C48.1088 323.157 48.1088 323.698 48.1088 324.202C48.1219 324.407 48.1219 324.613 48.1088 324.818C48.0823 324.614 48.0823 324.406 48.1088 324.202C48.1088 323.748 48.1088 323.157 48.1088 322.44C48.1088 320.917 48.1088 318.664 48.1088 315.97C48.1088 310.495 48.3227 302.944 48.6751 294.574C49.0276 286.204 49.38 278.766 49.6191 273.241C49.7324 270.56 49.8205 268.37 49.896 266.771C49.896 266.054 49.896 265.513 49.9841 265.009C49.8978 264.788 49.8509 264.554 49.8457 264.317Z" fill="var(--fill-0, #455A64)"/>
<path id="Vector_37" d="M79.5613 150.639C79.5613 150.639 90.4105 224.381 91.5684 236.967C92.7264 249.553 47.8947 315.92 47.8947 315.92L27.757 293.932L57.1707 239.233L47.2654 184.76L60.5689 136.065L77.8748 135.8L79.5613 150.639Z" fill="var(--fill-0, #455A64)"/>
<path id="Vector_38" d="M20.1926 308.544C20.2087 309.08 20.2591 309.614 20.3436 310.143C20.4821 311.2 20.7338 312.748 21.0988 314.737C21.8288 318.727 23.0245 324.516 24.6229 331.741V331.892H24.7739L46.8122 328.028H46.9758V327.852C47.5925 312.748 48.3225 294.662 49.1029 275.292C49.9209 254.437 50.6761 235.105 51.2928 219.234C52.9416 206.484 54.3135 195.949 55.2574 188.574L56.365 179.99L56.6293 177.75C56.6293 177.246 56.6293 176.982 56.6293 176.982C56.6293 176.982 56.6293 177.246 56.5035 177.75C56.3776 178.253 56.3147 179.008 56.1762 179.978C55.8993 181.954 55.4966 184.823 54.9931 188.486C53.9988 195.849 52.564 206.383 50.8523 219.12C50.2104 234.979 49.4301 254.361 48.5868 275.166C47.8317 294.549 47.1143 312.622 46.5353 327.738L46.6989 327.537L24.6858 331.502L24.8746 331.627C23.2384 324.403 21.9924 318.626 21.2121 314.649C20.8219 312.66 20.5324 311.125 20.3688 310.08C20.2807 309.564 20.2304 309.161 20.1926 308.897C20.1549 308.633 20.1926 308.544 20.1926 308.544Z" fill="var(--fill-0, #263238)"/>
<path id="Vector_39" d="M24.2841 130.678C24.2841 130.678 14.1397 142.584 9.5206 151.332C-1.05171 171.331 2.72412 251.756 2.72412 251.756L96.9687 250.372L86.6607 167.152C85.275 156 82.8479 145.002 79.4111 134.303L76.1136 124.02L24.2841 130.678Z" fill="var(--fill-0, #263238)"/>
<path id="Vector_40" d="M63.4641 21.2798C63.1081 16.8419 61.1006 12.699 57.8381 9.66957C54.5757 6.64013 50.2956 4.94455 45.8436 4.91785H44.9248C35.007 5.47163 29.9348 14.219 30.778 24.1116L32.452 63.783C32.4694 64.1099 32.5744 64.426 32.7559 64.6984C32.9375 64.9708 33.189 65.1893 33.4841 65.3311L55.7488 75.7775L55.0566 54.9475C55.0566 54.9475 64.5969 53.4876 64.7353 43.9599C64.7731 39.3534 64.1438 29.8635 63.4641 21.2798Z" fill="var(--fill-0, #FFBE9D)"/>
<path id="Vector_41" d="M55.1066 54.9349C50.6831 54.9276 46.3545 53.6521 42.6338 51.2598C42.6338 51.2598 45.5538 58.1192 55.0688 57.2759L55.1066 54.9349Z" fill="var(--fill-0, #EB996E)"/>
<path id="Vector_42" d="M60.8089 27.4468C60.813 27.7927 60.6851 28.1272 60.4513 28.3821C60.2174 28.637 59.8952 28.7931 59.5502 28.8187C59.3727 28.8402 59.1927 28.8235 59.0221 28.77C58.8515 28.7164 58.6943 28.6271 58.5609 28.508C58.4276 28.389 58.3211 28.2428 58.2486 28.0794C58.1761 27.9159 58.1393 27.7389 58.1406 27.5601C58.1394 27.215 58.2683 26.8822 58.5016 26.628C58.7348 26.3737 59.0554 26.2167 59.3992 26.1882C59.5767 26.1668 59.7568 26.1834 59.9274 26.2369C60.0979 26.2905 60.2552 26.3798 60.3885 26.4989C60.5219 26.618 60.6284 26.7641 60.7009 26.9275C60.7733 27.091 60.8101 27.268 60.8089 27.4468Z" fill="var(--fill-0, #263238)"/>
<path id="Vector_43" d="M61.5006 25.4457C61.3244 25.6219 60.242 24.8542 58.8324 24.8668C57.4227 24.8794 56.3151 25.5968 56.1389 25.408C55.9627 25.2192 56.227 25.0178 56.6927 24.678C57.329 24.2393 58.0847 24.0065 58.8575 24.0109C59.6188 24.0064 60.3608 24.2493 60.972 24.7031C61.3999 25.043 61.5761 25.3702 61.5006 25.4457Z" fill="var(--fill-0, #263238)"/>
<path id="Vector_44" d="M46.9135 27.6986C46.9177 28.0444 46.7898 28.3789 46.556 28.6338C46.3221 28.8887 45.9999 29.0448 45.6549 29.0704C45.4784 29.09 45.2997 29.0719 45.1307 29.0175C44.9616 28.9631 44.806 28.8735 44.674 28.7546C44.5421 28.6357 44.4368 28.4902 44.3651 28.3277C44.2933 28.1653 44.2568 27.9894 44.2579 27.8118C44.2537 27.4659 44.3816 27.1315 44.6155 26.8766C44.8493 26.6217 45.1715 26.4656 45.5165 26.44C45.693 26.4204 45.8717 26.4385 46.0408 26.4929C46.2098 26.5473 46.3654 26.6369 46.4974 26.7558C46.6294 26.8747 46.7347 27.0202 46.8064 27.1826C46.8781 27.3451 46.9146 27.521 46.9135 27.6986Z" fill="var(--fill-0, #263238)"/>
<path id="Vector_45" d="M47.0021 25.4457C46.8385 25.6219 45.7435 24.8541 44.3465 24.8667C42.9494 24.8793 41.8293 25.5967 41.6405 25.4079C41.4517 25.2191 41.7412 25.0178 42.2068 24.6779C42.8432 24.2393 43.5988 24.0064 44.3717 24.0109C45.1322 24.0108 45.8729 24.2533 46.4861 24.7031C46.9392 25.0429 47.0902 25.3702 47.0021 25.4457Z" fill="var(--fill-0, #263238)"/>
<path id="Vector_46" d="M52.2997 37.05C53.073 36.8167 53.8717 36.6772 54.6784 36.6347C55.056 36.6347 55.4084 36.5214 55.4713 36.2571C55.5048 35.8707 55.4168 35.4835 55.2196 35.1495C54.8798 34.2433 54.5148 33.2994 54.1246 32.3051C53.0921 29.8911 52.2504 27.3998 51.6074 24.8541C52.8223 27.1791 53.8452 29.5995 54.6658 32.0911L55.7231 34.9607C55.9546 35.4104 56.0214 35.9269 55.9119 36.4207C55.8549 36.552 55.7704 36.6694 55.664 36.7649C55.5575 36.8605 55.4317 36.932 55.2951 36.9745C55.0896 37.0271 54.878 37.0524 54.6658 37.05C53.8807 37.1564 53.0848 37.1564 52.2997 37.05Z" fill="var(--fill-0, #263238)"/>
<path id="Vector_47" d="M47.3912 20.4364C47.2528 20.8392 45.7928 20.6504 44.0685 20.8518C42.3442 21.0531 40.9598 21.5188 40.7332 21.1664C40.5067 20.814 40.8717 20.6126 41.438 20.235C42.1924 19.7419 43.0573 19.4435 43.9552 19.3666C44.8363 19.2702 45.7278 19.3779 46.5606 19.6813C47.1395 19.933 47.4542 20.2476 47.3912 20.4364Z" fill="var(--fill-0, #263238)"/>
<path id="Vector_48" d="M60.8713 21.6949C60.6196 22.0222 59.6127 21.6949 58.3541 21.6949C57.0955 21.6949 56.1138 21.9215 55.8369 21.5691C55.7236 21.4055 55.8369 21.0656 56.3403 20.751C56.9431 20.3729 57.6453 20.184 58.3564 20.2087C59.0675 20.2334 59.755 20.4705 60.3301 20.8894C60.8461 21.1915 60.9846 21.5313 60.8713 21.6949Z" fill="var(--fill-0, #263238)"/>
<path id="Vector_49" d="M32.3013 31.1598C32.1377 31.0843 25.7565 29.209 26.0082 35.7286C26.26 42.2482 32.704 40.763 32.704 40.5113C32.704 40.2595 32.3013 31.1598 32.3013 31.1598Z" fill="var(--fill-0, #FFBE9D)"/>
<path id="Vector_50" d="M31.0043 38.1073C31.0043 38.1073 30.9036 38.1954 30.7022 38.2835C30.5686 38.3392 30.4253 38.3679 30.2806 38.3679C30.1358 38.3679 29.9925 38.3392 29.8589 38.2835C29.4252 38.0259 29.0688 37.6562 28.8274 37.2133C28.586 36.7703 28.4684 36.2704 28.4871 35.7663C28.4529 35.208 28.5432 34.6492 28.7514 34.1301C28.8097 33.9263 28.9154 33.7391 29.0597 33.5838C29.2041 33.4285 29.383 33.3095 29.582 33.2365C29.7114 33.2004 29.8491 33.2095 29.9726 33.2621C30.0961 33.3147 30.1981 33.4077 30.2617 33.526C30.3498 33.7022 30.2617 33.8406 30.3498 33.8532C30.4379 33.8658 30.4882 33.7399 30.4253 33.463C30.3866 33.3056 30.2928 33.1672 30.161 33.0729C30.0719 33.0062 29.9701 32.9584 29.8619 32.9325C29.7537 32.9065 29.6414 32.9029 29.5317 32.9218C29.2656 32.9826 29.0194 33.1105 28.8167 33.2934C28.614 33.4762 28.4615 33.7079 28.3738 33.9665C28.1104 34.537 27.9936 35.1643 28.034 35.7914C28.0193 36.3726 28.1763 36.9452 28.4852 37.4376C28.7941 37.9301 29.2413 38.3206 29.7708 38.5604C29.9472 38.6032 30.1308 38.6074 30.3089 38.5726C30.487 38.5379 30.6556 38.465 30.8029 38.359C31.0043 38.2583 31.0294 38.1199 31.0043 38.1073Z" fill="var(--fill-0, #EB996E)"/>
<path id="Vector_51" d="M36.4163 11.7898L63.6022 12.3814C62.6709 10.5341 61.2957 8.947 59.5998 7.76227C56.0634 5.03907 51.7639 3.49 47.3032 3.33196C42.8603 3.25644 33.8487 8.65588 30.6267 11.7143C28.1095 14.156 28.1095 16.283 28.1095 16.283C27.6941 19.7945 29.6701 23.8347 30.4505 27.2707C30.8532 29.0453 31.6335 34.4448 31.6335 34.4448C33.1313 34.4448 33.6977 33.1862 33.4711 31.7765L33.1816 25.9617C34.6787 24.7754 35.7496 23.1348 36.2331 21.2869C36.7167 19.4391 36.5866 17.4842 35.8625 15.7167C35.4471 15.188 34.629 12.7715 36.4163 11.7898Z" fill="var(--fill-0, #455A64)"/>
<path id="Vector_52" d="M42.1301 32.3929C42.1077 32.3984 42.0844 32.3991 42.0617 32.395C42.039 32.3908 42.0175 32.3819 41.9985 32.3688C41.9795 32.3558 41.9635 32.3389 41.9515 32.3192C41.9395 32.2995 41.9318 32.2775 41.9289 32.2546C41.9234 32.2331 41.9222 32.2107 41.9256 32.1888C41.929 32.1668 41.9368 32.1458 41.9485 32.127C41.9603 32.1082 41.9758 32.0919 41.994 32.0793C42.0123 32.0667 42.0329 32.0579 42.0546 32.0535C42.077 32.048 42.1003 32.0472 42.123 32.0514C42.1457 32.0555 42.1672 32.0644 42.1862 32.0775C42.2052 32.0906 42.2212 32.1075 42.2332 32.1272C42.2452 32.1469 42.2529 32.1689 42.2558 32.1917C42.2614 32.2132 42.2625 32.2356 42.2591 32.2576C42.2557 32.2795 42.2479 32.3005 42.2362 32.3193C42.2244 32.3382 42.2089 32.3544 42.1907 32.367C42.1725 32.3797 42.1518 32.3885 42.1301 32.3929Z" fill="var(--fill-0, #AA6550)"/>
<path id="Vector_53" d="M44.9249 31.7634C44.8369 31.7634 44.7489 31.7635 44.7238 31.6C44.6986 31.4366 44.7238 31.3863 44.8495 31.3737C44.9752 31.3611 45.0255 31.3737 45.0506 31.5372C45.0758 31.7006 45.0381 31.7509 44.9249 31.7634Z" fill="var(--fill-0, #AA6550)"/>
<path id="Vector_54" d="M46.8126 31.7255C46.7245 31.7255 46.6365 31.6249 46.624 31.4866C46.6114 31.3483 46.624 31.21 46.7497 31.1974C46.8754 31.1849 46.9257 31.298 46.9383 31.4489C46.9508 31.5997 46.9006 31.7129 46.8126 31.7255Z" fill="var(--fill-0, #AA6550)"/>
<path id="Vector_55" d="M43.5023 34.155C43.4143 34.155 43.3389 34.155 43.3389 34.0544C43.3389 33.9539 43.4143 33.9539 43.5023 33.9539C43.5903 33.9539 43.6657 33.9539 43.6657 34.0544C43.6657 34.155 43.5903 34.155 43.5023 34.155Z" fill="var(--fill-0, #AA6550)"/>
<path id="Vector_56" d="M46.07 33.5633C46.0475 33.5651 46.0249 33.5621 46.0036 33.5547C45.9823 33.5472 45.9627 33.5355 45.9462 33.5201C45.9297 33.5048 45.9165 33.4862 45.9075 33.4655C45.8985 33.4448 45.8939 33.4224 45.894 33.3999C45.8865 33.355 45.8968 33.3089 45.9226 33.2714C45.9484 33.2339 45.9877 33.2079 46.0323 33.1987C46.0789 33.1987 46.1237 33.2173 46.1567 33.2503C46.1897 33.2833 46.2083 33.3281 46.2083 33.3747C46.2139 33.3964 46.2146 33.4191 46.2104 33.4411C46.2062 33.463 46.1971 33.4838 46.1839 33.5019C46.1707 33.5199 46.1536 33.5348 46.1339 33.5454C46.1142 33.5561 46.0923 33.5622 46.07 33.5633Z" fill="var(--fill-0, #AA6550)"/>
<path id="Vector_57" d="M59.4233 32.0026C59.3797 32.0015 59.3377 31.9854 59.3047 31.9568C59.2717 31.9283 59.2496 31.8892 59.2421 31.8462C59.2347 31.8031 59.2425 31.7589 59.264 31.7209C59.2856 31.683 59.3197 31.6537 59.3604 31.6381C59.3829 31.6345 59.4058 31.6357 59.4278 31.6415C59.4498 31.6473 59.4703 31.6577 59.488 31.6719C59.5058 31.6861 59.5203 31.7038 59.5309 31.724C59.5414 31.7441 59.5475 31.7662 59.549 31.7889C59.5605 31.8339 59.5537 31.8816 59.5302 31.9217C59.5066 31.9617 59.4682 31.9908 59.4233 32.0026Z" fill="var(--fill-0, #AA6550)"/>
<path id="Vector_58" d="M61.4003 31.8263C61.3761 31.8264 61.3521 31.8215 61.3299 31.8118C61.3077 31.8022 61.2877 31.7881 61.2712 31.7704C61.2547 31.7527 61.242 31.7318 61.2339 31.709C61.2258 31.6861 61.2226 31.6619 61.2243 31.6378C61.2188 31.6146 61.218 31.5906 61.222 31.5671C61.2261 31.5437 61.2348 31.5213 61.2477 31.5013C61.2607 31.4813 61.2775 31.4642 61.2972 31.4509C61.317 31.4376 61.3392 31.4285 61.3626 31.424C61.4506 31.424 61.526 31.4995 61.5386 31.6126C61.5512 31.7257 61.4003 31.8263 61.4003 31.8263Z" fill="var(--fill-0, #AA6550)"/>
<path id="Vector_59" d="M57.7506 32.0404C57.7316 32.0462 57.7116 32.0482 57.6919 32.0463C57.6721 32.0444 57.6529 32.0386 57.6354 32.0293C57.6179 32.0199 57.6024 32.0072 57.5898 31.9918C57.5772 31.9765 57.5677 31.9588 57.562 31.9398C57.5584 31.92 57.5588 31.8996 57.5632 31.8799C57.5676 31.8603 57.576 31.8417 57.5877 31.8253C57.5994 31.8089 57.6143 31.795 57.6315 31.7844C57.6486 31.7738 57.6678 31.7668 57.6877 31.7638C57.7276 31.7558 57.769 31.763 57.8039 31.7839C57.8387 31.8048 57.8646 31.838 57.8763 31.877C57.88 31.9151 57.869 31.9532 57.8457 31.9835C57.8224 32.0139 57.7883 32.0342 57.7506 32.0404Z" fill="var(--fill-0, #AA6550)"/>
<path id="Vector_60" d="M59.1589 33.9913C59.1159 34.002 59.0704 33.9972 59.0306 33.9777C58.9907 33.9583 58.959 33.9254 58.941 33.8849C58.923 33.8443 58.9198 33.7987 58.9321 33.7561C58.9444 33.7135 58.9713 33.6766 59.008 33.6518C59.0286 33.6439 59.0506 33.6402 59.0727 33.641C59.0948 33.6418 59.1164 33.6471 59.1364 33.6565C59.1564 33.6659 59.1742 33.6792 59.1889 33.6957C59.2036 33.7122 59.2148 33.7315 59.2218 33.7524C59.2447 33.7925 59.251 33.84 59.2393 33.8847C59.2275 33.9294 59.1987 33.9677 59.1589 33.9913Z" fill="var(--fill-0, #AA6550)"/>
<path id="Vector_61" d="M60.7829 33.6263C60.7638 33.6253 60.7451 33.6199 60.7284 33.6105C60.7116 33.6011 60.6972 33.5881 60.6863 33.5723C60.6754 33.5565 60.6682 33.5385 60.6653 33.5195C60.6625 33.5005 60.664 33.4811 60.6698 33.4628C60.6753 33.4439 60.6848 33.4264 60.6976 33.4114C60.7104 33.3965 60.7263 33.3844 60.7441 33.3761C60.762 33.3677 60.7814 33.3633 60.8011 33.3631C60.8208 33.3629 60.8403 33.3669 60.8584 33.3748C60.8775 33.3759 60.8962 33.3813 60.913 33.3906C60.9297 33.4 60.9441 33.413 60.955 33.4288C60.9659 33.4446 60.9731 33.4627 60.976 33.4816C60.9788 33.5006 60.9773 33.52 60.9715 33.5383C60.966 33.5572 60.9566 33.5747 60.9437 33.5897C60.9309 33.6047 60.915 33.6167 60.8972 33.625C60.8793 33.6334 60.8599 33.6378 60.8402 33.638C60.8205 33.6382 60.801 33.6342 60.7829 33.6263Z" fill="var(--fill-0, #AA6550)"/>
<path id="Vector_62" d="M30.451 12.0919C30.1492 10.8873 30.1306 9.62924 30.3964 8.41623C30.6622 7.20322 31.2053 6.06825 31.9831 5.10024C32.7609 4.13223 33.7524 3.35749 34.8797 2.83672C36.007 2.31595 37.2396 2.0633 38.4809 2.09856C39.731 2.28357 40.993 2.37612 42.2567 2.37546C44.0286 1.98748 45.8458 1.84769 47.6561 1.96012C50.274 2.21184 54.1002 3.88579 56.0133 4.26337C57.9264 4.64096 59.2353 2.6146 59.2353 2.6146C59.3612 3.62149 59.1472 4.38923 58.3921 4.76681C60.3807 4.9556 61.9162 2.6146 61.9162 2.6146C62.0764 3.17515 62.0764 3.76935 61.9163 4.32992C61.7561 4.89048 61.4422 5.39499 61.01 5.78628C62.1428 6.5915 63.3845 7.23143 64.6977 7.68679C64.6977 7.68679 67.3156 8.05177 66.9506 6.59179C66.9506 6.59179 71.4942 12.7464 64.4334 18.7499C62.4574 20.4239 59.1976 19.4799 56.8817 18.2088C54.8302 17.076 52.9926 15.1252 50.6516 15.2007C48.3106 15.2762 46.0955 17.5543 43.7167 17.0886C42.4961 16.6947 41.4104 15.9665 40.5828 14.9867C39.7617 13.9993 38.6143 13.3385 37.3481 13.124C36.0895 13.0485 34.9568 13.6022 35.4099 14.7979L30.3754 12.0919" fill="var(--fill-0, #263238)"/>
<path id="Vector_63" d="M52.1619 41.3294C52.1665 40.8778 52.0626 40.4318 51.8589 40.0288C51.6552 39.6258 51.3577 39.2776 50.9914 39.0135C50.621 38.7712 50.1933 38.6308 49.7514 38.6065C49.3094 38.5822 48.8689 38.6748 48.4742 38.8751C48.0801 39.1 47.7641 39.4398 47.5684 39.8491C47.3727 40.2585 47.3067 40.7178 47.3792 41.1657C47.4863 41.5557 47.6823 41.9155 47.9519 42.217C48.2214 42.5184 48.5571 42.7534 48.9326 42.9034C49.3082 43.0533 49.7134 43.1143 50.1164 43.0814C50.5195 43.0485 50.9094 42.9227 51.2557 42.7138C51.528 42.5451 51.753 42.3099 51.9093 42.0302C52.0656 41.7506 52.1482 41.4358 52.1493 41.1154" fill="var(--fill-0, #FF725E)"/>
<path id="Vector_64" d="M48.0588 38.6863C48.2602 38.6863 48.4615 40.0456 49.7957 40.8763C51.1298 41.7069 52.615 41.342 52.6527 41.5307C52.6905 41.7195 52.3506 41.8454 51.7213 41.9587C50.9009 42.0839 50.0626 41.9144 49.3552 41.4804C48.675 41.071 48.1825 40.4113 47.9833 39.6428C47.8448 39.0261 47.9581 38.6863 48.0588 38.6863Z" fill="var(--fill-0, #263238)"/>
<path id="Vector_65" d="M63.275 18.7247L63.4135 19.2533C65.4764 17.7822 67.1943 15.8796 68.4479 13.6777C69.0666 12.5698 69.4346 11.3395 69.526 10.0739C69.6173 8.80818 69.4297 7.53787 68.9765 6.35258C68.4892 5.17797 67.6319 4.19451 66.5347 3.55163C65.4374 2.90875 64.1604 2.6416 62.8975 2.79074C62.6623 2.17227 62.2885 1.61591 61.8047 1.16443C61.321 0.712957 60.7403 0.378357 60.1071 0.186331C59.4739 -0.00569495 58.8051 -0.0500306 58.1521 0.0567178C57.4991 0.163466 56.8792 0.418472 56.3401 0.802134C55.7433 1.38051 55.0648 1.86816 54.3263 2.24953C53.0677 2.69004 51.8091 1.93487 50.5505 1.4566C49.4531 1.00067 48.2576 0.831744 47.0768 0.96574C45.8886 1.11282 44.8047 1.71797 44.0561 2.65229C43.5614 3.39332 43.286 4.25893 43.2615 5.14955C43.237 6.04017 43.4645 6.91963 43.9176 7.68672C44.8839 9.22513 46.3788 10.3575 48.1214 10.871C49.8559 11.366 51.6545 11.5993 53.4579 11.5632" fill="var(--fill-0, #263238)"/>
<path id="Vector_66" d="M4.42188 121.893C4.42188 121.893 6.46082 135.662 7.02719 137.336C7.59357 139.01 12.2127 142.987 15.5606 143.264C18.9085 143.541 28.5368 143.264 33.1811 139.211C39.8643 133.459 45.3392 115.675 45.3392 115.675L53.2433 117.865C53.2433 117.865 62.406 125.669 63.9163 124.574C65.4266 123.479 63.652 121.893 63.652 121.893L58.6176 116.38C58.6176 116.38 67.0125 122.673 67.969 123.277C68.9256 123.881 70.4862 122.912 70.0835 121.792C69.6807 120.672 62.1668 114.316 62.1668 114.316C62.1668 114.316 71.2288 119.98 72.6133 120.307C73.595 120.534 74.8662 119.741 74.3124 118.62C73.7586 117.5 62.9849 109.659 62.9849 109.659C62.9849 109.659 74.5767 111.711 75.2438 111.786C76.2507 111.912 77.245 110.024 75.936 109.47C74.6271 108.917 56.5157 102.372 56.5157 102.372C56.5157 102.372 61.3739 97.5136 61.1851 94.8957C61.2264 93.5965 60.7771 92.3294 59.9265 91.3464C59.9265 91.3464 59.6874 90.5661 57.9379 93.763C57.3655 95.0022 56.5537 96.1161 55.5493 97.0405C54.5449 97.965 53.3677 98.6818 52.0854 99.1498C49.6563 100.132 37.3345 104.801 37.3345 104.801L16.7059 123.617L4.42188 121.893Z" fill="var(--fill-0, #FFBE9D)"/>
<path id="Vector_67" d="M21.9298 100.408C22.1471 101.328 22.2486 102.271 22.2318 103.215C22.3199 105.485 22.2821 107.758 22.1186 110.024C21.9619 112.287 21.6761 114.54 21.2627 116.77C21.1443 117.71 20.9118 118.631 20.5705 119.514C20.3691 119.514 21.0991 115.247 21.4641 109.974C21.8291 104.7 21.7284 100.421 21.9298 100.408Z" fill="var(--fill-0, #455A64)"/>
<path id="Vector_68" d="M78.2783 113.12L71.9853 132.264L86.6229 127.179L92.5132 107.683L91.9846 106.689L78.2783 113.12Z" fill="var(--fill-0, #455A64)"/>
<path id="Vector_69" d="M78.9457 104.184C78.7678 104.643 78.6856 105.134 78.7043 105.626C78.7229 106.118 78.842 106.601 79.0541 107.046C79.2663 107.49 79.5671 107.886 79.9381 108.21C80.309 108.534 80.7422 108.779 81.2112 108.929C83.4719 109.704 85.8097 110.231 88.1839 110.502V113.561L79.2981 117.261C79.2981 117.261 78.4926 117.186 77.6116 117.135C76.7691 117.058 75.9197 117.113 75.0943 117.299C74.7042 117.639 73.7602 118.847 75.5097 119.451C76.7767 119.862 78.0784 120.157 79.3988 120.332H73.4582C73.4582 120.332 71.5325 122.736 74.8678 123.353C76.045 123.49 77.1998 123.777 78.3038 124.209L72.2373 123.743C72.1191 124.21 72.1572 124.703 72.3459 125.146C72.5345 125.59 72.8634 125.959 73.282 126.197C74.7923 127.305 78.3164 127.204 78.3164 127.204H88.2846L95.9872 119.401C96.731 118.313 97.11 117.017 97.0696 115.7C96.969 113.586 96.969 113.385 96.3774 112.894C95.7859 112.403 90.764 107.96 90.764 107.96L82.5579 105.732L78.9457 104.184Z" fill="var(--fill-0, #FFBE9D)"/>
<path id="Vector_70" d="M62.2681 228.975C62.2462 228.728 62.2462 228.48 62.2681 228.233C62.2681 227.679 62.2681 226.974 62.2681 226.118C62.2681 224.281 62.2051 221.612 62.117 218.327C61.9283 211.757 61.4374 202.683 60.3298 192.715C59.2222 182.747 57.649 173.836 56.3652 167.354C55.7233 164.119 55.1066 161.526 54.7794 159.727L54.3388 157.65C54.2746 157.412 54.2408 157.167 54.2382 156.92C54.3378 157.146 54.4137 157.383 54.4647 157.625C54.6157 158.153 54.7919 158.883 55.0185 159.664C55.4968 161.451 56.1135 164.031 56.8183 167.215C58.2154 173.647 59.839 182.608 60.9717 192.601C62.1045 202.595 62.5072 211.695 62.5701 218.277C62.5701 221.575 62.5701 224.243 62.5701 226.08L62.482 228.195C62.4481 228.464 62.3761 228.727 62.2681 228.975Z" fill="var(--fill-0, #455A64)"/>
</g>
</svg>
