<svg preserveAspectRatio="none" width="100%" height="100%" overflow="visible" style="display: block;" viewBox="0 0 231 143" fill="none" xmlns="http://www.w3.org/2000/svg">
<g id="freepik--Desk--inject-30">
<path id="Vector" d="M55.9075 5.99097H47.3867V142.575H55.9075V5.99097Z" fill="var(--fill-0, #E0E0E0)"/>
<path id="Vector_2" d="M55.9075 142.575C55.9075 142.575 55.9075 142.323 55.9075 141.858C55.9075 141.392 55.9075 140.675 55.9075 139.794C55.9075 137.956 55.9075 135.3 55.9075 131.877C55.9075 124.992 55.8445 115.062 55.8068 102.753C55.8068 78.1596 55.7313 44.0639 55.6683 5.991L55.9956 6.31821H47.4748L47.802 5.991C47.802 69.513 47.7139 123.495 47.5755 142.575L47.4748 142.462L53.8559 142.525H55.4544H55.9956H55.4921H53.9189H47.4748H47.3741V142.412C47.2482 123.331 47.1602 69.3493 47.1602 5.82737V5.50012H56.3354V5.82737C56.3354 43.9884 56.2347 78.1722 56.197 102.841C56.197 115.112 56.1214 125.018 56.1088 131.877C56.1088 135.263 56.1088 137.906 56.1088 139.718V141.744C55.9326 142.349 55.9075 142.575 55.9075 142.575Z" fill="var(--fill-0, #263238)"/>
<path id="Vector_3" d="M187.105 6.10425H178.584V142.688H187.105V6.10425Z" fill="var(--fill-0, #E0E0E0)"/>
<path id="Vector_4" d="M187.105 142.739C187.105 142.739 187.105 142.487 187.105 142.021V139.957C187.105 138.12 187.105 135.464 187.105 132.041C187.105 125.169 187.042 115.226 187.004 102.929C187.004 78.3232 186.916 44.2275 186.866 6.15464L187.193 6.48186H178.672L178.999 6.15464C178.999 69.6766 178.899 123.658 178.773 142.739L178.672 142.638L185.053 142.701H186.652H187.193H186.689H185.103L178.672 142.764H178.559V142.739C178.433 123.658 178.345 69.7395 178.345 6.15464V5.82739H187.52V6.15464C187.52 44.3156 187.419 78.4994 187.382 103.168C187.382 115.44 187.306 125.345 187.281 132.204C187.281 135.59 187.281 138.233 187.281 140.045C187.281 140.914 187.281 141.593 187.281 142.072C187.281 142.55 187.105 142.739 187.105 142.739Z" fill="var(--fill-0, #263238)"/>
<path id="Vector_5" d="M230.527 0H0V8.31942H230.527V0Z" fill="var(--fill-0, #455A64)"/>
</g>
</svg>
