<svg preserveAspectRatio="none" width="100%" height="100%" overflow="visible" style="display: block;" viewBox="0 0 393 415" fill="none" xmlns="http://www.w3.org/2000/svg">
<g id="left illustration">
<path id="Vector" d="M224.727 404.514C224.385 404.514 224.043 404.423 223.736 404.245L57.6291 306.532C57.158 306.256 56.8265 305.796 56.7114 305.262C56.5962 304.728 56.7079 304.173 57.022 303.726L190.808 113.607C191.429 112.724 192.647 112.511 193.529 113.133C194.412 113.754 194.625 114.972 194.004 115.855L61.4423 304.241L222.948 399.247L228.193 302.186C228.252 301.108 229.159 300.291 230.248 300.34C231.327 300.399 232.15 301.321 232.094 302.395L226.675 402.663C226.637 403.344 226.249 403.958 225.646 404.279C225.359 404.436 225.042 404.513 224.724 404.513L224.727 404.514ZM231.73 274.98C231.695 274.98 231.66 274.98 231.622 274.977C230.544 274.917 229.72 273.996 229.776 272.921L241.948 47.7389L210.873 91.8963C210.252 92.7792 209.034 92.9921 208.151 92.3709C207.268 91.7498 207.055 90.5319 207.677 89.649L242.67 39.9261C243.173 39.2142 244.083 38.9176 244.907 39.2037C245.731 39.4899 246.264 40.2855 246.219 41.1544L233.678 273.135C233.622 274.175 232.76 274.981 231.73 274.981L231.73 274.98Z" fill="url(#paint0_linear_27896_6358)" fill-opacity="0.25"/>
<path id="Vector_2" d="M381.06 306.801H271.51C270.432 306.801 269.556 305.925 269.556 304.847C269.556 303.768 270.432 302.893 271.51 302.893H377.978L301.891 141.208L84.1855 223.786C83.1735 224.17 82.0464 223.66 81.666 222.652C81.2822 221.644 81.7917 220.513 82.8001 220.133L302.203 136.913C303.155 136.554 304.227 136.983 304.663 137.908L382.83 304.014C383.116 304.618 383.07 305.33 382.711 305.895C382.355 306.46 381.734 306.802 381.064 306.802L381.06 306.801ZM242.2 306.801H58.6201C57.9675 306.801 57.3568 306.473 56.994 305.932L17.9106 247.307C17.5791 246.811 17.4954 246.194 17.6768 245.625C17.8583 245.06 18.2875 244.606 18.8458 244.393L55.3957 230.529C56.4077 230.145 57.5348 230.654 57.9152 231.663C58.299 232.671 57.7895 233.802 56.7811 234.182L22.5235 247.174L59.6665 302.892H242.201C243.28 302.892 244.156 303.768 244.156 304.846C244.152 305.924 243.276 306.8 242.198 306.8L242.2 306.801Z" fill="url(#paint1_linear_27896_6358)" fill-opacity="0.25"/>
<path id="Vector_3" d="M19.5372 248.18C19.0765 248.18 18.6195 248.016 18.2565 247.702C17.7121 247.235 17.4713 246.502 17.6284 245.8L56.7117 69.9209C56.8269 69.3974 57.1549 68.9437 57.6155 68.6681C58.0761 68.3925 58.6309 68.3192 59.1439 68.4623L147.745 93.2701C148.785 93.5598 149.392 94.638 149.099 95.6779C148.809 96.7178 147.727 97.325 146.691 97.0319L60.0759 72.7796L22.2245 243.103L124.458 204.327C125.466 203.943 126.597 204.452 126.977 205.461C127.361 206.469 126.851 207.6 125.843 207.98L20.2331 248.048C20.0062 248.132 19.7724 248.174 19.5386 248.174L19.5372 248.18ZM152.563 197.725C151.775 197.725 151.032 197.243 150.735 196.465C150.351 195.456 150.86 194.326 151.869 193.946L296.643 139.03L174.926 104.947C173.886 104.658 173.279 103.579 173.572 102.539C173.862 101.499 174.94 100.892 175.98 101.185L303.423 136.87C304.236 137.096 304.812 137.819 304.85 138.663C304.888 139.508 304.379 140.279 303.59 140.579L153.26 197.602C153.026 197.683 152.789 197.724 152.562 197.724L152.563 197.725Z" fill="url(#paint2_linear_27896_6358)" fill-opacity="0.25"/>
<path id="Vector_4" d="M371.287 414.287C359.433 414.287 349.792 404.645 349.792 392.791C349.792 380.938 359.434 371.296 371.287 371.296C383.141 371.296 392.783 380.938 392.783 392.791C392.783 404.645 383.141 414.287 371.287 414.287ZM371.287 375.203C361.59 375.203 353.699 383.093 353.699 392.791C353.699 402.489 361.589 410.379 371.287 410.379C380.985 410.379 388.875 402.489 388.875 392.791C388.875 383.093 380.985 375.203 371.287 375.203Z" fill="url(#paint3_linear_27896_6358)" fill-opacity="0.25"/>
<path id="Vector_5" d="M136.787 42.9908C124.933 42.9908 115.292 33.349 115.292 21.4954C115.292 9.64175 124.934 0 136.787 0C148.641 0 158.283 9.64175 158.283 21.4954C158.283 33.349 148.641 42.9908 136.787 42.9908ZM136.787 3.90744C127.09 3.90744 119.199 11.7974 119.199 21.4954C119.199 31.1934 127.089 39.0833 136.787 39.0833C146.485 39.0833 154.375 31.1934 154.375 21.4954C154.375 11.7974 146.485 3.90744 136.787 3.90744Z" fill="url(#paint4_linear_27896_6358)" fill-opacity="0.25"/>
<path id="Vector_6" d="M322.431 277.491C321.914 277.491 321.415 277.275 321.042 276.915C320.679 276.552 320.477 276.046 320.477 275.537C320.477 275.017 320.682 274.511 321.042 274.148C321.775 273.426 323.083 273.426 323.806 274.148C324.176 274.518 324.381 275.017 324.381 275.537C324.381 276.046 324.176 276.552 323.806 276.915C323.446 277.275 322.947 277.491 322.431 277.491V277.491Z" fill="url(#paint5_linear_27896_6358)" fill-opacity="0.25"/>
<path id="Vector_7" d="M293.12 277.491C292.604 277.491 292.105 277.275 291.742 276.915C291.372 276.552 291.166 276.046 291.166 275.537C291.166 275.017 291.372 274.511 291.742 274.148C292.454 273.426 293.773 273.426 294.499 274.148C294.869 274.518 295.074 275.017 295.074 275.537C295.074 276.046 294.869 276.552 294.509 276.915C294.136 277.275 293.637 277.491 293.12 277.491H293.12Z" fill="url(#paint6_linear_27896_6358)" fill-opacity="0.25"/>
<path id="Vector_8" d="M263.81 277.491C263.293 277.491 262.794 277.275 262.421 276.915C262.058 276.552 261.856 276.046 261.856 275.537C261.856 275.017 262.062 274.521 262.421 274.148C263.154 273.426 264.462 273.426 265.185 274.148C265.555 274.518 265.761 275.017 265.761 275.537C265.761 276.046 265.555 276.552 265.195 276.915C264.825 277.275 264.326 277.491 263.81 277.491H263.81Z" fill="url(#paint7_linear_27896_6358)" fill-opacity="0.25"/>
<path id="Vector_9" d="M263.81 248.18C263.3 248.18 262.794 247.964 262.421 247.604C262.058 247.241 261.856 246.735 261.856 246.226C261.856 245.706 262.062 245.211 262.421 244.837C263.154 244.115 264.462 244.115 265.185 244.837C265.555 245.207 265.761 245.706 265.761 246.226C265.761 246.735 265.555 247.241 265.185 247.604C264.825 247.964 264.319 248.18 263.81 248.18V248.18Z" fill="url(#paint8_linear_27896_6358)" fill-opacity="0.25"/>
<path id="Vector_10" d="M263.81 218.87C263.293 218.87 262.794 218.654 262.431 218.294C262.062 217.931 261.856 217.425 261.856 216.916C261.856 216.396 262.062 215.9 262.421 215.527C263.154 214.805 264.462 214.805 265.185 215.527C265.555 215.897 265.761 216.396 265.761 216.916C265.761 217.425 265.555 217.931 265.195 218.294C264.825 218.654 264.326 218.87 263.81 218.87Z" fill="url(#paint9_linear_27896_6358)" fill-opacity="0.25"/>
<path id="Vector_11" d="M0 383.02H19.5417V402.562H0V383.02Z" fill="url(#paint10_linear_27896_6358)" fill-opacity="0.25"/>
<path id="Vector_12" d="M29.3105 383.02H48.8522V402.562H29.3105V383.02Z" fill="url(#paint11_linear_27896_6358)" fill-opacity="0.25"/>
<path id="Vector_13" d="M58.6211 383.02H78.1628V402.562H58.6211V383.02Z" fill="url(#paint12_linear_27896_6358)" fill-opacity="0.25"/>
<path id="Vector_14" d="M87.9307 383.02H107.472V402.562H87.9307V383.02Z" fill="url(#paint13_linear_27896_6358)" fill-opacity="0.25"/>
</g>
<defs>
<linearGradient id="paint0_linear_27896_6358" x1="151.444" y1="39.0957" x2="151.444" y2="404.514" gradientUnits="userSpaceOnUse">
<stop stop-color="#333333"/>
<stop offset="0.17" stop-color="#50AB10"/>
<stop offset="0.745" stop-color="#999999"/>
<stop offset="0.745" stop-color="#6300D4"/>
<stop offset="1" stop-color="#999999"/>
</linearGradient>
<linearGradient id="paint1_linear_27896_6358" x1="200.3" y1="136.787" x2="200.3" y2="306.802" gradientUnits="userSpaceOnUse">
<stop stop-color="#333333"/>
<stop offset="0.17" stop-color="#50AB10"/>
<stop offset="0.745" stop-color="#999999"/>
<stop offset="0.745" stop-color="#6300D4"/>
<stop offset="1" stop-color="#999999"/>
</linearGradient>
<linearGradient id="paint2_linear_27896_6358" x1="161.217" y1="68.3908" x2="161.217" y2="248.18" gradientUnits="userSpaceOnUse">
<stop stop-color="#333333"/>
<stop offset="0.17" stop-color="#50AB10"/>
<stop offset="0.745" stop-color="#999999"/>
<stop offset="0.745" stop-color="#6300D4"/>
<stop offset="1" stop-color="#999999"/>
</linearGradient>
<linearGradient id="paint3_linear_27896_6358" x1="371.287" y1="371.296" x2="371.287" y2="414.287" gradientUnits="userSpaceOnUse">
<stop stop-color="#333333"/>
<stop offset="0.17" stop-color="#50AB10"/>
<stop offset="0.745" stop-color="#999999"/>
<stop offset="0.745" stop-color="#6300D4"/>
<stop offset="1" stop-color="#999999"/>
</linearGradient>
<linearGradient id="paint4_linear_27896_6358" x1="136.787" y1="0" x2="136.787" y2="42.9908" gradientUnits="userSpaceOnUse">
<stop stop-color="#333333"/>
<stop offset="0.17" stop-color="#50AB10"/>
<stop offset="0.745" stop-color="#999999"/>
<stop offset="0.745" stop-color="#6300D4"/>
<stop offset="1" stop-color="#999999"/>
</linearGradient>
<linearGradient id="paint5_linear_27896_6358" x1="322.429" y1="273.606" x2="322.429" y2="277.491" gradientUnits="userSpaceOnUse">
<stop stop-color="#333333"/>
<stop offset="0.17" stop-color="#50AB10"/>
<stop offset="0.745" stop-color="#999999"/>
<stop offset="0.745" stop-color="#6300D4"/>
<stop offset="1" stop-color="#999999"/>
</linearGradient>
<linearGradient id="paint6_linear_27896_6358" x1="293.12" y1="273.606" x2="293.12" y2="277.491" gradientUnits="userSpaceOnUse">
<stop stop-color="#333333"/>
<stop offset="0.17" stop-color="#50AB10"/>
<stop offset="0.745" stop-color="#999999"/>
<stop offset="0.745" stop-color="#6300D4"/>
<stop offset="1" stop-color="#999999"/>
</linearGradient>
<linearGradient id="paint7_linear_27896_6358" x1="263.808" y1="273.606" x2="263.808" y2="277.491" gradientUnits="userSpaceOnUse">
<stop stop-color="#333333"/>
<stop offset="0.17" stop-color="#50AB10"/>
<stop offset="0.745" stop-color="#999999"/>
<stop offset="0.745" stop-color="#6300D4"/>
<stop offset="1" stop-color="#999999"/>
</linearGradient>
<linearGradient id="paint8_linear_27896_6358" x1="263.808" y1="244.295" x2="263.808" y2="248.18" gradientUnits="userSpaceOnUse">
<stop stop-color="#333333"/>
<stop offset="0.17" stop-color="#50AB10"/>
<stop offset="0.745" stop-color="#999999"/>
<stop offset="0.745" stop-color="#6300D4"/>
<stop offset="1" stop-color="#999999"/>
</linearGradient>
<linearGradient id="paint9_linear_27896_6358" x1="263.808" y1="214.985" x2="263.808" y2="218.87" gradientUnits="userSpaceOnUse">
<stop stop-color="#333333"/>
<stop offset="0.17" stop-color="#50AB10"/>
<stop offset="0.745" stop-color="#999999"/>
<stop offset="0.745" stop-color="#6300D4"/>
<stop offset="1" stop-color="#999999"/>
</linearGradient>
<linearGradient id="paint10_linear_27896_6358" x1="9.77083" y1="383.02" x2="9.77083" y2="402.562" gradientUnits="userSpaceOnUse">
<stop stop-color="#333333"/>
<stop offset="0.17" stop-color="#50AB10"/>
<stop offset="0.745" stop-color="#999999"/>
<stop offset="0.745" stop-color="#6300D4"/>
<stop offset="1" stop-color="#999999"/>
</linearGradient>
<linearGradient id="paint11_linear_27896_6358" x1="39.0814" y1="383.02" x2="39.0814" y2="402.562" gradientUnits="userSpaceOnUse">
<stop stop-color="#333333"/>
<stop offset="0.17" stop-color="#50AB10"/>
<stop offset="0.745" stop-color="#999999"/>
<stop offset="0.745" stop-color="#6300D4"/>
<stop offset="1" stop-color="#999999"/>
</linearGradient>
<linearGradient id="paint12_linear_27896_6358" x1="68.3919" y1="383.02" x2="68.3919" y2="402.562" gradientUnits="userSpaceOnUse">
<stop stop-color="#333333"/>
<stop offset="0.17" stop-color="#50AB10"/>
<stop offset="0.745" stop-color="#999999"/>
<stop offset="0.745" stop-color="#6300D4"/>
<stop offset="1" stop-color="#999999"/>
</linearGradient>
<linearGradient id="paint13_linear_27896_6358" x1="97.7015" y1="383.02" x2="97.7015" y2="402.562" gradientUnits="userSpaceOnUse">
<stop stop-color="#333333"/>
<stop offset="0.17" stop-color="#50AB10"/>
<stop offset="0.745" stop-color="#999999"/>
<stop offset="0.745" stop-color="#6300D4"/>
<stop offset="1" stop-color="#999999"/>
</linearGradient>
</defs>
</svg>
