<svg preserveAspectRatio="none" width="100%" height="100%" overflow="visible" style="display: block;" viewBox="0 0 750 176" fill="none" xmlns="http://www.w3.org/2000/svg">
<g id="freepik--speech-bubbles--inject-30">
<path id="Vector" d="M62.8168 75.6845L56.3853 64.357C60.3568 57.9094 61.7729 50.2095 60.3552 42.7708C58.9376 35.3321 54.7889 28.6927 48.7244 24.1576C42.66 19.6226 35.1186 17.52 27.5826 18.263C20.0465 19.0061 13.061 22.5412 7.99911 28.1733C2.93721 33.8054 0.165065 41.1273 0.227598 48.6996C0.290131 56.2719 3.18282 63.547 8.33705 69.0947C13.4913 74.6425 20.5342 78.0617 28.0815 78.6802C35.6288 79.2988 43.1344 77.0719 49.1231 72.4373L62.8168 75.6845Z" fill="var(--fill-0, #FAFAFA)"/>
<path id="Vector_2" d="M62.8161 75.6846L49.0721 72.6135C49.0298 72.6017 48.9934 72.5745 48.9702 72.5372C48.9469 72.5 48.9384 72.4554 48.9463 72.4122V72.3492L49.1854 72.5758C44.9574 75.8853 39.929 78.0174 34.6107 78.7555C33.0143 78.9803 31.4013 79.0646 29.7902 79.0073C28.9721 79.0073 28.1289 78.9318 27.273 78.8688L24.7558 78.4786C18.8163 77.3221 13.3516 74.4345 9.0494 70.1793C4.74721 65.9242 1.79974 60.4915 0.577935 54.5651C-0.297448 50.0795 -0.177144 45.4564 0.930346 41.0225C2.0782 36.3682 4.31729 32.054 7.46252 28.4364C10.6534 24.7556 14.6742 21.8867 19.1928 20.0666C23.5267 18.3575 28.1892 17.6435 32.8361 17.9774C37.2308 18.2801 41.5057 19.5432 45.3592 21.6777C52.2664 25.5467 57.4282 31.9157 59.7829 39.4744C60.7017 42.689 61.1261 46.0247 61.0415 49.367C60.8836 54.7174 59.3069 59.9296 56.4727 64.4703V64.269L62.7658 75.6846C62.2246 74.7406 60.2486 71.4305 56.1958 64.4326C56.1801 64.4082 56.1718 64.3798 56.1718 64.3508C56.1718 64.3218 56.1801 64.2934 56.1958 64.269C58.9292 59.7635 60.439 54.6225 60.5758 49.3545C60.6189 46.0622 60.1649 42.7822 59.2291 39.6254C56.8745 32.2219 51.7831 25.996 44.9942 22.2189C41.22 20.127 37.029 18.8976 32.7228 18.6192C28.1689 18.296 23.6006 19.0015 19.3564 20.6834C14.955 22.4761 11.0424 25.2887 7.94079 28.8895C4.87035 32.408 2.67904 36.6052 1.54706 41.1357C0.454314 45.4774 0.329705 50.0063 1.18207 54.4015C2.37305 60.2199 5.25285 65.5582 9.46138 69.7488C13.6699 73.9395 19.0204 76.7965 24.8439 77.9626L27.3611 78.3528C28.2044 78.4283 29.0351 78.4535 29.8783 78.5038C31.4636 78.5693 33.0515 78.4935 34.6233 78.2773C39.8763 77.5928 44.8558 75.535 49.0595 72.3115C49.0737 72.2954 49.0911 72.2825 49.1107 72.2737C49.1302 72.2649 49.1514 72.2603 49.1728 72.2603C49.1942 72.2603 49.2154 72.2649 49.2349 72.2737C49.2545 72.2825 49.2719 72.2954 49.2861 72.3115C49.3108 72.3392 49.3245 72.375 49.3245 72.4122C49.3245 72.4493 49.3108 72.4852 49.2861 72.5129L49.198 72.2485L62.8161 75.6846Z" fill="var(--fill-0, #263238)"/>
<path id="Vector_3" d="M22.1133 45.2641C22.1133 42.5329 23.7495 40.796 26.0905 40.796C28.4315 40.796 30.0551 42.5077 30.0551 45.2641C30.0551 48.0204 28.4315 49.7447 26.0905 49.7447C23.7495 49.7447 22.1133 48.0078 22.1133 45.2641ZM27.7644 45.2641C27.7644 43.5272 27.0974 42.7468 26.0905 42.7468C25.0836 42.7468 24.4165 43.6027 24.4165 45.2641C24.4165 46.9254 25.1088 47.7813 26.0905 47.7813C27.0722 47.7813 27.7644 47.0135 27.7644 45.2641ZM35.6307 40.9722H38.3493L27.4246 57.2208H24.6934L35.6307 40.9722ZM32.9877 52.929C32.9877 50.1852 34.6364 48.4483 36.9523 48.4483C39.2681 48.4483 40.9421 50.1852 40.9421 52.929C40.9421 55.6728 39.2933 57.4096 36.9523 57.4096C34.6113 57.4096 33.0002 55.6602 33.0002 52.9416L32.9877 52.929ZM38.6262 52.929C38.6262 51.2047 37.9592 50.3489 36.9523 50.3489C35.9454 50.3489 35.2783 51.1921 35.2783 52.929C35.2783 54.6659 35.9706 55.4462 36.9523 55.4462C37.934 55.4462 38.6388 54.6407 38.6388 52.9416L38.6262 52.929Z" fill="var(--fill-0, #FF725E)"/>
<path id="Vector_4" d="M350.168 171.716L356.599 160.389C352.641 153.946 351.235 146.255 352.659 138.828C354.082 131.401 358.232 124.775 364.293 120.252C370.353 115.729 377.886 113.636 385.411 114.385C392.936 115.133 399.909 118.669 404.959 124.298C410.01 129.926 412.773 137.24 412.705 144.801C412.638 152.363 409.745 159.626 404.594 165.164C399.444 170.701 392.409 174.111 384.872 174.725C377.335 175.339 369.84 173.112 363.862 168.482L350.168 171.716Z" fill="var(--fill-0, #FAFAFA)"/>
<path id="Vector_5" d="M350.169 171.716L363.837 168.331L363.749 168.595C363.722 168.561 363.706 168.519 363.706 168.475C363.706 168.432 363.722 168.39 363.749 168.356C363.779 168.337 363.814 168.327 363.85 168.327C363.885 168.327 363.92 168.337 363.95 168.356C368.153 171.583 373.133 173.646 378.387 174.334C379.959 174.546 381.547 174.618 383.132 174.548C383.95 174.548 384.78 174.485 385.649 174.41L388.166 174.02C391.731 173.293 395.14 171.942 398.235 170.03C403.653 166.682 407.859 161.69 410.238 155.782C412.618 149.875 413.047 143.361 411.463 137.193C410.334 132.657 408.142 128.455 405.069 124.934C401.952 121.326 398.016 118.516 393.591 116.74C389.348 115.034 384.775 114.307 380.212 114.613C375.89 114.912 371.688 116.158 367.902 118.263C361.106 122.028 356.015 128.259 353.68 135.67C352.733 138.824 352.279 142.106 352.334 145.399C352.46 150.668 353.971 155.812 356.713 160.313C356.726 160.337 356.732 160.363 356.732 160.389C356.732 160.415 356.726 160.441 356.713 160.464C352.623 167.475 350.697 170.785 350.144 171.716C350.672 170.772 352.522 167.412 356.437 160.313V160.477C353.602 155.937 352.03 150.724 351.88 145.374C351.79 142.031 352.214 138.694 353.139 135.481C355.488 127.923 360.652 121.556 367.563 117.697C371.414 115.555 375.689 114.287 380.086 113.984C384.734 113.649 389.398 114.367 393.729 116.086C398.253 117.897 402.275 120.767 405.459 124.456C408.607 128.072 410.846 132.386 411.992 137.042C413.007 141.073 413.19 145.27 412.529 149.375C411.868 153.48 410.377 157.407 408.147 160.916C405.917 164.425 402.995 167.443 399.56 169.784C396.124 172.126 392.248 173.743 388.166 174.536L385.649 174.926C384.806 174.989 383.962 175.014 383.132 175.052C381.521 175.115 379.907 175.031 378.311 174.8C372.996 174.074 367.969 171.945 363.749 168.633L363.976 168.406C364.005 168.437 364.021 168.477 364.021 168.519C364.021 168.562 364.005 168.602 363.976 168.633H363.913L350.169 171.716Z" fill="var(--fill-0, #263238)"/>
<path id="Vector_6" d="M396.976 144.392L396.888 144.48L397.026 144.606L396.976 144.392Z" fill="var(--fill-0, #263238)"/>
<path id="Vector_7" d="M397.14 145.009L396.611 144.53L397.127 144.04L397.14 145.009Z" fill="var(--fill-0, #263238)"/>
<path id="Vector_8" d="M397.216 144.392C395.227 142.554 393.44 140.906 392.106 139.723L390.532 138.338C390.348 138.153 390.141 137.992 389.916 137.86C390.065 138.071 390.239 138.266 390.432 138.439C390.847 138.829 391.338 139.32 391.929 139.899C393.188 141.094 394.912 142.731 396.838 144.53L396.926 144.442V144.707L396.788 144.581C394.862 146.418 393.125 148.105 391.866 149.338L390.381 150.836C390.192 151.013 390.019 151.207 389.865 151.415C390.089 151.282 390.293 151.116 390.469 150.924L392.043 149.515C393.301 148.256 395.151 146.62 397.077 144.744L397.203 144.619L397.216 144.392Z" fill="var(--fill-0, #263238)"/>
<path id="Vector_9" d="M389.915 151.528C389.878 151.54 389.839 151.54 389.802 151.528C389.676 151.39 389.802 151.302 390.318 150.723L391.816 149.225C393.074 147.966 394.761 146.343 396.611 144.581C394.799 142.894 393.1 141.296 391.828 140.062L390.331 138.527C389.764 137.948 389.676 137.86 389.802 137.721C389.928 137.583 390.016 137.721 390.633 138.187L392.206 139.571C393.553 140.83 395.277 142.366 397.089 144.039V144.102L397.278 144.279L397.53 144.518L397.24 144.807C397.188 144.847 397.142 144.893 397.102 144.946V145.009C395.277 146.758 393.54 148.394 392.206 149.615L390.645 151.037C390.18 151.39 390.016 151.528 389.915 151.528ZM396.838 144.744L394.056 147.425L396.85 144.82L396.838 144.744ZM394.107 141.749C394.95 142.554 395.881 143.41 396.838 144.266L394.107 141.749Z" fill="var(--fill-0, #263238)"/>
<path id="Vector_10" d="M374.095 138.439C374.292 138.27 374.466 138.075 374.611 137.86C374.396 138.006 374.194 138.17 374.007 138.351L372.434 139.786C371.175 141.044 369.337 142.68 367.399 144.556L367.261 144.682L367.399 144.807C369.375 146.645 371.175 148.294 372.509 149.477L374.082 150.861C374.267 151.041 374.469 151.201 374.687 151.34C374.535 151.133 374.362 150.943 374.171 150.773L372.673 149.301C371.414 148.042 369.69 146.469 367.764 144.682L367.676 144.757V144.505L367.815 144.631C369.753 142.781 371.49 141.094 372.736 139.861L374.095 138.439Z" fill="var(--fill-0, #263238)"/>
<path id="Vector_11" d="M374.623 151.528C374.51 151.528 374.346 151.39 373.906 151.012L372.32 149.628C370.999 148.432 369.274 146.859 367.437 145.16V145.084L367.248 144.908L366.996 144.669L367.298 144.379L367.437 144.254V144.178C369.274 142.429 370.999 140.805 372.333 139.572L373.893 138.149C374.51 137.608 374.598 137.545 374.724 137.671C374.85 137.797 374.787 137.885 374.208 138.477L372.723 139.974C371.464 141.233 369.74 142.882 367.915 144.631C369.765 146.33 371.452 147.929 372.71 149.137L374.208 150.61C374.787 151.201 374.85 151.264 374.724 151.402C374.598 151.541 374.661 151.528 374.623 151.528ZM367.676 144.946L370.42 147.463C369.576 146.67 368.658 145.802 367.688 144.946H367.676Z" fill="var(--fill-0, #263238)"/>
<path id="Vector_12" d="M367.563 144.82L367.651 144.744L367.513 144.619L367.563 144.82Z" fill="var(--fill-0, #263238)"/>
<path id="Vector_13" d="M367.399 145.185V144.216L367.915 144.707L367.399 145.185Z" fill="var(--fill-0, #263238)"/>
<path id="Vector_14" d="M378.539 154.549C378.627 154.549 380.376 150.119 382.453 144.581C384.529 139.043 386.128 134.512 386.04 134.512C385.952 134.512 384.202 138.93 382.126 144.468C380.049 150.005 378.45 154.511 378.539 154.549Z" fill="var(--fill-0, #263238)"/>
<path id="Vector_15" d="M378.551 154.713C378.375 154.637 378.237 154.587 382.05 144.417C383.435 140.704 385.826 134.474 386.04 134.348H386.116C386.292 134.348 386.418 134.462 382.617 144.631C381.61 147.312 380.653 149.817 379.911 151.704C378.853 154.36 378.702 154.713 378.551 154.713ZM383.863 140.314C383.384 141.573 382.856 142.97 382.277 144.518L380.716 148.722C381.194 147.463 381.723 146.079 382.302 144.53C382.881 142.982 383.41 141.56 383.863 140.314Z" fill="var(--fill-0, #263238)"/>
<path id="Vector_16" d="M464.878 57.7494L458.459 46.422C462.444 39.9674 463.87 32.2556 462.458 24.8028C461.045 17.3499 456.896 10.6951 450.825 6.14658C444.754 1.59804 437.202 -0.515168 429.652 0.222383C422.103 0.959934 415.102 4.4949 410.027 10.1323C404.951 15.7698 402.168 23.1018 402.225 30.6872C402.281 38.2725 405.173 45.5624 410.332 51.1238C415.49 56.6851 422.543 60.1155 430.102 60.7407C437.662 61.3658 445.182 59.1406 451.185 54.5022L464.878 57.7494Z" fill="var(--fill-0, #FAFAFA)"/>
<path id="Vector_17" d="M464.879 57.7494L451.135 54.6784C451.096 54.6667 451.063 54.6408 451.042 54.6059C451.021 54.571 451.014 54.5295 451.022 54.4896C451.016 54.4647 451.016 54.4389 451.022 54.4141L451.248 54.6532C447.025 57.9677 441.994 60.0965 436.674 60.8204C435.082 61.0455 433.473 61.1298 431.866 61.0721C431.035 61.0721 430.192 61.0721 429.349 60.9337L426.831 60.5435C422.746 59.7625 418.863 58.1534 415.422 55.8155C411.981 53.4775 409.056 50.4601 406.825 46.949C404.594 43.4378 403.106 39.5073 402.451 35.3992C401.796 31.2912 401.99 27.0927 403.019 23.0621C404.161 18.427 406.396 14.1329 409.538 10.539C412.728 6.85363 416.748 3.98034 421.268 2.15665C425.6 0.456585 430.257 -0.252965 434.899 0.0799518C439.3 0.402318 443.576 1.69156 447.422 3.85578C451.001 5.84934 454.145 8.53641 456.673 11.7598C458.976 14.7114 460.729 18.054 461.846 21.6273C462.763 24.8423 463.188 28.1778 463.104 31.52C462.947 36.8703 461.37 42.0826 458.536 46.6233V46.4723C462.45 53.5708 464.3 56.9187 464.829 57.8752C464.288 56.9313 462.312 53.6211 458.271 46.6233C458.259 46.5978 458.253 46.5698 458.253 46.5415C458.253 46.5131 458.259 46.4852 458.271 46.4597C461.016 41.959 462.526 36.815 462.651 31.5452C462.699 28.2526 462.245 24.9719 461.305 21.8161C459.017 14.3827 453.968 8.10844 447.196 4.2837C443.412 2.20455 439.219 0.976107 434.912 0.684078C430.362 0.360151 425.797 1.06566 421.558 2.7482C417.13 4.5258 413.194 7.33997 410.079 10.9543C407.004 14.4696 404.812 18.6679 403.686 23.2006C402.593 27.5423 402.468 32.0711 403.321 36.4663C404.511 42.2831 407.389 47.6202 411.595 51.8106C415.801 56.0011 421.149 58.8591 426.97 60.0275L429.487 60.4176C430.318 60.4932 431.148 60.5183 432.004 60.5687C433.589 60.6379 435.177 60.5663 436.749 60.3547C441.998 59.6604 446.972 57.5987 451.173 54.3763C451.207 54.3487 451.249 54.3336 451.292 54.3336C451.336 54.3336 451.378 54.3487 451.412 54.3763C451.431 54.4065 451.441 54.4414 451.441 54.477C451.441 54.5126 451.431 54.5476 451.412 54.5777L451.311 54.326L464.879 57.7494Z" fill="var(--fill-0, #263238)"/>
<path id="Vector_18" d="M432.141 24.862L436.723 23.3391L441.304 21.8287L440.335 26.5485L439.353 31.2809L436.861 29.0657L426.125 41.1232L423.897 39.1346L434.633 27.0771L432.141 24.862Z" fill="var(--fill-0, #263238)"/>
<path id="Vector_19" d="M686.432 85.0738L692.863 73.7463C688.887 67.2743 687.475 59.5495 688.904 52.0894C690.333 44.6293 694.501 37.9733 700.587 33.4292C706.674 28.8851 714.24 26.7814 721.798 27.5313C729.357 28.2813 736.362 31.8307 741.437 37.4822C746.512 43.1338 749.29 50.4788 749.226 58.0743C749.161 65.6698 746.259 72.9666 741.088 78.5311C735.918 84.0956 728.854 87.5255 721.284 88.1469C713.713 88.7683 706.184 86.5364 700.176 81.8895L686.432 85.0738Z" fill="var(--fill-0, #FAFAFA)"/>
<path id="Vector_20" d="M686.432 85.0737L700.1 81.6881L700.012 81.9398C699.983 81.9093 699.966 81.8687 699.966 81.8265C699.966 81.7843 699.983 81.7437 700.012 81.7132C700.042 81.6942 700.077 81.6842 700.113 81.6842C700.148 81.6842 700.183 81.6942 700.213 81.7132C704.41 84.9429 709.386 87.0054 714.637 87.6916C716.209 87.9035 717.797 87.9751 719.382 87.9056C720.2 87.9056 721.031 87.8301 721.899 87.7672L724.416 87.3644C728.421 86.585 732.225 84.9952 735.593 82.6927C738.962 80.3902 741.824 77.4236 744.005 73.9749C746.185 70.5262 747.638 66.6683 748.273 62.6379C748.909 58.6076 748.714 54.4899 747.701 50.5375C746.574 46.0049 744.382 41.8065 741.307 38.2913C738.189 34.6809 734.253 31.8675 729.828 30.0851C725.607 28.4143 721.067 27.7049 716.538 28.0084C712.228 28.2987 708.034 29.5318 704.254 31.6206C697.457 35.3853 692.366 41.6165 690.031 49.0272C689.089 52.1826 688.635 55.4635 688.685 58.7562C688.811 64.0258 690.322 69.1693 693.064 73.6707C693.077 73.6941 693.083 73.72 693.083 73.7463C693.083 73.7725 693.077 73.7984 693.064 73.8218C688.974 80.8322 687.048 84.1424 686.495 85.0737C687.023 84.1298 688.873 80.7693 692.788 73.6707V73.8344C689.964 69.2894 688.393 64.079 688.231 58.7311C688.147 55.3888 688.571 52.053 689.49 48.8384C691.848 41.2827 697.027 34.9266 703.951 31.092C707.803 28.9498 712.078 27.6821 716.475 27.3791C721.123 27.0437 725.786 27.7622 730.118 29.481C734.645 31.2916 738.672 34.1618 741.861 37.8507C745.012 41.4627 747.248 45.7794 748.38 50.4368C749.494 54.8699 749.615 59.4944 748.733 63.9795C747.893 68.0754 746.224 71.9564 743.831 75.3846C741.437 78.8129 738.368 81.7159 734.813 83.9158C731.664 85.8532 728.194 87.2128 724.567 87.9308L721.987 88.3084C721.144 88.3839 720.301 88.3965 719.47 88.4468C717.863 88.5045 716.254 88.4202 714.662 88.1951C709.342 87.4712 704.311 85.3424 700.088 82.0279L700.314 81.8013C700.341 81.8331 700.355 81.8732 700.355 81.9146C700.355 81.9561 700.341 81.9962 700.314 82.0279H700.239L686.432 85.0737Z" fill="var(--fill-0, #263238)"/>
<path id="Vector_21" d="M713.063 55.2951H714.8L718.576 49.9838V46.4974C718.576 46.4974 721.269 46.3338 720.954 50.9026C720.64 55.4713 720.954 54.3008 720.954 54.3008C720.954 54.3008 726.694 54.3008 727.159 54.8168C727.625 55.3329 727.663 60.8707 727.726 63.9669C727.763 64.7108 727.551 65.4459 727.122 66.0549C726.693 66.6639 726.073 67.1119 725.36 67.3274C725.158 67.3813 724.951 67.4109 724.743 67.4155C723.308 67.4155 716.008 66.245 716.008 66.245H713L713.063 55.2951Z" fill="var(--fill-0, #263238)"/>
<path id="Vector_22" d="M708.055 54.3386L709.137 66.2828H712.12V54.5778L708.055 54.3386Z" fill="var(--fill-0, #263238)"/>
</g>
</svg>
