<svg preserveAspectRatio="none" width="100%" height="100%" overflow="visible" style="display: block;" viewBox="0 0 54 100" fill="none" xmlns="http://www.w3.org/2000/svg">
<g id="Group">
<path id="Vector" d="M0.448863 32.6211L8.46872 36.137V94.9443L2.47514 96.7048V100H53.077V96.4841L45.5035 94.9443C46.6471 87.7821 49.1549 66.0146 41.461 46.0327C39.1388 40.0341 36.1445 34.7076 32.9546 30.0532C33.0299 28.5385 33.3107 26.773 34.1784 26.3918C35.7383 25.6746 37.9652 25.6746 37.9652 25.0777C37.9652 24.4809 37.6291 23.1668 33.9577 22.9712C31.3346 22.8258 29.2281 23.4427 28.22 23.8239C21.7399 15.9996 15.3701 10.954 12.7219 9.02297L11.5934 8.37597H11.2875V0H9.61227V8.37597H8.46872V30.3391L6.37724 29.2055C6.37724 29.2055 4.35598 28.9849 2.69081 29.2958C1.01562 29.5917 -0.102849 30.3992 0.00749317 31.4074C0.117835 32.4155 0.448863 32.6211 0.448863 32.6211ZM36.5809 56.1691C39.6955 77.5253 36.5809 92.4265 36.5809 92.4265H27.7786C28.1297 90.31 31.4801 76.5674 28.7416 54.0074C25.7874 29.7623 16.2027 15.3325 16.2027 15.3325C16.2027 15.3325 32.9697 31.3773 36.5809 56.1691ZM14.4623 20.4434C15.6359 23.0916 17.1557 26.8683 18.7055 31.7484H14.4623V20.4434ZM14.4623 35.48H19.839C20.0095 36.0568 20.185 36.6637 20.3506 37.2705H14.4623V35.48ZM14.4623 38.4693H20.6565C20.9173 39.4473 21.1831 40.4654 21.4339 41.5137C21.4389 41.5588 21.4439 41.609 21.464 41.6491H14.4623V38.4693ZM14.4623 42.8478H21.7298C21.9756 43.9061 22.1812 44.9644 22.3969 46.0327H14.4623V42.8478ZM14.4623 47.2264H22.6226C22.8232 48.2947 22.9988 49.343 23.1643 50.4213H14.4623V47.2264ZM14.4623 51.605H23.3398C23.385 51.931 23.4452 52.2821 23.4803 52.6131H14.4623V51.605ZM14.4623 56.3547H23.9567C24.027 56.9014 24.0871 57.4481 24.1323 57.9797H14.4623V56.3547ZM14.4623 59.1785H24.2476C24.3429 60.2468 24.4282 61.3151 24.5084 62.3633H14.4623V59.1785ZM14.4623 63.557H24.6037C24.6639 64.6354 24.7291 65.7037 24.7793 66.7519H14.4623V63.557ZM14.4623 67.9356H24.8345C24.8846 69.024 24.9147 70.0923 24.9498 71.1305H14.4623V67.9356ZM14.4623 72.3242H24.9799C24.9849 72.7355 24.9849 73.1468 24.995 73.548H14.4623V72.3242ZM14.4623 77.2896H25.015C25.015 77.7611 25.01 78.2225 25.01 78.6739H14.4623V77.2896ZM14.4623 79.8776H24.9899C24.9849 80.9961 24.9498 82.0644 24.9197 83.0625H14.4623V79.8776ZM14.4623 84.2562H24.8846C24.8345 85.4198 24.7893 86.4981 24.7442 87.4511H14.4623V84.2562ZM14.4623 88.6448H24.674C24.5887 90.0642 24.5084 91.1425 24.4483 91.8297H14.4623V88.6448Z" fill="var(--fill-0, black)"/>
</g>
</svg>
