<svg preserveAspectRatio="none" width="100%" height="100%" overflow="visible" style="display: block;" viewBox="0 0 100 100" fill="none" xmlns="http://www.w3.org/2000/svg">
<g id="canada-maple-leaf-svgrepo-com 2" clip-path="url(#clip0_27896_5403)">
<path id="canada--maple-leaf_1_" d="M50.0039 1.5415C50.5212 1.5415 51.0847 1.77277 51.3965 2.29248H51.3975L60.1025 16.7983L68.2441 14.0854L68.248 14.0845C68.8068 13.9027 69.4076 14.0251 69.8428 14.4165C70.2826 14.8065 70.4721 15.4067 70.3428 15.9761L70.3438 15.9771L65.3066 38.6538L76.9834 26.978C77.3799 26.5815 77.9537 26.4139 78.5078 26.5444L78.5098 26.5454C78.9866 26.6597 79.384 26.981 79.5967 27.4185L79.6768 27.6128V27.6138L82.3262 35.562L93.3691 32.8022H93.3701C93.9697 32.6536 94.6284 32.8628 95.0283 33.3608C95.4024 33.8242 95.4893 34.4532 95.2646 34.9976L95.2158 35.105L89.7979 45.9263L97.3926 48.4595H97.3936C97.9677 48.6494 98.3894 49.143 98.4844 49.7437C98.5787 50.341 98.3392 50.9382 97.8525 51.3032L73.79 69.3491L76.5459 77.6138V77.6147C76.7211 78.1448 76.6129 78.7241 76.2637 79.1558C75.9163 79.5888 75.387 79.8188 74.8008 79.7427V79.7417L51.6279 76.8472V97.3755H48.3779V76.8403L25.2021 79.7368H25.2002C24.6432 79.8042 24.0964 79.5839 23.7441 79.1548V79.1538C23.3888 78.7212 23.2793 78.1381 23.46 77.605L26.2109 69.3462L2.14941 51.2974L2.14746 51.2954C1.66776 50.9321 1.42389 50.3373 1.51855 49.7378C1.61373 49.135 2.03872 48.643 2.61035 48.4536L10.2061 45.9194L4.7959 35.0991C4.51218 34.5317 4.58347 33.8492 4.98242 33.355C5.37464 32.8692 6.0167 32.6329 6.64746 32.7974H6.64648L17.6836 35.5562L20.335 27.6079C20.5124 27.0692 20.956 26.6686 21.5029 26.5386L21.5059 26.5376C22.0502 26.4118 22.6272 26.573 23.0254 26.9712L34.7041 38.647L29.665 15.9771C29.5389 15.4093 29.7262 14.8093 30.1621 14.4185C30.5983 14.0272 31.2159 13.8988 31.7666 14.0854H31.7656L39.9053 16.7983L48.6113 2.29248C48.923 1.77268 49.4866 1.54159 50.0039 1.5415ZM42.0225 19.5854C41.6293 20.2407 40.8312 20.5291 40.1162 20.2896L33.46 18.0718L39.0908 43.394L39.1143 43.5259C39.2061 44.1871 38.8802 44.843 38.29 45.1694L38.291 45.1704C37.6484 45.5305 36.865 45.403 36.3564 44.8989L36.3555 44.8979L22.5859 31.1343L20.293 38.0142C20.0265 38.8205 19.1862 39.2854 18.3564 39.0747V39.0757L9.28223 36.8071L13.9521 46.146L14.0225 46.3071C14.1661 46.6901 14.1605 47.1179 14.002 47.4985L14.001 47.4976C13.82 47.9356 13.4593 48.2699 13.0137 48.4185L6.58105 50.5601L29.1025 67.4497C29.6602 67.868 29.8914 68.5979 29.667 69.2632L29.668 69.2642L27.3584 76.1929L49.8027 73.3853C49.8776 73.3742 49.9491 73.3706 50.0137 73.3716L50.1943 73.3843L50.2051 73.3853L72.6494 76.1929L70.3408 69.2642C70.1202 68.6018 70.3482 67.867 70.9092 67.4497L93.4268 50.5601L86.9912 48.4155C86.5453 48.2669 86.1838 47.9322 86.0029 47.4937L86.002 47.4917C85.8276 47.0625 85.8394 46.5671 86.0537 46.1431L90.7227 36.8042L81.6484 39.0728L81.6475 39.0718C80.8098 39.2829 79.9824 38.8056 79.7139 38.0142L79.7129 38.0112L77.4209 31.1323L63.6572 44.895C63.1457 45.4111 62.3482 45.5208 61.7217 45.1714V45.1704C61.0867 44.8213 60.7648 44.0999 60.917 43.397L60.918 43.395L66.5439 18.0728L59.8916 20.2905L59.8906 20.2896C59.1618 20.5361 58.3736 20.2357 57.9834 19.5854L50.0029 6.28369L42.0225 19.5854Z" fill="var(--fill-0, black)" stroke="var(--stroke-0, black)"/>
<g id="_Transparent_Rectangle">
</g>
</g>
<defs>
<clipPath id="clip0_27896_5403">
<rect width="100" height="100" fill="white"/>
</clipPath>
</defs>
</svg>
