<svg preserveAspectRatio="none" width="100%" height="100%" overflow="visible" style="display: block;" viewBox="0 0 72 100" fill="none" xmlns="http://www.w3.org/2000/svg">
<g id="Group">
<path id="Vector" d="M70.379 33.3492H67.1355V27.5621C67.1355 26.7913 66.5106 26.1664 65.7398 26.1664H63.6646V20.3794C63.6646 19.6086 63.0398 18.9837 62.2689 18.9837H56.1368V8.26659C56.1368 7.49576 55.512 6.87093 54.7412 6.87093H46.8658V5.8768C46.8658 5.38316 46.6049 4.92625 46.18 4.67524L38.594 0.194104C38.3791 0.0669916 38.1339 0 37.8842 0H33.8905C33.6407 0 33.3955 0.0669916 33.1806 0.194104L25.5947 4.67524C25.1697 4.92625 24.9089 5.38316 24.9089 5.8768V6.87093H17.0333C16.2624 6.87093 15.6376 7.49576 15.6376 8.26659V18.9837H9.50572C8.73489 18.9837 8.11007 19.6086 8.11007 20.3794V26.1664H6.03461C5.26378 26.1664 4.63896 26.7913 4.63896 27.5621V33.3492H1.39566C0.624826 33.3492 0 33.974 0 34.7448C0 35.5156 0.624826 36.1405 1.39566 36.1405H4.094V98.6043C4.094 99.3752 4.71883 100 5.48966 100H23.1164C23.8872 100 24.5121 99.3752 24.5121 98.6043V60.7648H25.0096C25.7804 60.7648 26.4052 60.14 26.4052 59.3692C26.4052 58.5983 25.7804 57.9735 25.0096 57.9735H24.5121V55.8682C24.5121 49.5961 29.615 44.4932 35.8873 44.4932C38.9271 44.4932 41.7841 45.676 43.9319 47.8236C46.0795 49.9712 47.2624 52.8283 47.2624 55.8682V57.9735H46.7651C45.9943 57.9735 45.3694 58.5983 45.3694 59.3692C45.3694 60.14 45.9943 60.7648 46.7651 60.7648H47.2624V98.6043C47.2624 99.3752 47.8872 100 48.658 100H66.2848C67.0556 100 67.6804 99.3752 67.6804 98.6043V36.1405H70.379C71.1498 36.1405 71.7746 35.5156 71.7746 34.7448C71.7746 33.974 71.1498 33.3492 70.379 33.3492ZM27.7002 6.67318L34.272 2.79132H37.5029L44.0745 6.67318V6.87093H27.7002V6.67318ZM18.4291 9.66225H53.3455V18.9837H18.4291V9.66225ZM10.9016 21.7751H60.873V26.1664H10.9016V21.7751ZM7.43049 28.9578H64.3439V33.3492H7.43049V28.9578ZM6.88554 97.2087V72.789H21.721V97.2087H6.88554ZM21.721 69.9976H6.88554V60.7648H21.721V69.9976ZM45.9056 45.8497C43.2306 43.1748 39.6728 41.7018 35.8873 41.7018C28.0759 41.7018 21.7207 48.0568 21.7207 55.8682V57.9735H6.88554V36.1411H64.8891V57.9735H50.0537V55.8682C50.0537 52.0825 48.5805 48.5247 45.9056 45.8497ZM64.8889 60.7648V69.9976H50.0535V60.7648H64.8889ZM50.0537 97.2087V72.789H64.8891V97.2087H50.0537Z" fill="var(--fill-0, black)"/>
<path id="Vector_2" d="M14.3038 42.5139C11.7583 42.5139 9.68737 44.5848 9.68737 47.1303C9.68737 49.6758 11.7583 51.7467 14.3038 51.7467C16.8492 51.7467 18.9202 49.6758 18.9202 47.1303C18.9202 44.5848 16.8492 42.5139 14.3038 42.5139ZM14.3038 48.9554C13.2974 48.9554 12.4787 48.1367 12.4787 47.1303C12.4787 46.1239 13.2974 45.3052 14.3038 45.3052C15.3102 45.3052 16.1289 46.1239 16.1289 47.1303C16.1289 48.1367 15.3099 48.9554 14.3038 48.9554Z" fill="var(--fill-0, black)"/>
<path id="Vector_3" d="M22.3913 10.8876C20.4971 10.8876 18.956 12.4287 18.956 14.3229C18.956 16.2171 20.4971 17.7581 22.3913 17.7581C24.2855 17.7581 25.8266 16.2171 25.8266 14.3229C25.8266 12.4287 24.2855 10.8876 22.3913 10.8876ZM22.3913 14.9668C22.0364 14.9668 21.7474 14.678 21.7474 14.3229C21.7474 13.9678 22.0364 13.679 22.3913 13.679C22.7462 13.679 23.0352 13.9678 23.0352 14.3229C23.0352 14.678 22.7462 14.9668 22.3913 14.9668Z" fill="var(--fill-0, black)"/>
<path id="Vector_4" d="M49.3836 10.8876C47.4893 10.8876 45.9483 12.4287 45.9483 14.3229C45.9483 16.2171 47.4893 17.7581 49.3836 17.7581C51.2778 17.7581 52.8188 16.2171 52.8188 14.3229C52.8188 12.4287 51.2778 10.8876 49.3836 10.8876ZM49.3836 14.9668C49.0286 14.9668 48.7396 14.678 48.7396 14.3229C48.7396 13.9678 49.0286 13.679 49.3836 13.679C49.7385 13.679 50.0275 13.9678 50.0275 14.3229C50.0275 14.678 49.7385 14.9668 49.3836 14.9668Z" fill="var(--fill-0, black)"/>
<path id="Vector_5" d="M57.4708 51.7467C60.0163 51.7467 62.0873 49.6758 62.0873 47.1303C62.0873 44.5848 60.0163 42.5139 57.4708 42.5139C54.9254 42.5139 52.8544 44.5848 52.8544 47.1303C52.8544 49.6758 54.9252 51.7467 57.4708 51.7467ZM57.4708 45.3052C58.4772 45.3052 59.2959 46.1239 59.2959 47.1303C59.2959 48.1367 58.4772 48.9554 57.4708 48.9554C56.4645 48.9554 55.6458 48.1367 55.6458 47.1303C55.6458 46.1239 56.4645 45.3052 57.4708 45.3052Z" fill="var(--fill-0, black)"/>
</g>
</svg>
