<svg preserveAspectRatio="none" width="100%" height="100%" overflow="visible" style="display: block;" viewBox="0 0 100 60" fill="none" xmlns="http://www.w3.org/2000/svg">
<g id="Group">
<path id="Vector" d="M8.06457 20.9678H4.83867V48.3874H8.06457V20.9678Z" fill="var(--fill-0, black)"/>
<path id="Vector_2" d="M8.06457 14.5164H4.83867V17.7423H8.06457V14.5164Z" fill="var(--fill-0, black)"/>
<path id="Vector_3" d="M54.8385 6.45142H45.1611V9.67731H54.8385V6.45142Z" fill="var(--fill-0, black)"/>
<path id="Vector_4" d="M93.5485 8.06422V1.61277H72.5807V6.45144H66.129V0H33.871V6.45179H27.4196V1.61277H6.45179V8.06491H0V59.6779H11.2905H12.9032H33.871H35.4838H64.5162H66.129H87.0968H88.7095H100V8.06422H93.5485ZM27.4196 9.67769H33.871V12.9036H27.4196V9.67769ZM9.67769 56.452H3.2259V11.2905H6.45179H9.67769V56.452ZM9.67734 8.06422V4.83832H24.1934V12.9029H12.9032V8.06422H9.67734ZM12.9029 49.9998V24.1933H33.8707V49.9998H32.2579V29.032H29.0324V49.9998H25.8065V29.032H22.5806V49.9998H19.3547V29.032H16.1288V49.9998H12.9029ZM33.871 56.452H12.9032V53.2261H33.871V56.452ZM33.871 20.9678H12.9032V16.1291H33.871V20.9678ZM62.9034 56.452H37.0969V53.2261H62.9034V56.452ZM48.3874 33.871V50.0002H45.1615V30.6451H54.8388V50.0002H51.6129V33.871H48.3874ZM54.8385 27.4196H51.6129V20.9678H48.387V27.4196H45.1612V22.5809C45.1612 19.8649 48.1805 17.4665 49.99 16.3682C51.4899 17.2876 54.8385 19.6664 54.8385 22.5809V27.4196ZM62.9034 49.9998H58.0647V22.5802C58.0647 16.8109 51.0213 13.2237 50.7211 13.072L50.0002 12.7124L49.2792 13.0738C48.979 13.2244 41.9356 16.8109 41.9356 22.5806V50.0002H37.0969V3.22555H62.9034V49.9998ZM66.129 9.67769H72.5807V12.9036H66.129V9.67769ZM66.129 24.1933H87.0968V49.9998H83.8712V35.4838H80.6453V49.9998H77.4194V29.032H74.1935V49.9998H70.9676V29.032H67.7417V49.9998H66.129V24.1933ZM87.0971 56.452H66.1293V53.2261H87.0971V56.452ZM87.0971 20.9678H66.1293V16.1291H87.0971V20.9678ZM87.0971 8.06422V12.9029H75.8066V4.83867H90.323V8.06456L87.0971 8.06422ZM90.3227 56.452V11.2905H93.5485H96.7744V56.452H90.3227Z" fill="var(--fill-0, black)"/>
<path id="Vector_5" d="M95.1617 20.9678H91.9358V48.3874H95.1617V20.9678Z" fill="var(--fill-0, black)"/>
<path id="Vector_6" d="M95.1617 14.5164H91.9358V17.7423H95.1617V14.5164Z" fill="var(--fill-0, black)"/>
<path id="Vector_7" d="M83.8712 29.032H80.6453V32.2579H83.8712V29.032Z" fill="var(--fill-0, black)"/>
</g>
</svg>
